<?xml version="1.0" encoding="utf-8"?>
<!-- Generator: Adobe Illustrator 24.1.2, SVG Export Plug-In . SVG Version: 6.00 Build 0)  -->
<svg version="1.1" id="Capa_1" xmlns="http://www.w3.org/2000/svg" xmlns:xlink="http://www.w3.org/1999/xlink" x="0px" y="0px"
	 viewBox="0 0 1080 1920" style="enable-background:new 0 0 1080 1920;" xml:space="preserve">
<style type="text/css">
	.st0{fill:#F2930A;}
	.st1{clip-path:url(#SVGID_2_);}
	.st2{fill:#0F0938;}
	.st3{clip-path:url(#SVGID_4_);fill:#E51A29;}
	.st4{fill:#B3C125;}
	.st5{clip-path:url(#SVGID_6_);fill:#E03238;}
	.st6{clip-path:url(#SVGID_8_);}
	.st7{fill:#7E8E3A;}
	.st8{fill:#3B848C;}
	.st9{fill:#190C47;}
	.st10{fill:#FFFFFF;}
</style>
<g>
	<rect x="-4.72" y="-8.4" class="st0" width="1089.45" height="1936.8"/>
	<g>
		<defs>
			<rect id="SVGID_1_" x="-4.72" y="-8.4" width="1089.45" height="1252.45"/>
		</defs>
		<clipPath id="SVGID_2_">
			<use xlink:href="#SVGID_1_"  style="overflow:visible;"/>
		</clipPath>
		<g class="st1">
			<polygon class="st2" points="-54.54,-14.32 -54.54,498.89 252.42,743.63 728.79,241.9 659.09,128.99 798.38,43.77 881.86,-14.32 
							"/>
			<g>
				<defs>
					<rect id="SVGID_3_" x="-4.72" y="-8.4" width="1588.71" height="1252.45"/>
				</defs>
				<clipPath id="SVGID_4_">
					<use xlink:href="#SVGID_3_"  style="overflow:visible;"/>
				</clipPath>
				<path class="st3" d="M-374.12,713.5c25.27,27.55,64.28,39.49,89.37,66.85c-20.59,19.97-150.18,141.9-169.62,160.36
					c-110.93,105.32-221.61,210.91-333.28,315.41c-16.49,15.43-22.79,31.04-22.08,53.29c1.44,45.66,0.43,91.4,0.43,145.28
					c12.82-11.41,21.51-18.72,29.74-26.53c223.56-212.14,447.1-424.31,670.59-636.54c45.01-42.74,61.26-43.33,109.21-2.72
					c79.45,67.3,158.81,134.71,238.27,202.01c8.53,7.22,17.46,13.96,27.1,21.63c112.75-124.18,224.09-246.75,335.37-369.37
					c88.44-97.45,176.78-195,265.26-292.41c33.36-36.73,52.64-39.22,93.5-12.47c21.71,14.21,43.21,28.76,64.94,42.94
					c1.51,0.98,4.17,0.13,10.27,0.13c11.9-120.76,23.82-241.74,36.32-368.5c-117.22,35.64-230.23,70-350.76,106.65
					c23.52,16.61,41.61,28.9,59.19,41.91c34.98,25.88,40.18,57.98,11.71,90.31c-158.97,180.55-318.39,360.7-478.23,540.46
					c-27.19,30.58-53.74,29.75-88.36,0.49c-91.6-77.38-183.01-154.99-276.41-234.13c-84.58,80.06-168.3,159.29-254.5,240.89
					c-24.67-26.86-48.03-52.29-73.41-79.92c35.69-34.02,69.93-66.74,104.25-99.37c55.85-53.08,111.8-106.05,167.63-159.15
					c43.08-40.97,60.21-41.57,106.66-2.33c78.68,66.46,157.16,133.15,235.77,199.7c9.34,7.91,18.94,15.5,30.15,24.64
					C401.71,528.41,536.73,375.78,673.4,221.26c-35.47-24.14-67.85-46.69-100.77-68.37c-21.39-14.08-36.12-31.86-32.22-59.06
					c4.08-28.5,23.57-41.09,49.62-48.95C761.05-6.77,931.72-59.58,1102.63-111.59c58-17.65,89.09,9.48,82.93,70.99
					c-17.32,172.8-34.57,345.61-51.86,518.41c-5.88,58.79-45.48,78.35-94.48,46.11c-37.51-24.68-74.44-50.28-113.39-76.67
					C869.37,509.3,814.46,569.51,759.7,629.87C614.1,790.35,468.56,950.89,322.99,1111.4c-37.67,41.54-59.98,42.88-102.97,6.46
					c-89.78-76.05-179.58-152.06-271.53-229.9c-42.54,40.12-84.49,79.46-126.2,119.05c-211.2,200.47-422.39,400.95-633.41,601.61
					c-20.4,19.4-40.75,37.39-71.31,24.86c-31.81-13.04-35.22-40.34-35.02-70.74c0.66-98.33-0.74-196.69,1.11-294.98
					c0.35-18.84,6.56-43.17,19.1-55.31C-756.43,1076.15-519.55,851.59-374.12,713.5z"/>
			</g>
		</g>
	</g>
	<rect x="406.91" y="1506.68" class="st4" width="677.82" height="421.73"/>
	<g>
		<defs>
			<rect id="SVGID_5_" x="-4.72" y="732.56" width="738.22" height="1195.84"/>
		</defs>
		<clipPath id="SVGID_6_">
			<use xlink:href="#SVGID_5_"  style="overflow:visible;"/>
		</clipPath>
		<path class="st5" d="M384.27,1661.87c0,174.63-0.13,349.26,0.21,523.89c0.04,17.97-2.51,34.97-10.5,50.75
			c-8.1,16-20.4,28.35-35.49,37.96c-17.01,10.82-35.44,12.64-55.02,11.81c-20.99-0.89-38.18-10.05-53.82-22.62
			c-11.35-9.13-21.46-19.88-31.87-30.17c-11.1-10.98-21.9-22.28-32.83-33.45c-12.99-13.28-25.91-26.64-38.99-39.82
			c-9.93-10-20.16-19.7-30.09-29.69c-12.43-12.5-24.62-25.24-37.07-37.73c-7.47-7.5-15.28-14.65-22.84-22.07
			c-6.39-6.26-12.64-12.67-18.94-19.01c-11.9-11.99-23.86-23.92-35.69-35.98c-11.36-11.58-22.57-23.31-33.89-34.92
			c-5.36-5.49-10.86-10.83-16.25-16.29c-13.14-13.31-26.17-26.73-39.4-39.95c-15.76-15.76-31.79-31.24-47.5-47.05
			c-11.65-11.72-22.84-23.92-34.48-35.64c-11.22-11.31-22.82-22.23-34.15-33.43c-5.67-5.6-11.04-11.5-16.66-17.15
			c-13.54-13.6-27.19-27.08-40.71-40.7c-11.27-11.35-22.38-22.87-33.62-34.25c-10.79-10.92-21.67-21.74-32.47-32.65
			c-11.93-12.04-23.75-24.19-35.74-36.17c-11.79-11.78-23.77-23.37-35.58-35.13c-10.68-10.62-21.24-21.36-31.86-32.05
			c-17.31-17.43-34.63-34.84-51.91-52.3c-13.2-13.34-26.34-26.74-39.51-40.11c-18.31-18.59-36.62-37.18-54.95-55.76
			c-19.94-20.21-39.83-40.47-59.9-60.56c-12.88-12.89-26.16-25.37-39.03-38.26c-13.35-13.36-26.35-27.08-39.65-40.51
			c-25.73-25.97-51.52-51.88-77.35-77.76c-13.61-13.64-26.25-28.4-32.61-46.72c-4.05-11.66-5.02-24.79-5.36-37.31
			c-0.57-20.86,6.01-40.03,18.97-56.24c15.44-19.3,34.57-33.27,59.74-36.13c12.04-1.36,24.2-2.33,36.31-2.34
			c339.38-0.12,678.75-0.09,1018.13-0.14c13.51,0,26.75,1.33,39.75,5.21c15.07,4.5,27.42,13.32,37.99,24.72
			c17.12,18.45,24.73,40.61,24.71,65.95C384.2,1308.71,384.26,1485.29,384.27,1661.87z"/>
	</g>
	<g>
		<defs>
			<rect id="SVGID_7_" x="405.83" y="1506.01" width="678.89" height="422.39"/>
		</defs>
		<clipPath id="SVGID_8_">
			<use xlink:href="#SVGID_7_"  style="overflow:visible;"/>
		</clipPath>
		<g class="st6">
			<path class="st0" d="M724.8,1740.02c12.1-84.74,44.77-165.98,92.88-234.01H697.56c-43.27,79.51-71.31,166.87-81.23,256.23
				c-6.13,55.19-4.67,111.24,3.25,166.17h113.36C718.8,1868.44,715.7,1803.66,724.8,1740.02z"/>
			<path class="st0" d="M575.44,1928.4c-7.64-56.66-8.91-114.34-2.6-171.15c9.69-87.15,35.47-172.5,75.09-251.24H535.88
				c-38.07,87.16-62.55,179.16-71.39,272.4c-1.85,19.18-2.95,38.46-3.44,57.79v41.63c0.39,16.05,1.25,32.1,2.55,48.13
				c1.51,1.5,3.57,2.44,5.85,2.44H575.44z"/>
			<path class="st0" d="M768.11,1746.41c-8.83,61.83-5.24,124.72,9.81,181.99h145.67c-26.87-11.99-45.63-38.43-53.38-76.65
				c-7.37-36.28-4.92-82.61,6.89-130.48c11.69-47.46,31.48-92.06,55.68-125.56c29.23-40.44,63.59-63.11,99.35-65.57
				c27.12-1.97,49.74,6.97,65.09,25.62c32.29,39.19,23.98,109.14,11.33,160.91c-10.56,43.2-28.42,89.59-49,127.31
				c-23.46,43.03-47.27,70.57-70.76,81.85c-2.04,0.98-4.01,1.74-6,2.57h138.54c23.75-51.05,44.37-102.52,60.18-151.81
				c27.28-84.98,40.83-159.36,40.26-221.07c-0.17-17.99-2.36-34.39-6.14-49.51H873.01C818.04,1572.89,780.81,1657.5,768.11,1746.41z
				"/>
			<path class="st7" d="M1508.87,1514.54c0-4.71-3.76-8.54-8.4-8.54h-85.18c-0.11,2.33-0.03,4.52-0.18,6.87
				c-6.46,105.4-31.7,219.97-77.17,350.23c-7.48,21.45-15.65,43.27-24.21,65.29h94.96c1.01-2.74,2.11-5.54,3.1-8.27
				c46.97-129.17,78.87-248.09,97.08-360.98V1514.54z"/>
			<path class="st0" d="M461.05,1514.54v65.26c7.97-24.89,16.98-49.52,27.01-73.8h-18.61
				C464.81,1506.01,461.05,1509.83,461.05,1514.54z"/>
			<path class="st0" d="M1021.28,1822.39c18.78-34.43,35.12-76.88,44.79-116.46c14.01-57.31,13.12-102.76-2.4-121.6
				c-3.91-4.75-11.14-11.05-28.63-9.78c-28.38,1.94-52.09,26.91-66.99,47.51c-20.92,28.95-38.15,68.03-48.51,110.03
				c-10.23,41.51-12.54,80.82-6.48,110.67c5.67,27.93,17.73,43.93,35.83,47.56c5.25,1.02,12.43-0.54,21.22-4.75
				C981.05,1880.33,1000.23,1860.97,1021.28,1822.39z"/>
			<path class="st7" d="M1508.87,1919.86v-158.42c-15.02,53.97-32.81,109.5-53.52,166.96h45.13
				C1505.11,1928.4,1508.87,1924.57,1508.87,1919.86z"/>
			<path class="st7" d="M1371.43,1510.1c0.08-1.33,0.13-2.74,0.2-4.1h-111c3.07,15.45,4.75,31.83,4.91,49.09
				c0.61,66.54-13.66,145.71-42.42,235.3c-14.4,44.9-32.76,91.51-53.6,138h97.17c10.82-27.15,20.84-53.9,30.01-80.18
				C1340.78,1721.9,1365.23,1611.3,1371.43,1510.1z"/>
		</g>
	</g>
	<g>
		<path class="st8" d="M428.07,1258.4l-98.27,0c-2.4,0-4.74,0.99-6.45,2.72c-1.68,1.71-2.64,4.1-2.64,6.53v25.74h121.2l-4.9-27.4
			C436.22,1261.6,432.45,1258.4,428.07,1258.4z"/>
		<polygon class="st8" points="321.15,1627.17 492.67,1627.17 442.19,1345.98 321.15,1345.98 		"/>
		<path class="st9" d="M502.78,1634.84c-0.76-4.43-4.52-7.67-8.95-7.67H318.4l-323.12-250.1v551.33h557.74L502.78,1634.84z
			 M197.13,1702.89c0,2.14-0.82,4.14-2.3,5.66c-1.49,1.51-3.46,2.34-5.58,2.34H71.33c-2.08,0-4.12-0.85-5.56-2.34
			c-1.49-1.49-2.33-3.54-2.33-5.66v-35.26c0-2.1,0.84-4.17,2.33-5.66c1.44-1.47,3.48-2.34,5.56-2.34h117.92
			c2.12,0,4.09,0.85,5.58,2.36c1.48,1.49,2.3,3.52,2.3,5.64V1702.89z"/>
	</g>
	<g>
		<g>
			<path class="st10" d="M501.08,341.11c-1.5,0-2.65-0.43-3.46-1.29c-0.81-0.86-1.21-2.07-1.21-3.63V303.7
				c0-1.6,0.43-2.82,1.29-3.66c0.86-0.84,2.08-1.26,3.65-1.26c1.27,0,2.31,0.26,3.09,0.79c0.79,0.53,1.5,1.4,2.14,2.6l11.07,20.78
				l11.07-20.78c0.67-1.21,1.4-2.08,2.16-2.6c0.77-0.53,1.81-0.79,3.12-0.79c1.46,0,2.6,0.42,3.43,1.26
				c0.82,0.84,1.24,2.06,1.24,3.66v32.48c0,1.56-0.39,2.77-1.18,3.63c-0.79,0.86-1.95,1.29-3.49,1.29c-1.5,0-2.65-0.43-3.46-1.29
				c-0.81-0.86-1.21-2.07-1.21-3.63v-18.03l-7.87,14.28c-0.53,0.86-1.08,1.5-1.66,1.93c-0.58,0.43-1.36,0.64-2.33,0.64
				c-0.94,0-1.71-0.21-2.3-0.64c-0.6-0.43-1.14-1.07-1.63-1.93l-7.81-14.05v17.79c0,1.56-0.39,2.77-1.18,3.63
				C503.77,340.68,502.61,341.11,501.08,341.11z"/>
			<path class="st10" d="M551.39,340.58c-3.6,0-5.4-1.85-5.4-5.56v-30.14c0-3.71,1.8-5.56,5.4-5.56h19.06c2.7,0,4.05,1.37,4.05,4.1
				c0,2.81-1.35,4.21-4.05,4.21h-14.56v7.84h13.32c2.7,0,4.05,1.39,4.05,4.16c0,2.77-1.35,4.16-4.05,4.16h-13.32v8.49h14.56
				c2.7,0,4.05,1.38,4.05,4.15c0,2.77-1.35,4.16-4.05,4.16H551.39z"/>
			<path class="st10" d="M581.86,341.05c-1.5,0.08-2.65-0.32-3.46-1.2c-0.81-0.88-1.21-2-1.21-3.37c0-1.05,0.28-1.97,0.84-2.75
				c0.56-0.78,1.41-1.21,2.53-1.29l1.57-0.12c1.39-0.08,2.39-0.42,3.01-1.03c0.62-0.6,0.93-1.61,0.93-3.01v-24.06
				c0-1.76,0.45-3.1,1.35-4.04c0.9-0.94,2.17-1.4,3.82-1.4c1.65,0,2.92,0.47,3.82,1.4c0.9,0.94,1.35,2.28,1.35,4.04v23.88
				c0,8.04-4.18,12.31-12.54,12.82L581.86,341.05z"/>
			<path class="st10" d="M622.67,341.22c-4.01,0-7.52-0.89-10.54-2.66c-3.02-1.78-5.37-4.26-7.06-7.46
				c-1.69-3.2-2.53-6.93-2.53-11.18c0-4.29,0.83-8.03,2.5-11.21c1.67-3.18,4.02-5.65,7.05-7.4c3.04-1.76,6.56-2.63,10.57-2.63
				c4.01,0,7.52,0.88,10.54,2.63c3.02,1.76,5.37,4.22,7.06,7.4c1.69,3.18,2.53,6.92,2.53,11.21c0,4.25-0.84,7.98-2.53,11.18
				c-1.69,3.2-4.04,5.69-7.06,7.46C630.2,340.34,626.68,341.22,622.67,341.22z M622.67,332.21c2.92,0,5.22-1.08,6.89-3.25
				c1.67-2.17,2.5-5.18,2.5-9.04c0-3.86-0.83-6.87-2.47-9.01c-1.65-2.15-3.95-3.22-6.92-3.22c-2.96,0-5.27,1.07-6.91,3.22
				c-1.65,2.15-2.47,5.15-2.47,9.01c0,3.86,0.82,6.88,2.47,9.04C617.41,331.13,619.71,332.21,622.67,332.21z"/>
			<path class="st10" d="M654.1,341.11c-1.65,0-2.92-0.47-3.82-1.4c-0.9-0.94-1.35-2.28-1.35-4.04v-30.9c0-1.76,0.45-3.1,1.35-4.04
				c0.9-0.94,2.19-1.4,3.88-1.4h13.83c4.5,0,7.97,1.14,10.43,3.42c2.45,2.28,3.68,5.45,3.68,9.51c0,3.08-0.74,5.67-2.22,7.76
				c-1.48,2.09-3.63,3.54-6.44,4.36c2.1,0.59,3.79,2.09,5.06,4.51l2.81,5.27c0.6,1.17,0.87,2.28,0.81,3.34
				c-0.06,1.05-0.46,1.92-1.21,2.6c-0.75,0.68-1.86,1.03-3.32,1.03c-1.46,0-2.65-0.3-3.57-0.91c-0.92-0.6-1.73-1.59-2.45-2.96
				l-5.12-9.77c-0.45-0.86-1.02-1.45-1.71-1.78c-0.69-0.33-1.49-0.5-2.39-0.5h-3.09v10.48c0,1.76-0.44,3.1-1.32,4.04
				C657.07,340.64,655.79,341.11,654.1,341.11z M659.27,317.58h6.86c4.08,0,6.13-1.68,6.13-5.03c0-3.32-2.04-4.97-6.13-4.97h-6.86
				V317.58z"/>
			<path class="st10" d="M501.47,392.14c-1.65,0-2.92-0.47-3.82-1.4c-0.9-0.94-1.35-2.28-1.35-4.04v-30.9c0-1.76,0.45-3.1,1.35-4.04
				c0.9-0.94,2.19-1.4,3.88-1.4h13.83c4.5,0,7.97,1.14,10.43,3.42c2.45,2.28,3.68,5.45,3.68,9.51c0,3.08-0.74,5.67-2.22,7.76
				c-1.48,2.09-3.63,3.54-6.44,4.36c2.1,0.59,3.79,2.09,5.06,4.51l2.81,5.27c0.6,1.17,0.87,2.28,0.81,3.34
				c-0.06,1.05-0.46,1.92-1.21,2.6c-0.75,0.68-1.86,1.03-3.32,1.03c-1.46,0-2.65-0.3-3.57-0.91c-0.92-0.6-1.73-1.59-2.45-2.96
				l-5.12-9.77c-0.45-0.86-1.02-1.45-1.71-1.78c-0.69-0.33-1.49-0.5-2.39-0.5h-3.09v10.48c0,1.76-0.44,3.1-1.32,4.04
				C504.44,391.67,503.16,392.14,501.47,392.14z M506.64,368.61h6.86c4.08,0,6.13-1.68,6.13-5.03c0-3.32-2.04-4.98-6.13-4.98h-6.86
				V368.61z"/>
			<path class="st10" d="M541.16,392.14c-1.65,0-2.92-0.47-3.82-1.4c-0.9-0.94-1.35-2.3-1.35-4.1v-31.31c0-1.79,0.45-3.16,1.35-4.1
				c0.9-0.94,2.17-1.4,3.82-1.4c1.65,0,2.92,0.47,3.82,1.4c0.9,0.94,1.35,2.3,1.35,4.1v31.31c0,1.8-0.44,3.16-1.32,4.1
				C544.13,391.67,542.84,392.14,541.16,392.14z"/>
			<path class="st10" d="M572.64,392.26c-4.01,0-7.52-0.89-10.54-2.66c-3.02-1.78-5.37-4.26-7.06-7.46
				c-1.69-3.2-2.53-6.93-2.53-11.18c0-4.29,0.83-8.03,2.5-11.21c1.67-3.18,4.02-5.65,7.06-7.4c3.04-1.76,6.56-2.63,10.57-2.63
				c4.01,0,7.52,0.88,10.54,2.63c3.02,1.76,5.37,4.23,7.06,7.4c1.69,3.18,2.53,6.92,2.53,11.21c0,4.25-0.84,7.98-2.53,11.18
				c-1.69,3.2-4.04,5.69-7.06,7.46C580.16,391.37,576.65,392.26,572.64,392.26z M572.64,383.25c2.92,0,5.22-1.08,6.89-3.25
				c1.67-2.17,2.5-5.18,2.5-9.04c0-3.86-0.83-6.87-2.47-9.01c-1.65-2.14-3.95-3.22-6.92-3.22c-2.96,0-5.27,1.07-6.91,3.22
				c-1.65,2.15-2.47,5.15-2.47,9.01c0,3.86,0.82,6.88,2.47,9.04S569.68,383.25,572.64,383.25z"/>
			<path class="st10" d="M597.21,392.08c-1.5,0.08-2.65-0.32-3.46-1.2s-1.21-2-1.21-3.37c0-1.05,0.28-1.97,0.84-2.75
				s1.41-1.21,2.53-1.29l1.57-0.12c1.39-0.08,2.39-0.42,3.01-1.03c0.62-0.6,0.93-1.61,0.93-3.01v-24.06c0-1.76,0.45-3.1,1.35-4.04
				c0.9-0.94,2.17-1.4,3.82-1.4c1.65,0,2.92,0.47,3.82,1.4c0.9,0.94,1.35,2.28,1.35,4.04v23.88c0,8.04-4.18,12.31-12.54,12.82
				L597.21,392.08z"/>
			<path class="st10" d="M620.76,392.14c-1.76,0-3.06-0.62-3.88-1.87c-0.82-1.25-0.82-2.81,0-4.68l14-31.37
				c0.68-1.52,1.5-2.63,2.47-3.34c0.97-0.7,2.12-1.05,3.43-1.05c1.27,0,2.4,0.35,3.37,1.05c0.97,0.7,1.8,1.82,2.47,3.34l14,31.37
				c0.86,1.91,0.9,3.48,0.11,4.71c-0.79,1.23-2.02,1.84-3.71,1.84c-1.5,0-2.65-0.35-3.46-1.05c-0.81-0.7-1.53-1.83-2.16-3.39
				l-1.8-4.45H627.9l-1.8,4.45c-0.67,1.56-1.37,2.69-2.08,3.39C623.31,391.79,622.22,392.14,620.76,392.14z M636.67,361.59
				l-5.4,13.4h10.91l-5.4-13.4H636.67z"/>
			<path class="st10" d="M666.63,392.14c-3.22,0-4.83-1.7-4.83-5.09v-31.9c0-1.72,0.41-3.03,1.24-3.95
				c0.82-0.92,1.91-1.38,3.26-1.38c1.2,0,2.13,0.23,2.78,0.7c0.66,0.47,1.41,1.25,2.28,2.34L687.6,374v-19.14
				c0-3.36,1.59-5.03,4.78-5.03c1.57,0,2.76,0.44,3.57,1.32c0.81,0.88,1.21,2.12,1.21,3.72v32.43c0,1.48-0.37,2.66-1.12,3.54
				c-0.75,0.88-1.76,1.32-3.04,1.32s-2.28-0.24-3.01-0.7c-0.73-0.47-1.51-1.25-2.33-2.34l-16.25-21.13v19.08
				C671.41,390.44,669.82,392.14,666.63,392.14z"/>
			<path class="st10" d="M706.27,392.14c-1.76,0-3.06-0.62-3.88-1.87c-0.82-1.25-0.82-2.81,0-4.68l14-31.37
				c0.68-1.52,1.5-2.63,2.47-3.34c0.97-0.7,2.12-1.05,3.43-1.05c1.27,0,2.4,0.35,3.37,1.05c0.97,0.7,1.8,1.82,2.47,3.34l14,31.37
				c0.86,1.91,0.9,3.48,0.11,4.71c-0.79,1.23-2.02,1.84-3.71,1.84c-1.5,0-2.65-0.35-3.46-1.05c-0.81-0.7-1.53-1.83-2.16-3.39
				l-1.8-4.45h-17.71l-1.8,4.45c-0.67,1.56-1.37,2.69-2.08,3.39C708.82,391.79,707.73,392.14,706.27,392.14z M722.18,361.59
				l-5.4,13.4h10.91l-5.4-13.4H722.18"/>
			<path class="st10" d="M761.53,392.26c-2.29,0-4.64-0.24-7.06-0.73c-2.42-0.49-4.49-1.18-6.21-2.08
				c-1.01-0.51-1.72-1.19-2.14-2.05c-0.41-0.86-0.56-1.75-0.45-2.66c0.11-0.92,0.43-1.74,0.96-2.46c0.52-0.72,1.22-1.21,2.08-1.46
				c0.86-0.25,1.84-0.13,2.92,0.38c1.42,0.74,3.04,1.3,4.84,1.67c1.8,0.37,3.48,0.56,5.06,0.56c2.47,0,4.21-0.34,5.2-1.03
				c0.99-0.68,1.49-1.53,1.49-2.55c0-0.9-0.35-1.62-1.04-2.17c-0.69-0.55-1.92-1.01-3.68-1.4l-6.58-1.46
				c-7.12-1.6-10.68-5.48-10.68-11.65c0-2.69,0.7-5.05,2.11-7.08c1.41-2.03,3.36-3.6,5.87-4.71c2.51-1.11,5.43-1.67,8.77-1.67
				c1.95,0,3.92,0.22,5.93,0.67c2,0.45,3.74,1.12,5.2,2.02c1.12,0.63,1.84,1.47,2.14,2.55c0.3,1.07,0.26,2.12-0.11,3.13
				c-0.37,1.02-1.04,1.76-2,2.22c-0.96,0.47-2.16,0.39-3.63-0.23c-1.12-0.51-2.36-0.89-3.71-1.14c-1.35-0.25-2.66-0.38-3.93-0.38
				c-2.1,0-3.71,0.38-4.83,1.14c-1.12,0.76-1.69,1.75-1.69,2.96c0,0.86,0.34,1.56,1.01,2.11c0.67,0.55,1.87,1.02,3.6,1.4l6.52,1.46
				c7.23,1.6,10.85,5.39,10.85,11.36c0,2.69-0.69,5.03-2.08,7.02c-1.39,1.99-3.34,3.53-5.85,4.62
				C767.9,391.71,764.94,392.26,761.53,392.26z"/>
		</g>
		<g>
			<path class="st10" d="M507.34,420.81v2.15h-11.1V407.9h10.82v2.12h-8.29v4.24h7.38v2.09h-7.38v4.45H507.34z"/>
			<path class="st10" d="M526.45,422.95l-0.03-10.44l-5.11,8.64h-1.17l-5.11-8.4v10.2h-2.42V407.9h2.16l6,10.12l5.89-10.12h2.19
				l0.03,15.06H526.45z"/>
			<path class="st10" d="M546.13,409.3c1.13,0.94,1.69,2.23,1.69,3.9c0,1.68-0.57,2.99-1.69,3.92c-1.13,0.94-2.68,1.4-4.64,1.4
				h-3.52v4.43h-2.53V407.9h6.05C543.45,407.9,545,408.37,546.13,409.3z M544.26,415.56c0.67-0.55,1-1.33,1-2.36s-0.33-1.81-1-2.36
				c-0.67-0.55-1.65-0.82-2.93-0.82h-3.36v6.36h3.36C542.62,416.38,543.6,416.11,544.26,415.56z"/>
			<path class="st10" d="M563.1,422.95l-3.18-4.51c-0.14,0.02-0.36,0.03-0.68,0.03h-3.52v4.48h-2.53V407.9h6.05
				c1.96,0,3.51,0.47,4.64,1.4s1.69,2.23,1.69,3.9c0,1.15-0.28,2.13-0.85,2.94c-0.57,0.81-1.37,1.42-2.41,1.83l3.52,4.98H563.1z
				 M562.02,415.56c0.67-0.55,1-1.33,1-2.36s-0.33-1.81-1-2.36c-0.67-0.55-1.65-0.82-2.93-0.82h-3.36v6.36h3.36
				C560.37,416.38,561.35,416.11,562.02,415.56z"/>
			<path class="st10" d="M582.23,420.81v2.15h-11.1V407.9h10.82v2.12h-8.29v4.24h7.38v2.09h-7.38v4.45H582.23z"/>
			<path class="st10" d="M588.48,422.68c-1.09-0.33-1.93-0.76-2.54-1.31l0.99-2.01c0.59,0.49,1.33,0.89,2.23,1.19
				c0.89,0.3,1.82,0.45,2.78,0.45c1.17,0,2.02-0.2,2.57-0.58c0.55-0.39,0.82-0.89,0.82-1.51c0-0.48-0.16-0.87-0.48-1.17
				c-0.32-0.3-0.73-0.53-1.21-0.69c-0.49-0.16-1.15-0.33-1.98-0.5c-1.13-0.25-2.05-0.5-2.75-0.77c-0.7-0.27-1.3-0.69-1.8-1.26
				c-0.49-0.57-0.74-1.36-0.74-2.35c0-1.34,0.54-2.43,1.6-3.25c1.07-0.82,2.52-1.23,4.37-1.23c0.94,0,1.85,0.11,2.72,0.33
				c0.88,0.22,1.63,0.54,2.26,0.97l-0.91,2.07c-1.13-0.79-2.51-1.19-4.15-1.19c-1.13,0-1.97,0.2-2.53,0.6
				c-0.56,0.4-0.83,0.91-0.83,1.55c0,0.48,0.16,0.87,0.48,1.17c0.32,0.3,0.73,0.53,1.22,0.69c0.5,0.16,1.16,0.33,2,0.5
				c1.15,0.26,2.06,0.53,2.75,0.78c0.69,0.26,1.28,0.67,1.77,1.23c0.49,0.57,0.74,1.32,0.74,2.28c0,1.38-0.53,2.47-1.6,3.29
				c-1.07,0.81-2.54,1.22-4.42,1.22C590.68,423.17,589.56,423,588.48,422.68z"/>
			<path class="st10" d="M612.29,419.38h-7.95l-1.56,3.58h-2.48l6.78-15.06h2.5l6.8,15.06h-2.55L612.29,419.38z M611.4,417.33
				l-3.08-7.1l-3.1,7.1H611.4z"/>
			<path class="st10" d="M621.37,422.68c-1.09-0.33-1.93-0.76-2.54-1.31l0.99-2.01c0.59,0.49,1.33,0.89,2.23,1.19
				c0.89,0.3,1.82,0.45,2.78,0.45c1.17,0,2.02-0.2,2.57-0.58c0.55-0.39,0.82-0.89,0.82-1.51c0-0.48-0.16-0.87-0.48-1.17
				c-0.32-0.3-0.73-0.53-1.21-0.69c-0.49-0.16-1.15-0.33-1.98-0.5c-1.13-0.25-2.05-0.5-2.75-0.77c-0.7-0.27-1.3-0.69-1.8-1.26
				c-0.49-0.57-0.74-1.36-0.74-2.35c0-1.34,0.54-2.43,1.6-3.25c1.07-0.82,2.52-1.23,4.37-1.23c0.94,0,1.85,0.11,2.72,0.33
				c0.88,0.22,1.63,0.54,2.26,0.97l-0.91,2.07c-1.13-0.79-2.51-1.19-4.15-1.19c-1.13,0-1.97,0.2-2.53,0.6
				c-0.56,0.4-0.83,0.91-0.83,1.55c0,0.48,0.16,0.87,0.48,1.17c0.32,0.3,0.73,0.53,1.22,0.69c0.5,0.16,1.16,0.33,2,0.5
				c1.15,0.26,2.06,0.53,2.75,0.78c0.69,0.26,1.28,0.67,1.77,1.23c0.49,0.57,0.74,1.32,0.74,2.28c0,1.38-0.53,2.47-1.6,3.29
				c-1.07,0.81-2.54,1.22-4.42,1.22C623.58,423.17,622.46,423,621.37,422.68z"/>
			<path class="st10" d="M655.38,420.81v2.15h-11.1V407.9h10.82v2.12h-8.29v4.24h7.38v2.09h-7.38v4.45H655.38z"/>
			<path class="st10" d="M661.62,422.68c-1.09-0.33-1.93-0.76-2.54-1.31l0.99-2.01c0.59,0.49,1.33,0.89,2.23,1.19
				c0.89,0.3,1.82,0.45,2.78,0.45c1.17,0,2.02-0.2,2.57-0.58c0.55-0.39,0.82-0.89,0.82-1.51c0-0.48-0.16-0.87-0.48-1.17
				c-0.32-0.3-0.73-0.53-1.21-0.69c-0.49-0.16-1.15-0.33-1.98-0.5c-1.13-0.25-2.05-0.5-2.75-0.77c-0.7-0.27-1.3-0.69-1.8-1.26
				c-0.49-0.57-0.74-1.36-0.74-2.35c0-1.34,0.54-2.43,1.6-3.25c1.07-0.82,2.52-1.23,4.37-1.23c0.94,0,1.85,0.11,2.72,0.33
				c0.88,0.22,1.63,0.54,2.26,0.97l-0.91,2.07c-1.13-0.79-2.51-1.19-4.15-1.19c-1.13,0-1.97,0.2-2.53,0.6
				c-0.56,0.4-0.83,0.91-0.83,1.55c0,0.48,0.16,0.87,0.48,1.17c0.32,0.3,0.73,0.53,1.22,0.69c0.5,0.16,1.16,0.33,2,0.5
				c1.15,0.26,2.06,0.53,2.75,0.78c0.69,0.26,1.28,0.67,1.77,1.23c0.49,0.57,0.74,1.32,0.74,2.28c0,1.38-0.53,2.47-1.6,3.29
				c-1.07,0.81-2.54,1.22-4.42,1.22C663.83,423.17,662.71,423,661.62,422.68z"/>
			<path class="st10" d="M678.38,410.02h-5.06v-2.12h12.64v2.12h-5.06v12.94h-2.53V410.02z"/>
			<path class="st10" d="M698.63,419.38h-7.95l-1.56,3.58h-2.48l6.78-15.06h2.5l6.8,15.06h-2.55L698.63,419.38z M697.75,417.33
				l-3.08-7.1l-3.1,7.1H697.75z"/>
			<path class="st10" d="M708.46,410.02h-5.06v-2.12h12.64v2.12h-5.06v12.94h-2.53V410.02z"/>
			<path class="st10" d="M728.71,419.38h-7.95l-1.56,3.58h-2.48l6.78-15.06h2.5l6.8,15.06h-2.55L728.71,419.38z M727.83,417.33
				l-3.08-7.1l-3.1,7.1H727.83z"/>
			<path class="st10" d="M736.82,407.9h2.53v12.91h7.95v2.15h-10.48V407.9z"/>
			<path class="st10" d="M762.66,420.81v2.15h-11.1V407.9h10.82v2.12h-8.29v4.24h7.38v2.09h-7.38v4.45H762.66z"/>
			<path class="st10" d="M768.9,422.68c-1.09-0.33-1.93-0.76-2.54-1.31l0.99-2.01c0.59,0.49,1.33,0.89,2.23,1.19
				c0.89,0.3,1.82,0.45,2.78,0.45c1.17,0,2.02-0.2,2.57-0.58c0.55-0.39,0.82-0.89,0.82-1.51c0-0.48-0.16-0.87-0.48-1.17
				c-0.32-0.3-0.73-0.53-1.21-0.69c-0.49-0.16-1.15-0.33-1.98-0.5c-1.13-0.25-2.05-0.5-2.75-0.77c-0.7-0.27-1.3-0.69-1.8-1.26
				c-0.49-0.57-0.74-1.36-0.74-2.35c0-1.34,0.54-2.43,1.6-3.25c1.07-0.82,2.52-1.23,4.37-1.23c0.94,0,1.85,0.11,2.72,0.33
				c0.88,0.22,1.63,0.54,2.26,0.97l-0.91,2.07c-1.13-0.79-2.51-1.19-4.14-1.19c-1.13,0-1.97,0.2-2.53,0.6
				c-0.56,0.4-0.83,0.91-0.83,1.55c0,0.48,0.16,0.87,0.48,1.17c0.32,0.3,0.73,0.53,1.22,0.69c0.5,0.16,1.16,0.33,2,0.5
				c1.15,0.26,2.06,0.53,2.75,0.78c0.69,0.26,1.28,0.67,1.77,1.23c0.49,0.57,0.74,1.32,0.74,2.28c0,1.38-0.53,2.47-1.6,3.29
				c-1.07,0.81-2.54,1.22-4.42,1.22C771.1,423.17,769.99,423,768.9,422.68z"/>
		</g>
		<path class="st10" d="M406.91,260.25c1.07,1.17,2.72,1.67,3.79,2.83c-0.87,0.85-6.37,6.01-7.19,6.8
			c-4.7,4.46-9.39,8.94-14.13,13.37c-0.7,0.65-0.97,1.32-0.94,2.26c0.06,1.94,0.02,3.87,0.02,6.16c0.54-0.48,0.91-0.79,1.26-1.12
			c9.48-8.99,18.95-17.98,28.42-26.98c1.91-1.81,2.6-1.84,4.63-0.12c3.37,2.85,6.73,5.71,10.1,8.56c0.36,0.31,0.74,0.59,1.15,0.92
			c4.78-5.26,9.5-10.46,14.21-15.66c3.75-4.13,7.49-8.26,11.24-12.39c1.41-1.56,2.23-1.66,3.96-0.53c0.92,0.6,1.83,1.22,2.75,1.82
			c0.06,0.04,0.18,0.01,0.44,0.01c0.5-5.12,1.01-10.25,1.54-15.62c-4.97,1.51-9.76,2.97-14.87,4.52c1,0.7,1.76,1.23,2.51,1.78
			c1.48,1.1,1.7,2.46,0.5,3.83c-6.74,7.65-13.49,15.29-20.27,22.91c-1.15,1.3-2.28,1.26-3.75,0.02c-3.88-3.28-7.76-6.57-11.72-9.92
			c-3.58,3.39-7.13,6.75-10.79,10.21c-1.05-1.14-2.04-2.22-3.11-3.39c1.51-1.44,2.96-2.83,4.42-4.21c2.37-2.25,4.74-4.49,7.1-6.75
			c1.83-1.74,2.55-1.76,4.52-0.1c3.33,2.82,6.66,5.64,9.99,8.46c0.4,0.34,0.8,0.66,1.28,1.04c5.8-6.55,11.52-13.02,17.31-19.57
			c-1.5-1.02-2.88-1.98-4.27-2.9c-0.91-0.6-1.53-1.35-1.37-2.5c0.17-1.21,1-1.74,2.1-2.07c7.25-2.19,14.48-4.43,21.73-6.63
			c2.46-0.75,3.78,0.4,3.51,3.01c-0.73,7.32-1.47,14.65-2.2,21.97c-0.25,2.49-1.93,3.32-4,1.95c-1.59-1.05-3.16-2.13-4.81-3.25
			c-2.39,2.63-4.72,5.18-7.04,7.74c-6.17,6.8-12.34,13.61-18.51,20.41c-1.6,1.76-2.54,1.82-4.36,0.27
			c-3.81-3.22-7.61-6.44-11.51-9.74c-1.8,1.7-3.58,3.37-5.35,5.05c-8.95,8.5-17.9,16.99-26.85,25.5c-0.86,0.82-1.73,1.58-3.02,1.05
			c-1.35-0.55-1.49-1.71-1.48-3c0.03-4.17-0.03-8.34,0.05-12.5c0.02-0.8,0.28-1.83,0.81-2.34
			C390.71,275.62,400.75,266.1,406.91,260.25z"/>
		<path class="st10" d="M373.86,386.89c0,10.2-0.01,20.41,0.01,30.61c0,1.05-0.15,2.04-0.61,2.97c-0.47,0.94-1.19,1.66-2.07,2.22
			c-0.99,0.63-2.07,0.74-3.22,0.69c-1.23-0.05-2.23-0.59-3.14-1.32c-0.66-0.53-1.25-1.16-1.86-1.76c-0.65-0.64-1.28-1.3-1.92-1.95
			c-0.76-0.78-1.51-1.56-2.28-2.33c-0.58-0.58-1.18-1.15-1.76-1.73c-0.73-0.73-1.44-1.47-2.17-2.2c-0.44-0.44-0.89-0.86-1.33-1.29
			c-0.37-0.37-0.74-0.74-1.11-1.11c-0.7-0.7-1.39-1.4-2.09-2.1c-0.66-0.68-1.32-1.36-1.98-2.04c-0.31-0.32-0.63-0.63-0.95-0.95
			c-0.77-0.78-1.53-1.56-2.3-2.33c-0.92-0.92-1.86-1.83-2.78-2.75c-0.68-0.69-1.33-1.4-2.02-2.08c-0.66-0.66-1.33-1.3-2-1.95
			c-0.33-0.33-0.65-0.67-0.97-1c-0.79-0.79-1.59-1.58-2.38-2.38c-0.66-0.66-1.31-1.34-1.96-2c-0.63-0.64-1.27-1.27-1.9-1.91
			c-0.7-0.7-1.39-1.41-2.09-2.11c-0.69-0.69-1.39-1.37-2.08-2.05c-0.62-0.62-1.24-1.25-1.86-1.87c-1.01-1.02-2.02-2.04-3.03-3.06
			c-0.77-0.78-1.54-1.56-2.31-2.34c-1.07-1.09-2.14-2.17-3.21-3.26c-1.17-1.18-2.33-2.37-3.5-3.54c-0.75-0.75-1.53-1.48-2.28-2.24
			c-0.78-0.78-1.54-1.58-2.32-2.37c-1.5-1.52-3.01-3.03-4.52-4.54c-0.8-0.8-1.53-1.66-1.91-2.73c-0.24-0.68-0.29-1.45-0.31-2.18
			c-0.03-1.22,0.35-2.34,1.11-3.29c0.9-1.13,2.02-1.94,3.49-2.11c0.7-0.08,1.41-0.14,2.12-0.14c19.83-0.01,39.66-0.01,59.49-0.01
			c0.79,0,1.56,0.08,2.32,0.3c0.88,0.26,1.6,0.78,2.22,1.44c1,1.08,1.45,2.37,1.44,3.85C373.86,366.25,373.86,376.57,373.86,386.89z
			"/>
		<g>
			<g>
				<path class="st10" d="M438.24,350.37c-5.09,24.43-29.98,40.81-54.7,36.64v-11.8c18.19,4.03,37.59-6.57,43.48-24.84H438.24z"/>
				<path class="st10" d="M418.3,350.37c-4.3,10.66-15.11,18.06-26.54,18.1c-2.85,0.01-5.61-0.4-8.22-1.16v-12.48
					c5.43,2.97,12.15,2.95,18.45-1.48c1.2-0.85,2.28-1.85,3.21-2.97H418.3z"/>
			</g>
			<g>
				<ellipse class="st10" cx="386.51" cy="393.53" rx="1.9" ry="1.93"/>
				<ellipse class="st10" cx="386.6" cy="405.52" rx="2.63" ry="2.68"/>
				<path class="st10" d="M389.74,420.57c0,1.76-1.4,3.19-3.13,3.19c-1.73,0-3.13-1.43-3.13-3.19c0-1.76,1.4-3.19,3.13-3.19
					C388.34,417.38,389.74,418.81,389.74,420.57z"/>
			</g>
			<g>
				<path class="st10" d="M404.58,392.95c0.17,1.05-0.54,2.04-1.57,2.21c-1.03,0.17-2.01-0.55-2.17-1.6
					c-0.17-1.05,0.54-2.04,1.57-2.21C403.44,391.19,404.41,391.9,404.58,392.95z"/>
				<path class="st10" d="M407.27,404.66c0.23,1.46-0.75,2.83-2.18,3.07c-1.44,0.23-2.79-0.76-3.02-2.22
					c-0.23-1.46,0.75-2.83,2.18-3.07C405.68,402.21,407.04,403.2,407.27,404.66z"/>
				<ellipse class="st10" cx="407.02" cy="419.95" rx="3.13" ry="3.19"/>
			</g>
			<g>
				<path class="st10" d="M419.4,387.65c0.55,0.91,0.27,2.09-0.62,2.65c-0.89,0.56-2.06,0.27-2.61-0.63
					c-0.55-0.91-0.27-2.09,0.62-2.65C417.68,386.45,418.85,386.74,419.4,387.65z"/>
				<path class="st10" d="M426.29,397.42c0.76,1.26,0.38,2.91-0.86,3.68c-1.24,0.77-2.86,0.38-3.62-0.88
					c-0.76-1.26-0.38-2.91,0.86-3.68C423.9,395.77,425.52,396.16,426.29,397.42z"/>
				<path class="st10" d="M434.48,409.97c0.91,1.5,0.45,3.46-1.03,4.38c-1.47,0.92-3.4,0.45-4.31-1.04
					c-0.91-1.5-0.45-3.46,1.03-4.38C431.64,408,433.57,408.47,434.48,409.97z"/>
			</g>
			<g>
				<path class="st10" d="M431.67,376.7c0.8,0.69,0.85,1.96,0.12,2.84c-0.73,0.88-1.98,1.04-2.78,0.35
					c-0.8-0.69-0.85-1.96-0.12-2.84C429.62,376.17,430.87,376.02,431.67,376.7z"/>
				<path class="st10" d="M441.25,383.75c1.11,0.96,1.18,2.72,0.16,3.95c-1.02,1.22-2.75,1.44-3.86,0.49
					c-1.11-0.96-1.18-2.72-0.16-3.95C438.41,383.02,440.14,382.8,441.25,383.75z"/>
				<path class="st10" d="M452.9,393.05c1.32,1.14,1.41,3.24,0.19,4.7c-1.21,1.46-3.27,1.72-4.59,0.58
					c-1.32-1.14-1.41-3.24-0.19-4.7C449.53,392.18,451.58,391.92,452.9,393.05z"/>
			</g>
			<g>
				<path class="st10" d="M440.56,363.58c0.94,0.47,1.34,1.62,0.88,2.58s-1.59,1.36-2.53,0.89c-0.94-0.47-1.34-1.62-0.88-2.58
					C438.48,363.51,439.61,363.12,440.56,363.58z"/>
				<ellipse class="st10" cx="450.38" cy="370.47" rx="2.63" ry="2.68"/>
				<path class="st10" d="M465.07,374.17c1.56,0.77,2.21,2.67,1.45,4.26c-0.76,1.58-2.63,2.24-4.19,1.47
					c-1.56-0.77-2.21-2.67-1.45-4.26C461.64,374.06,463.51,373.4,465.07,374.17z"/>
			</g>
			<g>
				<path class="st10" d="M443.32,351.55c1.05,0.01,1.89,0.88,1.88,1.95c-0.01,1.06-0.87,1.92-1.92,1.91
					c-1.05-0.01-1.89-0.88-1.88-1.95C441.41,352.39,442.27,351.53,443.32,351.55z"/>
				<path class="st10" d="M455.12,350.83c1.45,0.02,2.62,1.23,2.6,2.7c-0.02,1.48-1.21,2.66-2.66,2.65s-2.62-1.23-2.6-2.7
					C452.48,352,453.67,350.81,455.12,350.83z"/>
				<path class="st10" d="M469.93,350.47c1.73,0.02,3.12,1.46,3.1,3.22c-0.02,1.76-1.44,3.17-3.17,3.15
					c-1.73-0.02-3.12-1.46-3.1-3.22C466.78,351.86,468.2,350.45,469.93,350.47z"/>
			</g>
		</g>
		<path class="st10" d="M391.19,266.87"/>
		<g>
			<path class="st10" d="M406.35,323.87c1.03-7.19,3.8-14.09,7.88-19.86h-10.19c-3.67,6.75-6.05,14.16-6.89,21.74
				c-0.52,4.68-0.4,9.44,0.28,14.1h9.62C405.84,334.77,405.58,329.27,406.35,323.87z"/>
			<path class="st10" d="M393.67,339.86c-0.65-4.81-0.76-9.7-0.22-14.52c0.82-7.4,3.01-14.64,6.37-21.32h-9.51
				c-3.23,7.4-5.31,15.2-6.06,23.12c-0.16,1.63-0.25,3.26-0.29,4.9v3.53c0.03,1.36,0.11,2.72,0.22,4.08c0.13,0.13,0.3,0.21,0.5,0.21
				H393.67z"/>
			<path class="st10" d="M410.02,324.41c-0.75,5.25-0.44,10.58,0.83,15.44h12.36c-2.28-1.02-3.87-3.26-4.53-6.5
				c-0.63-3.08-0.42-7.01,0.59-11.07c0.99-4.03,2.67-7.81,4.73-10.66c2.48-3.43,5.4-5.36,8.43-5.56c2.3-0.17,4.22,0.59,5.52,2.17
				c2.74,3.33,2.03,9.26,0.96,13.65c-0.9,3.67-2.41,7.6-4.16,10.8c-1.99,3.65-4.01,5.99-6,6.95c-0.17,0.08-0.34,0.15-0.51,0.22H440
				c2.02-4.33,3.77-8.7,5.11-12.88c2.32-7.21,3.46-13.52,3.42-18.76c-0.01-1.53-0.2-2.92-0.52-4.2h-29.08
				C414.26,309.69,411.1,316.87,410.02,324.41z"/>
			<path class="st10" d="M472.89,304.74c0-0.4-0.32-0.72-0.71-0.72h-7.23c-0.01,0.2,0,0.38-0.01,0.58
				c-0.55,8.94-2.69,18.67-6.55,29.72c-0.64,1.82-1.33,3.67-2.05,5.54h8.06c0.09-0.23,0.18-0.47,0.26-0.7
				c3.99-10.96,6.69-21.05,8.24-30.63V304.74z"/>
			<path class="st10" d="M383.97,304.74v5.54c0.68-2.11,1.44-4.2,2.29-6.26h-1.58C384.29,304.01,383.97,304.34,383.97,304.74z"/>
			<path class="st10" d="M431.51,330.86c1.59-2.92,2.98-6.52,3.8-9.88c1.19-4.86,1.11-8.72-0.2-10.32c-0.33-0.4-0.95-0.94-2.43-0.83
				c-2.41,0.16-4.42,2.28-5.68,4.03c-1.78,2.46-3.24,5.77-4.12,9.34c-0.87,3.52-1.06,6.86-0.55,9.39c0.48,2.37,1.5,3.73,3.04,4.04
				c0.45,0.09,1.06-0.05,1.8-0.4C428.09,335.78,429.72,334.13,431.51,330.86z"/>
			<path class="st10" d="M472.89,339.13v-13.44c-1.27,4.58-2.78,9.29-4.54,14.17h3.83C472.57,339.86,472.89,339.53,472.89,339.13z"
				/>
			<path class="st10" d="M461.22,304.36c0.01-0.11,0.01-0.23,0.02-0.35h-9.42c0.26,1.31,0.4,2.7,0.42,4.17
				c0.05,5.65-1.16,12.37-3.6,19.97c-1.22,3.81-2.78,7.77-4.55,11.71h8.25c0.92-2.3,1.77-4.57,2.55-6.8
				C458.62,322.33,460.7,312.95,461.22,304.36z"/>
		</g>
		<g>
			<path class="st10" d="M363.31,282.12l-7.89,0c-0.19,0-0.38,0.08-0.52,0.22c-0.13,0.14-0.21,0.33-0.21,0.52v2.07h9.73l-0.39-2.2
				C363.96,282.38,363.66,282.12,363.31,282.12z"/>
			<polygon class="st10" points="354.72,311.74 368.5,311.74 364.44,289.16 354.72,289.16 			"/>
			<path class="st10" d="M368.59,311.74h-0.09h-13.78h-0.22l-25.95-20.09c-0.22-0.17-0.52-0.2-0.76-0.08
				c-0.25,0.13-0.41,0.38-0.41,0.67v18.29l-24.4-18.88c-0.22-0.17-0.52-0.2-0.77-0.08c-0.25,0.13-0.41,0.38-0.41,0.67v20.24v26.74
				c0,0.2,0.08,0.39,0.21,0.53c0.14,0.14,0.32,0.22,0.52,0.22h70.63c0.22,0,0.42-0.1,0.56-0.26c0.14-0.17,0.2-0.39,0.16-0.6
				l-4.58-26.74C369.25,312,368.95,311.74,368.59,311.74z M319.28,317.82c0,0.17-0.06,0.33-0.18,0.45
				c-0.12,0.12-0.28,0.19-0.45,0.19h-9.47c-0.17,0-0.33-0.07-0.45-0.19c-0.12-0.12-0.18-0.28-0.18-0.45v-2.83
				c0-0.17,0.07-0.33,0.18-0.45c0.12-0.12,0.28-0.19,0.45-0.19h9.47c0.17,0,0.33,0.07,0.45,0.19c0.12,0.12,0.18,0.28,0.18,0.45
				V317.82z M344.76,317.82c0,0.17-0.07,0.33-0.18,0.45c-0.12,0.12-0.28,0.19-0.45,0.19h-9.47c-0.17,0-0.33-0.07-0.45-0.19
				c-0.12-0.12-0.19-0.28-0.19-0.45v-2.83c0-0.17,0.07-0.33,0.19-0.45c0.12-0.12,0.28-0.19,0.45-0.19h9.47
				c0.17,0,0.33,0.07,0.45,0.19c0.12,0.12,0.18,0.28,0.18,0.45V317.82z"/>
		</g>
	</g>
</g>
</svg>
