<?xml version="1.0" encoding="utf-8"?>
<!-- Generator: Adobe Illustrator 24.1.2, SVG Export Plug-In . SVG Version: 6.00 Build 0)  -->
<svg version="1.1" id="Capa_1" xmlns="http://www.w3.org/2000/svg" xmlns:xlink="http://www.w3.org/1999/xlink" x="0px" y="0px"
	 viewBox="0 0 1080 1920" style="enable-background:new 0 0 1080 1920;" xml:space="preserve">
<style type="text/css">
	.st0{fill:#E41B29;}
	.st1{fill:#E03238;}
	.st2{fill:#626B2B;}
	.st3{filter:url(#Adobe_OpacityMaskFilter);}
	.st4{fill:url(#SVGID_2_);}
	.st5{mask:url(#SVGID_1_);}
	.st6{clip-path:url(#SVGID_4_);}
	.st7{fill:#3B848C;}
	.st8{clip-path:url(#SVGID_6_);fill:#E03238;}
	.st9{fill:#190C47;}
	.st10{fill:#EEA530;}
	.st11{clip-path:url(#SVGID_8_);fill:#B3C125;}
	.st12{fill:#F2930A;}
	.st13{fill:#4EAAAF;}
	.st14{clip-path:url(#SVGID_10_);}
	.st15{clip-path:url(#SVGID_12_);}
	.st16{fill:#FFFFFF;}
	.st17{opacity:0.4;}
	.st18{clip-path:url(#SVGID_14_);}
	.st19{fill:#E5E5E5;}
	.st20{filter:url(#Adobe_OpacityMaskFilter_1_);}
	.st21{fill:url(#SVGID_16_);}
	.st22{fill:url(#SVGID_17_);}
	.st23{opacity:0.5;mask:url(#SVGID_15_);fill:#FFFFFF;}
	.st24{fill:#3D3D3D;}
	.st25{fill:#7E8E3A;}
	.st26{clip-path:url(#SVGID_19_);}
	.st27{clip-path:url(#SVGID_21_);}
	.st28{clip-path:url(#SVGID_23_);fill:#255656;}
	.st29{clip-path:url(#SVGID_23_);}
	.st30{fill:#EEA832;}
	.st31{fill:#E03138;}
	.st32{fill:#35858C;}
	.st33{fill:#255656;}
	.st34{fill:#EF9314;}
	.st35{fill:#AD212B;}
	.st36{fill:#E51A29;}
	.st37{fill:#B3C125;}
	.st38{clip-path:url(#SVGID_23_);fill:#AD212B;}
	.st39{clip-path:url(#SVGID_25_);fill:#EEA530;}
	.st40{clip-path:url(#SVGID_23_);fill:#7E8E3A;}
	.st41{clip-path:url(#SVGID_27_);}
	.st42{clip-path:url(#SVGID_29_);}
	.st43{clip-path:url(#SVGID_21_);fill:#255656;}
	.st44{fill:#3A3A3A;}
	.st45{font-family:'Goldplay-Bold';}
	.st46{font-size:179.3749px;}
	.st47{font-size:83.5598px;}
	.st48{font-family:'Goldplay-Regular';}
	.st49{font-size:69.0457px;}
	.st50{fill:none;stroke:#3A3A3A;stroke-width:10;stroke-miterlimit:10;}
</style>
<g>
	<g>
		<path class="st0" d="M-0.14-0.13v1920.25H1080V-0.13H-0.14z M933.78,1348.94c6.23,0,6.22,9.67,0,9.67
			C927.54,1358.61,927.55,1348.94,933.78,1348.94z"/>
		<path class="st1" d="M365.42,1095.39l-24.63,33.38l-25.35,34.36l-0.58,0.78l-20.81,19.31l-50.02,46.43l-7.3,6.78v471.38H1080
			v-612.42H365.42z M933.78,1358.61c-6.24,0-6.23-9.67,0-9.67C940,1348.94,939.99,1358.61,933.78,1358.61z"/>
		<rect x="-0.14" y="1811.28" class="st2" width="697.69" height="108.84"/>
		<defs>
			<filter id="Adobe_OpacityMaskFilter" filterUnits="userSpaceOnUse" x="389.59" y="-0.12" width="1121.75" height="429.56">
				<feColorMatrix  type="matrix" values="1 0 0 0 0  0 1 0 0 0  0 0 1 0 0  0 0 0 1 0"/>
			</filter>
		</defs>
		<mask maskUnits="userSpaceOnUse" x="389.59" y="-0.12" width="1121.75" height="429.56" id="SVGID_1_">
			<g class="st3">
				<linearGradient id="SVGID_2_" gradientUnits="userSpaceOnUse" x1="1087.2573" y1="212.3986" x2="419.2562" y2="216.9949">
					<stop  offset="0" style="stop-color:#FFFFFF"/>
					<stop  offset="1" style="stop-color:#000000"/>
				</linearGradient>
				<rect x="438.15" y="-0.12" class="st4" width="641.85" height="429.56"/>
			</g>
		</mask>
		<g class="st5">
			<defs>
				<rect id="SVGID_3_" x="389.59" y="-0.12" width="690.41" height="429.56"/>
			</defs>
			<clipPath id="SVGID_4_">
				<use xlink:href="#SVGID_3_"  style="overflow:visible;"/>
			</clipPath>
			<g class="st6">
				<path class="st1" d="M713.97,237.86c12.3-86.17,45.53-168.79,94.46-237.98H686.27c-44,80.86-72.52,169.7-82.61,260.57
					c-6.23,56.13-4.75,113.13,3.31,168.98h115.28C707.87,368.46,704.72,302.58,713.97,237.86z"/>
				<path class="st1" d="M562.07,429.43c-7.77-57.62-9.06-116.28-2.65-174.06c9.85-88.63,36.07-175.43,76.36-255.5H521.85
					c-38.72,88.64-63.62,182.2-72.6,277.02c-1.88,19.51-3,39.12-3.5,58.77v42.34c0.4,16.32,1.27,32.64,2.59,48.95
					c1.54,1.53,3.63,2.48,5.95,2.48H562.07z"/>
				<path class="st1" d="M758.01,244.36c-8.98,62.88-5.33,126.83,9.98,185.07h148.15c-27.33-12.2-46.41-39.09-54.29-77.95
					c-7.49-36.89-5-84.01,7.01-132.69c11.89-48.27,32.01-93.63,56.63-127.69c29.73-41.12,64.66-64.18,101.03-66.68
					c27.58-2.01,50.59,7.09,66.19,26.05c32.83,39.86,24.38,110.99,11.52,163.64c-10.74,43.93-28.9,91.11-49.84,129.47
					c-23.86,43.76-48.07,71.77-71.96,83.24c-2.08,1-4.08,1.77-6.1,2.61h140.89c24.15-51.92,45.12-104.26,61.2-154.39
					c27.74-86.42,41.52-162.06,40.94-224.82c-0.17-18.29-2.4-34.97-6.24-50.35H864.69C808.79,67.89,770.93,153.94,758.01,244.36z"/>
				<path class="st1" d="M1511.34,8.56c0-4.79-3.82-8.68-8.54-8.68h-86.63c-0.12,2.37-0.03,4.6-0.18,6.98
					c-6.57,107.19-32.24,223.7-78.48,356.18c-7.61,21.81-15.92,44-24.62,66.4h96.57c1.03-2.79,2.14-5.63,3.16-8.41
					c47.76-131.36,80.21-252.3,98.72-367.1V8.56z"/>
				<path class="st1" d="M445.75,8.56v66.37c8.11-25.32,17.27-50.36,27.46-75.05h-18.92C449.57-0.12,445.75,3.76,445.75,8.56z"/>
				<path class="st1" d="M1015.48,321.63c19.1-35.02,35.72-78.18,45.55-118.44c14.25-58.28,13.34-104.5-2.44-123.66
					c-3.98-4.84-11.33-11.24-29.11-9.95c-28.86,1.97-52.98,27.36-68.12,48.31c-21.28,29.44-38.79,69.18-49.33,111.9
					c-10.41,42.22-12.75,82.19-6.59,112.55c5.77,28.4,18.03,44.68,36.44,48.37c5.34,1.04,12.64-0.55,21.58-4.83
					C974.56,380.55,994.07,360.86,1015.48,321.63z"/>
				<path class="st1" d="M1511.34,420.75V259.64c-15.27,54.88-33.37,111.36-54.43,169.79h45.89
					C1507.52,429.43,1511.34,425.54,1511.34,420.75z"/>
				<path class="st1" d="M1371.57,4.04c0.08-1.36,0.13-2.79,0.2-4.17h-112.89c3.13,15.71,4.83,32.37,4.99,49.92
					c0.62,67.67-13.89,148.18-43.14,239.29c-14.64,45.66-33.32,93.06-54.51,140.34h98.82c11-27.61,21.2-54.82,30.52-81.54
					C1340.4,219.43,1365.26,106.95,1371.57,4.04z"/>
			</g>
		</g>
		<polygon class="st7" points="515.49,551.07 572.52,638.92 224.97,1010.71 -0.14,844.42 -0.14,429.44 787.52,429.44 		"/>
		<g>
			<defs>
				<rect id="SVGID_5_" x="-0.14" y="286.36" width="746.78" height="1215.41"/>
			</defs>
			<clipPath id="SVGID_6_">
				<use xlink:href="#SVGID_5_"  style="overflow:visible;"/>
			</clipPath>
			<path class="st8" d="M391.7,1230.88c0,177.49-0.14,354.97,0.22,532.46c0.04,18.26-2.56,35.54-10.67,51.58
				c-8.23,16.27-20.73,28.81-36.07,38.58c-17.29,11-36.02,12.85-55.92,12c-21.33-0.91-38.81-10.21-54.7-22.99
				c-11.54-9.28-21.82-20.2-32.39-30.67c-11.28-11.16-22.26-22.64-33.37-33.99c-13.21-13.49-26.33-27.07-39.63-40.47
				c-10.09-10.17-20.49-20.02-30.59-30.17c-12.63-12.7-25.03-25.65-37.67-38.34c-7.6-7.62-15.53-14.89-23.21-22.43
				c-6.49-6.36-12.85-12.87-19.25-19.32c-12.1-12.18-24.25-24.32-36.27-36.57c-11.55-11.77-22.94-23.69-34.45-35.49
				c-5.44-5.58-11.04-11.01-16.52-16.56c-13.36-13.53-26.6-27.17-40.04-40.6c-16.02-16.01-32.31-31.75-48.27-47.82
				c-11.84-11.92-23.21-24.31-35.05-36.23c-11.41-11.49-23.19-22.59-34.71-33.97c-5.76-5.69-11.22-11.69-16.93-17.43
				c-13.76-13.82-27.64-27.52-41.38-41.36c-11.46-11.54-22.75-23.24-34.17-34.81c-10.96-11.1-22.02-22.1-33.01-33.18
				c-12.12-12.24-24.14-24.58-36.32-36.76c-11.98-11.98-24.15-23.75-36.16-35.7c-10.85-10.8-21.59-21.71-32.38-32.57
				c-17.59-17.71-35.2-35.41-52.76-53.15c-13.42-13.56-26.77-27.18-40.16-40.76c-18.61-18.89-37.22-37.79-55.85-56.67
				c-20.27-20.54-40.48-41.14-60.88-61.55c-13.09-13.1-26.59-25.78-39.67-38.88c-13.57-13.58-26.79-27.53-40.3-41.17
				c-26.15-26.4-52.36-52.73-78.61-79.03c-13.84-13.86-26.68-28.87-33.15-47.48c-4.11-11.85-5.1-25.19-5.45-37.92
				c-0.58-21.2,6.11-40.69,19.28-57.16c15.69-19.62,35.13-33.82,60.71-36.72c12.24-1.39,24.6-2.37,36.9-2.38
				c344.93-0.13,689.86-0.09,1034.79-0.14c13.73,0,27.19,1.35,40.4,5.29c15.32,4.57,27.87,13.54,38.61,25.12
				c17.4,18.76,25.13,41.27,25.12,67.03C391.64,871.94,391.69,1051.41,391.7,1230.88z"/>
		</g>
		<g>
			<path class="st7" d="M1080,1467.23v18.93h-53.14v-13.92c0-1.32,0.52-2.61,1.43-3.54c0.93-0.94,2.19-1.47,3.49-1.47H1080z"/>
			<rect x="1027.1" y="1514.62" class="st7" width="52.9" height="152.16"/>
			<path class="st9" d="M958.76,1685.61c-0.81-0.82-1.88-1.27-3.02-1.27h-63.82c-1.12,0-2.22,0.46-3,1.26
				c-0.81,0.81-1.27,1.94-1.27,3.07v19.08c0,1.13,0.45,2.24,1.27,3.06c0.77,0.81,1.88,1.26,3,1.26h63.82c1.14,0,2.21-0.44,3.02-1.26
				c0.79-0.82,1.24-1.9,1.24-3.06v-19.08C960,1687.53,959.55,1686.43,958.76,1685.61z M787.11,1685.61c-0.8-0.82-1.87-1.27-3-1.27
				h-63.82c-1.13,0-2.22,0.46-3.01,1.26c-0.79,0.81-1.25,1.94-1.25,3.07v19.08c0,1.13,0.45,2.24,1.25,3.06
				c0.78,0.81,1.88,1.26,3.01,1.26h63.82c1.13,0,2.2-0.44,3-1.26c0.81-0.82,1.26-1.9,1.26-3.06v-19.08
				C788.37,1687.53,787.92,1686.43,787.11,1685.61z M1025.61,1666.77l-38.19-29.57l-136.65-105.76c-1.48-1.13-3.49-1.33-5.15-0.5
				c-1.68,0.85-2.76,2.6-2.76,4.49v123.25l-27.73-21.47l-136.61-105.76c-1.05-0.81-2.38-1.13-3.66-0.97v319.03H1080v-182.73H1025.61
				z"/>
		</g>
		<polygon class="st0" points="478.07,968.83 250.14,1234.4 30.11,1063.82 -0.14,1069.92 -0.14,818.17 250.25,1003.56 
			468.14,804.39 		"/>
		<polygon class="st10" points="248.47,1920.12 -0.14,1920.12 -0.14,1057.69 248.47,1263.51 		"/>
		<path class="st1" d="M391.56,1095.4"/>
		<g>
			<g>
				<path class="st10" d="M789.87,1095.39c-52.32,251.34-308.51,419.89-562.86,377.03V1351c187.17,41.42,386.77-67.58,447.44-255.6
					H789.87z"/>
				<path class="st10" d="M584.7,1095.39c-44.25,109.67-155.49,185.78-273.1,186.23c-29.3,0.09-57.75-4.13-84.59-11.98v-0.08
					c0-56.04,42.79-102.26,98.55-107.92c30.2-3.06,61.21-14.45,91.27-35.64c12.39-8.75,23.47-19.07,33.03-30.6H584.7z"/>
			</g>
			<g>
				<ellipse class="st10" cx="257.58" cy="1539.42" rx="19.51" ry="19.84"/>
				<ellipse class="st10" cx="258.55" cy="1662.81" rx="27.09" ry="27.54"/>
				<path class="st10" d="M290.88,1817.7c0,18.1-14.43,32.77-32.23,32.77c-17.8,0-32.23-14.67-32.23-32.77
					c0-18.1,14.43-32.77,32.23-32.77C276.45,1784.92,290.88,1799.6,290.88,1817.7z"/>
			</g>
			<g>
				<path class="st10" d="M443.51,1533.55c1.71,10.82-5.53,21-16.18,22.74c-10.64,1.74-20.65-5.63-22.36-16.45
					c-1.71-10.82,5.53-21,16.18-22.74C431.79,1515.36,441.8,1522.73,443.51,1533.55z"/>
				<path class="st10" d="M471.18,1654.01c2.37,15.02-7.68,29.15-22.45,31.56c-14.77,2.41-28.67-7.81-31.04-22.83
					c-2.37-15.02,7.68-29.15,22.45-31.56C454.91,1628.77,468.81,1638.99,471.18,1654.01z"/>
				<ellipse class="st10" cx="468.66" cy="1811.28" rx="32.23" ry="32.77"/>
			</g>
			<g>
				<path class="st10" d="M596.03,1478.91c5.65,9.33,2.78,21.56-6.4,27.3c-9.18,5.74-21.2,2.83-26.85-6.5
					c-5.65-9.33-2.78-21.55,6.4-27.3C578.36,1466.67,590.38,1469.58,596.03,1478.91z"/>
				<path class="st10" d="M666.89,1579.47c7.84,12.96,3.86,29.92-8.88,37.89c-12.74,7.97-29.43,3.93-37.26-9.03
					s-3.86-29.92,8.88-37.89C642.37,1562.47,659.05,1566.51,666.89,1579.47z"/>
			</g>
			<g>
				<path class="st10" d="M722.25,1366.33c8.22,7.08,8.76,20.18,1.2,29.26c-7.56,9.08-20.36,10.7-28.58,3.62s-8.76-20.18-1.2-29.26
					C701.23,1360.87,714.02,1359.25,722.25,1366.33z"/>
				<path class="st10" d="M820.86,1438.88c11.42,9.83,12.16,28.02,1.67,40.62c-10.5,12.6-28.26,14.85-39.68,5.02
					c-11.42-9.83-12.16-28.02-1.67-40.62C791.68,1431.3,809.44,1429.05,820.86,1438.88z"/>
				<path class="st10" d="M940.78,1534.56c13.58,11.7,14.47,33.34,1.98,48.33c-12.49,15-33.63,17.67-47.21,5.97
					c-13.58-11.7-14.47-33.34-1.98-48.33C906.06,1525.54,927.2,1522.86,940.78,1534.56z"/>
			</g>
			<g>
				<path class="st10" d="M813.71,1231.3c9.69,4.79,13.74,16.66,9.03,26.52c-4.71,9.86-16.38,13.97-26.08,9.18
					c-9.69-4.79-13.74-16.66-9.03-26.52C792.34,1230.62,804.02,1226.51,813.71,1231.3z"/>
				<ellipse class="st10" cx="914.78" cy="1302.16" rx="27.09" ry="27.54"/>
				<path class="st10" d="M1080,1353.74v31.97c-8.26,15.08-26.76,21.14-42.23,13.5c-16.01-7.9-22.69-27.51-14.91-43.8
					c7.78-16.28,27.06-23.07,43.08-15.17C1072.1,1343.3,1076.89,1348.08,1080,1353.74z"/>
			</g>
			<g>
				<path class="st10" d="M842.15,1107.47c10.78,0.12,19.42,9.09,19.31,20.05c-0.11,10.96-8.94,19.75-19.72,19.63
					c-10.78-0.12-19.42-9.09-19.31-20.05C822.55,1116.15,831.38,1107.36,842.15,1107.47z"/>
				<path class="st10" d="M963.6,1100.1c14.96,0.16,26.96,12.62,26.8,27.83c-0.16,15.21-12.41,27.41-27.37,27.25
					c-14.96-0.16-26.96-12.62-26.8-27.83C936.38,1112.13,948.64,1099.93,963.6,1100.1z"/>
			</g>
		</g>
		<g>
			<defs>
				<rect id="SVGID_7_" x="-0.14" y="389.27" width="1080.14" height="929.58"/>
			</defs>
			<clipPath id="SVGID_8_">
				<use xlink:href="#SVGID_7_"  style="overflow:visible;"/>
			</clipPath>
			<path class="st11" d="M-208.03,996.22c17.87,19.48,45.46,27.93,63.2,47.27c-14.56,14.12-106.19,100.34-119.94,113.39
				c-78.44,74.47-156.7,149.13-235.66,223.02c-11.66,10.91-16.11,21.95-15.62,37.68c1.02,32.29,0.31,64.63,0.31,102.73
				c9.07-8.07,15.21-13.24,21.03-18.76c158.08-150,316.15-300.03,474.17-450.09c31.83-30.22,43.32-30.64,77.22-1.92
				c56.18,47.59,112.3,95.26,168.48,142.84c6.03,5.11,12.35,9.87,19.16,15.29c79.73-87.81,158.45-174.48,237.14-261.18
				c62.54-68.91,125-137.88,187.57-206.77c23.59-25.97,37.22-27.73,66.11-8.81c15.35,10.05,30.55,20.34,45.92,30.36
				c1.07,0.7,2.95,0.09,7.26,0.09c8.42-85.39,16.85-170.93,25.68-260.57c-82.88,25.2-162.8,49.5-248.02,75.41
				c16.63,11.75,29.42,20.44,41.86,29.64c24.74,18.3,28.41,40.99,8.28,63.86c-112.41,127.67-225.14,255.05-338.16,382.16
				c-19.23,21.63-38,21.03-62.48,0.35c-64.77-54.72-129.41-109.6-195.45-165.55c-59.81,56.61-119,112.63-179.96,170.33
				c-17.44-18.99-33.96-36.97-51.91-56.51c25.24-24.06,49.45-47.19,73.72-70.26c39.49-37.53,79.05-74.99,118.53-112.53
				c30.46-28.97,42.57-29.39,75.42-1.65c55.63,46.99,111.13,94.15,166.71,141.21c6.61,5.59,13.39,10.96,21.32,17.42
				c96.69-109.31,192.16-217.24,288.8-326.49c-25.08-17.07-47.97-33.01-71.25-48.35c-15.12-9.96-25.54-22.53-22.79-41.76
				c2.89-20.15,16.67-29.05,35.09-34.61c120.92-36.52,241.6-73.86,362.45-110.63c41.01-12.48,63,6.7,58.64,50.2
				c-12.24,122.19-24.45,244.38-36.67,366.57c-4.16,41.57-32.16,55.4-66.81,32.6c-26.52-17.45-52.64-35.55-80.18-54.21
				c-39.91,43.87-78.74,86.45-117.46,129.13c-102.96,113.47-205.86,227-308.8,340.49c-26.64,29.37-42.41,30.32-72.81,4.57
				c-63.48-53.77-126.98-107.52-192-162.56c-30.08,28.37-59.74,56.18-89.24,84.18c-149.34,141.75-298.67,283.51-447.89,425.4
				c-14.42,13.72-28.82,26.44-50.42,17.58c-22.49-9.22-24.9-28.52-24.76-50.02c0.47-69.53-0.52-139.08,0.79-208.58
				c0.25-13.32,4.64-30.52,13.51-39.11C-478.37,1252.65-310.87,1093.86-208.03,996.22z"/>
		</g>
		<path class="st1" d="M1080,827.75v267.64H789.86c47.86-52.78,95.71-105.55,143.58-158.31c38.72-42.68,77.55-85.25,117.47-129.13
			C1060.76,814.64,1070.43,821.23,1080,827.75z"/>
		<path class="st12" d="M166.18,1920.12H-0.14v-531.28c24.74,0,49.47-0.01,74.22-0.01c12.15,0,24.06,1.2,35.76,4.68
			c13.55,4.05,24.66,11.99,34.17,22.24c15.4,16.6,22.25,36.52,22.24,59.33C166.14,1623.42,166.17,1771.77,166.18,1920.12z"/>
		<rect x="-0.14" y="-0.13" class="st13" width="105.16" height="595.18"/>
	</g>
	<g>
		<defs>
			<rect id="SVGID_9_" x="-0.14" y="-0.13" width="1082.41" height="1921.68"/>
		</defs>
		<clipPath id="SVGID_10_">
			<use xlink:href="#SVGID_9_"  style="overflow:visible;"/>
		</clipPath>
		<g class="st14">
			<defs>
				<path id="SVGID_11_" d="M975.26,1988.42H104.74c-34.05,0-61.66-27.6-61.66-61.66V142.13c0-34.05,27.6-61.66,61.66-61.66h870.53
					c34.05,0,61.66,27.6,61.66,61.66v1784.63C1036.92,1960.81,1009.32,1988.42,975.26,1988.42z"/>
			</defs>
			<clipPath id="SVGID_12_">
				<use xlink:href="#SVGID_11_"  style="overflow:visible;"/>
			</clipPath>
			<g class="st15">
				<rect x="-41.12" y="-45.55" class="st16" width="1162.24" height="2064.56"/>
				<g class="st17">
					<defs>
						<rect id="SVGID_13_" x="-40.72" y="-43.84" class="st17" width="1159.4" height="2061.15"/>
					</defs>
					<clipPath id="SVGID_14_">
						<use xlink:href="#SVGID_13_"  style="overflow:visible;"/>
					</clipPath>
					<g class="st18">
						<path class="st19" d="M706.7,738.54c67.67,0,29.92,174.21-20.66,261.54c-28.67,51.46-53.78,72.26-73.33,72.26
							c-62.08,0-67.98-210.01,47.22-315.72C679.22,744.07,694.63,738.54,706.7,738.54L706.7,738.54z M706.7,676.66
							c-25.12,0-51.46,9.19-80.52,28.1l-4.3,2.8l-3.78,3.47c-26.02,23.87-48.21,52.89-65.96,86.25
							c-15.53,29.19-27.34,61-35.09,94.55c-7.03,30.44-10.47,61.91-9.95,91.01c0.55,30.88,5.32,58.07,14.17,80.81
							c7.18,18.45,17.05,33.7,29.33,45.32c17.2,16.28,39.25,25.24,62.1,25.24c26.58,0,52.07-11.36,75.75-33.75
							c17.65-16.69,34.46-39.54,51.38-69.84c23.55-40.82,44.43-96.84,55.88-149.99c6.19-28.73,9.36-55.11,9.42-78.41
							c0.08-32.14-5.66-57.8-17.56-78.44C770.31,693.84,740.83,676.66,706.7,676.66z"/>
						<path class="st19" d="M830.09,316.46c214.33,0,102.53,617.57-70.44,916.25c-96.89,173.9-184.12,244.12-253.74,244.12
							c-227.82,0-266.83-752.28,163.45-1085.99C736.13,339.05,789.07,316.46,830.09,316.46L830.09,316.46z M830.09,254.59
							c-57.87,0-122.85,28.58-198.65,87.36c-81.11,62.9-150.65,142.44-206.69,236.41c-49.86,83.61-88.08,176.75-113.58,276.86
							c-22.94,90.03-34.84,184.63-34.42,273.58c0.4,86.61,12.37,166.73,34.62,231.71c17.58,51.37,41.21,92.6,70.22,122.56
							c35.24,36.4,78.23,55.63,124.32,55.63c52.52,0,105.88-24.64,158.58-73.23c49.45-45.58,99.57-113.62,148.97-202.22
							c36.37-62.89,71.45-141.49,101.47-227.35c29.13-83.33,53.23-172.56,69.68-258.04c17.19-89.34,25.83-173.92,24.96-244.6
							c-0.48-38.99-3.81-74.46-9.89-105.42c-6.94-35.28-17.68-65.71-31.94-90.44c-14.7-25.5-33.38-45.55-55.51-59.59
							C887.95,262.4,860.32,254.59,830.09,254.59z"/>
						<path class="st19" d="M1077.46-520.86c519.03,0,248.3,1495.52-170.57,2218.81c-234.62,421.12-445.88,591.18-614.48,591.18
							c-551.69,0-646.17-1821.74,395.82-2629.86C849.93-466.14,978.12-520.86,1077.46-520.86 M1077.46-582.73
							c-30.05,0-61.99,4.15-94.91,12.34c-32.37,8.05-66.65,20.24-101.89,36.23c-70.36,31.93-147.86,80.56-230.35,144.54
							C462.62-244.05,301.5-59.67,171.43,158.42C112.09,257.91,59.09,364.87,13.9,476.33c-42.79,105.54-79.07,216.3-107.83,329.19
							c-27.4,107.56-48.16,217.73-61.71,327.45c-13.04,105.64-19.41,210.93-18.94,312.95c0.93,200.29,28.28,384.61,79.09,533.03
							c38.36,112.05,88.84,200.91,150.03,264.1c33.26,34.34,69.7,60.93,108.32,79.01c41.01,19.21,84.59,28.94,129.54,28.94
							c104.39,0,213.54-51.83,324.42-154.05c55.53-51.19,112.25-115.87,168.57-192.24c58.01-78.66,117-171.6,175.31-276.23
							c43.41-75.01,86.09-159.54,126.85-251.25c39.57-89.04,77.37-184.9,112.33-284.9c69.16-197.82,126.35-409.61,165.4-612.47
							c19.9-103.41,35.02-204.02,44.93-299.01c10.28-98.55,14.97-191.27,13.94-275.61c-2.29-187.19-32.42-332.35-89.55-431.45
							c-28.43-49.32-63.87-87.66-105.34-113.97C1184.78-568.42,1133.7-582.73,1077.46-582.73z"/>
						<path class="st19" d="M1204.29-902.48c733.02,0,324.07,1887.05-223.78,2833.05c-310.54,557.37-582.55,782.77-794.33,782.77
							c-672.45,0-736.41-2274.87,511.49-3419.87C906.63-842.5,1073.6-902.48,1204.29-902.48L1204.29-902.48z M1204.29-964.35
							c-37.11,0-76.64,4.3-117.49,12.79c-40.73,8.46-83.94,21.32-128.44,38.23c-89.81,34.12-188.87,86.26-294.44,154.95l-4.3,2.8
							l-3.78,3.47C424.97-540.28,226.89-280.62,67.09,19.66c-72.92,137.02-137.9,282.9-193.14,433.61
							c-52.38,142.9-96.52,291.51-131.2,441.69c-33.12,143.42-57.76,288.88-73.25,432.34c-14.96,138.61-21.37,275.14-19.04,405.8
							c4.61,258.74,43.39,488.85,112.14,665.47c44.91,115.37,101.77,206.14,169.01,269.78c36.25,34.31,75.7,60.78,117.26,78.66
							c43.53,18.73,89.73,28.23,137.3,28.23c127.3,0,262.77-67.05,402.63-199.28c70.74-66.88,143.54-151.49,216.36-251.48
							c75.31-103.4,152.39-225.63,229.12-363.3c55.97-96.69,111.34-204.48,164.59-320.41c52.22-113.7,102.32-235.05,148.9-360.67
							c93.55-252.27,171.73-519.01,226.09-771.39c28.1-130.43,49.85-256.94,64.67-375.99c15.44-124.12,23.41-240.82,23.68-346.88
							c0.6-234.71-36.06-417.84-108.97-544.32c-37.78-65.54-85.65-116.29-142.27-150.85
							C1351.19-945.84,1281.65-964.35,1204.29-964.35z"/>
						<g>
							<path class="st19" d="M953.78-102.2c366.68,0,175.42,1056.55-120.5,1567.53c-165.75,297.51-315,417.65-434.11,417.65
								C9.41,1882.98-57.34,595.97,678.8,25.05C793.03-63.55,883.6-102.2,953.78-102.2L953.78-102.2z M953.78-164.07
								c-44.7,0-94,12.09-146.54,35.93c-50.99,23.14-106.96,58.23-166.36,104.3C506.48,80.4,391.15,212.36,298.09,368.39
								c-42.39,71.08-80.25,147.48-112.52,227.08c-30.54,75.32-56.43,154.35-76.95,234.9c-19.55,76.73-34.36,155.32-44.02,233.59
								c-9.31,75.4-13.85,150.56-13.52,223.4c0.67,143.45,20.33,275.67,56.85,382.37c27.97,81.71,65.02,146.76,110.13,193.33
								c25.03,25.85,52.58,45.92,81.87,59.63c31.4,14.71,64.78,22.16,99.22,22.16c78.45,0,159.71-38.23,241.5-113.64
								c81.22-74.87,164.12-187.69,246.42-335.33c60.93-105.29,119.82-237.3,170.33-381.76c49.15-140.58,89.79-291.09,117.54-435.26
								c14.16-73.57,24.92-145.16,31.97-212.79c7.34-70.32,10.68-136.54,9.94-196.82c-1.66-135.39-23.76-240.92-65.69-313.66
								c-21.57-37.41-48.62-66.61-80.42-86.78C1036.37-153.01,997.01-164.07,953.78-164.07z"/>
						</g>
					</g>
				</g>
				<defs>
					
						<filter id="Adobe_OpacityMaskFilter_1_" filterUnits="userSpaceOnUse" x="-41.12" y="-32.08" width="1162.24" height="2000.76">
						<feColorMatrix  type="matrix" values="1 0 0 0 0  0 1 0 0 0  0 0 1 0 0  0 0 0 1 0"/>
					</filter>
				</defs>
				<mask maskUnits="userSpaceOnUse" x="-41.12" y="-32.08" width="1162.24" height="2000.76" id="SVGID_15_">
					<g class="st20">
						
							<linearGradient id="SVGID_16_" gradientUnits="userSpaceOnUse" x1="-4960.9453" y1="2545.1892" x2="-4103.5122" y2="4226.7568" gradientTransform="matrix(-1 0 0 -1 -3972.4954 4392.9741)">
							<stop  offset="0" style="stop-color:#FFFFFF"/>
							<stop  offset="0.8689" style="stop-color:#000000"/>
						</linearGradient>
						<polygon class="st21" points="-41.12,-32.08 1121.12,-32.08 1121.12,1968.68 -41.12,1968.68 						"/>
						
							<linearGradient id="SVGID_17_" gradientUnits="userSpaceOnUse" x1="-3580.1948" y1="2545.1892" x2="-2722.762" y2="4226.7568" gradientTransform="matrix(-1 0 0 -1 -3972.4954 4392.9741)">
							<stop  offset="0" style="stop-color:#FFFFFF"/>
							<stop  offset="0.8689" style="stop-color:#000000"/>
						</linearGradient>
						<polygon class="st22" points="-1421.87,-32.08 -259.63,-32.08 -259.63,1968.68 -1421.87,1968.68 						"/>
					</g>
				</mask>
				
					<rect x="-41.12" y="-32.08" transform="matrix(-1 -1.224647e-16 1.224647e-16 -1 1080 1936.6011)" class="st23" width="1162.24" height="2000.76"/>
			</g>
		</g>
	</g>
	<g>
		<g>
			<path class="st24" d="M509.17,1532.21c-1.19,0-2.1-0.34-2.74-1.02c-0.64-0.68-0.96-1.64-0.96-2.87v-25.73
				c0-1.27,0.34-2.23,1.02-2.9c0.68-0.66,1.65-1,2.89-1c1.01,0,1.83,0.21,2.45,0.63c0.62,0.42,1.19,1.11,1.69,2.06l8.77,16.46
				l8.77-16.46c0.53-0.96,1.11-1.65,1.71-2.06c0.61-0.42,1.43-0.63,2.47-0.63c1.16,0,2.06,0.33,2.72,1c0.65,0.67,0.98,1.63,0.98,2.9
				v25.73c0,1.24-0.31,2.2-0.94,2.87c-0.62,0.68-1.54,1.02-2.76,1.02c-1.19,0-2.1-0.34-2.74-1.02c-0.64-0.68-0.96-1.64-0.96-2.87
				v-14.28l-6.23,11.31c-0.42,0.68-0.85,1.19-1.31,1.53c-0.46,0.34-1.08,0.51-1.85,0.51c-0.74,0-1.35-0.17-1.82-0.51
				c-0.48-0.34-0.91-0.85-1.29-1.53l-6.19-11.13v14.09c0,1.24-0.31,2.2-0.94,2.87C511.31,1531.87,510.38,1532.21,509.17,1532.21z"/>
			<path class="st24" d="M549.02,1531.79c-2.85,0-4.27-1.47-4.27-4.4v-23.88c0-2.94,1.42-4.4,4.27-4.4h15.1
				c2.14,0,3.21,1.08,3.21,3.25c0,2.23-1.07,3.34-3.21,3.34h-11.53v6.21h10.55c2.14,0,3.21,1.1,3.21,3.29c0,2.2-1.07,3.29-3.21,3.29
				h-10.55v6.72h11.53c2.14,0,3.21,1.1,3.21,3.29c0,2.2-1.07,3.29-3.21,3.29H549.02z"/>
			<path class="st24" d="M573.16,1532.16c-1.19,0.06-2.1-0.26-2.74-0.95c-0.64-0.7-0.96-1.58-0.96-2.67c0-0.83,0.22-1.56,0.67-2.18
				s1.11-0.96,2-1.02l1.25-0.09c1.1-0.06,1.89-0.33,2.38-0.81c0.49-0.48,0.74-1.27,0.74-2.39V1503c0-1.39,0.36-2.46,1.07-3.2
				c0.71-0.74,1.72-1.11,3.03-1.11s2.32,0.37,3.03,1.11c0.71,0.74,1.07,1.81,1.07,3.2v18.92c0,6.37-3.31,9.75-9.93,10.15
				L573.16,1532.16z"/>
			<path class="st24" d="M605.48,1532.3c-3.18,0-5.96-0.7-8.35-2.11c-2.39-1.41-4.25-3.38-5.59-5.91c-1.34-2.53-2-5.49-2-8.85
				c0-3.4,0.66-6.36,1.98-8.88c1.32-2.52,3.18-4.47,5.59-5.86c2.4-1.39,5.19-2.09,8.37-2.09s5.96,0.7,8.35,2.09
				c2.39,1.39,4.25,3.35,5.59,5.86c1.34,2.52,2,5.48,2,8.88c0,3.37-0.67,6.32-2,8.85c-1.34,2.53-3.2,4.5-5.59,5.91
				C611.44,1531.6,608.66,1532.3,605.48,1532.3z M605.48,1525.16c2.32,0,4.13-0.86,5.46-2.57c1.32-1.72,1.98-4.1,1.98-7.16
				c0-3.06-0.65-5.44-1.96-7.14c-1.31-1.7-3.13-2.55-5.48-2.55c-2.34,0-4.17,0.85-5.48,2.55c-1.31,1.7-1.96,4.08-1.96,7.14
				c0,3.06,0.65,5.45,1.96,7.16C601.31,1524.3,603.14,1525.16,605.48,1525.16z"/>
			<path class="st24" d="M630.38,1532.21c-1.31,0-2.31-0.37-3.03-1.11c-0.71-0.74-1.07-1.81-1.07-3.2v-24.48
				c0-1.39,0.36-2.46,1.07-3.2c0.71-0.74,1.74-1.11,3.07-1.11h10.95c3.56,0,6.32,0.9,8.26,2.71c1.94,1.81,2.92,4.32,2.92,7.53
				c0,2.44-0.59,4.49-1.76,6.14c-1.17,1.65-2.87,2.81-5.1,3.45c1.66,0.46,3,1.65,4.01,3.57l2.23,4.17c0.47,0.93,0.69,1.81,0.65,2.64
				c-0.04,0.83-0.36,1.52-0.96,2.06c-0.6,0.54-1.47,0.81-2.63,0.81c-1.16,0-2.1-0.24-2.83-0.72c-0.73-0.48-1.37-1.26-1.94-2.34
				l-4.05-7.74c-0.36-0.68-0.81-1.15-1.36-1.41c-0.55-0.26-1.18-0.39-1.89-0.39h-2.45v8.3c0,1.39-0.35,2.46-1.05,3.2
				C632.73,1531.84,631.71,1532.21,630.38,1532.21z M634.47,1513.57h5.43c3.24,0,4.85-1.33,4.85-3.99c0-2.63-1.62-3.94-4.85-3.94
				h-5.43V1513.57z"/>
			<path class="st24" d="M509.48,1572.63c-1.31,0-2.31-0.37-3.03-1.11c-0.71-0.74-1.07-1.81-1.07-3.2v-24.48
				c0-1.39,0.36-2.46,1.07-3.2c0.71-0.74,1.74-1.11,3.07-1.11h10.95c3.56,0,6.32,0.9,8.26,2.71c1.94,1.81,2.92,4.32,2.92,7.53
				c0,2.44-0.59,4.49-1.76,6.14c-1.17,1.65-2.87,2.81-5.1,3.45c1.66,0.46,3,1.65,4.01,3.57l2.23,4.17c0.47,0.93,0.69,1.81,0.65,2.64
				c-0.04,0.83-0.36,1.52-0.96,2.06c-0.6,0.54-1.47,0.81-2.63,0.81c-1.16,0-2.1-0.24-2.83-0.72c-0.73-0.48-1.37-1.26-1.94-2.34
				l-4.05-7.74c-0.36-0.68-0.81-1.15-1.36-1.41c-0.55-0.26-1.18-0.39-1.89-0.39h-2.45v8.3c0,1.39-0.35,2.46-1.05,3.2
				C511.83,1572.26,510.82,1572.63,509.48,1572.63z M513.58,1554h5.43c3.24,0,4.85-1.33,4.85-3.99c0-2.63-1.62-3.94-4.85-3.94h-5.43
				V1554z"/>
			<path class="st24" d="M540.92,1572.63c-1.31,0-2.31-0.37-3.03-1.11c-0.71-0.74-1.07-1.82-1.07-3.25v-24.8
				c0-1.42,0.36-2.5,1.07-3.24c0.71-0.74,1.72-1.11,3.03-1.11c1.31,0,2.32,0.37,3.03,1.11c0.71,0.74,1.07,1.82,1.07,3.24v24.8
				c0,1.42-0.35,2.5-1.05,3.25C543.27,1572.26,542.25,1572.63,540.92,1572.63z"/>
			<path class="st24" d="M565.85,1572.73c-3.18,0-5.96-0.7-8.35-2.11c-2.39-1.41-4.25-3.38-5.59-5.91c-1.34-2.53-2-5.49-2-8.85
				c0-3.4,0.66-6.36,1.98-8.88c1.32-2.52,3.18-4.47,5.59-5.86c2.4-1.39,5.19-2.09,8.37-2.09s5.96,0.7,8.35,2.09
				c2.39,1.39,4.25,3.35,5.59,5.86c1.34,2.52,2,5.48,2,8.88c0,3.37-0.67,6.32-2,8.85c-1.34,2.53-3.2,4.5-5.59,5.91
				C571.81,1572.02,569.03,1572.73,565.85,1572.73z M565.85,1565.59c2.32,0,4.13-0.86,5.46-2.57c1.32-1.72,1.98-4.1,1.98-7.16
				c0-3.06-0.65-5.44-1.96-7.14c-1.31-1.7-3.13-2.55-5.48-2.55c-2.34,0-4.17,0.85-5.48,2.55c-1.31,1.7-1.96,4.08-1.96,7.14
				c0,3.06,0.65,5.45,1.96,7.16C561.68,1564.73,563.51,1565.59,565.85,1565.59z"/>
			<path class="st24" d="M585.31,1572.59c-1.19,0.06-2.1-0.26-2.74-0.95c-0.64-0.7-0.96-1.58-0.96-2.67c0-0.83,0.22-1.56,0.67-2.18
				c0.45-0.62,1.11-0.96,2-1.02l1.25-0.09c1.1-0.06,1.89-0.33,2.38-0.81c0.49-0.48,0.74-1.27,0.74-2.39v-19.05
				c0-1.39,0.36-2.46,1.07-3.2c0.71-0.74,1.72-1.11,3.03-1.11c1.31,0,2.32,0.37,3.03,1.11c0.71,0.74,1.07,1.81,1.07,3.2v18.92
				c0,6.37-3.31,9.75-9.93,10.15L585.31,1572.59z"/>
			<path class="st24" d="M603.97,1572.63c-1.4,0-2.42-0.49-3.07-1.48c-0.65-0.99-0.65-2.23,0-3.71l11.09-24.85
				c0.54-1.21,1.19-2.09,1.96-2.64c0.77-0.56,1.68-0.83,2.72-0.83c1.01,0,1.9,0.28,2.67,0.83c0.77,0.56,1.42,1.44,1.96,2.64
				l11.09,24.85c0.68,1.51,0.71,2.76,0.09,3.73c-0.62,0.97-1.6,1.46-2.94,1.46c-1.19,0-2.1-0.28-2.74-0.84
				c-0.64-0.56-1.21-1.45-1.71-2.69l-1.42-3.52h-14.03l-1.42,3.52c-0.53,1.24-1.08,2.13-1.65,2.69
				C605.99,1572.36,605.13,1572.63,603.97,1572.63z M616.57,1548.43l-4.27,10.62h8.64l-4.27-10.62H616.57z"/>
			<path class="st24" d="M640.31,1572.63c-2.55,0-3.83-1.35-3.83-4.03v-25.27c0-1.36,0.33-2.4,0.98-3.13
				c0.65-0.73,1.51-1.09,2.58-1.09c0.95,0,1.68,0.19,2.2,0.56c0.52,0.37,1.12,0.99,1.8,1.85l12.87,16.74v-15.16
				c0-2.66,1.26-3.99,3.78-3.99c1.25,0,2.19,0.35,2.83,1.04c0.64,0.7,0.96,1.68,0.96,2.94v25.68c0,1.17-0.3,2.11-0.89,2.81
				c-0.59,0.7-1.39,1.04-2.4,1.04s-1.8-0.19-2.38-0.56c-0.58-0.37-1.19-0.99-1.85-1.85l-12.87-16.74v15.11
				C644.09,1571.29,642.83,1572.63,640.31,1572.63z"/>
			<path class="st24" d="M671.7,1572.63c-1.4,0-2.42-0.49-3.07-1.48c-0.65-0.99-0.65-2.23,0-3.71l11.09-24.85
				c0.54-1.21,1.19-2.09,1.96-2.64c0.77-0.56,1.68-0.83,2.72-0.83c1.01,0,1.9,0.28,2.67,0.83c0.77,0.56,1.42,1.44,1.96,2.64
				l11.09,24.85c0.68,1.51,0.71,2.76,0.09,3.73c-0.62,0.97-1.6,1.46-2.94,1.46c-1.19,0-2.1-0.28-2.74-0.84
				c-0.64-0.56-1.21-1.45-1.71-2.69l-1.42-3.52h-14.03l-1.42,3.52c-0.53,1.24-1.08,2.13-1.65,2.69
				C673.72,1572.36,672.86,1572.63,671.7,1572.63z M684.3,1548.43l-4.27,10.62h8.64l-4.27-10.62H684.3"/>
			<path class="st24" d="M715.47,1572.73c-1.81,0-3.67-0.19-5.59-0.58c-1.91-0.39-3.56-0.93-4.92-1.65c-0.8-0.4-1.37-0.94-1.69-1.62
				c-0.33-0.68-0.45-1.38-0.36-2.11c0.09-0.73,0.34-1.38,0.76-1.95c0.41-0.57,0.96-0.96,1.65-1.16c0.68-0.2,1.45-0.1,2.31,0.3
				c1.13,0.59,2.41,1.03,3.83,1.32c1.42,0.29,2.76,0.44,4.01,0.44c1.96,0,3.33-0.27,4.12-0.81c0.79-0.54,1.18-1.21,1.18-2.02
				c0-0.71-0.27-1.28-0.82-1.72c-0.55-0.43-1.52-0.8-2.92-1.11l-5.21-1.16c-5.64-1.27-8.46-4.34-8.46-9.23c0-2.13,0.56-4,1.67-5.61
				c1.11-1.61,2.66-2.85,4.65-3.73c1.99-0.88,4.3-1.32,6.95-1.32c1.54,0,3.11,0.18,4.7,0.53c1.59,0.36,2.96,0.89,4.12,1.6
				c0.89,0.5,1.45,1.17,1.69,2.02c0.24,0.85,0.21,1.68-0.09,2.48c-0.3,0.8-0.82,1.39-1.58,1.76c-0.76,0.37-1.71,0.31-2.87-0.19
				c-0.89-0.4-1.87-0.7-2.94-0.9c-1.07-0.2-2.11-0.3-3.12-0.3c-1.66,0-2.94,0.3-3.83,0.9c-0.89,0.6-1.34,1.38-1.34,2.34
				c0,0.68,0.27,1.24,0.8,1.67c0.53,0.43,1.48,0.8,2.85,1.11l5.17,1.16c5.73,1.27,8.59,4.27,8.59,8.99c0,2.13-0.55,3.99-1.65,5.56
				c-1.1,1.58-2.64,2.8-4.63,3.66C720.52,1572.29,718.17,1572.73,715.47,1572.73z"/>
		</g>
		<g>
			<path class="st24" d="M514.13,1595.34v1.7h-8.8v-11.93h8.57v1.68h-6.57v3.36h5.84v1.66h-5.84v3.53H514.13z"/>
			<path class="st24" d="M529.27,1597.04l-0.02-8.27l-4.05,6.84h-0.93l-4.05-6.65v8.08h-1.92v-11.93h1.71l4.75,8.02l4.67-8.02h1.73
				l0.02,11.93H529.27z"/>
			<path class="st24" d="M544.85,1586.23c0.89,0.74,1.34,1.77,1.34,3.09c0,1.33-0.45,2.37-1.34,3.11c-0.89,0.74-2.12,1.11-3.67,1.11
				h-2.79v3.51h-2v-11.93h4.79C542.73,1585.11,543.96,1585.49,544.85,1586.23z M543.38,1591.18c0.53-0.43,0.8-1.06,0.8-1.87
				c0-0.81-0.26-1.44-0.8-1.87c-0.53-0.43-1.3-0.65-2.32-0.65h-2.66v5.04h2.66C542.07,1591.83,542.85,1591.62,543.38,1591.18z"/>
			<path class="st24" d="M558.3,1597.04l-2.52-3.57c-0.11,0.01-0.29,0.02-0.54,0.02h-2.79v3.55h-2v-11.93h4.79
				c1.56,0,2.78,0.37,3.67,1.11c0.89,0.74,1.34,1.77,1.34,3.09c0,0.91-0.22,1.69-0.67,2.33c-0.45,0.64-1.08,1.13-1.91,1.45
				l2.79,3.95H558.3z M557.44,1591.18c0.53-0.43,0.8-1.06,0.8-1.87c0-0.81-0.26-1.44-0.8-1.87c-0.53-0.43-1.3-0.65-2.32-0.65h-2.66
				v5.04h2.66C556.14,1591.83,556.91,1591.62,557.44,1591.18z"/>
			<path class="st24" d="M573.45,1595.34v1.7h-8.8v-11.93h8.57v1.68h-6.57v3.36h5.84v1.66h-5.84v3.53H573.45z"/>
			<path class="st24" d="M578.4,1596.82c-0.86-0.26-1.53-0.61-2.01-1.04l0.78-1.59c0.47,0.39,1.06,0.71,1.77,0.94
				c0.71,0.24,1.44,0.36,2.2,0.36c0.92,0,1.6-0.15,2.03-0.46c0.43-0.31,0.65-0.71,0.65-1.2c0-0.38-0.13-0.69-0.38-0.92
				c-0.26-0.24-0.57-0.42-0.96-0.55c-0.39-0.13-0.91-0.26-1.57-0.4c-0.9-0.2-1.62-0.4-2.18-0.61c-0.56-0.21-1.03-0.54-1.42-1
				c-0.39-0.45-0.59-1.07-0.59-1.86c0-1.06,0.42-1.92,1.27-2.57c0.85-0.65,2-0.98,3.46-0.98c0.74,0,1.46,0.09,2.16,0.26
				c0.7,0.18,1.29,0.43,1.79,0.77l-0.72,1.64c-0.89-0.63-1.99-0.94-3.28-0.94c-0.89,0-1.56,0.16-2,0.47
				c-0.44,0.32-0.66,0.72-0.66,1.23c0,0.38,0.13,0.69,0.38,0.92c0.25,0.24,0.58,0.42,0.97,0.55c0.39,0.13,0.92,0.26,1.58,0.4
				c0.91,0.21,1.63,0.42,2.18,0.62c0.54,0.2,1.01,0.53,1.4,0.98c0.39,0.45,0.59,1.05,0.59,1.81c0,1.09-0.42,1.96-1.27,2.6
				c-0.85,0.64-2.01,0.97-3.5,0.97C580.14,1597.21,579.26,1597.08,578.4,1596.82z"/>
			<path class="st24" d="M597.26,1594.21h-6.3l-1.24,2.83h-1.96l5.37-11.93h1.98l5.39,11.93h-2.02L597.26,1594.21z M596.56,1592.59
				l-2.44-5.63l-2.46,5.63H596.56z"/>
			<path class="st24" d="M604.46,1596.82c-0.86-0.26-1.53-0.61-2.01-1.04l0.78-1.59c0.47,0.39,1.06,0.71,1.77,0.94
				c0.71,0.24,1.44,0.36,2.2,0.36c0.92,0,1.6-0.15,2.03-0.46c0.43-0.31,0.65-0.71,0.65-1.2c0-0.38-0.13-0.69-0.38-0.92
				c-0.26-0.24-0.57-0.42-0.96-0.55c-0.39-0.13-0.91-0.26-1.57-0.4c-0.9-0.2-1.62-0.4-2.18-0.61c-0.56-0.21-1.03-0.54-1.42-1
				c-0.39-0.45-0.59-1.07-0.59-1.86c0-1.06,0.42-1.92,1.27-2.57c0.85-0.65,2-0.98,3.46-0.98c0.74,0,1.46,0.09,2.16,0.26
				c0.7,0.18,1.29,0.43,1.79,0.77l-0.72,1.64c-0.89-0.63-1.99-0.94-3.28-0.94c-0.89,0-1.56,0.16-2,0.47
				c-0.44,0.32-0.66,0.72-0.66,1.23c0,0.38,0.13,0.69,0.38,0.92c0.25,0.24,0.58,0.42,0.97,0.55c0.39,0.13,0.92,0.26,1.58,0.4
				c0.91,0.21,1.63,0.42,2.18,0.62c0.54,0.2,1.01,0.53,1.4,0.98c0.39,0.45,0.59,1.05,0.59,1.81c0,1.09-0.42,1.96-1.27,2.6
				c-0.85,0.64-2.01,0.97-3.5,0.97C606.2,1597.21,605.32,1597.08,604.46,1596.82z"/>
			<path class="st24" d="M631.39,1595.34v1.7h-8.8v-11.93h8.57v1.68h-6.57v3.36h5.84v1.66h-5.84v3.53H631.39z"/>
			<path class="st24" d="M636.34,1596.82c-0.86-0.26-1.53-0.61-2.01-1.04l0.78-1.59c0.47,0.39,1.06,0.71,1.77,0.94
				c0.71,0.24,1.44,0.36,2.2,0.36c0.92,0,1.6-0.15,2.03-0.46c0.43-0.31,0.65-0.71,0.65-1.2c0-0.38-0.13-0.69-0.38-0.92
				c-0.26-0.24-0.57-0.42-0.96-0.55c-0.39-0.13-0.91-0.26-1.57-0.4c-0.9-0.2-1.62-0.4-2.18-0.61c-0.56-0.21-1.03-0.54-1.42-1
				c-0.39-0.45-0.59-1.07-0.59-1.86c0-1.06,0.42-1.92,1.27-2.57c0.85-0.65,2-0.98,3.46-0.98c0.74,0,1.46,0.09,2.16,0.26
				c0.7,0.18,1.29,0.43,1.79,0.77l-0.72,1.64c-0.89-0.63-1.99-0.94-3.28-0.94c-0.89,0-1.56,0.16-2,0.47
				c-0.44,0.32-0.66,0.72-0.66,1.23c0,0.38,0.13,0.69,0.38,0.92c0.25,0.24,0.58,0.42,0.97,0.55c0.39,0.13,0.92,0.26,1.58,0.4
				c0.91,0.21,1.63,0.42,2.18,0.62c0.54,0.2,1.01,0.53,1.4,0.98c0.39,0.45,0.59,1.05,0.59,1.81c0,1.09-0.42,1.96-1.27,2.6
				c-0.85,0.64-2.01,0.97-3.5,0.97C638.08,1597.21,637.2,1597.08,636.34,1596.82z"/>
			<path class="st24" d="M649.61,1586.79h-4.01v-1.68h10.01v1.68h-4.01v10.25h-2V1586.79z"/>
			<path class="st24" d="M665.65,1594.21h-6.3l-1.24,2.83h-1.96l5.37-11.93h1.98l5.39,11.93h-2.02L665.65,1594.21z M664.95,1592.59
				l-2.44-5.63l-2.46,5.63H664.95z"/>
			<path class="st24" d="M673.43,1586.79h-4.01v-1.68h10.01v1.68h-4.01v10.25h-2V1586.79z"/>
			<path class="st24" d="M689.48,1594.21h-6.3l-1.24,2.83h-1.96l5.37-11.93h1.98l5.39,11.93h-2.02L689.48,1594.21z M688.78,1592.59
				l-2.44-5.63l-2.46,5.63H688.78z"/>
			<path class="st24" d="M695.9,1585.11h2v10.22h6.3v1.7h-8.3V1585.11z"/>
			<path class="st24" d="M716.36,1595.34v1.7h-8.8v-11.93h8.57v1.68h-6.57v3.36h5.84v1.66h-5.84v3.53H716.36z"/>
			<path class="st24" d="M721.31,1596.82c-0.86-0.26-1.53-0.61-2.01-1.04l0.78-1.59c0.47,0.39,1.06,0.71,1.77,0.94
				c0.71,0.24,1.44,0.36,2.2,0.36c0.92,0,1.6-0.15,2.03-0.46c0.43-0.31,0.65-0.71,0.65-1.2c0-0.38-0.13-0.69-0.38-0.92
				c-0.26-0.24-0.57-0.42-0.96-0.55c-0.39-0.13-0.91-0.26-1.57-0.4c-0.9-0.2-1.62-0.4-2.18-0.61c-0.56-0.21-1.03-0.54-1.42-1
				c-0.39-0.45-0.59-1.07-0.59-1.86c0-1.06,0.42-1.92,1.27-2.57c0.85-0.65,2-0.98,3.46-0.98c0.74,0,1.46,0.09,2.16,0.26
				c0.7,0.18,1.29,0.43,1.79,0.77l-0.72,1.64c-0.89-0.63-1.99-0.94-3.28-0.94c-0.89,0-1.56,0.16-2,0.47
				c-0.44,0.32-0.66,0.72-0.66,1.23c0,0.38,0.13,0.69,0.38,0.92c0.25,0.24,0.58,0.42,0.97,0.55c0.39,0.13,0.92,0.26,1.58,0.4
				c0.91,0.21,1.63,0.42,2.18,0.62c0.54,0.2,1.01,0.53,1.4,0.98c0.39,0.45,0.59,1.05,0.59,1.81c0,1.09-0.42,1.96-1.27,2.6
				c-0.85,0.64-2.01,0.97-3.5,0.97C723.05,1597.21,722.17,1597.08,721.31,1596.82z"/>
		</g>
		<path class="st25" d="M434.58,1468.16c0.85,0.93,2.16,1.33,3,2.24c-0.69,0.67-5.04,4.76-5.69,5.38
			c-3.72,3.54-7.44,7.08-11.19,10.59c-0.55,0.52-0.77,1.04-0.74,1.79c0.05,1.53,0.01,3.07,0.01,4.88c0.43-0.38,0.72-0.63,1-0.89
			c7.51-7.12,15.01-14.24,22.51-21.37c1.51-1.43,2.06-1.45,3.67-0.09c2.67,2.26,5.33,4.52,8,6.78c0.29,0.24,0.59,0.47,0.91,0.73
			c3.79-4.17,7.52-8.28,11.26-12.4c2.97-3.27,5.93-6.55,8.91-9.82c1.12-1.23,1.77-1.32,3.14-0.42c0.73,0.48,1.45,0.97,2.18,1.44
			c0.05,0.03,0.14,0,0.34,0c0.4-4.05,0.8-8.12,1.22-12.37c-3.94,1.2-7.73,2.35-11.78,3.58c0.79,0.56,1.4,0.97,1.99,1.41
			c1.17,0.87,1.35,1.95,0.39,3.03c-5.34,6.06-10.69,12.11-16.06,18.14c-0.91,1.03-1.8,1-2.97,0.02c-3.08-2.6-6.14-5.2-9.28-7.86
			c-2.84,2.69-5.65,5.35-8.54,8.09c-0.83-0.9-1.61-1.76-2.46-2.68c1.2-1.14,2.35-2.24,3.5-3.34c1.88-1.78,3.75-3.56,5.63-5.34
			c1.45-1.38,2.02-1.4,3.58-0.08c2.64,2.23,5.28,4.47,7.92,6.7c0.31,0.27,0.64,0.52,1.01,0.83c4.59-5.19,9.12-10.31,13.71-15.5
			c-1.19-0.81-2.28-1.57-3.38-2.3c-0.72-0.47-1.21-1.07-1.08-1.98c0.14-0.96,0.79-1.38,1.67-1.64c5.74-1.73,11.47-3.51,17.21-5.25
			c1.95-0.59,2.99,0.32,2.78,2.38c-0.58,5.8-1.16,11.6-1.74,17.4c-0.2,1.97-1.53,2.63-3.17,1.55c-1.26-0.83-2.5-1.69-3.81-2.57
			c-1.9,2.08-3.74,4.1-5.58,6.13c-4.89,5.39-9.77,10.78-14.66,16.17c-1.26,1.39-2.01,1.44-3.46,0.22c-3.01-2.55-6.03-5.1-9.12-7.72
			c-1.43,1.35-2.84,2.67-4.24,4c-7.09,6.73-14.18,13.46-21.26,20.2c-0.68,0.65-1.37,1.26-2.39,0.83c-1.07-0.44-1.18-1.35-1.18-2.37
			c0.02-3.3-0.02-6.6,0.04-9.9c0.01-0.63,0.22-1.45,0.64-1.86C421.75,1480.34,429.7,1472.8,434.58,1468.16z"/>
		<path class="st1" d="M408.4,1568.47c0,8.08-0.01,16.17,0.01,24.25c0,0.83-0.12,1.62-0.49,2.35c-0.37,0.74-0.94,1.31-1.64,1.76
			c-0.79,0.5-1.64,0.59-2.55,0.55c-0.97-0.04-1.77-0.46-2.49-1.05c-0.53-0.42-0.99-0.92-1.48-1.4c-0.51-0.51-1.01-1.03-1.52-1.55
			c-0.6-0.61-1.2-1.23-1.8-1.84c-0.46-0.46-0.93-0.91-1.39-1.37c-0.58-0.58-1.14-1.17-1.72-1.75c-0.35-0.35-0.71-0.68-1.06-1.02
			c-0.3-0.29-0.59-0.59-0.88-0.88c-0.55-0.55-1.1-1.11-1.65-1.67c-0.53-0.54-1.04-1.08-1.57-1.62c-0.25-0.25-0.5-0.5-0.75-0.75
			c-0.61-0.62-1.21-1.24-1.82-1.85c-0.73-0.73-1.47-1.45-2.2-2.18c-0.54-0.54-1.06-1.11-1.6-1.65c-0.52-0.52-1.06-1.03-1.58-1.55
			c-0.26-0.26-0.51-0.53-0.77-0.79c-0.63-0.63-1.26-1.25-1.88-1.88c-0.52-0.53-1.04-1.06-1.56-1.59c-0.5-0.51-1-1.01-1.5-1.51
			c-0.55-0.56-1.1-1.12-1.65-1.67c-0.55-0.55-1.1-1.08-1.65-1.63c-0.49-0.49-0.98-0.99-1.47-1.48c-0.8-0.81-1.6-1.61-2.4-2.42
			c-0.61-0.62-1.22-1.24-1.83-1.86c-0.85-0.86-1.7-1.72-2.54-2.58c-0.92-0.94-1.84-1.87-2.77-2.8c-0.6-0.6-1.21-1.17-1.81-1.77
			c-0.62-0.62-1.22-1.25-1.84-1.87c-1.19-1.2-2.38-2.4-3.58-3.6c-0.63-0.63-1.22-1.31-1.51-2.16c-0.19-0.54-0.23-1.15-0.25-1.73
			c-0.03-0.97,0.28-1.85,0.88-2.6c0.71-0.89,1.6-1.54,2.76-1.67c0.56-0.06,1.12-0.11,1.68-0.11c15.71-0.01,31.42,0,47.12-0.01
			c0.63,0,1.24,0.06,1.84,0.24c0.7,0.21,1.27,0.62,1.76,1.14c0.79,0.85,1.14,1.88,1.14,3.05
			C408.4,1552.13,408.4,1560.3,408.4,1568.47z"/>
		<g>
			<g>
				<path class="st10" d="M459.4,1539.55c-4.03,19.35-23.75,32.32-43.33,29.02v-9.35c14.41,3.19,29.77-5.2,34.44-19.68H459.4z"/>
				<path class="st10" d="M443.6,1539.55c-3.41,8.44-11.97,14.3-21.02,14.34c-2.26,0.01-4.45-0.32-6.51-0.92v-9.88
					c4.3,2.35,9.63,2.34,14.61-1.17c0.95-0.67,1.81-1.47,2.54-2.36H443.6z"/>
			</g>
			<g>
				<ellipse class="st10" cx="418.42" cy="1573.73" rx="1.5" ry="1.53"/>
				<ellipse class="st10" cx="418.49" cy="1583.23" rx="2.09" ry="2.12"/>
				<path class="st10" d="M420.98,1595.15c0,1.39-1.11,2.52-2.48,2.52c-1.37,0-2.48-1.13-2.48-2.52c0-1.39,1.11-2.52,2.48-2.52
					C419.87,1592.63,420.98,1593.76,420.98,1595.15z"/>
			</g>
			<g>
				<path class="st10" d="M432.73,1573.28c0.13,0.83-0.43,1.62-1.25,1.75c-0.82,0.13-1.59-0.43-1.72-1.27
					c-0.13-0.83,0.43-1.62,1.25-1.75C431.83,1571.88,432.6,1572.44,432.73,1573.28z"/>
				<path class="st10" d="M434.86,1582.55c0.18,1.16-0.59,2.24-1.73,2.43c-1.14,0.19-2.21-0.6-2.39-1.76
					c-0.18-1.16,0.59-2.24,1.73-2.43C433.61,1580.61,434.68,1581.39,434.86,1582.55z"/>
				<ellipse class="st10" cx="434.67" cy="1594.66" rx="2.48" ry="2.52"/>
			</g>
			<g>
				<path class="st10" d="M444.47,1569.07c0.43,0.72,0.21,1.66-0.49,2.1c-0.71,0.44-1.63,0.22-2.07-0.5
					c-0.43-0.72-0.21-1.66,0.49-2.1C443.11,1568.13,444.04,1568.35,444.47,1569.07z"/>
				<path class="st10" d="M449.93,1576.81c0.6,1,0.3,2.3-0.68,2.92c-0.98,0.61-2.27,0.3-2.87-0.7c-0.6-1-0.3-2.3,0.68-2.92
					C448.04,1575.5,449.33,1575.82,449.93,1576.81z"/>
				<path class="st10" d="M456.42,1586.75c0.72,1.19,0.35,2.74-0.81,3.47c-1.17,0.73-2.7,0.36-3.41-0.83
					c-0.72-1.19-0.35-2.74,0.81-3.47C454.17,1585.2,455.7,1585.57,456.42,1586.75z"/>
			</g>
			<g>
				<path class="st10" d="M454.19,1560.41c0.63,0.55,0.67,1.55,0.09,2.25c-0.58,0.7-1.57,0.82-2.2,0.28
					c-0.63-0.55-0.67-1.55-0.09-2.25C452.57,1559.98,453.56,1559.86,454.19,1560.41z"/>
				<path class="st10" d="M461.78,1565.99c0.88,0.76,0.94,2.16,0.13,3.13c-0.81,0.97-2.18,1.14-3.05,0.39
					c-0.88-0.76-0.94-2.16-0.13-3.13C459.53,1565.41,460.9,1565.23,461.78,1565.99z"/>
				<path class="st10" d="M471.01,1573.36c1.05,0.9,1.11,2.57,0.15,3.72c-0.96,1.15-2.59,1.36-3.63,0.46
					c-1.05-0.9-1.11-2.57-0.15-3.72C468.34,1572.66,469.97,1572.45,471.01,1573.36z"/>
			</g>
			<g>
				<path class="st10" d="M461.23,1550.01c0.75,0.37,1.06,1.28,0.7,2.04c-0.36,0.76-1.26,1.08-2.01,0.71
					c-0.75-0.37-1.06-1.28-0.7-2.04C459.59,1549.96,460.48,1549.64,461.23,1550.01z"/>
				<ellipse class="st10" cx="469.01" cy="1555.47" rx="2.09" ry="2.12"/>
				<path class="st10" d="M480.65,1558.4c1.23,0.61,1.75,2.12,1.15,3.37c-0.6,1.25-2.08,1.78-3.32,1.17
					c-1.23-0.61-1.75-2.12-1.15-3.37C477.93,1558.31,479.41,1557.79,480.65,1558.4z"/>
			</g>
			<g>
				<path class="st10" d="M463.42,1540.48c0.83,0.01,1.5,0.7,1.49,1.54c-0.01,0.84-0.69,1.52-1.52,1.51
					c-0.83-0.01-1.5-0.7-1.49-1.54C461.91,1541.15,462.59,1540.47,463.42,1540.48z"/>
				<path class="st10" d="M472.77,1539.91c1.15,0.01,2.08,0.97,2.06,2.14c-0.01,1.17-0.96,2.11-2.11,2.1
					c-1.15-0.01-2.08-0.97-2.06-2.14C470.67,1540.84,471.62,1539.9,472.77,1539.91z"/>
				<path class="st10" d="M484.5,1539.63c1.37,0.01,2.47,1.16,2.45,2.55c-0.01,1.39-1.14,2.51-2.51,2.5
					c-1.37-0.01-2.47-1.16-2.45-2.55S483.13,1539.61,484.5,1539.63z"/>
			</g>
		</g>
		<path class="st16" d="M422.13,1473.41"/>
		<g>
			<path class="st25" d="M434.14,1518.56c0.81-5.7,3.01-11.16,6.24-15.73h-8.07c-2.91,5.34-4.79,11.22-5.46,17.22
				c-0.41,3.71-0.31,7.48,0.22,11.17h7.62C433.73,1527.19,433.52,1522.83,434.14,1518.56z"/>
			<path class="st25" d="M424.1,1531.22c-0.51-3.81-0.6-7.69-0.18-11.5c0.65-5.86,2.38-11.6,5.05-16.89h-7.53
				c-2.56,5.86-4.2,12.04-4.8,18.31c-0.12,1.29-0.2,2.59-0.23,3.88v2.8c0.03,1.08,0.08,2.16,0.17,3.24c0.1,0.1,0.24,0.16,0.39,0.16
				H424.1z"/>
			<path class="st25" d="M437.05,1518.99c-0.59,4.16-0.35,8.38,0.66,12.23h9.79c-1.81-0.81-3.07-2.58-3.59-5.15
				c-0.5-2.44-0.33-5.55,0.46-8.77c0.79-3.19,2.12-6.19,3.74-8.44c1.96-2.72,4.27-4.24,6.68-4.41c1.82-0.13,3.34,0.47,4.38,1.72
				c2.17,2.63,1.61,7.34,0.76,10.82c-0.71,2.9-1.91,6.02-3.29,8.56c-1.58,2.89-3.18,4.74-4.76,5.5c-0.14,0.07-0.27,0.12-0.4,0.17
				h9.31c1.6-3.43,2.98-6.89,4.05-10.2c1.83-5.71,2.74-10.71,2.71-14.86c-0.01-1.21-0.16-2.31-0.41-3.33H444.1
				C440.4,1507.32,437.9,1513.01,437.05,1518.99z"/>
			<path class="st25" d="M486.84,1503.4c0-0.32-0.25-0.57-0.56-0.57h-5.73c-0.01,0.16,0,0.3-0.01,0.46
				c-0.43,7.09-2.13,14.79-5.19,23.54c-0.5,1.44-1.05,2.91-1.63,4.39h6.38c0.07-0.18,0.14-0.37,0.21-0.56
				c3.16-8.68,5.3-16.68,6.53-24.26V1503.4z"/>
			<path class="st25" d="M416.41,1503.4v4.39c0.54-1.67,1.14-3.33,1.82-4.96h-1.25C416.66,1502.83,416.41,1503.08,416.41,1503.4z"/>
			<path class="st25" d="M454.07,1524.09c1.26-2.31,2.36-5.17,3.01-7.83c0.94-3.85,0.88-6.91-0.16-8.17
				c-0.26-0.32-0.75-0.74-1.92-0.66c-1.91,0.13-3.5,1.81-4.5,3.19c-1.41,1.95-2.56,4.57-3.26,7.4c-0.69,2.79-0.84,5.43-0.44,7.44
				c0.38,1.88,1.19,2.95,2.41,3.2c0.35,0.07,0.84-0.04,1.43-0.32C451.36,1527.99,452.65,1526.69,454.07,1524.09z"/>
			<path class="st25" d="M486.84,1530.64V1520c-1.01,3.63-2.21,7.36-3.6,11.22h3.03C486.59,1531.22,486.84,1530.96,486.84,1530.64z"
				/>
			<path class="st25" d="M477.6,1503.1c0.01-0.09,0.01-0.18,0.01-0.28h-7.46c0.21,1.04,0.32,2.14,0.33,3.3
				c0.04,4.47-0.92,9.79-2.85,15.82c-0.97,3.02-2.2,6.15-3.6,9.28h6.53c0.73-1.83,1.4-3.62,2.02-5.39
				C475.54,1517.34,477.18,1509.9,477.6,1503.1z"/>
		</g>
		<g>
			<path class="st7" d="M400.04,1485.49h-6.25c-0.15,0-0.3,0.06-0.41,0.17c-0.11,0.11-0.17,0.26-0.17,0.42v1.64h7.71l-0.31-1.74
				C400.56,1485.69,400.32,1485.49,400.04,1485.49z"/>
			<polygon class="st7" points="393.24,1508.95 404.15,1508.95 400.94,1491.06 393.24,1491.06 			"/>
			<path class="st9" d="M404.23,1508.95h-0.07h-10.91h-0.18l-20.56-15.91c-0.17-0.13-0.41-0.16-0.61-0.06
				c-0.2,0.1-0.32,0.3-0.32,0.53V1508l-19.32-14.96c-0.17-0.13-0.41-0.16-0.61-0.06c-0.2,0.1-0.32,0.3-0.32,0.53v16.03v21.18
				c0,0.16,0.06,0.31,0.17,0.42c0.11,0.11,0.26,0.17,0.41,0.17h55.94c0.17,0,0.33-0.08,0.44-0.21c0.11-0.13,0.16-0.31,0.13-0.48
				l-3.62-21.18C404.75,1509.15,404.51,1508.95,404.23,1508.95z M365.17,1513.77c0,0.14-0.05,0.26-0.15,0.36
				c-0.1,0.1-0.22,0.15-0.35,0.15h-7.5c-0.13,0-0.26-0.05-0.35-0.15c-0.09-0.1-0.15-0.23-0.15-0.36v-2.24
				c0-0.13,0.05-0.27,0.15-0.36c0.09-0.09,0.22-0.15,0.35-0.15h7.5c0.13,0,0.26,0.05,0.35,0.15c0.1,0.1,0.15,0.22,0.15,0.36V1513.77
				z M385.35,1513.77c0,0.14-0.05,0.26-0.15,0.36c-0.1,0.1-0.22,0.15-0.35,0.15h-7.5c-0.13,0-0.26-0.05-0.35-0.15
				c-0.1-0.1-0.15-0.23-0.15-0.36v-2.24c0-0.13,0.05-0.27,0.15-0.36c0.09-0.09,0.22-0.15,0.35-0.15h7.5c0.13,0,0.26,0.05,0.35,0.15
				c0.09,0.1,0.15,0.22,0.15,0.36V1513.77z"/>
		</g>
	</g>
	<g>
		<defs>
			<rect id="SVGID_18_" x="-0.37" y="1646.61" width="1082.64" height="274.97"/>
		</defs>
		<clipPath id="SVGID_19_">
			<use xlink:href="#SVGID_18_"  style="overflow:visible;"/>
		</clipPath>
		<g class="st26">
			<defs>
				<path id="SVGID_20_" d="M1093.61,1713.06v278.46H-13.62v-302.56c274.81-56.33,281.65,259.18,447.93,162.12
					C693.47,1699.82,837.06,1878.27,1093.61,1713.06z"/>
			</defs>
			<clipPath id="SVGID_21_">
				<use xlink:href="#SVGID_20_"  style="overflow:visible;"/>
			</clipPath>
			<g class="st27">
				<defs>
					<path id="SVGID_22_" d="M1437.98,1394.37v614.04H-25.19v-614.04C132.03,1631.01,401,1786.99,706.4,1786.99
						S1280.76,1631.01,1437.98,1394.37z"/>
				</defs>
				<clipPath id="SVGID_23_">
					<use xlink:href="#SVGID_22_"  style="overflow:visible;"/>
				</clipPath>
				<rect x="246.7" y="1279.16" class="st28" width="1509.37" height="749.72"/>
				<g class="st29">
					<g>
						
							<rect x="-185.62" y="1119.27" transform="matrix(4.492324e-11 -1 1 4.492324e-11 -1165.4808 1586.7362)" class="st30" width="792.49" height="513.67"/>
						
							<rect x="-41.61" y="1509.52" transform="matrix(4.488327e-11 -1 1 4.488327e-11 -1543.9692 1976.9854)" class="st31" width="516.23" height="501.91"/>
						<g>
							<path class="st25" d="M435.22,1185.55c5.98,42.27,3.55,85.27-6.65,124.42h-98.68c18.2-8.2,30.91-26.28,36.16-52.4
								c4.99-24.8,3.33-56.48-4.67-89.21c-7.92-32.45-21.32-62.94-37.72-85.85c-19.8-27.65-43.07-43.15-67.3-44.83
								c-18.37-1.35-33.7,4.77-44.09,17.52c-21.87,26.8-16.24,74.62-7.67,110.01c7.16,29.53,19.25,61.25,33.2,87.04
								c15.89,29.42,32.02,48.25,47.93,55.96c1.38,0.67,2.72,1.19,4.07,1.76h-93.85c-16.09-34.9-30.06-70.09-40.77-103.79
								c-18.48-58.1-27.66-108.95-27.27-151.14c0.11-12.3,1.6-23.51,4.16-33.85h232.1C401.39,1066.92,426.62,1124.77,435.22,1185.55
								z"/>
							<path class="st25" d="M-66.6,1027.03c0-3.22,2.55-5.84,5.69-5.84h57.7c0.08,1.59,0.02,3.09,0.12,4.7
								c4.37,72.06,21.47,150.39,52.28,239.45c5.07,14.67,10.6,29.58,16.4,44.64H1.27c-0.68-1.88-1.43-3.78-2.1-5.66
								c-31.82-88.31-53.43-169.62-65.76-246.8V1027.03z"/>
							<path class="st25" d="M263.71,1237.5c-12.73-23.54-23.79-52.56-30.34-79.62c-9.49-39.18-8.89-70.26,1.62-83.13
								c2.65-3.25,7.55-7.55,19.39-6.69c19.22,1.33,35.29,18.4,45.38,32.48c14.17,19.79,25.84,46.51,32.86,75.23
								c6.93,28.38,8.5,55.25,4.39,75.67c-3.84,19.09-12.01,30.04-24.27,32.52c-3.55,0.7-8.42-0.37-14.37-3.24
								C290.97,1277.11,277.97,1263.88,263.71,1237.5z"/>
							<path class="st25" d="M26.51,1023.99c-0.06-0.91-0.09-1.87-0.14-2.8h75.2c-2.08,10.56-3.22,21.76-3.33,33.56
								c-0.41,45.5,9.26,99.62,28.74,160.87c9.75,30.7,22.19,62.56,36.31,94.35H97.47c-7.33-18.56-14.12-36.85-20.33-54.82
								C47.27,1168.79,30.71,1093.18,26.51,1023.99z"/>
						</g>
						<g>
							<path class="st9" d="M169.38,1269.78v0.89v130.93v2.1L-19.8,1650.37c-1.6,2.09-1.87,4.91-0.71,7.26
								c1.18,2.37,3.62,3.88,6.27,3.88h172.28L-19.8,1893.37c-1.6,2.09-1.87,4.92-0.71,7.27c1.18,2.37,3.62,3.87,6.27,3.87h190.62
								h251.79c1.84,0,3.65-0.74,4.96-2.04c1.29-1.29,2.04-3.08,2.04-4.91V1226.3c0-2.06-0.91-3.99-2.5-5.32
								c-1.59-1.32-3.64-1.88-5.69-1.52l-251.81,43.49C171.82,1263.53,169.38,1266.4,169.38,1269.78z"/>
							<polygon class="st32" points="169.88,1403.09 169.88,1267.07 -51.07,1307.1 -51.07,1403.09 							"/>
						</g>
						<polygon class="st33" points="487.54,1799.74 467.46,2018.59 -34.45,2018.59 -34.45,1902.47 						"/>
						<path class="st34" d="M634.76,1907.29c14.94-0.48,29.91-0.14,47.54-0.14c-3.73-4.23-6.13-7.1-8.68-9.82
							c-69.42-73.83-138.85-147.66-208.29-221.47c-13.99-14.87-14.18-20.23-0.89-36.07c22.02-26.24,44.08-52.45,66.1-78.69
							c2.36-2.82,4.57-5.77,7.08-8.95c-40.64-37.24-80.74-74.01-120.87-110.76c-31.89-29.21-63.81-58.38-95.69-87.6
							c-12.02-11.02-12.83-17.38-4.08-30.88c4.65-7.17,9.41-14.27,14.05-21.45c0.32-0.5,0.04-1.38,0.04-3.39
							c-39.52-3.93-79.11-7.87-120.59-11.99c11.66,38.71,22.91,76.04,34.9,115.84c5.44-7.77,9.46-13.74,13.71-19.55
							c8.47-11.55,18.97-13.27,29.55-3.87c59.08,52.5,118.03,105.15,176.86,157.94c10.01,8.98,9.73,17.75,0.16,29.18
							c-25.32,30.25-50.72,60.44-76.61,91.29c26.2,27.93,52.12,55.58,78.83,84.05c-8.79,8.15-17.11,15.86-26.15,24.24
							c-11.13-11.79-21.84-23.09-32.52-34.43c-17.37-18.45-0.49-15.86-17.86-34.3c-13.41-14.23-13.6-19.88-0.76-35.23
							c21.75-25.98,9.35-72.97,31.13-98.93c2.59-3.08,5.07-6.26,8.06-9.96c-50.59-45.16-100.53-89.75-151.09-134.89
							c-7.9,11.72-15.28,22.41-22.37,33.28c-4.61,7.06-10.42,11.93-19.33,10.64c-9.33-1.35-13.44-7.79-16.02-16.39
							c-16.9-56.48-34.18-112.84-51.2-169.29c-5.77-19.15,3.1-29.42,23.23-27.39c56.55,5.72,113.09,11.42,169.64,17.13
							c19.24,1.94,25.64,15.02,15.09,31.2c-8.08,12.39-16.45,24.58-25.09,37.45c20.3,18.64,40.01,36.78,59.76,54.86
							c52.51,48.09,88.23,98.09,140.76,146.16c13.59,12.44,14.03,19.81,2.12,34.01c-24.89,29.65-32.94,57.37-58.42,87.74
							c13.13,14.05,42.6,79.58,55.55,93.36c65.6,69.75,114.61,87.82,180.27,157.51c6.35,6.74,12.23,13.46,8.13,23.55
							c-4.27,10.51-13.2,11.63-23.15,11.56c-32.18-0.22-64.36,0.24-96.53-0.37c-6.16-0.12-14.13-2.17-18.1-6.31
							c-44.6-46.5-118.09-124.73-163.27-172.76c9.02-8.35,12.92-21.23,21.88-29.52c6.53,6.8,46.43,49.6,52.47,56.02"/>
						<g>
							<g>
								<path class="st30" d="M79.75,2109.85c2.54,7.96,9.84,13.54,18.17,14.71c45.32,6.4,47.85-2.04,64.23-48.06
									c54.05-151.77-51.97-320.91-209.57-332.32c-2.7-0.2-5.46,0.47-8.27,1.67c-15.73,6.78-21.48,26.28-13.28,41.23
									c3.47,6.33,7.09,11.17,11.14,11.55c146.48,14,225.01,186.25,137.62,307.27C79.06,2106.93,79.24,2108.26,79.75,2109.85z"/>
								<path class="st30" d="M-27.21,2130.56c58.08-10.3,104.46-70.15,104.21-139.06c-0.24-67.49-49.08-130.83-115.94-145.7
									c-12.6-2.8-36.8,3.46-40.43,11.95c-7.72,18.07-4.43,37.45,22.66,43.72c22.29,5.16,42.32,17.91,55.37,36.58
									c38.58,55.22,12.64,116.8-42.72,142.14c-0.19,0.09-0.37,0.17-0.56,0.26C-34.6,2109.28-37.22,2101.73-27.21,2130.56z"/>
								<path class="st30" d="M-79.26,1940.39c0,36.4,0,68.14,0,102.54c34.62,0.9,51.65-16.65,54.44-44.28
									C-21.55,1966.24-37.94,1945.25-79.26,1940.39z"/>
							</g>
							<g>
								<ellipse class="st30" cx="206.8" cy="2018.96" rx="9.99" ry="9.92"/>
								<ellipse class="st30" cx="268.92" cy="2018.47" rx="13.87" ry="13.76"/>
								<ellipse class="st30" cx="346.9" cy="2018.42" rx="16.5" ry="16.38"/>
							</g>
							<g>
								<ellipse class="st30" cx="205.43" cy="1934.28" rx="9.99" ry="9.92"/>
								<ellipse class="st30" cx="266.69" cy="1924.02" rx="13.87" ry="13.76"/>
								<ellipse class="st30" cx="343.67" cy="1911.71" rx="16.5" ry="16.38"/>
							</g>
							<g>
								<ellipse class="st30" cx="181.57" cy="1855.44" rx="9.99" ry="9.92"/>
								<ellipse class="st30" cx="234.23" cy="1822.71" rx="13.87" ry="13.76"/>
								<ellipse class="st30" cx="300.62" cy="1782.12" rx="16.5" ry="16.38"/>
							</g>
							<g>
								
									<ellipse transform="matrix(0.6122 -0.7907 0.7907 0.6122 -1365.6482 795.3242)" class="st30" cx="127.94" cy="1789.82" rx="9.94" ry="10.81"/>
								
									<ellipse transform="matrix(0.6122 -0.7907 0.7907 0.6122 -1312.7538 808.3597)" class="st30" cx="167.67" cy="1742.41" rx="13.8" ry="15.01"/>
								
									<ellipse transform="matrix(0.6122 -0.7907 0.7907 0.6122 -1246.4923 825.2531)" class="st30" cx="218.02" cy="1683.31" rx="16.43" ry="17.86"/>
							</g>
							<g>
								<ellipse class="st30" cx="60.66" cy="1740.72" rx="9.99" ry="9.92"/>
								<ellipse class="st30" cx="87.35" cy="1685.03" rx="13.87" ry="13.76"/>
								<ellipse class="st30" cx="121.37" cy="1615.38" rx="16.5" ry="16.38"/>
							</g>
							<g>
								<ellipse class="st30" cx="-0.68" cy="1722.04" rx="9.99" ry="9.92"/>
								<ellipse class="st30" cx="-0.51" cy="1660.37" rx="13.87" ry="13.76"/>
								<ellipse class="st30" cx="0.26" cy="1582.98" rx="16.5" ry="16.38"/>
							</g>
						</g>
						<polygon class="st32" points="702.41,1895.33 401.57,1895.33 401.57,1384.52 702.41,1384.52 538.91,1537.21 						"/>
						<rect x="-79.26" y="954" class="st34" width="498.79" height="67.19"/>
						<rect x="360.17" y="1772.35" class="st33" width="449.4" height="262.44"/>
					</g>
					
						<rect x="978.56" y="1799.07" transform="matrix(-1 -2.668811e-11 2.668811e-11 -1 2460.6663 3804.3918)" class="st35" width="503.55" height="206.25"/>
					
						<rect x="978.56" y="1711.73" transform="matrix(-1 -1.576795e-11 1.576795e-11 -1 2460.6663 3545.1318)" class="st25" width="503.55" height="121.67"/>
					<polygon class="st1" points="1482.11,1325.61 1482.11,1813.63 2167.47,1813.63 2167.47,1438.01 2103.96,1380.22 
						2062.87,1325.61 					"/>
					
						<rect x="1786.86" y="1896.07" transform="matrix(-1 -4.487622e-11 4.487622e-11 -1 4129.686 3878.8787)" class="st2" width="555.96" height="86.73"/>
					<polygon class="st10" points="1931.94,1044.02 1886.5,1114.01 2163.44,1410.28 2342.82,1277.77 2342.82,947.09 1715.18,947.09 
											"/>
					<g>
						<path class="st7" d="M1804.93,1678.19v15.09h-42.34v-11.09c0-1.05,0.41-2.08,1.14-2.82c0.74-0.75,1.75-1.17,2.78-1.17H1804.93
							z"/>
						<rect x="1762.78" y="1715.95" class="st7" width="42.15" height="121.25"/>
						<path class="st9" d="M1761.59,1837.19l-139.32-107.84c-1.18-0.91-2.78-1.07-4.1-0.41c-1.34,0.68-2.19,2.07-2.19,3.58v98.21
							l-130.96-101.38c-0.84-0.65-1.9-0.91-2.91-0.77v254.22h322.82v-145.61H1761.59z M1572.54,1869.84c0,0.92-0.35,1.79-1,2.44
							c-0.65,0.65-1.49,1-2.39,1h-50.85c-0.9,0-1.77-0.36-2.4-1c-0.63-0.65-0.99-1.53-0.99-2.44v-15.21c0-0.89,0.36-1.79,0.99-2.44
							c0.63-0.63,1.5-1,2.4-1h50.85c0.9,0,1.75,0.36,2.39,1.01c0.65,0.65,1,1.52,1,2.43V1869.84z M1709.3,1869.84
							c0,0.92-0.35,1.79-0.99,2.44c-0.65,0.65-1.49,1-2.4,1h-50.85c-0.89,0-1.78-0.36-2.39-1c-0.65-0.65-1.01-1.53-1.01-2.44v-15.21
							c0-0.89,0.37-1.79,1.01-2.44c0.61-0.63,1.5-1,2.39-1h50.85c0.91,0,1.75,0.36,2.4,1.01c0.64,0.65,0.99,1.52,0.99,2.43V1869.84z
							"/>
					</g>
					<polygon class="st36" points="2160.92,1982.8 2342.82,1982.8 2342.82,1295.57 2160.92,1459.58 					"/>
					<path class="st1" d="M2030.7,1325.62"/>
					<g>
						<g>
							<path class="st10" d="M1713.3,1325.61c41.69,200.28,245.84,334.59,448.52,300.44v-96.76
								c-149.15,33-308.2-53.85-356.54-203.68H1713.3z"/>
							<path class="st10" d="M1876.79,1325.61c35.26,87.39,123.9,148.04,217.62,148.4c23.35,0.07,46.02-3.29,67.4-9.55v-0.06
								c0-44.66-34.1-81.49-78.53-86c-24.06-2.44-48.77-11.52-72.73-28.4c-9.87-6.97-18.7-15.2-26.32-24.39H1876.79z"/>
						</g>
						<g>
							<ellipse class="st10" cx="2137.46" cy="1679.44" rx="15.55" ry="15.81"/>
							<ellipse class="st10" cx="2136.69" cy="1777.76" rx="21.58" ry="21.95"/>
							<path class="st10" d="M2110.92,1901.18c0,14.42,11.5,26.12,25.68,26.12c14.19,0,25.69-11.69,25.69-26.12
								c0-14.42-11.5-26.12-25.69-26.12C2122.42,1875.07,2110.92,1886.76,2110.92,1901.18z"/>
						</g>
						<g>
							<path class="st10" d="M1989.3,1674.76c-1.36,8.62,4.41,16.73,12.89,18.12c8.48,1.38,16.46-4.48,17.82-13.11
								c1.36-8.62-4.41-16.73-12.89-18.12C1998.63,1660.27,1990.66,1666.14,1989.3,1674.76z"/>
							<path class="st10" d="M1967.25,1770.75c-1.89,11.97,6.12,23.23,17.89,25.15c11.77,1.92,22.84-6.22,24.73-18.19
								c1.89-11.97-6.12-23.23-17.89-25.15C1980.21,1750.63,1969.14,1758.78,1967.25,1770.75z"/>
							<ellipse class="st10" cx="1969.25" cy="1896.07" rx="25.69" ry="26.12"/>
						</g>
						<g>
							<path class="st10" d="M1867.76,1631.22c-4.5,7.44-2.22,17.18,5.1,21.75c7.32,4.57,16.89,2.25,21.39-5.18
								c4.5-7.44,2.22-17.18-5.1-21.75C1881.84,1621.47,1872.26,1623.79,1867.76,1631.22z"/>
							<path class="st10" d="M1811.3,1711.35c-6.25,10.32-3.08,23.84,7.08,30.19c10.15,6.35,23.45,3.13,29.69-7.2
								c6.25-10.32,3.08-23.84-7.08-30.19S1817.54,1701.03,1811.3,1711.35z"/>
						</g>
						<g>
							<path class="st10" d="M1767.18,1541.51c-6.55,5.64-6.98,16.08-0.96,23.32c6.03,7.23,16.22,8.53,22.78,2.88
								c6.55-5.64,6.98-16.08,0.96-23.32C1783.93,1537.16,1773.74,1535.87,1767.18,1541.51z"/>
							<path class="st10" d="M1688.61,1599.32c-9.1,7.83-9.69,22.32-1.33,32.37c8.36,10.04,22.52,11.83,31.62,4
								c9.1-7.83,9.69-22.32,1.33-32.37C1711.86,1593.28,1697.7,1591.49,1688.61,1599.32z"/>
							<path class="st10" d="M1593.04,1675.57c-10.83,9.32-11.53,26.56-1.58,38.51c9.95,11.95,26.8,14.08,37.62,4.76
								c10.83-9.32,11.53-26.56,1.58-38.51C1620.71,1668.38,1603.87,1666.24,1593.04,1675.57z"/>
						</g>
						<g>
							<path class="st10" d="M1694.3,1433.91c-7.73,3.81-10.95,13.27-7.2,21.13s13.06,11.13,20.78,7.32
								c7.73-3.81,10.95-13.27,7.19-21.13C1711.33,1433.37,1702.02,1430.1,1694.3,1433.91z"/>
							<ellipse class="st10" cx="1613.76" cy="1490.38" rx="21.59" ry="21.95"/>
							<path class="st10" d="M1493.32,1520.73c-12.76,6.3-18.08,21.93-11.88,34.9c6.2,12.97,21.56,18.38,34.33,12.08
								c12.76-6.3,18.08-21.93,11.88-34.9C1521.45,1519.84,1506.08,1514.43,1493.32,1520.73z"/>
						</g>
						<g>
							<path class="st10" d="M1671.64,1335.24c-8.59,0.09-15.48,7.25-15.38,15.98c0.09,8.73,7.13,15.74,15.71,15.64
								c8.59-0.09,15.48-7.25,15.38-15.98C1687.26,1342.15,1680.22,1335.15,1671.64,1335.24z"/>
							<path class="st10" d="M1574.86,1329.36c-11.92,0.13-21.48,10.06-21.35,22.18c0.13,12.12,9.89,21.84,21.81,21.71
								c11.92-0.13,21.48-10.06,21.35-22.18C1596.55,1338.95,1586.78,1329.23,1574.86,1329.36z"/>
						</g>
					</g>
					<path class="st1" d="M1482.11,1112.34v213.27h231.2c-38.13-42.06-76.27-84.11-114.41-126.15
						c-30.86-34.01-61.8-67.93-93.6-102.9C1497.44,1101.89,1489.73,1107.14,1482.11,1112.34z"/>
					<path class="st12" d="M2210.29,1982.8h132.53v-423.35c-19.72,0-39.42-0.01-59.14-0.01c-9.69,0-19.17,0.95-28.5,3.73
						c-10.8,3.22-19.65,9.55-27.23,17.72c-12.27,13.23-17.73,29.1-17.72,47.27C2210.32,1746.37,2210.29,1864.59,2210.29,1982.8z"/>
					<polygon class="st33" points="1880.55,1348.05 2174.48,1569.21 2404.99,1418.81 2440.4,1423.35 2412.56,1092.11 
						2170.2,1345.94 1934.38,1154.34 					"/>
					<path class="st37" d="M2141.02,1351.55c24.69,20.86,43.62,21.46,63.01-0.35c56.65-63.71,113.22-127.48,169.72-191.33
						c-1.87-37.93-2.89-75.9-3-113.87c-66.98,75.72-133.75,151.2-201.1,227.35c-7.99-6.52-14.84-11.93-21.5-17.57
						c-56.05-47.45-112.02-95.01-168.12-142.4c-33.13-27.98-45.34-27.55-76.06,1.66c-30.17,28.7-60.39,57.34-90.59,86.01
						c15.86,20.82,31.47,41.8,46.08,63.5c28.18-26.67,56.25-53.24,84.46-79.94C2010.51,1241.03,2075.7,1296.37,2141.02,1351.55z"/>
					<path class="st7" d="M2382.01,1308.43c-70.3,77.44-140.7,154.96-211.9,233.38c-6.87-5.47-13.24-10.27-19.33-15.42
						c-56.66-47.98-113.25-96.06-169.91-144.05c-32.92-27.89-44.9-28.52-74.39-1.32c2.7,6-31.3-8.45-28.87-2.32
						c5.16,13.01,11.05,16.1,14.6,29.61c64.42,54.61,185.26,157.69,245.37,208.62c30.65,25.97,46.56,25.01,73.43-4.61
						c60.89-67.14,121.78-134.27,182.67-201.41C2389.14,1376.82,2385.24,1342.65,2382.01,1308.43z"/>
					<path class="st13" d="M2766.96,706.74c-121.87,37.08-243.57,74.74-365.52,111.57c-18.58,5.61-32.48,14.58-35.39,34.91
						c-2.78,19.4,7.73,32.07,22.98,42.12c23.48,15.46,46.56,31.54,71.86,48.75c-23.21,26.24-46.34,52.39-69.45,78.51
						c0.45,1.17,0.71,2.5,0.7,4c-0.19,36.76,0.49,73.51,1.97,110.23c50.37-56.96,100.69-113.96,150.94-171.03
						c20.3-23.06,16.6-45.94-8.35-64.4c-12.54-9.28-25.44-18.04-42.21-29.89c85.95-26.13,166.54-50.64,250.12-76.05
						c-8.91,90.39-17.41,176.66-25.9,262.77c-4.35,0-6.25,0.61-7.32-0.09c-15.5-10.11-30.83-20.48-46.31-30.62
						c-29.14-19.08-42.89-17.3-66.67,8.89c-63.1,69.46-126.09,139.03-189.16,208.52c-2.57,2.83-5.14,5.66-7.71,8.49
						c2.99,34.47,6.66,68.88,10.98,103.2c36.63-40.39,73.26-80.79,109.9-121.17c39.05-43.04,78.2-85.98,118.46-130.22
						c27.78,18.82,54.11,37.07,80.86,54.67c34.94,22.99,63.18,9.05,67.37-32.88c12.33-123.22,24.64-246.45,36.98-369.67
						C2830.49,713.5,2808.31,694.16,2766.96,706.74z"/>
				</g>
				<polygon class="st38" points="674.31,2028.88 734.27,1950.45 706.4,1904.79 889.24,1836.99 876.32,2028.88 				"/>
				<g class="st29">
					<defs>
						<rect id="SVGID_24_" x="635.17" y="1771.83" width="311.26" height="311.26"/>
					</defs>
					<clipPath id="SVGID_25_">
						<use xlink:href="#SVGID_24_"  style="overflow:visible;"/>
					</clipPath>
					<path class="st39" d="M225.5,2168.86c11.42,12.45,29.05,17.85,40.38,30.21c-9.3,9.02-67.86,64.12-76.64,72.46
						c-50.12,47.59-100.14,95.3-150.6,142.52c-7.45,6.97-10.3,14.02-9.98,24.08c0.65,20.63,0.2,41.3,0.2,65.65
						c5.79-5.16,9.72-8.46,13.44-11.99c101.02-95.86,202.03-191.73,303.01-287.63c20.34-19.31,27.68-19.58,49.35-1.23
						c35.9,30.41,71.76,60.87,107.67,91.28c3.85,3.26,7.89,6.31,12.25,9.77c50.95-56.11,101.26-111.5,151.54-166.9
						c39.96-44.03,79.88-88.11,119.86-132.13c15.07-16.59,23.78-17.72,42.25-5.63c9.81,6.42,19.52,13,29.34,19.4
						c0.68,0.44,1.89,0.06,4.64,0.06c5.38-54.57,10.76-109.23,16.41-166.51c-52.97,16.1-104.03,31.63-158.49,48.19
						c10.63,7.51,18.8,13.06,26.75,18.94c15.81,11.7,18.16,26.2,5.29,40.81c-71.83,81.59-143.87,162.98-216.09,244.21
						c-12.29,13.82-24.28,13.44-39.93,0.22c-41.39-34.97-82.7-70.04-124.9-105.79c-38.22,36.17-76.05,71.98-115,108.85
						c-11.15-12.14-21.7-23.63-33.17-36.11c16.13-15.37,31.6-30.16,47.11-44.9c25.24-23.98,50.52-47.92,75.75-71.91
						c19.46-18.51,27.2-18.78,48.2-1.05c35.55,30.03,71.02,60.17,106.54,90.24c4.22,3.57,8.56,7,13.62,11.13
						c61.79-69.85,122.8-138.82,184.55-208.64c-16.03-10.91-30.66-21.1-45.53-30.89c-9.66-6.36-16.32-14.4-14.56-26.69
						c1.84-12.88,10.65-18.56,22.42-22.12c77.27-23.34,154.39-47.2,231.62-70.7c26.21-7.97,40.26,4.28,37.47,32.08
						c-7.82,78.08-15.62,156.17-23.44,234.25c-2.66,26.57-20.55,35.4-42.69,20.83c-16.95-11.15-33.64-22.72-51.24-34.64
						c-25.51,28.04-50.32,55.25-75.06,82.52c-65.79,72.51-131.55,145.06-197.33,217.58c-17.02,18.77-27.1,19.38-46.53,2.92
						c-40.57-34.36-81.15-68.71-122.69-103.88c-19.22,18.13-38.18,35.9-57.03,53.79c-95.43,90.58-190.86,181.17-286.21,271.84
						c-9.22,8.76-18.41,16.89-32.22,11.23c-14.37-5.89-15.91-18.23-15.82-31.97c0.3-44.43-0.33-88.87,0.5-133.29
						c0.16-8.51,2.96-19.51,8.63-24.99C52.75,2332.73,159.79,2231.26,225.5,2168.86z"/>
				</g>
				<rect x="-1452.45" y="5242.6" class="st40" width="292.63" height="292.63"/>
				<g class="st29">
					<defs>
						<rect id="SVGID_26_" x="-1452.45" y="5222.13" width="292.63" height="292.63"/>
					</defs>
					<clipPath id="SVGID_27_">
						<use xlink:href="#SVGID_26_"  style="overflow:visible;"/>
					</clipPath>
					<g class="st41">
						<path class="st16" d="M-1326.54,5433.49c-13.37,0-5.91-34.42,4.08-51.67c5.66-10.17,10.63-14.28,14.49-14.28
							c12.26,0,13.43,41.49-9.33,62.38C-1321.12,5432.4-1324.16,5433.49-1326.54,5433.49 M-1326.54,5445.72
							c4.96,0,10.17-1.82,15.91-5.55l0.85-0.55l0.75-0.69c5.14-4.72,9.52-10.45,13.03-17.04c3.07-5.77,5.4-12.05,6.93-18.68
							c1.39-6.01,2.07-12.23,1.97-17.98c-0.11-6.1-1.05-11.47-2.8-15.97c-1.42-3.64-3.37-6.66-5.8-8.95
							c-3.4-3.22-7.76-4.99-12.27-4.99c-5.25,0-10.29,2.24-14.97,6.67c-3.49,3.3-6.81,7.81-10.15,13.8
							c-4.65,8.06-8.78,19.13-11.04,29.63c-1.22,5.68-1.85,10.89-1.86,15.49c-0.02,6.35,1.12,11.42,3.47,15.5
							C-1339.11,5442.33-1333.29,5445.72-1326.54,5445.72z"/>
						<path class="st16" d="M-1350.92,5516.88c-42.35,0-20.26-122.01,13.92-181.02c19.14-34.36,36.38-48.23,50.13-48.23
							c45.01,0,52.72,148.63-32.29,214.56C-1332.36,5512.42-1342.82,5516.88-1350.92,5516.88 M-1350.92,5529.11
							c11.43,0,24.27-5.65,39.25-17.26c16.02-12.43,29.76-28.14,40.84-46.71c9.85-16.52,17.4-34.92,22.44-54.7
							c4.53-17.79,6.88-36.48,6.8-54.05c-0.08-17.11-2.44-32.94-6.84-45.78c-3.47-10.15-8.14-18.3-13.87-24.21
							c-6.96-7.19-15.46-10.99-24.56-10.99c-10.38,0-20.92,4.87-31.33,14.47c-9.77,9.01-19.67,22.45-29.43,39.95
							c-7.19,12.43-14.12,27.96-20.05,44.92c-5.76,16.46-10.52,34.09-13.77,50.98c-3.4,17.65-5.1,34.36-4.93,48.33
							c0.09,7.7,0.75,14.71,1.95,20.83c1.37,6.97,3.49,12.98,6.31,17.87c2.9,5.04,6.59,9,10.97,11.77
							C-1362.36,5527.57-1356.9,5529.11-1350.92,5529.11z"/>
						<path class="st16" d="M-1375.36,5599.6c-72.45,0-34.66-208.74,23.81-309.7c32.75-58.78,62.24-82.52,85.77-82.52
							c77,0,90.19,254.28-55.25,367.07C-1343.6,5591.96-1361.5,5599.6-1375.36,5599.6 M-1375.36,5611.82
							c8.83,0,18.57-2.39,28.95-7.1c10.07-4.57,21.13-11.51,32.87-20.61c26.55-20.59,49.34-46.67,67.72-77.49
							c8.38-14.04,15.86-29.14,22.23-44.86c6.03-14.88,11.15-30.5,15.2-46.41c3.86-15.16,6.79-30.69,8.7-46.15
							c1.84-14.9,2.74-29.75,2.67-44.14c-0.13-28.34-4.02-54.46-11.23-75.54c-5.53-16.14-12.85-29-21.76-38.2
							c-4.95-5.11-10.39-9.07-16.17-11.78c-6.2-2.91-12.8-4.38-19.6-4.38c-15.5,0-31.55,7.55-47.71,22.45
							c-16.05,14.79-32.43,37.08-48.68,66.25c-12.04,20.8-23.67,46.88-33.65,75.43c-9.71,27.77-17.74,57.51-23.22,85.99
							c-2.8,14.54-4.92,28.68-6.32,42.04c-1.45,13.89-2.11,26.98-1.96,38.89c0.33,26.75,4.69,47.6,12.98,61.97
							c4.26,7.39,9.61,13.16,15.89,17.15C-1391.68,5609.64-1383.9,5611.82-1375.36,5611.82z"/>
						<path class="st16" d="M-1399.8,5682.31c-102.54,0-49.06-295.47,33.7-438.37c46.35-83.2,88.09-116.8,121.4-116.8
							c109,0,127.66,359.92-78.2,519.59C-1354.84,5671.5-1380.17,5682.31-1399.8,5682.31 M-1399.8,5694.54
							c5.94,0,12.25-0.82,18.75-2.44c6.4-1.59,13.17-4,20.13-7.16c13.9-6.31,29.21-15.92,45.51-28.56
							c37.08-28.76,68.92-65.19,94.61-108.28c11.72-19.66,22.19-40.79,31.12-62.81c8.45-20.85,15.62-42.73,21.3-65.04
							c5.41-21.25,9.52-43.02,12.19-64.69c2.58-20.87,3.84-41.67,3.74-61.83c-0.18-39.57-5.59-75.99-15.63-105.31
							c-7.58-22.14-17.55-39.69-29.64-52.18c-6.57-6.78-13.77-12.04-21.4-15.61c-8.1-3.79-16.71-5.72-25.59-5.72
							c-20.62,0-42.19,10.24-64.1,30.44c-10.97,10.11-22.18,22.89-33.3,37.98c-11.46,15.54-23.11,33.9-34.64,54.57
							c-8.58,14.82-17.01,31.52-25.06,49.64c-7.82,17.59-15.29,36.53-22.19,56.29c-13.66,39.08-24.96,80.93-32.68,121.01
							c-3.93,20.43-6.92,40.31-8.88,59.08c-2.03,19.47-2.96,37.79-2.75,54.45c0.45,36.98,6.41,65.66,17.69,85.24
							c5.62,9.74,12.62,17.32,20.81,22.52C-1421,5691.71-1410.91,5694.54-1399.8,5694.54z"/>
						<path class="st16" d="M-1424.85,5757.71c-144.82,0-64.03-372.83,44.21-559.73c61.35-110.12,115.1-154.65,156.94-154.65
							c132.86,0,145.49,449.45-101.05,675.67C-1366.05,5745.86-1399.04,5757.71-1424.85,5757.71 M-1424.85,5769.93
							c7.33,0,15.14-0.85,23.21-2.53c8.05-1.67,16.58-4.21,25.38-7.55c17.74-6.74,37.32-17.04,58.17-30.61l0.85-0.55l0.75-0.69
							c45.61-41.85,84.75-93.15,116.32-152.48c14.41-27.07,27.24-55.89,38.16-85.67c10.35-28.23,19.07-57.59,25.92-87.26
							c6.54-28.34,11.41-57.08,14.47-85.42c2.96-27.39,4.22-54.36,3.76-80.17c-0.91-51.12-8.57-96.58-22.16-131.48
							c-8.87-22.79-20.11-40.73-33.39-53.3c-7.16-6.78-14.96-12.01-23.17-15.54c-8.6-3.7-17.73-5.58-27.13-5.58
							c-25.15,0-51.92,13.25-79.55,39.37c-13.98,13.21-28.36,29.93-42.75,49.69c-14.88,20.43-30.11,44.58-45.27,71.78
							c-11.06,19.1-22,40.4-32.52,63.3c-10.32,22.46-20.22,46.44-29.42,71.26c-18.48,49.84-33.93,102.54-44.67,152.4
							c-5.55,25.77-9.85,50.76-12.78,74.28c-3.05,24.52-4.63,47.58-4.68,68.53c-0.12,46.37,7.12,82.55,21.53,107.54
							c7.46,12.95,16.92,22.98,28.11,29.8C-1453.88,5766.28-1440.14,5769.93-1424.85,5769.93z"/>
					</g>
				</g>
				<polygon class="st40" points="635.17,2051.31 342.53,2051.31 342.53,1696.15 635.17,1725.38 				"/>
				<g class="st29">
					<defs>
						<rect id="SVGID_28_" x="342.53" y="1713.41" width="292.63" height="303.88"/>
					</defs>
					<clipPath id="SVGID_29_">
						<use xlink:href="#SVGID_28_"  style="overflow:visible;"/>
					</clipPath>
					<g class="st42">
						<path class="st37" d="M473.28,1932.11c-13.88,0-6.14-35.74,4.24-53.66c5.88-10.56,11.03-14.83,15.04-14.83
							c12.74,0,13.95,43.09-9.69,64.77C478.91,1930.97,475.75,1932.11,473.28,1932.11 M473.28,1944.8c5.15,0,10.56-1.89,16.52-5.77
							l0.88-0.57l0.78-0.71c5.34-4.9,9.89-10.85,13.53-17.69c3.19-5.99,5.61-12.52,7.2-19.4c1.44-6.24,2.15-12.7,2.04-18.67
							c-0.11-6.34-1.09-11.91-2.91-16.58c-1.47-3.78-3.5-6.91-6.02-9.3c-3.53-3.34-8.05-5.18-12.74-5.18
							c-5.45,0-10.68,2.33-15.54,6.92c-3.62,3.42-7.07,8.11-10.54,14.33c-4.83,8.37-9.11,19.87-11.46,30.77
							c-1.27,5.89-1.92,11.31-1.93,16.09c-0.02,6.59,1.16,11.86,3.6,16.09C460.23,1941.28,466.27,1944.8,473.28,1944.8z"/>
						<path class="st37" d="M447.96,2018.7c-43.97,0-21.04-126.7,14.45-187.98c19.88-35.68,37.78-50.08,52.06-50.08
							c46.74,0,54.74,154.34-33.53,222.8C467.24,2014.07,456.38,2018.7,447.96,2018.7 M447.96,2031.39
							c11.87,0,25.2-5.86,40.75-17.92c16.64-12.91,30.91-29.22,42.4-48.5c10.23-17.15,18.07-36.26,23.3-56.8
							c4.71-18.47,7.15-37.88,7.06-56.13c-0.08-17.77-2.54-34.21-7.1-47.54c-3.61-10.54-8.45-19-14.41-25.15
							c-7.23-7.47-16.05-11.41-25.51-11.41c-10.78,0-21.72,5.05-32.54,15.02c-10.14,9.35-20.43,23.31-30.56,41.49
							c-7.46,12.9-14.66,29.03-20.82,46.64c-5.98,17.1-10.92,35.4-14.3,52.94c-3.53,18.33-5.3,35.68-5.12,50.18
							c0.1,8,0.78,15.28,2.03,21.63c1.42,7.24,3.63,13.48,6.55,18.56c3.02,5.23,6.85,9.35,11.39,12.23
							C436.09,2029.79,441.76,2031.39,447.96,2031.39z"/>
						<path class="st37" d="M422.58,2104.59c-75.23,0-35.99-216.76,24.72-321.6c34.01-61.04,64.63-85.69,89.06-85.69
							c79.96,0,93.66,264.05-57.37,381.18C455.56,2096.66,436.98,2104.59,422.58,2104.59 M422.58,2117.29
							c9.17,0,19.29-2.48,30.06-7.37c10.46-4.75,21.95-11.95,34.13-21.4c27.57-21.39,51.24-48.46,70.33-80.47
							c8.7-14.58,16.46-30.26,23.08-46.59c6.27-15.45,11.58-31.67,15.79-48.19c4.01-15.74,7.05-31.87,9.03-47.92
							c1.91-15.47,2.84-30.89,2.77-45.83c-0.14-29.43-4.17-56.56-11.66-78.45c-5.74-16.76-13.34-30.11-22.59-39.66
							c-5.14-5.3-10.79-9.42-16.8-12.23c-6.44-3.02-13.29-4.55-20.36-4.55c-16.1,0-32.77,7.84-49.55,23.31
							c-16.66,15.36-33.67,38.51-50.56,68.8c-12.5,21.6-24.58,48.68-34.95,78.32c-10.08,28.84-18.42,59.72-24.11,89.3
							c-2.9,15.09-5.11,29.78-6.56,43.66c-1.5,14.43-2.19,28.01-2.04,40.38c0.34,27.78,4.87,49.43,13.48,64.35
							c4.42,7.68,9.98,13.67,16.5,17.8C405.64,2115.02,413.71,2117.29,422.58,2117.29z"/>
						<path class="st37" d="M397.21,2190.49c-106.48,0-50.94-306.82,35-455.22c48.14-86.4,91.48-121.29,126.07-121.29
							c113.19,0,132.57,373.75-81.21,539.55C443.89,2179.26,417.59,2190.49,397.21,2190.49 M397.21,2203.18
							c6.17,0,12.72-0.85,19.47-2.53c6.64-1.65,13.67-4.15,20.9-7.43c14.43-6.55,30.33-16.53,47.26-29.65
							c38.51-29.87,71.56-67.7,98.25-112.44c12.17-20.41,23.05-42.36,32.32-65.22c8.78-21.65,16.22-44.38,22.12-67.54
							c5.62-22.07,9.88-44.67,12.66-67.18c2.68-21.67,3.98-43.28,3.89-64.2c-0.19-41.09-5.8-78.91-16.23-109.36
							c-7.87-22.99-18.23-41.22-30.78-54.18c-6.82-7.05-14.3-12.5-22.22-16.21c-8.41-3.94-17.35-5.94-26.58-5.94
							c-21.42,0-43.81,10.63-66.56,31.61c-11.39,10.5-23.03,23.77-34.58,39.44c-11.9,16.14-24,35.21-35.97,56.67
							c-8.91,15.39-17.66,32.73-26.02,51.55c-8.12,18.27-15.87,37.93-23.05,58.45c-14.19,40.59-25.92,84.04-33.93,125.66
							c-4.08,21.22-7.18,41.86-9.22,61.35c-2.11,20.22-3.07,39.24-2.86,56.55c0.47,38.4,6.65,68.19,18.37,88.52
							c5.83,10.12,13.1,17.99,21.61,23.38C375.19,2200.24,385.67,2203.18,397.21,2203.18z"/>
						<path class="st37" d="M371.19,2268.78c-150.39,0-66.49-387.15,45.91-581.24c63.71-114.35,119.52-160.6,162.97-160.6
							c137.96,0,151.08,466.72-104.94,701.63C432.26,2256.48,398,2268.78,371.19,2268.78 M371.19,2281.47
							c7.61,0,15.72-0.88,24.1-2.62c8.36-1.74,17.22-4.37,26.35-7.84c18.43-7,38.75-17.7,60.41-31.79l0.88-0.57l0.78-0.71
							c47.36-43.46,88-96.73,120.79-158.34c14.96-28.11,28.29-58.04,39.62-88.96c10.75-29.32,19.8-59.81,26.92-90.62
							c6.79-29.42,11.85-59.27,15.03-88.7c3.07-28.44,4.38-56.45,3.91-83.25c-0.95-53.08-8.9-100.29-23.01-136.53
							c-9.21-23.67-20.88-42.29-34.68-55.35c-7.44-7.04-15.53-12.47-24.06-16.14c-8.93-3.84-18.41-5.79-28.17-5.79
							c-26.12,0-53.91,13.76-82.61,40.89c-14.51,13.72-29.45,31.08-44.39,51.6c-15.45,21.21-31.27,46.29-47.01,74.54
							c-11.48,19.84-22.84,41.95-33.77,65.74c-10.71,23.33-20.99,48.22-30.55,74c-19.19,51.76-35.23,106.48-46.39,158.26
							c-5.76,26.76-10.23,52.71-13.27,77.14c-3.17,25.46-4.8,49.41-4.86,71.17c-0.12,48.15,7.4,85.73,22.36,111.67
							c7.75,13.45,17.57,23.86,29.19,30.95C341.05,2277.68,355.32,2281.47,371.19,2281.47z"/>
					</g>
				</g>
			</g>
			<rect x="642.54" y="1759.3" class="st43" width="105.29" height="59.83"/>
		</g>
	</g>
	<path class="st44" d="M878.43,318.88v0.11c-0.04,3.52-1.95,6.53-4.96,9.25c-11.56,10.5-39.39,16.93-39.95,32.63
		c-0.68,19.27,40.43,32.69,39.53,48.26c-0.57,9.9-61.96,5.99-40.56,19.52c7.87,4.98,14.17,9.58,19.2,13.71H223.35
		c5.03-4.13,11.33-8.73,19.2-13.71c21.4-13.53-39.99-9.62-40.56-19.52c-0.9-15.57,40.21-28.99,39.53-48.26
		c-0.56-15.7-28.39-22.13-39.95-32.63c-3.01-2.72-4.92-5.73-4.96-9.25v-0.11c0-3.55,1.92-6.79,4.96-9.84
		c11.78-11.83,40.48-20.81,40.15-33.7c-0.35-14.15-35.37-20.37-34.97-29.45c0.38-8.65,32.37-8.6,32.7-16.33
		c0.14-3.26-5.42-6.99-14.06-10.8h624.26c-8.64,3.81-14.2,7.54-14.06,10.8c0.33,7.73,32.32,7.68,32.7,16.33
		c0.4,9.08-34.62,15.3-34.97,29.45c-0.33,12.89,28.37,21.87,40.15,33.7C876.51,312.09,878.43,315.33,878.43,318.88z"/>
	<path class="st44" d="M912.06,318.88v0.11c-0.04,3.52-2.13,6.53-5.41,9.25c-12.62,10.5-42.99,16.93-43.6,32.63
		c-0.74,19.27,44.12,32.69,43.14,48.26c-0.62,9.9-67.62,5.99-44.27,19.52c0.09,0.05,0.17,0.1,0.26,0.15
		c6.42,3.73,3.74,13.56-3.68,13.56l-636.99,0c-7.42,0-10.1-9.83-3.68-13.56c0.09-0.05,0.17-0.1,0.26-0.15
		c23.36-13.53-43.64-9.62-44.27-19.52c-0.98-15.57,43.88-28.99,43.14-48.26c-0.61-15.7-30.98-22.13-43.6-32.63
		c-3.29-2.72-5.37-5.73-5.41-9.25v-0.11c0-3.55,2.1-6.79,5.41-9.84c12.86-11.83,44.18-20.81,43.82-33.7
		c-0.38-14.15-38.6-20.37-38.16-29.45c0.41-8.65,35.33-8.6,35.69-16.33c0.05-1.06-0.56-2.16-1.72-3.31
		c-2.78-2.74-0.77-7.49,3.14-7.49h657.95c1.47,0,1.92,1.99,0.6,2.63c-5.92,2.88-9.48,5.66-9.36,8.17
		c0.36,7.73,35.27,7.68,35.69,16.33c0.44,9.08-37.78,15.3-38.16,29.45c-0.36,12.89,30.96,21.87,43.82,33.7
		C909.96,312.09,912.06,315.33,912.06,318.88z"/>
	<g>
		<text transform="matrix(1 0 0 1 316.0546 388.339)" class="st16 st45 st46">Hola!</text>
	</g>
	<g>
		<text transform="matrix(1 0 0 1 199.749 644.6963)"><tspan x="0" y="0" class="st44 st45 st47">Queres conocer</tspan><tspan x="-54.77" y="82.67" class="st44 st45 st47">ms sobre nuestras</tspan><tspan x="120.7" y="165.34" class="st44 st45 st47">empresas?</tspan></text>
	</g>
	<g>
		<text transform="matrix(1 0 0 1 291.6421 1273.3372)"><tspan x="0" y="0" class="st44 st48 st49">Toc la pantalla</tspan><tspan x="-41.74" y="66.31" class="st44 st48 st49">y comenza a jugar</tspan></text>
	</g>
	<path class="st50" d="M591.68,1142.35H471.15c-10.23,0-18.53-8.3-18.53-18.53V921.96c0-10.23,8.3-18.53,18.53-18.53h120.53
		c10.23,0,18.53,8.3,18.53,18.53v201.86C610.21,1134.06,601.92,1142.35,591.68,1142.35z"/>
	<g>
		<g>
			<path class="st16" d="M598.72,1050.37c-0.6-2.49-0.02-5.01,1.4-7.08c1.41-2.07,3.66-3.68,6.42-4.35
				c5.49-1.32,10.92,1.64,12.12,6.62l7.54,31.33c6.47,26.87,8.49,68.22-28.02,77.01c-13.12,3.16-28.72,2.48-40.77-5.49l-53.37-39.71
				c-2.77-2.07-4.85-4.14-5.54-6.97c-0.69-2.86-0.14-5.99,1.72-8.72c3.79-5.54,11.64-7.39,17.46-4.17l28.42,15.76l-21.67-90.06
				c-0.67-2.77-0.04-5.56,1.57-7.87c1.7-2.53,4.6-4.43,8.1-5.01c5.93-0.97,11.41,2.76,12.68,8.05l8.57,35.61
				c-0.6-2.49-0.02-5.01,1.4-7.08c1.38-2.06,3.67-3.65,6.39-4.31c5.52-1.33,10.92,1.61,12.12,6.59l1.63,6.77
				c-0.6-2.49-0.02-5.01,1.4-7.08c1.41-2.07,3.66-3.68,6.42-4.35c5.49-1.32,10.92,1.64,12.12,6.62L598.72,1050.37z"/>
		</g>
		<path class="st44" d="M630.16,1075.95l-1.46,0.35L630.16,1075.95l-7.54-31.33c-0.73-3.04-2.54-5.57-4.94-7.32
			c-2.4-1.75-5.38-2.74-8.53-2.74c-1.18,0-2.38,0.14-3.58,0.43c-2.32,0.56-4.44,1.64-6.2,3.13c-1.03-1.74-2.45-3.19-4.13-4.28
			c-2.29-1.49-5.04-2.32-7.93-2.32c-1.18,0-2.38,0.14-3.57,0.43c-2.45,0.59-4.66,1.76-6.48,3.37c-2.54-3.59-6.85-5.74-11.49-5.74
			c-1.18,0-2.38,0.14-3.58,0.43c-2.1,0.51-4.03,1.45-5.68,2.71l-5.76-23.93c-0.81-3.37-2.79-6.21-5.41-8.2
			c-2.62-1.99-5.9-3.13-9.36-3.13c-0.84,0-1.69,0.07-2.54,0.21l-0.01,0c-4.44,0.75-8.38,3.16-10.77,6.7l0,0c0,0-0.01,0.01-0.01,0.01
			c0,0,0,0-0.01,0.01l0,0c-1.67,2.4-2.55,5.16-2.55,7.96c0,1.06,0.13,2.12,0.38,3.17l19.5,81.04l-20.31-11.26
			c-2.56-1.42-5.39-2.08-8.21-2.08c-5.64,0-11.26,2.66-14.59,7.52c-1.79,2.61-2.73,5.58-2.73,8.58c0,1.13,0.13,2.27,0.4,3.4
			c0.53,2.2,1.62,4.02,2.9,5.53c1.29,1.51,2.77,2.72,4.16,3.76l0,0l53.52,39.82l0.03,0.02c7.96,5.26,17.84,7.95,28.38,7.95
			c5.09,0,10.33-0.63,15.59-1.89c6.94-1.67,12.63-4.4,17.24-7.92c6.91-5.27,11.34-12.27,14.02-19.89c2.68-7.63,3.63-15.9,3.63-23.86
			C634.01,1094.48,631.95,1083.4,630.16,1075.95z M559.79,1145.12l-53.32-39.67l0,0c-1.35-1.01-2.3-1.87-2.92-2.62
			c-0.62-0.76-0.93-1.38-1.09-2.04c-0.12-0.49-0.17-0.98-0.17-1.47c0-1.34,0.43-2.71,1.3-3.99c1.72-2.54,4.77-4,7.8-3.99
			c1.5,0,2.99,0.35,4.32,1.09l28.42,15.76c0.62,0.34,1.3,0.51,1.98,0.51c0.88,0,1.75-0.28,2.47-0.83c1.03-0.78,1.61-1.99,1.61-3.25
			c0-0.32-0.04-0.64-0.11-0.95l-21.67-90.06c-0.1-0.41-0.15-0.83-0.15-1.24c0-1.13,0.36-2.28,1.12-3.38l0.01-0.02
			c1.11-1.65,3.06-2.88,5.38-3.26c0.42-0.07,0.83-0.1,1.23-0.1c1.63,0,3.17,0.53,4.38,1.43c1.21,0.9,2.09,2.16,2.45,3.65l8.57,35.61
			l8.01,33.27c0.45,1.87,2.12,3.12,3.96,3.12c0.32,0,0.64-0.04,0.95-0.11l0,0c1.87-0.45,3.12-2.12,3.12-3.96
			c0-0.32-0.04-0.64-0.11-0.95l-8.01-33.27c-0.08-0.33-0.12-0.67-0.12-1.01c0-0.93,0.3-1.9,0.93-2.83l0.01-0.01
			c0.8-1.21,2.26-2.21,3.96-2.61c0.57-0.14,1.14-0.2,1.69-0.2c1.37,0,2.64,0.41,3.61,1.08c0.97,0.68,1.64,1.6,1.9,2.7l1.63,6.77
			l3.76,15.64l3.88,16.13c0.45,1.87,2.12,3.12,3.96,3.12c0.32,0,0.64-0.04,0.95-0.11c1.87-0.45,3.13-2.12,3.13-3.96
			c0-0.32-0.04-0.64-0.11-0.95l-3.88-16.13l-3.76-15.64c-0.08-0.33-0.12-0.67-0.12-1.01c0-0.93,0.3-1.9,0.92-2.81
			c0.9-1.31,2.31-2.27,4.01-2.69c0.57-0.14,1.13-0.2,1.68-0.2c1.37,0,2.64,0.41,3.61,1.09c0.97,0.68,1.64,1.61,1.91,2.73l1.89,7.85
			l4.29,17.82l2.95,12.25c0.45,1.87,2.12,3.12,3.96,3.12c0.32,0,0.64-0.04,0.95-0.11l0,0c1.87-0.45,3.12-2.12,3.12-3.96
			c0-0.32-0.04-0.64-0.11-0.95l-2.95-12.25l-4.29-17.82c-0.08-0.34-0.12-0.67-0.12-1.02c0-0.93,0.3-1.9,0.92-2.81
			c0.9-1.31,2.31-2.27,4.01-2.68c0.57-0.14,1.13-0.2,1.68-0.2c1.37,0,2.64,0.41,3.61,1.09c0.97,0.68,1.64,1.61,1.91,2.73l7.54,31.33
			c1.67,6.93,3.61,17.35,3.61,28.15c0,9.42-1.48,19.1-5.78,27.01c-2.15,3.96-4.99,7.49-8.72,10.38c-3.73,2.89-8.36,5.16-14.12,6.55
			c-4.67,1.12-9.29,1.67-13.74,1.67C574.49,1151.62,566.23,1149.37,559.79,1145.12z"/>
	</g>
</g>
</svg>
