<svg width="742" height="348" viewBox="0 0 742 348" fill="none" xmlns="http://www.w3.org/2000/svg">
<path d="M310.429 203.093C308.097 203.093 306.305 202.338 305.044 200.848C303.798 199.348 303.167 197.237 303.167 194.522V137.861C303.167 135.073 303.84 132.946 305.183 131.486C306.521 130.018 308.419 129.288 310.862 129.288C312.851 129.288 314.448 129.751 315.673 130.67C316.897 131.589 318.005 133.104 319.005 135.215L336.229 171.446L353.46 135.215C354.51 133.104 355.632 131.589 356.829 130.67C358.02 129.751 359.637 129.288 361.681 129.288C363.956 129.288 365.728 130.018 367.016 131.486C368.298 132.946 368.936 135.073 368.936 137.861V194.522C368.936 197.237 368.332 199.348 367.108 200.848C365.883 202.338 364.069 203.093 361.681 203.093C359.343 203.093 357.551 202.338 356.304 200.848C355.044 199.348 354.421 197.237 354.421 194.522V163.078L342.175 187.983C341.361 189.483 340.5 190.605 339.597 191.35C338.694 192.104 337.483 192.473 335.963 192.473C334.508 192.473 333.317 192.104 332.387 191.35C331.448 190.605 330.6 189.483 329.844 187.983L317.689 163.487V194.522C317.689 197.237 317.072 199.348 315.847 200.848C314.629 202.338 312.817 203.093 310.429 203.093Z" fill="#3A3A3A"/>
<path d="M388.706 202.174C383.105 202.174 380.311 198.939 380.311 192.48V139.907C380.311 133.44 383.105 130.214 388.706 130.214H418.353C422.552 130.214 424.654 132.592 424.654 137.355C424.654 142.255 422.552 144.702 418.353 144.702H395.7V158.383H416.433C420.635 158.383 422.729 160.802 422.729 165.627C422.729 170.462 420.635 172.881 416.433 172.881H395.7V187.676H418.353C422.552 187.676 424.654 190.093 424.654 194.927C424.654 199.755 422.552 202.174 418.353 202.174H388.706Z" fill="#3A3A3A"/>
<path d="M436.112 202.993C433.774 203.126 431.981 202.428 430.727 200.897C429.481 199.366 428.852 197.412 428.852 195.027C428.852 193.19 429.284 191.597 430.16 190.231C431.035 188.873 432.351 188.119 434.101 187.986L436.547 187.781C438.702 187.64 440.264 187.051 441.223 185.992C442.181 184.94 442.671 183.191 442.671 180.741V138.779C442.671 135.72 443.366 133.373 444.765 131.74C446.173 130.107 448.148 129.29 450.718 129.29C453.28 129.29 455.261 130.107 456.662 131.74C458.061 133.373 458.762 135.72 458.762 138.779V180.428C458.762 194.453 452.264 201.902 439.256 202.788L436.112 202.993Z" fill="#3A3A3A"/>
<path d="M499.606 187.578C504.151 187.578 507.728 185.687 510.32 181.911C512.91 178.136 514.212 172.876 514.212 166.144C514.212 159.4 512.932 154.165 510.368 150.422C507.799 146.678 504.213 144.809 499.606 144.809C495.006 144.809 491.415 146.678 488.853 150.422C486.288 154.165 485 159.4 485 166.144C485 172.876 486.288 178.136 488.853 181.911C491.415 185.687 495.006 187.578 499.606 187.578ZM499.606 203.293C493.368 203.293 487.9 201.753 483.208 198.654C478.51 195.553 474.857 191.22 472.231 185.632C469.611 180.058 468.295 173.559 468.295 166.144C468.295 158.655 469.597 152.14 472.187 146.591C474.779 141.049 478.447 136.742 483.159 133.68C487.886 130.618 493.368 129.088 499.606 129.088C505.852 129.088 511.314 130.618 516.004 133.68C520.702 136.742 524.358 141.049 526.984 146.591C529.602 152.14 530.918 158.655 530.918 166.144C530.918 173.559 529.602 180.058 526.984 185.632C524.358 191.22 520.702 195.553 516.004 198.654C511.314 201.753 505.852 203.293 499.606 203.293Z" fill="#3A3A3A"/>
<path d="M556.543 162.059H567.215C573.572 162.059 576.752 159.131 576.752 153.275C576.752 147.499 573.572 144.602 567.215 144.602H556.543V162.059ZM548.499 203.093C545.929 203.093 543.948 202.276 542.554 200.643C541.153 199.012 540.446 196.665 540.446 193.603V139.705C540.446 136.644 541.153 134.289 542.554 132.656C543.948 131.023 545.956 130.207 548.582 130.207H570.107C577.101 130.207 582.505 132.2 586.33 136.181C590.145 140.159 592.05 145.692 592.05 152.765C592.05 158.14 590.901 162.655 588.599 166.297C586.294 169.93 582.954 172.474 578.578 173.902C581.848 174.923 584.474 177.537 586.455 181.76L590.824 190.942C591.756 192.982 592.183 194.923 592.098 196.767C592.008 198.603 591.385 200.118 590.222 201.304C589.053 202.496 587.322 203.093 585.054 203.093C582.785 203.093 580.931 202.568 579.502 201.506C578.073 200.456 576.807 198.736 575.694 196.358L567.739 179.31C567.04 177.811 566.149 176.774 565.071 176.193C563.986 175.622 562.755 175.323 561.354 175.323H556.543V193.603C556.543 196.665 555.858 199.012 554.485 200.643C553.119 202.276 551.125 203.093 548.499 203.093Z" fill="#3A3A3A"/>
<path d="M319.085 251.068H329.757C336.114 251.068 339.292 248.141 339.292 242.285C339.292 236.509 336.114 233.612 329.757 233.612H319.085V251.068ZM311.041 292.103C308.47 292.103 306.496 291.286 305.096 289.653C303.695 288.022 302.995 285.675 302.995 282.613V228.715C302.995 225.653 303.695 223.299 305.096 221.666C306.496 220.033 308.506 219.217 311.124 219.217H332.649C339.643 219.217 345.048 221.21 348.87 225.19C352.687 229.168 354.598 234.702 354.598 241.775C354.598 247.15 353.443 251.665 351.139 255.307C348.837 258.94 345.496 261.483 341.128 262.905C344.391 263.933 347.016 266.547 348.997 270.77L353.366 279.952C354.304 281.992 354.731 283.932 354.64 285.777C354.55 287.612 353.927 289.128 352.764 290.314C351.595 291.506 349.872 292.103 347.596 292.103C345.327 292.103 343.474 291.577 342.045 290.516C340.616 289.466 339.355 287.746 338.242 285.367L330.289 268.32C329.58 266.821 328.691 265.784 327.621 265.203C326.536 264.631 325.295 264.333 323.896 264.333H319.085V282.613C319.085 285.675 318.4 288.022 317.035 289.653C315.661 291.286 313.667 292.103 311.041 292.103Z" fill="#3A3A3A"/>
<path d="M372.789 292.103C370.226 292.103 368.245 291.286 366.836 289.653C365.443 288.022 364.744 285.635 364.744 282.504V227.889C364.744 224.765 365.443 222.38 366.836 220.747C368.245 219.114 370.226 218.298 372.789 218.298C375.351 218.298 377.333 219.114 378.741 220.747C380.134 222.38 380.832 224.765 380.832 227.889V282.504C380.832 285.635 380.148 288.022 378.775 289.653C377.409 291.286 375.414 292.103 372.789 292.103Z" fill="#3A3A3A"/>
<path d="M421.766 276.588C426.311 276.588 429.888 274.697 432.48 270.921C435.07 267.139 436.372 261.888 436.372 255.153C436.372 248.41 435.084 243.174 432.528 239.432C429.959 235.687 426.373 233.812 421.766 233.812C417.16 233.812 413.575 235.687 411.013 239.432C408.442 243.174 407.16 248.41 407.16 255.153C407.16 261.888 408.442 267.139 411.013 270.921C413.575 274.697 417.16 276.588 421.766 276.588ZM421.766 292.302C415.52 292.302 410.06 290.756 405.368 287.664C400.67 284.562 397.014 280.221 394.39 274.641C391.771 269.068 390.455 262.569 390.455 255.153C390.455 247.664 391.751 241.149 394.347 235.601C396.939 230.058 400.606 225.751 405.318 222.69C410.046 219.628 415.52 218.097 421.766 218.097C428.004 218.097 433.474 219.628 438.164 222.69C442.862 225.751 446.518 230.058 449.144 235.601C451.762 241.149 453.078 247.664 453.078 255.153C453.078 262.569 451.762 269.068 449.144 274.641C446.518 280.221 442.862 284.562 438.164 287.664C433.474 290.756 428.004 292.302 421.766 292.302Z" fill="#3A3A3A"/>
<path d="M459.989 292C457.659 292.131 455.864 291.435 454.604 289.904C453.36 288.38 452.729 286.418 452.729 284.032C452.729 282.195 453.163 280.602 454.039 279.245C454.913 277.879 456.229 277.133 457.98 276.991L460.423 276.795C462.581 276.655 464.141 276.058 465.101 274.997C466.066 273.947 466.55 272.196 466.55 269.747V227.793C466.55 224.732 467.251 222.378 468.644 220.745C470.051 219.114 472.032 218.298 474.595 218.298C477.157 218.298 479.139 219.114 480.547 220.745C481.94 222.378 482.64 224.732 482.64 227.793V269.442C482.64 283.459 476.143 290.907 463.132 291.795L459.989 292Z" fill="#3A3A3A"/>
<path d="M521.385 238.818L512.989 262.193H529.963L521.56 238.818H521.385ZM496.633 292.104C493.896 292.104 491.879 291.014 490.605 288.832C489.317 286.658 489.317 283.934 490.605 280.671L512.38 225.954C513.424 223.301 514.712 221.364 516.232 220.138C517.737 218.914 519.515 218.302 521.56 218.302C523.548 218.302 525.299 218.914 526.811 220.138C528.323 221.364 529.611 223.301 530.656 225.954L552.438 280.671C553.776 284.006 553.837 286.745 552.613 288.887C551.388 291.03 549.461 292.104 546.843 292.104C544.505 292.104 542.713 291.486 541.459 290.26C540.206 289.037 539.079 287.067 538.09 284.344L535.29 276.588H507.746L504.937 284.344C503.895 287.067 502.815 289.037 501.702 290.26C500.596 291.486 498.91 292.104 496.633 292.104Z" fill="#3A3A3A"/>
<path d="M567.997 292.103C562.983 292.103 560.484 289.143 560.484 283.225V227.591C560.484 224.594 561.122 222.294 562.402 220.7C563.684 219.099 565.379 218.298 567.479 218.298C569.34 218.298 570.783 218.707 571.806 219.524C572.822 220.34 574.005 221.704 575.348 223.604L600.626 260.455V227.082C600.626 221.226 603.103 218.298 608.061 218.298C610.504 218.298 612.36 219.061 613.614 220.598C614.861 222.129 615.49 224.287 615.49 227.082V283.625C615.49 286.215 614.908 288.273 613.739 289.802C612.576 291.333 611.008 292.103 609.02 292.103C607.039 292.103 605.485 291.695 604.336 290.879C603.202 290.062 601.99 288.696 600.71 286.796L575.434 249.945V283.225C575.434 289.143 572.955 292.103 567.997 292.103Z" fill="#3A3A3A"/>
<path d="M654.411 238.818L646.016 262.193H662.989L654.586 238.818H654.411ZM629.661 292.104C626.916 292.104 624.906 291.014 623.632 288.832C622.344 286.658 622.344 283.934 623.632 280.671L645.409 225.954C646.451 223.301 647.739 221.364 649.259 220.138C650.763 218.914 652.542 218.302 654.586 218.302C656.575 218.302 658.325 218.914 659.832 220.138C661.35 221.364 662.638 223.301 663.682 225.954L685.465 280.671C686.803 284.006 686.866 286.745 685.639 288.887C684.415 291.03 682.49 292.104 679.87 292.104C677.532 292.104 675.74 291.486 674.485 290.26C673.225 289.037 672.106 287.067 671.119 284.344L668.317 276.588H640.772L637.965 284.344C636.922 287.067 635.844 289.037 634.731 290.26C633.623 291.486 631.936 292.104 629.661 292.104Z" fill="#3A3A3A"/>
<path d="M715.635 292.305C712.078 292.305 708.424 291.882 704.663 291.025C700.904 290.178 697.683 288.97 694.995 287.408C693.42 286.52 692.312 285.327 691.669 283.828C691.032 282.337 690.8 280.791 690.976 279.191C691.151 277.589 691.641 276.161 692.461 274.904C693.279 273.649 694.358 272.792 695.694 272.354C697.04 271.907 698.558 272.127 700.245 273.012C702.458 274.307 704.973 275.282 707.765 275.925C710.56 276.568 713.186 276.891 715.635 276.891C719.487 276.891 722.183 276.294 723.731 275.108C725.271 273.916 726.041 272.432 726.041 270.665C726.041 269.097 725.509 267.84 724.429 266.889C723.352 265.942 721.44 265.116 718.695 264.442L708.466 261.89C697.389 259.096 691.852 252.33 691.852 241.577C691.852 236.876 692.943 232.764 695.128 229.224C697.319 225.684 700.358 222.943 704.264 221.005C708.178 219.058 712.723 218.093 717.911 218.093C720.944 218.093 724.016 218.487 727.141 219.27C730.255 220.049 732.958 221.226 735.227 222.794C736.977 223.878 738.085 225.362 738.545 227.231C739.021 229.106 738.96 230.926 738.378 232.693C737.797 234.466 736.761 235.754 735.276 236.571C733.784 237.387 731.902 237.254 729.633 236.161C727.883 235.276 725.964 234.615 723.856 234.168C721.762 233.729 719.718 233.509 717.737 233.509C714.466 233.509 711.967 234.168 710.217 235.503C708.466 236.829 707.591 238.549 707.591 240.651C707.591 242.151 708.117 243.374 709.167 244.333C710.217 245.283 712.078 246.098 714.762 246.781L724.906 249.333C736.165 252.118 741.788 258.729 741.788 269.135C741.788 273.829 740.708 277.919 738.545 281.38C736.396 284.858 733.357 287.541 729.457 289.448C725.551 291.348 720.944 292.305 715.635 292.305Z" fill="#3A3A3A"/>
<path d="M163.932 62.08C165.598 64.1115 168.168 64.9994 169.827 67.0172C168.462 68.4992 159.927 77.51 158.639 78.8759C151.321 86.6632 144.025 94.4638 136.66 102.188C135.574 103.326 135.162 104.48 135.203 106.129C135.302 109.502 135.231 112.886 135.231 116.866C136.078 116.025 136.652 115.485 137.2 114.904C151.938 99.2207 166.684 83.5394 181.414 67.8559C184.383 64.6921 185.455 64.6543 188.613 67.6514C193.851 72.6283 199.088 77.6124 204.332 82.5806C204.892 83.1233 205.479 83.6173 206.11 84.1823C213.553 74.9981 220.891 65.9404 228.237 56.876C234.068 49.6786 239.887 42.4654 245.726 35.2677C247.917 32.5513 249.192 32.362 251.889 34.3398C253.324 35.3924 254.737 36.4692 256.174 37.5195C256.271 37.5906 256.446 37.5282 256.853 37.5282C257.629 28.604 258.413 19.6556 259.24 10.2842C251.51 12.9208 244.059 15.4638 236.112 18.1718C237.66 19.4043 238.857 20.3076 240.012 21.2732C242.316 23.18 242.666 25.5585 240.79 27.9433C230.301 41.2949 219.799 54.6068 209.254 67.896C207.462 70.1565 205.712 70.0942 203.429 67.9338C197.385 62.2135 191.358 56.4758 185.195 50.6285C179.622 56.5378 174.099 62.4006 168.42 68.4301C166.789 66.4432 165.248 64.5677 163.575 62.5275C165.927 60.0066 168.182 57.5903 170.456 55.1809C174.134 51.2559 177.824 47.338 181.505 43.4152C184.35 40.3851 185.477 40.3383 188.544 43.2417C193.724 48.1544 198.898 53.0848 204.08 57.9974C204.695 58.587 205.333 59.1434 206.075 59.8263C215.094 48.3993 223.993 37.1121 233.004 25.6919C230.666 23.9094 228.536 22.2453 226.359 20.6368C224.952 19.6 223.979 18.2829 224.231 16.2737C224.503 14.1689 225.793 13.2346 227.508 12.6537C238.781 8.84052 250.039 4.9313 261.305 1.08412C265.129 -0.217172 267.179 1.79164 266.774 6.33501C265.633 19.106 264.492 31.8839 263.357 44.6545C262.972 49.0021 260.354 50.4463 257.133 48.0701C254.654 46.2412 252.216 44.3476 249.648 42.4031C245.928 46.9865 242.302 51.4362 238.696 55.8949C229.098 67.7626 219.498 79.6303 209.898 91.4889C207.412 94.5662 205.942 94.6596 203.114 91.9674C197.191 86.3495 191.267 80.7294 185.203 74.9758C182.403 77.9416 179.63 80.8541 176.885 83.773C162.952 98.5933 149.031 113.411 135.12 128.247C133.768 129.682 132.43 131.01 130.414 130.082C128.314 129.117 128.09 127.101 128.104 124.856C128.153 117.587 128.054 110.319 128.181 103.052C128.195 101.655 128.608 99.8568 129.434 98.9626C138.718 88.8924 154.346 72.2836 163.932 62.08Z" fill="#7E8E3A"/>
<path d="M112.512 282.942C112.512 300.737 112.498 318.539 112.525 336.331C112.533 338.16 112.301 339.896 111.575 341.504C110.838 343.128 109.725 344.392 108.345 345.373C106.805 346.473 105.124 346.662 103.34 346.575C101.435 346.481 99.8743 345.554 98.4536 344.268C97.4233 343.34 96.4985 342.243 95.5536 341.191C94.5535 340.076 93.5652 338.921 92.5708 337.784C91.3878 336.434 90.2108 335.076 89.0278 333.726C88.1249 332.705 87.194 331.717 86.2907 330.704C85.1636 329.425 84.0559 328.13 82.9148 326.857C82.244 326.097 81.5293 325.367 80.8504 324.613C80.2692 323.97 79.6954 323.318 79.1198 322.675C78.0423 321.449 76.9564 320.234 75.8789 319.001C74.8429 317.824 73.8266 316.63 72.7985 315.446C72.3083 314.888 71.8102 314.338 71.32 313.782C70.123 312.431 68.94 311.065 67.7355 309.715C66.3004 308.106 64.8434 306.529 63.4166 304.92C62.3587 303.718 61.3424 302.479 60.2864 301.287C59.2705 300.132 58.2065 299.018 57.1846 297.88C56.6584 297.307 56.1762 296.71 55.6641 296.13C54.4315 294.748 53.193 293.375 51.9684 291.985C50.9385 290.823 49.9301 289.653 48.9081 288.491C47.9274 287.377 46.9409 286.277 45.9526 285.165C44.875 283.939 43.7971 282.7 42.7037 281.483C41.6337 280.281 40.5482 279.098 39.4703 277.896C38.5039 276.82 37.5431 275.722 36.5706 274.63C35.0029 272.857 33.4268 271.084 31.8511 269.308C30.6621 267.944 29.4632 266.585 28.2666 265.219C26.5995 263.321 24.9342 261.43 23.2671 259.536C21.4548 257.474 19.6467 255.409 17.8268 253.36C16.6578 252.05 15.4469 250.777 14.2778 249.466C13.0654 248.109 11.8824 246.703 10.6718 245.339C8.33152 242.694 5.98783 240.048 3.6415 237.412C2.40106 236.021 1.25397 234.522 0.672301 232.655C0.309089 231.46 0.218002 230.128 0.190033 228.848C0.132584 226.721 0.7358 224.765 1.91312 223.117C3.3123 221.148 5.049 219.726 7.33939 219.437C8.43697 219.303 9.54437 219.201 10.6438 219.201C41.4931 219.186 72.3499 219.186 103.199 219.186C104.432 219.186 105.636 219.319 106.819 219.711C108.185 220.175 109.306 221.077 110.271 222.238C111.819 224.114 112.519 226.367 112.512 228.957C112.506 246.955 112.512 264.945 112.512 282.942Z" fill="#E03338"/>
<path d="M127.562 283.152C166.016 290.416 204.751 261.855 212.66 219.252H195.216C186.039 251.117 155.862 269.591 127.562 262.573V283.152Z" fill="#F0A832"/>
<path d="M127.562 248.788C131.619 250.118 135.923 250.835 140.353 250.817C158.139 250.739 174.958 237.839 181.649 219.252H161.267C159.812 221.21 158.137 222.961 156.261 224.445C146.472 232.183 136.013 232.21 127.562 227.026V248.788Z" fill="#F0A832"/>
<path d="M135.138 294.512C135.138 296.365 133.822 297.872 132.184 297.872C130.559 297.872 129.235 296.365 129.235 294.512C129.235 292.652 130.559 291.146 132.184 291.146C133.822 291.146 135.138 292.652 135.138 294.512Z" fill="#F0A832"/>
<path d="M136.432 315.428C136.432 318.009 134.596 320.098 132.335 320.098C130.073 320.098 128.239 318.009 128.239 315.428C128.239 312.845 130.073 310.758 132.335 310.758C134.596 310.758 136.432 312.845 136.432 315.428Z" fill="#F0A832"/>
<path d="M137.224 341.68C137.224 344.748 135.038 347.238 132.351 347.238C129.654 347.238 127.471 344.748 127.471 341.68C127.471 338.612 129.654 336.122 132.351 336.122C135.038 336.122 137.224 338.612 137.224 341.68Z" fill="#F0A832"/>
<path d="M160.3 293.518C160.56 295.353 159.461 297.079 157.849 297.371C156.247 297.66 154.727 296.421 154.475 294.585C154.215 292.748 155.309 291.028 156.918 290.729C158.53 290.432 160.043 291.689 160.3 293.518Z" fill="#F0A832"/>
<path d="M164.486 313.935C164.844 316.479 163.323 318.873 161.09 319.282C158.85 319.689 156.755 317.962 156.398 315.413C156.035 312.87 157.561 310.476 159.788 310.066C162.021 309.659 164.121 311.386 164.486 313.935Z" fill="#F0A832"/>
<path d="M168.916 339.709C169.343 342.739 167.537 345.589 164.875 346.074C162.216 346.561 159.723 344.497 159.288 341.475C158.861 338.438 160.668 335.597 163.329 335.11C165.989 334.623 168.481 336.68 168.916 339.709Z" fill="#F0A832"/>
<path d="M183.357 284.257C184.211 285.844 183.784 287.906 182.391 288.881C181.005 289.853 179.185 289.359 178.33 287.782C177.476 286.204 177.917 284.124 179.302 283.151C180.69 282.177 182.51 282.671 183.357 284.257Z" fill="#F0A832"/>
<path d="M194.073 301.3C195.262 303.498 194.66 306.371 192.735 307.721C190.802 309.072 188.282 308.388 187.099 306.19C185.916 303.992 186.517 301.12 188.436 299.769C190.368 298.421 192.888 299.102 194.073 301.3Z" fill="#F0A832"/>
<path d="M206.817 323.189C208.225 325.803 207.51 329.225 205.214 330.834C202.925 332.436 199.928 331.626 198.513 329.012C197.1 326.4 197.82 322.978 200.111 321.367C202.407 319.758 205.41 320.575 206.817 323.189Z" fill="#F0A832"/>
<path d="M202.441 265.174C203.687 266.376 203.764 268.596 202.623 270.136C201.482 271.673 199.549 271.949 198.303 270.748C197.058 269.546 196.981 267.326 198.122 265.786C199.269 264.249 201.202 263.975 202.441 265.174Z" fill="#F0A832"/>
<path d="M217.354 277.473C219.077 279.138 219.196 282.222 217.606 284.357C216.024 286.491 213.335 286.876 211.606 285.205C209.883 283.541 209.764 280.457 211.36 278.321C212.944 276.185 215.625 275.809 217.354 277.473Z" fill="#F0A832"/>
<path d="M235.487 293.689C237.539 295.667 237.672 299.34 235.788 301.883C233.891 304.426 230.698 304.873 228.647 302.895C226.589 300.911 226.462 297.244 228.345 294.701C230.237 292.158 233.429 291.711 235.487 293.689Z" fill="#F0A832"/>
<path d="M216.274 242.287C217.737 243.103 218.354 245.112 217.64 246.786C216.931 248.456 215.161 249.155 213.698 248.338C212.234 247.522 211.618 245.513 212.333 243.842C213.039 242.169 214.812 241.479 216.274 242.287Z" fill="#F0A832"/>
<path d="M233.342 250.103C235.378 251.224 236.225 254.018 235.239 256.335C234.251 258.657 231.801 259.623 229.763 258.5C227.732 257.369 226.885 254.575 227.873 252.261C228.86 249.936 231.311 248.972 233.342 250.103Z" fill="#F0A832"/>
<path d="M254.408 260.758C256.831 262.09 257.839 265.419 256.662 268.182C255.486 270.937 252.574 272.091 250.15 270.748C247.729 269.415 246.721 266.086 247.896 263.323C249.073 260.569 251.986 259.414 254.408 260.758Z" fill="#F0A832"/>
<path d="M220.575 221.301C222.199 221.317 223.509 222.839 223.495 224.699C223.473 226.552 222.143 228.043 220.512 228.027C218.88 228.003 217.57 226.49 217.592 224.63C217.606 222.767 218.95 221.286 220.575 221.301Z" fill="#F0A832"/>
<path d="M238.934 220.051C241.195 220.075 243.009 222.187 242.987 224.768C242.959 227.342 241.111 229.416 238.849 229.384C236.588 229.36 234.768 227.248 234.796 224.665C234.816 222.091 236.672 220.029 238.934 220.051Z" fill="#F0A832"/>
<path d="M261.978 219.426C264.665 219.457 266.822 221.969 266.795 225.039C266.773 228.107 264.56 230.563 261.872 230.532C259.183 230.501 257.02 227.989 257.047 224.921C257.083 221.851 259.282 219.395 261.978 219.426Z" fill="#F0A832"/>
<path d="M163.057 173.034C164.659 160.492 168.966 148.467 175.317 138.397H159.457C153.745 150.162 150.047 163.098 148.731 176.323C147.925 184.486 148.114 192.783 149.166 200.915H164.127C162.265 192.037 161.853 182.452 163.057 173.034Z" fill="#7E8E3A"/>
<path d="M143.337 200.912C142.32 192.529 142.16 183.989 142.994 175.584C144.276 162.679 147.678 150.051 152.907 138.401H138.113C133.086 151.299 129.85 164.915 128.689 178.714C128.443 181.555 128.304 184.406 128.235 187.269V193.432C128.29 195.802 128.395 198.18 128.576 200.549C128.773 200.77 129.039 200.912 129.34 200.912H143.337Z" fill="#7E8E3A"/>
<path d="M168.773 173.98C167.61 183.133 168.078 192.442 170.075 200.91H189.302C185.753 199.137 183.274 195.227 182.258 189.57C181.277 184.201 181.606 177.339 183.169 170.26C184.709 163.236 187.313 156.634 190.512 151.675C194.371 145.692 198.916 142.333 203.635 141.972C207.212 141.683 210.203 143 212.226 145.763C216.483 151.564 215.391 161.916 213.724 169.577C212.331 175.967 209.971 182.835 207.248 188.415C204.153 194.789 201.009 198.863 197.907 200.534C197.641 200.674 197.381 200.792 197.115 200.91H215.405C218.541 193.361 221.264 185.738 223.352 178.447C226.958 165.865 228.742 154.861 228.673 145.723C228.645 143.065 228.357 140.637 227.853 138.401H182.629C175.36 148.3 170.446 160.817 168.773 173.98Z" fill="#7E8E3A"/>
<path d="M266.572 139.665C266.572 138.966 266.082 138.401 265.467 138.401H254.213C254.199 138.746 254.213 139.069 254.193 139.413C253.338 155.017 250.013 171.971 244.006 191.247C243.019 194.427 241.939 197.653 240.806 200.91H253.346C253.479 200.501 253.626 200.093 253.759 199.686C259.963 180.572 264.17 162.968 266.572 146.266V139.665Z" fill="#7E8E3A"/>
<path d="M128.233 139.665V149.319C129.282 145.637 130.473 141.994 131.803 138.401H129.338C128.729 138.401 128.233 138.966 128.233 139.665Z" fill="#7E8E3A"/>
<path d="M202.195 185.224C204.674 180.132 206.837 173.844 208.112 167.988C209.961 159.504 209.848 152.778 207.796 149.991C207.286 149.285 206.327 148.358 204.015 148.547C200.27 148.829 197.134 152.527 195.173 155.58C192.414 159.865 190.132 165.643 188.766 171.859C187.422 178.005 187.113 183.82 187.913 188.239C188.661 192.375 190.257 194.738 192.644 195.279C193.331 195.428 194.284 195.201 195.445 194.573C196.887 193.797 199.422 190.94 202.195 185.224Z" fill="#7E8E3A"/>
<path d="M266.572 199.651V176.207C264.591 184.188 262.245 192.407 259.506 200.915H265.467C266.082 200.915 266.572 200.349 266.572 199.651Z" fill="#7E8E3A"/>
<path d="M248.425 139.004C248.439 138.808 248.445 138.597 248.453 138.401H233.798C234.205 140.684 234.429 143.109 234.449 145.661C234.526 155.511 232.643 167.229 228.847 180.488C226.95 187.136 224.521 194.035 221.768 200.91H234.595C236.024 196.892 237.348 192.936 238.559 189.042C244.384 170.353 247.612 153.98 248.425 139.004Z" fill="#7E8E3A"/>
<path d="M320.172 342.094V345.838H302.891V319.584H319.732V323.28H306.833V330.673H318.303V334.324H306.833V342.094H320.172Z" fill="#3A3A3A"/>
<path d="M349.902 345.838L349.86 327.621L341.905 342.69H340.093L332.138 328.037V345.838H328.365V319.584H331.726L341.06 337.234L350.223 319.584H353.627L353.677 345.838H349.902Z" fill="#3A3A3A"/>
<path d="M377.623 332.941C378.659 331.984 379.183 330.618 379.183 328.829C379.183 327.04 378.659 325.665 377.623 324.715C376.587 323.758 375.059 323.28 373.058 323.28H367.826V334.371H373.058C375.059 334.371 376.587 333.9 377.623 332.941ZM380.521 322.032C382.28 323.665 383.155 325.925 383.155 328.829C383.155 331.757 382.28 334.033 380.521 335.666C378.765 337.306 376.355 338.113 373.302 338.113H367.826V345.838H363.893V319.582H373.302C376.355 319.582 378.765 320.399 380.521 322.032Z" fill="#3A3A3A"/>
<path d="M405.241 332.941C406.277 331.984 406.801 330.618 406.801 328.829C406.801 327.04 406.277 325.665 405.241 324.715C404.203 323.758 402.677 323.28 400.682 323.28H395.452V334.371H400.682C402.677 334.371 404.203 333.9 405.241 332.941ZM406.92 345.838L401.978 337.98C401.76 338.011 401.41 338.027 400.92 338.027H395.452V345.838H391.511V319.582H400.92C403.973 319.582 406.382 320.399 408.139 322.032C409.897 323.665 410.779 325.925 410.779 328.829C410.779 330.829 410.338 332.542 409.463 333.955C408.579 335.375 407.327 336.442 405.702 337.148L411.185 345.838H406.92Z" fill="#3A3A3A"/>
<path d="M436.693 342.094V345.838H419.414V319.584H436.245V323.28H423.348V330.673H434.824V334.324H423.348V342.094H436.693Z" fill="#3A3A3A"/>
<path d="M446.403 345.351C444.716 344.779 443.392 344.025 442.453 343.06L443.987 339.551C444.912 340.414 446.067 341.106 447.461 341.631C448.854 342.156 450.295 342.416 451.779 342.416C453.587 342.416 454.923 342.078 455.771 341.404C456.626 340.721 457.053 339.842 457.053 338.765C457.053 337.933 456.801 337.252 456.302 336.734C455.798 336.207 455.169 335.806 454.419 335.533C453.657 335.25 452.635 334.959 451.333 334.654C449.574 334.222 448.145 333.775 447.054 333.312C445.962 332.847 445.031 332.111 444.253 331.114C443.483 330.117 443.098 328.751 443.098 327.025C443.098 324.686 443.932 322.793 445.597 321.358C447.256 319.929 449.519 319.206 452.383 319.206C453.845 319.206 455.26 319.402 456.626 319.787C457.992 320.172 459.161 320.737 460.133 321.475L458.712 325.078C456.954 323.696 454.804 322.998 452.264 322.998C450.505 322.998 449.189 323.351 448.328 324.041C447.466 324.74 447.034 325.634 447.034 326.742C447.034 327.574 447.286 328.257 447.782 328.782C448.286 329.307 448.917 329.701 449.693 329.984C450.457 330.257 451.499 330.555 452.795 330.862C454.574 331.319 456.003 331.782 457.067 332.22C458.139 332.667 459.061 333.39 459.831 334.371C460.596 335.359 460.986 336.687 460.986 338.349C460.986 340.752 460.155 342.668 458.496 344.081C456.829 345.5 454.538 346.208 451.612 346.208C449.834 346.208 448.09 345.925 446.403 345.351Z" fill="#3A3A3A"/>
<path d="M482.075 336.04L477.286 323.645L472.461 336.04H482.075ZM483.447 339.602H471.09L468.652 345.843H464.794L475.339 319.58H479.239L489.82 345.843H485.848L483.447 339.602Z" fill="#3A3A3A"/>
<path d="M497.59 345.351C495.903 344.779 494.579 344.025 493.634 343.06L495.174 339.551C496.091 340.414 497.246 341.106 498.639 341.631C500.041 342.156 501.476 342.416 502.966 342.416C504.773 342.416 506.104 342.078 506.958 341.404C507.805 340.721 508.24 339.842 508.24 338.765C508.24 337.933 507.98 337.252 507.484 336.734C506.985 336.207 506.357 335.806 505.6 335.533C504.836 335.25 503.814 334.959 502.512 334.654C500.753 334.222 499.332 333.775 498.241 333.312C497.149 332.847 496.21 332.111 495.432 331.114C494.67 330.117 494.277 328.751 494.277 327.025C494.277 324.686 495.111 322.793 496.778 321.358C498.437 319.929 500.698 319.206 503.57 319.206C505.025 319.206 506.446 319.402 507.805 319.787C509.171 320.172 510.34 320.737 511.32 321.475L509.899 325.078C508.141 323.696 505.991 322.998 503.451 322.998C501.692 322.998 500.376 323.351 499.515 324.041C498.647 324.74 498.219 325.634 498.219 326.742C498.219 327.574 498.465 328.257 498.961 328.782C499.465 329.307 500.103 329.701 500.872 329.984C501.643 330.257 502.681 330.555 503.975 330.862C505.761 331.319 507.188 331.782 508.254 332.22C509.323 332.667 510.243 333.39 511.013 334.371C511.783 335.359 512.168 336.687 512.168 338.349C512.168 340.752 511.34 342.668 509.675 344.081C508.008 345.5 505.719 346.208 502.8 346.208C501.013 346.208 499.277 345.925 497.59 345.351Z" fill="#3A3A3A"/>
<path d="M550.493 342.094V345.838H533.212V319.584H550.051V323.28H537.154V330.673H548.624V334.324H537.154V342.094H550.493Z" fill="#3A3A3A"/>
<path d="M560.209 345.351C558.521 344.779 557.198 344.025 556.253 343.06L557.793 339.551C558.71 340.414 559.865 341.106 561.259 341.631C562.66 342.156 564.095 342.416 565.587 342.416C567.393 342.416 568.723 342.078 569.577 341.404C570.424 340.721 570.859 339.842 570.859 338.765C570.859 337.933 570.599 337.252 570.103 336.734C569.604 336.207 568.975 335.806 568.219 335.533C567.455 335.25 566.433 334.959 565.139 334.654C563.374 334.222 561.953 333.775 560.859 333.312C559.768 332.847 558.829 332.111 558.053 331.114C557.289 330.117 556.898 328.751 556.898 327.025C556.898 324.686 557.73 322.793 559.397 321.358C561.056 319.929 563.319 319.206 566.189 319.206C567.646 319.206 569.067 319.402 570.424 319.787C571.79 320.172 572.959 320.737 573.939 321.475L572.518 325.078C570.761 323.696 568.612 322.998 566.07 322.998C564.311 322.998 562.995 323.351 562.134 324.041C561.266 324.74 560.84 325.634 560.84 326.742C560.84 327.574 561.084 328.257 561.588 328.782C562.086 329.307 562.723 329.701 563.493 329.984C564.263 330.257 565.3 330.555 566.596 330.862C568.38 331.319 569.809 331.782 570.873 332.22C571.944 332.667 572.861 333.39 573.632 334.371C574.401 335.359 574.787 336.687 574.787 338.349C574.787 340.752 573.961 342.668 572.302 344.081C570.628 345.5 568.338 346.208 565.419 346.208C563.632 346.208 561.896 345.925 560.209 345.351Z" fill="#3A3A3A"/>
<path d="M586.269 323.276H578.397V319.58H598.072V323.276H590.202V345.843H586.269V323.276Z" fill="#3A3A3A"/>
<path d="M616.401 336.04L611.612 323.645L606.787 336.04H616.401ZM617.78 339.602H605.416L602.978 345.843H599.12L609.665 319.58H613.565L624.145 345.843H620.174L617.78 339.602Z" fill="#3A3A3A"/>
<path d="M633.071 323.276H625.202V319.58H644.877V323.276H637.007V345.843H633.071V323.276Z" fill="#3A3A3A"/>
<path d="M663.204 336.04L658.415 323.645L653.592 336.04H663.204ZM664.583 339.602H652.218L649.783 345.843H645.924L656.47 319.58H660.369L670.948 345.843H666.979L664.583 339.602Z" fill="#3A3A3A"/>
<path d="M677.194 319.582H681.13V342.092H693.495V345.836H677.194V319.582Z" fill="#3A3A3A"/>
<path d="M717.385 342.094V345.838H700.112V319.584H716.945V323.28H704.048V330.673H715.524V334.324H704.048V342.094H717.385Z" fill="#3A3A3A"/>
<path d="M727.103 345.351C725.416 344.779 724.092 344.025 723.153 343.06L724.687 339.551C725.604 340.414 726.767 341.106 728.153 341.631C729.554 342.156 730.989 342.416 732.48 342.416C734.286 342.416 735.623 342.078 736.471 341.404C737.324 340.721 737.753 339.842 737.753 338.765C737.753 337.933 737.493 337.252 736.997 336.734C736.499 336.207 735.87 335.806 735.113 335.533C734.357 335.25 733.335 334.959 732.031 334.654C730.267 334.222 728.846 333.775 727.754 333.312C726.662 332.847 725.723 332.111 724.946 331.114C724.183 330.117 723.798 328.751 723.798 327.025C723.798 324.686 724.624 322.793 726.291 321.358C727.956 319.929 730.219 319.206 733.083 319.206C734.538 319.206 735.961 319.402 737.324 319.787C738.684 320.172 739.853 320.737 740.834 321.475L739.412 325.078C737.654 323.696 735.504 322.998 732.964 322.998C731.205 322.998 729.89 323.351 729.028 324.041C728.161 324.74 727.732 325.634 727.732 326.742C727.732 327.574 727.978 328.257 728.482 328.782C728.986 329.307 729.616 329.701 730.386 329.984C731.158 330.257 732.194 330.555 733.488 330.862C735.274 331.319 736.703 331.782 737.767 332.22C738.837 332.667 739.762 333.39 740.526 334.371C741.296 335.359 741.681 336.687 741.681 338.349C741.681 340.752 740.853 342.668 739.194 344.081C737.521 345.5 735.232 346.208 732.313 346.208C730.526 346.208 728.79 345.925 727.103 345.351Z" fill="#3A3A3A"/>
<path d="M96.0956 100.224H83.8141C83.5125 100.224 83.2264 100.364 83.0083 100.6C82.8057 100.845 82.6787 101.181 82.6787 101.519V105.13H97.8244L97.2091 101.283C97.1176 100.671 96.6414 100.224 96.0956 100.224Z" fill="#3B848C"/>
<path d="M82.7344 151.88H104.168L97.8582 112.492H82.7344V151.88Z" fill="#3B848C"/>
<path d="M67.2392 162.484C67.2392 162.791 67.1342 163.064 66.9535 163.276C66.771 163.489 66.5189 163.605 66.2528 163.605H51.5221C51.262 163.605 51.0099 163.489 50.8214 163.276C50.6388 163.073 50.5333 162.782 50.5333 162.484V157.546C50.5333 157.249 50.6388 156.966 50.8214 156.755C51.0099 156.55 51.262 156.432 51.5221 156.432H66.2528C66.5189 156.432 66.771 156.541 66.9535 156.761C67.1342 156.966 67.2392 157.249 67.2392 157.546V162.484ZM27.6037 162.484C27.6037 162.791 27.4983 163.064 27.3157 163.276C27.1271 163.489 26.8811 163.605 26.6154 163.605H11.8843C11.6243 163.605 11.3722 163.489 11.1839 163.276C11.0089 163.073 10.9039 162.782 10.9039 162.484V157.546C10.9039 157.249 11.0089 156.966 11.1839 156.755C11.3722 156.55 11.6243 156.432 11.8843 156.432H26.6154C26.8811 156.432 27.1271 156.541 27.3157 156.761C27.4983 156.966 27.6037 157.249 27.6037 157.546V162.484ZM104.315 151.88H104.16H82.7342H82.3929L42.0128 116.848C41.6756 116.55 41.207 116.497 40.8302 116.717C40.4371 116.935 40.1929 117.382 40.1929 117.879V149.777L2.23666 116.848C1.8931 116.55 1.43653 116.497 1.04573 116.717C0.660596 116.935 0.414551 117.382 0.414551 117.879V153.175V199.806C0.414551 200.152 0.533603 200.481 0.75206 200.723C0.954265 200.968 1.24793 201.101 1.54991 201.101H111.436C111.765 201.101 112.079 200.937 112.303 200.639C112.521 200.347 112.605 199.962 112.549 199.586L105.428 152.954C105.336 152.336 104.868 151.88 104.315 151.88Z" fill="#180C47"/>
</svg>
