<?xml version="1.0" encoding="utf-8"?>
<!-- Generator: Adobe Illustrator 24.0.1, SVG Export Plug-In . SVG Version: 6.00 Build 0)  -->
<svg version="1.1" id="Capa_1" xmlns="http://www.w3.org/2000/svg" xmlns:xlink="http://www.w3.org/1999/xlink" x="0px" y="0px"
	 viewBox="0 0 1080 1920" style="enable-background:new 0 0 1080 1920;" xml:space="preserve">
<style type="text/css">
	.st0{clip-path:url(#SVGID_2_);}
	.st1{clip-path:url(#SVGID_4_);}
	.st2{fill:#E51A29;}
	.st3{fill:#3B848C;}
	.st4{fill:#180C47;}
	.st5{fill:#0E0830;}
	.st6{clip-path:url(#SVGID_6_);}
	.st7{fill:#F2930A;}
	.st8{fill:#F0A832;}
	.st9{fill:#F7F7F7;}
	.st10{opacity:0.13;clip-path:url(#SVGID_8_);}
	.st11{fill:#E2E2E2;}
	.st12{fill:#3A3A3A;}
	.st13{fill:#7E8E3A;}
	.st14{fill:#E03338;}
	.st15{clip-path:url(#SVGID_10_);}
	.st16{fill:none;}
	.st17{fill:#FFFFFF;}
	.st18{fill-rule:evenodd;clip-rule:evenodd;fill:#0E0830;}
</style>
<g>
	<defs>
		<rect id="SVGID_1_" x="-339" y="-18.66" width="1758.01" height="1962.81"/>
	</defs>
	<use xlink:href="#SVGID_1_"  style="overflow:visible;fill:#F2930A;"/>
	<clipPath id="SVGID_2_">
		<use xlink:href="#SVGID_1_"  style="overflow:visible;"/>
	</clipPath>
	<g class="st0">
		<defs>
			<rect id="SVGID_3_" x="-732.86" y="-36.13" width="2547.22" height="1980.28"/>
		</defs>
		<clipPath id="SVGID_4_">
			<use xlink:href="#SVGID_3_"  style="overflow:visible;"/>
		</clipPath>
		<g class="st1">
			<path class="st2" d="M1905.13,998.43c0.01,365.68-0.28,731.35,0.45,1097.03c0.08,37.63-5.26,73.22-21.99,106.27
				c-16.96,33.51-42.71,59.37-74.32,79.48c-35.62,22.67-74.21,26.47-115.22,24.73c-43.95-1.87-79.95-21.03-112.7-47.37
				c-23.77-19.12-44.95-41.62-66.74-63.18c-23.25-23-45.87-46.65-68.74-70.03c-27.21-27.8-54.25-55.78-81.65-83.38
				c-20.79-20.94-42.21-41.24-63.02-62.16c-26.03-26.17-51.57-52.85-77.62-79c-15.65-15.7-31.99-30.69-47.82-46.21
				c-13.37-13.11-26.46-26.52-39.67-39.81c-24.93-25.1-49.96-50.1-74.73-75.35c-23.79-24.24-47.25-48.81-70.97-73.13
				c-11.22-11.5-22.75-22.68-34.04-34.12c-27.52-27.87-54.8-55.97-82.49-83.65c-33.01-32.99-66.56-65.42-99.46-98.53
				c-24.39-24.55-47.83-50.08-72.21-74.64c-23.51-23.67-47.79-46.55-71.51-70c-11.86-11.72-23.12-24.08-34.88-35.9
				c-28.35-28.47-56.94-56.7-85.25-85.22c-23.6-23.77-46.87-47.89-70.41-71.73c-22.59-22.87-45.38-45.53-68-68.37
				c-24.98-25.21-49.74-50.65-74.84-75.74c-24.69-24.68-49.77-48.94-74.5-73.56c-22.36-22.25-44.49-44.73-66.71-67.11
				c-36.24-36.5-72.51-72.95-108.69-109.51c-27.64-27.93-55.16-55.99-82.74-83.98c-38.35-38.92-76.69-77.86-115.08-116.75
				c-41.77-42.31-83.41-84.75-125.43-126.81c-26.97-26.99-54.77-53.12-81.74-80.11c-27.96-27.98-55.19-56.71-83.03-84.82
				c-53.87-54.39-107.89-108.64-161.96-162.82c-28.5-28.56-54.97-59.47-68.29-97.83c-8.48-24.41-10.52-51.9-11.24-78.14
				c-1.19-43.67,12.59-83.83,39.73-117.76c32.33-40.42,72.38-69.68,125.09-75.65c25.22-2.86,50.68-4.89,76.03-4.9
				c710.66-0.26,1421.31-0.18,2131.97-0.29c28.29,0,56.01,2.78,83.24,10.91c31.56,9.42,57.42,27.9,79.55,51.76
				c35.84,38.64,51.79,85.03,51.75,138.1C1904.99,258.91,1905.12,628.67,1905.13,998.43z"/>
			<g>
				<path class="st3" d="M1379.12-620.77l-374.77,0c-9.14,0-18.08,3.78-24.61,10.43c-6.39,6.55-10.08,15.68-10.08,24.99v98.5
					l462.22,0l-18.7-104.87C1410.2-608.5,1395.81-620.77,1379.12-620.77z"/>
				<polygon class="st3" points="971.34,790.69 1625.47,790.69 1432.96,-285.55 971.34,-285.55 				"/>
				<path class="st4" d="M1629.92,790.69h-4.45H971.34h-10.5L-271.5-166.58c-10.43-8.11-24.54-9.49-36.29-3.58
					c-11.85,5.99-19.36,18.34-19.36,31.71v871.79l-1158.37-899.92c-10.46-8.11-24.58-9.49-36.32-3.58
					c-11.82,5.99-19.33,18.34-19.33,31.71v964.56v1274.14c0,9.33,3.68,18.45,10.18,25.1c6.43,6.54,15.37,10.32,24.51,10.32h3353.65
					c10.29,0,19.95-4.61,26.56-12.63c6.6-8.03,9.39-18.44,7.58-28.79L1664.05,820.03C1661.17,803.05,1646.81,790.69,1629.92,790.69z
					"/>
			</g>
			<g>
				<path class="st5" d="M160.61,1631.61c43.66-305.8,161.56-598.98,335.2-844.5H62.29c-156.15,286.95-257.33,602.19-293.15,924.67
					c-22.11,199.17-16.84,401.46,11.73,599.66h409.1C138.94,2095.06,127.78,1861.29,160.61,1631.61z"/>
				<path class="st5" d="M-378.42,2311.43c-27.58-204.46-32.15-412.63-9.39-617.66c34.95-314.5,128-622.52,270.98-906.66h-404.32
					c-137.39,314.56-225.74,646.54-257.63,983.04c-6.68,69.22-10.64,138.81-12.42,208.55v150.24c1.4,57.9,4.51,115.83,9.2,173.69
					c5.46,5.41,12.88,8.8,21.11,8.8H-378.42z"/>
				<path class="st5" d="M316.88,1654.68c-31.86,223.12-18.92,450.08,35.42,656.75h525.71c-96.97-43.28-164.69-138.7-192.65-276.6
					c-26.58-130.92-17.74-298.12,24.88-470.87c42.2-171.28,113.59-332.24,200.96-453.13c105.49-145.92,229.47-227.76,358.52-236.61
					c97.87-7.12,179.52,25.16,234.9,92.46c116.52,141.45,86.53,393.88,40.89,580.68c-38.12,155.89-102.57,323.32-176.85,459.44
					c-84.66,155.3-170.58,254.69-255.34,295.37c-7.37,3.54-14.48,6.29-21.66,9.27h499.95c85.69-184.23,160.11-369.97,217.17-547.86
					c98.45-306.68,147.34-575.09,145.28-797.79c-0.6-64.91-8.51-124.11-22.15-178.68H695.46
					C497.09,1028.47,362.72,1333.83,316.88,1654.68z"/>
				<path class="st5" d="M2990.15,817.92c0-17.01-13.56-30.81-30.3-30.81h-307.4c-0.41,8.4-0.12,16.32-0.64,24.78
					c-23.3,380.38-114.4,793.83-278.48,1263.92c-27.01,77.41-56.49,156.16-87.38,235.62h342.68c3.64-9.9,7.61-19.98,11.2-29.85
					c169.5-466.14,284.62-895.3,350.33-1302.69V817.92z"/>
				<path class="st5" d="M-791.22,817.92v235.52c28.77-89.84,61.28-178.7,97.46-266.33h-67.16
					C-777.65,787.11-791.22,800.91-791.22,817.92z"/>
				<path class="st5" d="M1230.53,1928.88c67.79-124.25,126.74-277.43,161.64-420.28c50.56-206.81,47.35-370.84-8.65-438.81
					c-14.11-17.16-40.21-39.87-103.31-35.3c-102.41,6.99-188,97.1-241.74,171.45c-75.5,104.48-137.67,245.5-175.05,397.08
					c-36.93,149.81-45.26,291.65-23.4,399.4c20.47,100.79,64,158.54,129.31,171.64c18.93,3.69,44.87-1.96,76.56-17.13
					C1085.35,2137.98,1154.58,2068.1,1230.53,1928.88z"/>
				<path class="st5" d="M2990.15,2280.62v-571.71c-54.2,194.75-118.41,395.16-193.15,602.53h162.85
					C2976.58,2311.43,2990.15,2297.64,2990.15,2280.62z"/>
				<path class="st5" d="M2494.15,801.89c0.3-4.82,0.46-9.89,0.72-14.78h-400.59c11.09,55.75,17.14,114.85,17.72,177.15
					c2.19,240.14-49.31,525.84-153.09,849.16c-51.95,162.05-118.22,330.23-193.42,498.02h350.65
					c39.04-97.99,75.22-194.52,108.29-289.35C2383.55,1566.21,2471.78,1167.08,2494.15,801.89z"/>
			</g>
			<g>
				<g>
					<defs>
						<rect id="SVGID_5_" x="-802.12" y="-66.42" width="1680.24" height="1865.36"/>
					</defs>
					<clipPath id="SVGID_6_">
						<use xlink:href="#SVGID_5_"  style="overflow:visible;"/>
					</clipPath>
					<g class="st6">
						<path class="st7" d="M-1234.48,492.3c-45.68,14.68-77.67,56.99-84.42,105.22c-36.71,262.4,11.72,277.03,275.73,371.91
							C-172.44,1282.36,797.91,668.54,863.4-244c1.12-15.63-2.68-31.63-9.61-47.86c-38.87-91.09-150.75-124.36-236.51-76.88
							c-36.31,20.1-64.07,41.04-66.29,64.48C470.65,543.87-517.56,998.57-1211.87,492.56
							C-1217.69,488.31-1225.34,489.36-1234.48,492.3z"/>
						<path class="st7" d="M-1353.29-126.98c59.1,336.28,402.44,604.82,797.78,603.41c387.2-1.38,750.57-284.18,835.92-671.3
							c16.08-72.94-19.87-213.09-68.56-234.07C108.19-473.62-3.01-454.6-38.97-297.74C-68.56-168.65-141.72-52.67-248.85,22.86
							c-316.79,223.37-670.08,73.17-815.45-247.35c-0.49-1.08-0.99-2.16-1.5-3.24C-1231.2-169.76-1187.87-184.94-1353.29-126.98z"/>
						<path d="M-262.25-428.33c-208.84,0-390.91,0-588.27,0c-5.19,200.47,95.52,299.04,254.06,315.19
							C-410.56-94.21-290.11-189.14-262.25-428.33z"/>
					</g>
				</g>
				<g>
					<ellipse class="st8" cx="-713.02" cy="1227.96" rx="56.89" ry="57.84"/>
					<ellipse class="st8" cx="-710.19" cy="1587.66" rx="78.96" ry="80.29"/>
					<ellipse class="st8" cx="-709.91" cy="2039.16" rx="93.96" ry="95.54"/>
				</g>
				<g>
					<ellipse class="st7" cx="-227.18" cy="1220.01" rx="56.89" ry="57.84"/>
					<ellipse class="st7" cx="-168.33" cy="1574.71" rx="78.96" ry="80.29"/>
					<ellipse class="st7" cx="-97.69" cy="2020.46" rx="93.96" ry="95.54"/>
				</g>
				<g>
					
						<ellipse transform="matrix(0.7492 -0.6623 0.6623 0.7492 -368.386 577.5195)" class="st7" cx="578.46" cy="775.24" rx="56.89" ry="57.84"/>
					
						<ellipse transform="matrix(0.7492 -0.6623 0.6623 0.7492 -448.6171 819.1804)" class="st7" cx="857.47" cy="1002.02" rx="78.96" ry="80.29"/>
					
						<ellipse transform="matrix(0.7492 -0.6623 0.6623 0.7492 -551.5197 1121.7773)" class="st7" cx="1205.62" cy="1289.21" rx="93.96" ry="95.54"/>
				</g>
				<g>
					
						<ellipse transform="matrix(0.8923 -0.4514 0.4514 0.8923 -458.602 206.0463)" class="st7" cx="202.55" cy="1064.2" rx="56.89" ry="57.84"/>
					
						<ellipse transform="matrix(0.8923 -0.4514 0.4514 0.8923 -703.291 491.9577)" class="st7" cx="679.44" cy="1719.99" rx="93.96" ry="95.54"/>
				</g>
				<g>
					<ellipse class="st7" cx="883.3" cy="381.81" rx="56.89" ry="57.84"/>
					<ellipse class="st7" cx="1202.77" cy="536.35" rx="78.96" ry="80.29"/>
					<ellipse class="st8" cx="1602.34" cy="733.32" rx="93.96" ry="95.54"/>
				</g>
				<g>
					<ellipse class="st8" cx="990.45" cy="26.65" rx="56.89" ry="57.84"/>
					<ellipse class="st8" cx="1344.23" cy="27.59" rx="78.96" ry="80.29"/>
					<ellipse class="st8" cx="1788.27" cy="32.09" rx="93.96" ry="95.54"/>
				</g>
			</g>
		</g>
	</g>
</g>
<path class="st9" d="M955.4,1834.72H124.6c-37.93,0-68.68-30.75-68.68-68.68V153.96c0-37.93,30.75-68.68,68.68-68.68H955.4
	c37.93,0,68.68,30.75,68.68,68.68v1612.09C1024.09,1803.97,993.34,1834.72,955.4,1834.72z"/>
<g>
	<defs>
		<path id="SVGID_7_" d="M955.4,1831.66H124.6c-37.93,0-68.68-30.75-68.68-68.68V150.89c0-37.93,30.75-68.68,68.68-68.68H955.4
			c37.93,0,68.68,30.75,68.68,68.68v1612.09C1024.09,1800.91,993.34,1831.66,955.4,1831.66z"/>
	</defs>
	<clipPath id="SVGID_8_">
		<use xlink:href="#SVGID_7_"  style="overflow:visible;"/>
	</clipPath>
	<g class="st10">
		<path class="st11" d="M-340.58,2054.58c22.12,73.65,52.02,138.47,89.75,192.86c44.44,64.16,126.87,156.13,327.78,206.43
			c152.85,38.26,294.43,19.83,419.54-27.33C189.11,2403.62-108.83,2276.59-340.58,2054.58z"/>
		<path class="st11" d="M-464.87,229.44C-648.29,459.7-748.7,740.79-758.79,1027.2c9.68-34.92,19.78-69.97,30.37-105.13
			C-658.39,689.33-568.79,454.94-464.87,229.44z"/>
		<path class="st11" d="M-266.93,959.49c-130.69,434.11-154.93,824.43-73.65,1095.09c231.75,222.01,529.69,349.05,837.07,371.96
			c141.7-53.42,262.26-143.7,354.1-230.21c29.15-27.47,57.75-56.71,85.64-87.53c204.56-225.97,373.51-538.76,481.65-894.65
			c121.41-399.74,151.58-804.89,84.85-1140.92c-0.7-3.54-1.43-7.06-2.15-10.57c-98.51-88.22-207.92-160.05-324.18-214.89
			c25.25,27.72,48.58,58.1,69.88,91.09c30.61,47.41,57.22,100.79,79.11,158.63c21.07,55.69,38.35,117.14,51.38,182.66
			c27.12,136.53,34.91,285.85,23.15,443.82c-11.61,156.01-41.87,315.39-89.96,473.73c-42.68,140.46-97.4,273.08-162.66,394.18
			c-65.31,121.21-139.84,228.42-221.53,318.65c-22.47,24.82-45.71,48.58-69.1,70.62c-86.43,81.41-177.64,142.29-271.09,180.96
			c-128.48,53.16-260.03,63.5-390.98,30.72c-82.82-20.73-154.39-52.76-212.71-95.18c-43.78-31.85-80.42-69.5-111.97-115.05
			c-41.5-59.83-73.1-131.68-93.92-213.57c-19.19-75.46-29.5-160.39-30.65-252.43c-1.12-89.76,6.45-186.68,22.5-288.06
			c16.11-101.8,40.8-208.3,73.39-316.53c90.57-300.99,241.84-607.14,415-839.93c35.68-47.97,72.31-92.77,108.88-133.17
			C436.4-139.84,507.8-202.63,577.32-247.7c20.03-12.99,39.59-24.31,58.61-33.94c-81.49-2.42-163.38,2.47-244.63,14.84
			c-43.24,48.04-87.69,102.16-132.97,163.04C39.41,190.55-152.14,578.02-266.93,959.49z"/>
		<path class="st11" d="M-737.91,1317.06c14.5,79.96,36.3,159.13,65.59,236.5c5.09-45.57,11.33-91.86,18.76-138.81
			c25.23-159.44,63.93-326.33,115.02-496.03C-433.09,568.27-275.25,213.41-89.88-95.64c-36.8,21.66-72.93,45.21-108.23,70.74
			c-20.32,14.69-40.09,29.86-59.35,45.45C-415.45,319.87-549.9,644.5-646.7,966.2C-682.68,1085.7-713.05,1202.89-737.91,1317.06z"/>
		<path class="st11" d="M665.47,449.06c-33.1,4.14-86.67,33.52-148.11,101.39c-14.39,15.9-29.21,33.9-44.31,54.2
			c-70.99,95.43-133.11,221.08-170.33,344.78c-53.91,179.08-51.97,335.18,5.22,417.64c14.41,20.81,41.14,50.63,106.29,66.94
			c105.7,26.46,194.79-30.69,250.87-83.51c9.45-8.91,18.73-18.39,27.77-28.38c66.33-73.28,121.12-174.7,156.18-290.11
			c39.37-129.62,49.15-261.01,27.51-369.97C856.3,560.1,811.92,491.21,744.61,457.75C725.12,448.06,698.3,445.02,665.47,449.06z
			 M720.83,794.01c14.26,22.07,24.27,47.28,29.78,74.96c9.07,45.64,5.79,96.33-9.47,146.59c-12.99,42.76-33.3,80.21-58.72,108.29
			c-3.63,4.01-7.41,7.87-11.23,11.47c-50.31,47.38-103.5,46.65-139.32,37.65c-42.24-10.54-78.89-35.68-103.17-70.73
			c-20.93-30.18-31.8-65.96-32.31-106.34c-0.36-29.17,4.52-60.78,14.5-93.94c13.07-43.45,34.97-87.72,60.07-121.46
			c5.38-7.24,10.95-14.04,16.54-20.22c25.82-28.52,52.73-44.71,80-48.12l0.07-0.01l0.07-0.01c26.74-3.29,52.56,1.11,76.74,13.06
			l0.23,0.11l0.22,0.11C675.44,740.71,701.72,764.43,720.83,794.01z"/>
		<path class="st11" d="M603.39,793.27c-10.11,1.26-26.47,10.24-45.23,30.96c-4.4,4.86-8.92,10.35-13.53,16.55
			c-21.68,29.15-40.65,67.52-52.01,105.29c-16.47,54.69-15.87,102.36,1.59,127.54c4.4,6.35,12.57,15.5,32.46,20.44
			c32.28,8.14,59.49-9.37,76.61-25.5c2.89-2.72,5.72-5.62,8.48-8.67c20.26-22.38,36.99-53.35,47.7-88.6
			c12.02-39.59,15.01-79.71,8.4-112.98c-6.19-31.13-19.75-52.12-40.3-62.39C621.6,792.97,613.41,792.03,603.39,793.27z"/>
		<path class="st11" d="M435.77,2.88c-34.39,37.99-69.79,81-105.86,129.5C160.29,360.39,11.89,660.59-77.04,956.14
			c-128.81,427.85-124.18,800.83,12.47,997.85c34.43,49.71,98.3,120.97,253.95,159.93c252.55,63.22,465.4-73.33,599.38-199.53
			c22.59-21.28,44.74-43.94,66.35-67.81c158.48-175.07,289.38-417.41,373.17-693.14c94.06-309.7,117.44-623.6,65.73-883.94
			c-48.44-243.55-154.47-408.15-315.3-488.09c-46.57-23.15-110.65-30.41-189.08-20.77C710.55-229.48,582.56-159.28,435.77,2.88z
			 M1071.14,223.92c44.78,69.36,77.38,154.31,96.91,252.51c19.64,98.87,25.29,206.77,16.82,320.71
			c-8.33,111.99-30.04,226.33-64.52,339.86c-30.58,100.63-69.79,195.66-116.56,282.45c-46.88,87.01-100.42,164.01-159.14,228.87
			c-16.19,17.88-32.94,35.01-49.81,50.9c-62.62,58.98-128.86,103.16-196.89,131.31c-95.11,39.36-192.99,46.88-290.92,22.36
			c-62.81-15.72-117.51-40.32-162.58-73.11c-34.58-25.16-63.47-54.82-88.27-90.62c-60.48-87.19-92.04-203.64-93.82-346.11
			c-0.81-64.79,4.64-134.63,16.19-207.6c11.55-72.98,29.24-149.29,52.57-226.77c64.74-215.15,172.88-434,296.69-600.44
			c25.58-34.39,51.86-66.53,78.1-95.52c51.4-56.79,103.01-102.14,153.38-134.81c47.69-30.93,92.23-49.15,132.37-54.16l0.07-0.01
			l0.07-0.01c33.38-4.1,64.88-4.57,93.64-1.38c33.88,3.75,65.26,12.71,93.27,26.63c38.91,19.34,75.14,44.24,107.69,74.02
			C1018.14,152.03,1046.65,185.99,1071.14,223.92z"/>
		<path class="st11" d="M727.55,104.85c-56.09,7.01-146.87,56.8-250.98,171.81c-24.39,26.95-49.5,57.45-75.09,91.85
			c-120.3,161.72-225.56,374.65-288.64,584.27c-91.36,303.47-88.08,568.01,8.85,707.75c24.42,35.26,69.72,85.8,180.12,113.44
			c179.13,44.84,330.09-52.01,425.12-141.52c16.02-15.1,31.74-31.16,47.06-48.1c112.41-124.17,205.25-296.06,264.67-491.63
			c66.71-219.66,83.3-442.3,46.62-626.95c-34.36-172.74-109.56-289.49-223.63-346.19C828.63,103.16,783.18,98.01,727.55,104.85z
			 M896,508.97c29.5,45.71,50.81,100.78,63.33,163.72c12.16,61.21,15.69,127.69,10.48,197.6c-5.06,67.97-18.2,137.28-39.07,205.98
			c-18.47,60.8-42.18,118.24-70.46,170.71c-28.45,52.81-61,99.6-96.75,139.09c-9.91,10.95-20.18,21.44-30.52,31.18
			c-38.8,36.55-80.08,64.02-122.69,81.65c-61.74,25.55-125.96,30.26-190.87,14.01c-76.91-19.26-136.49-58.72-177.02-117.23
			C139.86,1247.8,184.98,1024.96,221,905.3c38.91-129.3,103.92-260.86,178.38-360.95c15.48-20.81,31.4-40.28,47.32-57.87
			c31.52-34.82,63.33-62.74,94.57-82.99c31.08-20.15,60.79-32.11,88.31-35.55l0.07-0.01l0.07-0.01
			c50.33-6.19,93.48,0.1,131.94,19.21C815.3,413.8,861.76,455.93,896,508.97z"/>
		<path class="st11" d="M1830.03,577.66c-18.16,244.05-65.55,493.51-140.86,741.47c-66.88,220.11-152.63,427.91-254.86,617.64
			c-67.27,124.84-140.75,240.14-219.53,344.58c60.62-31.13,119.65-67.23,176.57-108.4c26.55-19.2,52.17-39.2,76.91-59.91
			c131.83-233.79,243.42-496.36,328.84-777.48c55.18-181.66,97.35-364.1,126.29-543.98c-19.75-93.04-49.5-184.78-89.53-273.6
			C1832.79,537.79,1831.52,557.67,1830.03,577.66z"/>
		<path class="st11" d="M-448.66,1938.18c-14.18-76.54-21.9-159.63-23.01-248c-1.43-114.73,8.26-238.73,28.81-368.54
			c20.68-130.62,52.37-267.31,94.2-406.28c116.4-386.84,310.79-780.28,533.32-1079.42c17.97-24.16,36.13-47.66,54.39-70.47
			c-56.06,15.31-111.48,34.34-165.9,57.16C-147.11,157.29-336.43,562.76-456.81,962.84c-80.59,267.69-128.12,521.78-142.79,750.44
			c28.53,53.23,60.93,105.18,97.3,155.47C-485.04,1892.63-467.14,1915.77-448.66,1938.18z"/>
		<path class="st11" d="M1753.76,366.6c-18.13-29.59-37.53-58.71-58.2-87.3c-30.34-41.95-62.64-81.64-96.67-119.06
			c23.52,153.07,28.95,317.7,16.09,490.57c-14.88,200.03-53.71,404.46-115.41,607.6c-54.78,180.28-125.02,350.49-208.76,505.91
			c-83.74,155.41-179.26,292.83-283.91,408.44c-28.75,31.77-58.49,62.16-88.39,90.33c-68.62,64.64-139.54,119.09-211.98,162.87
			c107.93-8.67,215.44-30.33,320.1-65.34c246.45-276.03,450.02-655.1,580.87-1085.75C1700.95,967.18,1750.27,656.88,1753.76,366.6z"
			/>
		<path class="st11" d="M1696.68,1867.79c162.13-224.63,249.48-491.81,255.83-762.99c-21.32,91.69-45.91,183.45-73.73,275.05
			C1827.29,1549.31,1766.33,1712.58,1696.68,1867.79z"/>
	</g>
</g>
<g>
	<g>
		<path class="st12" d="M511.48,1609.31c-1.1,0-1.94-0.32-2.53-0.94c-0.59-0.63-0.89-1.51-0.89-2.66v-23.8
			c0-1.17,0.32-2.06,0.95-2.68c0.63-0.61,1.52-0.92,2.68-0.92c0.93,0,1.69,0.19,2.27,0.58c0.58,0.39,1.1,1.02,1.57,1.91l8.11,15.22
			l8.11-15.22c0.49-0.89,1.02-1.52,1.59-1.91c0.56-0.39,1.32-0.58,2.29-0.58c1.07,0,1.91,0.31,2.51,0.92
			c0.6,0.62,0.91,1.51,0.91,2.68v23.8c0,1.14-0.29,2.03-0.87,2.66c-0.58,0.63-1.43,0.94-2.55,0.94c-1.1,0-1.94-0.32-2.53-0.94
			c-0.59-0.63-0.89-1.51-0.89-2.66v-13.21l-5.77,10.46c-0.39,0.63-0.79,1.1-1.22,1.42c-0.43,0.31-1,0.47-1.71,0.47
			c-0.69,0-1.25-0.16-1.69-0.47c-0.44-0.32-0.84-0.79-1.2-1.42l-5.73-10.29v13.04c0,1.14-0.29,2.03-0.87,2.66
			S512.6,1609.31,511.48,1609.31z"/>
		<path class="st12" d="M548.35,1608.93c-2.64,0-3.95-1.36-3.95-4.07v-22.09c0-2.72,1.32-4.07,3.95-4.07h13.96c1.98,0,2.97,1,2.97,3
			c0,2.06-0.99,3.09-2.97,3.09h-10.67v5.75h9.76c1.98,0,2.97,1.02,2.97,3.04c0,2.03-0.99,3.05-2.97,3.05h-9.76v6.22h10.67
			c1.98,0,2.97,1.01,2.97,3.04c0,2.03-0.99,3.05-2.97,3.05H548.35z"/>
		<path class="st12" d="M570.67,1609.27c-1.1,0.06-1.94-0.24-2.53-0.88c-0.59-0.64-0.89-1.47-0.89-2.47c0-0.77,0.21-1.44,0.62-2.01
			s1.03-0.89,1.85-0.94l1.15-0.09c1.02-0.06,1.75-0.31,2.2-0.75c0.45-0.44,0.68-1.18,0.68-2.21v-17.63c0-1.29,0.33-2.27,0.99-2.96
			c0.66-0.69,1.59-1.03,2.8-1.03c1.21,0,2.14,0.34,2.8,1.03c0.66,0.69,0.99,1.67,0.99,2.96v17.5c0,5.89-3.06,9.02-9.19,9.39
			L570.67,1609.27z"/>
		<path class="st12" d="M600.58,1609.4c-2.94,0-5.51-0.65-7.72-1.95c-2.21-1.3-3.93-3.12-5.17-5.47c-1.24-2.34-1.85-5.07-1.85-8.19
			c0-3.15,0.61-5.88,1.83-8.21c1.22-2.33,2.95-4.14,5.17-5.42c2.22-1.29,4.8-1.93,7.74-1.93s5.51,0.64,7.72,1.93
			c2.21,1.29,3.93,3.09,5.17,5.42c1.24,2.33,1.85,5.07,1.85,8.21c0,3.12-0.62,5.85-1.85,8.19c-1.24,2.34-2.96,4.17-5.17,5.47
			C606.09,1608.75,603.52,1609.4,600.58,1609.4z M600.58,1602.79c2.14,0,3.82-0.79,5.05-2.38c1.22-1.59,1.83-3.8,1.83-6.63
			c0-2.83-0.6-5.03-1.81-6.6c-1.21-1.57-2.9-2.36-5.07-2.36c-2.17,0-3.86,0.79-5.07,2.36c-1.21,1.57-1.81,3.77-1.81,6.6
			c0,2.83,0.6,5.04,1.81,6.63C596.72,1602,598.41,1602.79,600.58,1602.79z"/>
		<path class="st12" d="M623.6,1609.31c-1.21,0-2.14-0.34-2.8-1.03c-0.66-0.69-0.99-1.67-0.99-2.96v-22.64
			c0-1.29,0.33-2.27,0.99-2.96s1.61-1.03,2.84-1.03h10.13c3.3,0,5.84,0.84,7.64,2.51c1.8,1.67,2.7,4,2.7,6.97
			c0,2.26-0.54,4.15-1.63,5.68c-1.09,1.53-2.66,2.59-4.72,3.2c1.54,0.43,2.77,1.53,3.71,3.3l2.06,3.86c0.44,0.86,0.64,1.67,0.6,2.45
			c-0.04,0.77-0.34,1.41-0.89,1.91c-0.55,0.5-1.36,0.75-2.43,0.75c-1.07,0-1.94-0.22-2.62-0.67c-0.67-0.44-1.27-1.16-1.79-2.17
			l-3.75-7.16c-0.33-0.63-0.75-1.06-1.26-1.31c-0.51-0.24-1.09-0.36-1.75-0.36h-2.27v7.68c0,1.29-0.32,2.27-0.97,2.96
			C625.78,1608.97,624.84,1609.31,623.6,1609.31z M627.39,1592.07h5.03c2.99,0,4.49-1.23,4.49-3.69c0-2.43-1.5-3.65-4.49-3.65h-5.03
			V1592.07z"/>
		<path class="st12" d="M511.77,1646.71c-1.21,0-2.14-0.34-2.8-1.03c-0.66-0.69-0.99-1.67-0.99-2.96v-22.64
			c0-1.29,0.33-2.27,0.99-2.96c0.66-0.69,1.61-1.03,2.84-1.03h10.13c3.3,0,5.84,0.84,7.64,2.51c1.8,1.67,2.7,4,2.7,6.97
			c0,2.26-0.54,4.15-1.63,5.68c-1.09,1.53-2.66,2.59-4.72,3.2c1.54,0.43,2.77,1.53,3.71,3.3l2.06,3.86c0.44,0.86,0.64,1.67,0.6,2.45
			c-0.04,0.77-0.34,1.41-0.89,1.91c-0.55,0.5-1.36,0.75-2.43,0.75c-1.07,0-1.94-0.22-2.62-0.67c-0.67-0.44-1.27-1.16-1.79-2.17
			l-3.75-7.16c-0.33-0.63-0.75-1.06-1.26-1.31c-0.51-0.24-1.09-0.36-1.75-0.36h-2.27v7.68c0,1.29-0.32,2.27-0.97,2.96
			C513.94,1646.37,513,1646.71,511.77,1646.71z M515.56,1629.47h5.03c2.99,0,4.49-1.23,4.49-3.69c0-2.43-1.5-3.65-4.49-3.65h-5.03
			V1629.47z"/>
		<path class="st12" d="M540.85,1646.71c-1.21,0-2.14-0.34-2.8-1.03s-0.99-1.69-0.99-3v-22.94c0-1.31,0.33-2.32,0.99-3
			c0.66-0.69,1.59-1.03,2.8-1.03s2.14,0.34,2.8,1.03c0.66,0.69,0.99,1.69,0.99,3v22.94c0,1.32-0.32,2.32-0.97,3
			C543.02,1646.37,542.08,1646.71,540.85,1646.71z"/>
		<path class="st12" d="M563.92,1646.79c-2.94,0-5.51-0.65-7.72-1.95c-2.21-1.3-3.93-3.12-5.17-5.47c-1.24-2.34-1.85-5.07-1.85-8.19
			c0-3.15,0.61-5.88,1.83-8.21c1.22-2.33,2.95-4.14,5.17-5.43c2.22-1.29,4.8-1.93,7.74-1.93s5.51,0.64,7.72,1.93
			c2.21,1.29,3.93,3.1,5.17,5.43c1.24,2.33,1.85,5.07,1.85,8.21c0,3.12-0.62,5.85-1.85,8.19c-1.24,2.34-2.96,4.17-5.17,5.47
			C569.43,1646.14,566.85,1646.79,563.92,1646.79z M563.92,1640.19c2.14,0,3.82-0.79,5.05-2.38c1.22-1.59,1.83-3.8,1.83-6.63
			c0-2.83-0.6-5.03-1.81-6.61c-1.21-1.57-2.9-2.36-5.07-2.36c-2.17,0-3.86,0.79-5.07,2.36c-1.21,1.57-1.81,3.77-1.81,6.61
			c0,2.83,0.6,5.04,1.81,6.63C560.06,1639.4,561.75,1640.19,563.92,1640.19z"/>
		<path class="st12" d="M581.92,1646.67c-1.1,0.06-1.94-0.24-2.53-0.88c-0.59-0.64-0.89-1.47-0.89-2.47c0-0.77,0.21-1.44,0.62-2.01
			c0.41-0.57,1.03-0.89,1.85-0.94l1.15-0.09c1.02-0.06,1.75-0.31,2.2-0.75c0.45-0.44,0.68-1.18,0.68-2.21v-17.63
			c0-1.29,0.33-2.27,0.99-2.96c0.66-0.69,1.59-1.03,2.8-1.03c1.21,0,2.14,0.34,2.8,1.03c0.66,0.69,0.99,1.67,0.99,2.96v17.5
			c0,5.89-3.06,9.02-9.19,9.39L581.92,1646.67z"/>
		<path class="st12" d="M599.18,1646.71c-1.29,0-2.24-0.46-2.84-1.37c-0.6-0.91-0.6-2.06,0-3.43l10.26-22.99
			c0.5-1.11,1.1-1.93,1.81-2.45c0.71-0.51,1.55-0.77,2.51-0.77c0.93,0,1.76,0.26,2.47,0.77c0.71,0.51,1.32,1.33,1.81,2.45
			l10.26,22.99c0.63,1.4,0.66,2.55,0.08,3.45c-0.58,0.9-1.48,1.35-2.72,1.35c-1.1,0-1.94-0.26-2.53-0.77
			c-0.59-0.51-1.12-1.34-1.59-2.49l-1.32-3.26h-12.98l-1.32,3.26c-0.49,1.14-1,1.97-1.52,2.49
			C601.04,1646.45,600.25,1646.71,599.18,1646.71z M610.83,1624.32l-3.95,9.82h7.99l-3.95-9.82H610.83z"/>
		<path class="st12" d="M632.79,1646.71c-2.36,0-3.54-1.24-3.54-3.73v-23.37c0-1.26,0.3-2.22,0.91-2.89c0.6-0.67,1.4-1.01,2.39-1.01
			c0.88,0,1.56,0.17,2.04,0.51c0.48,0.34,1.04,0.92,1.67,1.72l11.91,15.48v-14.02c0-2.46,1.17-3.69,3.5-3.69
			c1.15,0,2.02,0.32,2.62,0.97c0.59,0.64,0.89,1.55,0.89,2.72v23.76c0,1.09-0.27,1.95-0.82,2.59s-1.29,0.97-2.22,0.97
			c-0.93,0-1.67-0.17-2.2-0.51c-0.53-0.34-1.11-0.91-1.71-1.72l-11.9-15.48v13.98C636.29,1645.46,635.12,1646.71,632.79,1646.71z"/>
		<path class="st12" d="M661.83,1646.71c-1.29,0-2.24-0.46-2.84-1.37c-0.6-0.91-0.6-2.06,0-3.43l10.26-22.99
			c0.5-1.11,1.1-1.93,1.81-2.45c0.71-0.51,1.55-0.77,2.51-0.77c0.93,0,1.76,0.26,2.47,0.77c0.71,0.51,1.32,1.33,1.81,2.45
			l10.26,22.99c0.63,1.4,0.66,2.55,0.08,3.45c-0.58,0.9-1.48,1.35-2.72,1.35c-1.1,0-1.94-0.26-2.53-0.77
			c-0.59-0.51-1.12-1.34-1.59-2.49l-1.32-3.26h-12.98l-1.32,3.26c-0.49,1.14-1,1.97-1.52,2.49
			C663.7,1646.45,662.9,1646.71,661.83,1646.71z M673.49,1624.32l-3.95,9.82h7.99l-3.95-9.82H673.49z"/>
		<path class="st12" d="M702.32,1646.79c-1.68,0-3.4-0.18-5.17-0.54c-1.77-0.36-3.29-0.86-4.55-1.52c-0.74-0.37-1.26-0.87-1.57-1.5
			c-0.3-0.63-0.41-1.28-0.33-1.95c0.08-0.67,0.32-1.27,0.7-1.8c0.38-0.53,0.89-0.89,1.52-1.07c0.63-0.19,1.34-0.09,2.14,0.28
			c1.04,0.54,2.23,0.95,3.54,1.22c1.32,0.27,2.55,0.41,3.71,0.41c1.81,0,3.08-0.25,3.81-0.75c0.73-0.5,1.09-1.12,1.09-1.87
			c0-0.66-0.25-1.19-0.76-1.59c-0.51-0.4-1.41-0.74-2.7-1.03l-4.82-1.07c-5.22-1.17-7.83-4.02-7.83-8.53c0-1.97,0.52-3.7,1.55-5.19
			c1.03-1.49,2.46-2.64,4.3-3.45c1.84-0.82,3.98-1.22,6.43-1.22c1.43,0,2.88,0.16,4.35,0.49c1.47,0.33,2.74,0.82,3.81,1.48
			c0.82,0.46,1.34,1.08,1.57,1.87c0.22,0.79,0.19,1.55-0.08,2.29c-0.27,0.74-0.76,1.29-1.46,1.63c-0.7,0.34-1.59,0.29-2.66-0.17
			c-0.82-0.37-1.73-0.65-2.72-0.84c-0.99-0.19-1.95-0.28-2.88-0.28c-1.54,0-2.72,0.28-3.54,0.84c-0.82,0.56-1.24,1.28-1.24,2.17
			c0,0.63,0.25,1.14,0.74,1.54c0.49,0.4,1.37,0.74,2.64,1.03l4.78,1.07c5.3,1.17,7.95,3.95,7.95,8.32c0,1.97-0.51,3.69-1.52,5.15
			c-1.02,1.46-2.44,2.59-4.28,3.39C706.99,1646.39,704.82,1646.79,702.32,1646.79z"/>
	</g>
	<path class="st13" d="M442.48,1550.07c0.78,0.86,2,1.23,2.78,2.08c-0.64,0.62-4.66,4.41-5.27,4.98c-3.44,3.27-6.88,6.55-10.35,9.8
		c-0.51,0.48-0.71,0.96-0.69,1.65c0.04,1.42,0.01,2.84,0.01,4.51c0.4-0.35,0.67-0.58,0.92-0.82c6.94-6.59,13.89-13.18,20.83-19.77
		c1.4-1.33,1.9-1.35,3.39-0.08c2.47,2.09,4.93,4.18,7.4,6.27c0.26,0.22,0.54,0.43,0.84,0.67c3.5-3.86,6.96-7.66,10.42-11.47
		c2.75-3.03,5.49-6.06,8.24-9.08c1.04-1.14,1.63-1.22,2.9-0.39c0.67,0.44,1.34,0.89,2.02,1.33c0.05,0.03,0.13,0,0.32,0
		c0.37-3.75,0.74-7.51,1.13-11.44c-3.64,1.11-7.15,2.17-10.89,3.31c0.73,0.52,1.29,0.9,1.84,1.3c1.09,0.8,1.25,1.8,0.36,2.8
		c-4.94,5.61-9.89,11.2-14.85,16.78c-0.84,0.95-1.67,0.92-2.74,0.02c-2.84-2.4-5.68-4.81-8.58-7.27c-2.63,2.49-5.23,4.95-7.9,7.48
		c-0.77-0.83-1.49-1.62-2.28-2.48c1.11-1.06,2.17-2.07,3.24-3.09c1.73-1.65,3.47-3.29,5.21-4.94c1.34-1.27,1.87-1.29,3.31-0.07
		c2.44,2.06,4.88,4.14,7.32,6.2c0.29,0.25,0.59,0.48,0.94,0.77c4.25-4.8,8.44-9.54,12.68-14.34c-1.1-0.75-2.11-1.45-3.13-2.12
		c-0.66-0.44-1.12-0.99-1-1.83c0.13-0.89,0.73-1.28,1.54-1.52c5.31-1.6,10.61-3.24,15.92-4.86c1.8-0.55,2.77,0.29,2.58,2.2
		c-0.54,5.37-1.07,10.73-1.61,16.1c-0.18,1.83-1.41,2.43-2.93,1.43c-1.16-0.77-2.31-1.56-3.52-2.38c-1.75,1.93-3.46,3.8-5.16,5.67
		c-4.52,4.98-9.04,9.97-13.56,14.95c-1.17,1.29-1.86,1.33-3.2,0.2c-2.79-2.36-5.58-4.72-8.43-7.14c-1.32,1.25-2.62,2.47-3.92,3.7
		c-6.56,6.23-13.12,12.45-19.67,18.68c-0.63,0.6-1.27,1.16-2.21,0.77c-0.99-0.41-1.09-1.25-1.09-2.2c0.02-3.05-0.02-6.11,0.03-9.16
		c0.01-0.59,0.2-1.34,0.59-1.72C430.61,1561.33,437.97,1554.36,442.48,1550.07z"/>
	<path class="st14" d="M418.26,1642.86c0,7.48-0.01,14.95,0.01,22.43c0,0.77-0.11,1.5-0.45,2.17c-0.35,0.69-0.87,1.21-1.52,1.63
		c-0.73,0.46-1.52,0.54-2.36,0.51c-0.9-0.04-1.63-0.43-2.3-0.97c-0.49-0.39-0.92-0.85-1.36-1.29c-0.48-0.47-0.94-0.95-1.41-1.43
		c-0.56-0.57-1.11-1.14-1.67-1.7c-0.43-0.43-0.86-0.84-1.29-1.27c-0.53-0.54-1.05-1.08-1.59-1.62c-0.32-0.32-0.65-0.63-0.98-0.94
		c-0.27-0.27-0.54-0.54-0.81-0.81c-0.51-0.51-1.02-1.02-1.53-1.54c-0.49-0.5-0.97-1-1.45-1.5c-0.23-0.24-0.47-0.46-0.7-0.7
		c-0.56-0.57-1.12-1.14-1.69-1.71c-0.67-0.67-1.36-1.34-2.03-2.01c-0.5-0.5-0.98-1.02-1.48-1.53c-0.48-0.48-0.98-0.95-1.46-1.43
		c-0.24-0.24-0.47-0.49-0.71-0.73c-0.58-0.58-1.16-1.16-1.74-1.74c-0.48-0.49-0.96-0.98-1.44-1.47c-0.46-0.47-0.93-0.93-1.39-1.4
		c-0.51-0.52-1.02-1.04-1.53-1.55c-0.5-0.5-1.02-1-1.52-1.5c-0.46-0.45-0.91-0.91-1.36-1.37c-0.74-0.75-1.48-1.49-2.22-2.24
		c-0.57-0.57-1.13-1.14-1.69-1.72c-0.78-0.8-1.57-1.59-2.35-2.39c-0.85-0.87-1.71-1.73-2.56-2.59c-0.55-0.55-1.12-1.09-1.67-1.64
		c-0.57-0.57-1.13-1.16-1.7-1.73c-1.1-1.11-2.21-2.22-3.31-3.33c-0.58-0.58-1.12-1.22-1.4-2c-0.17-0.5-0.22-1.06-0.23-1.6
		c-0.02-0.89,0.26-1.71,0.81-2.41c0.66-0.83,1.48-1.42,2.56-1.55c0.52-0.06,1.04-0.1,1.55-0.1c14.53-0.01,29.06,0,43.59-0.01
		c0.58,0,1.15,0.06,1.7,0.22c0.65,0.19,1.17,0.57,1.63,1.06c0.73,0.79,1.06,1.74,1.06,2.82
		C418.26,1627.74,418.26,1635.3,418.26,1642.86z"/>
	<g>
		<g>
			<defs>
				<rect id="SVGID_9_" x="425.36" y="1616.1" width="41.05" height="45.57"/>
			</defs>
			<clipPath id="SVGID_10_">
				<use xlink:href="#SVGID_9_"  style="overflow:visible;"/>
			</clipPath>
			<g class="st15">
				<path class="st8" d="M414.79,1629.75c-1.12,0.36-1.9,1.39-2.06,2.57c-0.9,6.41,0.29,6.77,6.74,9.09
					c21.27,7.64,44.97-7.35,46.57-29.64c0.03-0.38-0.07-0.77-0.23-1.17c-0.95-2.23-3.68-3.04-5.78-1.88c-0.89,0.49-1.57,1-1.62,1.58
					c-1.96,20.72-26.1,31.83-43.06,19.47C415.2,1629.65,415.02,1629.68,414.79,1629.75z"/>
				<path class="st8" d="M411.89,1614.62c1.44,8.21,9.83,14.77,19.49,14.74c9.46-0.03,18.34-6.94,20.42-16.4
					c0.39-1.78-0.49-5.21-1.67-5.72c-2.53-1.09-5.25-0.63-6.13,3.21c-0.72,3.15-2.51,5.99-5.13,7.83
					c-7.74,5.46-16.37,1.79-19.92-6.04c-0.01-0.03-0.02-0.05-0.04-0.08C414.87,1613.58,415.93,1613.21,411.89,1614.62z"/>
				<path d="M438.54,1607.26c-5.1,0-9.55,0-14.37,0c-0.13,4.9,2.33,7.31,6.21,7.7C434.92,1615.42,437.86,1613.1,438.54,1607.26z"/>
			</g>
		</g>
		<g>
			<ellipse class="st8" cx="427.53" cy="1647.72" rx="1.39" ry="1.41"/>
			<ellipse class="st8" cx="427.6" cy="1656.51" rx="1.93" ry="1.96"/>
			<ellipse class="st8" cx="427.61" cy="1667.54" rx="2.3" ry="2.33"/>
		</g>
		<g>
			<ellipse class="st8" cx="439.4" cy="1647.53" rx="1.39" ry="1.41"/>
			<ellipse class="st8" cx="440.84" cy="1656.19" rx="1.93" ry="1.96"/>
			<ellipse class="st8" cx="442.56" cy="1667.08" rx="2.3" ry="2.33"/>
		</g>
		<g>
			<ellipse class="st8" cx="450.45" cy="1644.15" rx="1.39" ry="1.41"/>
			<ellipse class="st8" cx="455.04" cy="1651.6" rx="1.93" ry="1.96"/>
			<ellipse class="st8" cx="460.73" cy="1660.99" rx="2.3" ry="2.33"/>
		</g>
		<g>
			
				<ellipse transform="matrix(0.5705 -0.8213 0.8213 0.5705 -1146.6937 1080.4215)" class="st8" cx="459.65" cy="1636.57" rx="1.52" ry="1.4"/>
			
				<ellipse transform="matrix(0.5705 -0.8213 0.8213 0.5705 -1148.4564 1088.2919)" class="st8" cx="466.29" cy="1642.19" rx="2.12" ry="1.94"/>
			
				<ellipse transform="matrix(0.5705 -0.8213 0.8213 0.5705 -1150.7482 1098.1536)" class="st8" cx="474.57" cy="1649.31" rx="2.52" ry="2.31"/>
		</g>
		<g>
			<ellipse class="st8" cx="466.53" cy="1627.05" rx="1.39" ry="1.41"/>
			<ellipse class="st8" cx="474.33" cy="1630.83" rx="1.93" ry="1.96"/>
			<ellipse class="st8" cx="484.09" cy="1635.64" rx="2.3" ry="2.33"/>
		</g>
		<g>
			<ellipse class="st8" cx="469.14" cy="1618.38" rx="1.39" ry="1.41"/>
			<ellipse class="st8" cx="477.79" cy="1618.4" rx="1.93" ry="1.96"/>
			<ellipse class="st8" cx="488.63" cy="1618.51" rx="2.3" ry="2.33"/>
		</g>
	</g>
	<path class="st13" d="M430.96,1554.92"/>
	<g>
		<path class="st13" d="M442.07,1596.68c0.75-5.27,2.78-10.32,5.78-14.55h-7.47c-2.69,4.94-4.43,10.38-5.05,15.93
			c-0.38,3.43-0.29,6.92,0.2,10.33h7.05C441.7,1604.67,441.5,1600.64,442.07,1596.68z"/>
		<path class="st13" d="M432.78,1608.4c-0.48-3.52-0.55-7.11-0.16-10.64c0.6-5.42,2.21-10.73,4.67-15.62h-6.97
			c-2.37,5.42-3.89,11.14-4.44,16.94c-0.12,1.19-0.18,2.39-0.21,3.59v2.59c0.02,1,0.08,2,0.16,2.99c0.09,0.09,0.22,0.15,0.36,0.15
			H432.78z"/>
		<path class="st13" d="M444.76,1597.08c-0.55,3.84-0.33,7.75,0.61,11.32h9.06c-1.67-0.75-2.84-2.39-3.32-4.77
			c-0.46-2.26-0.31-5.14,0.43-8.11c0.73-2.95,1.96-5.72,3.46-7.81c1.82-2.51,3.95-3.92,6.18-4.08c1.69-0.12,3.09,0.43,4.05,1.59
			c2.01,2.44,1.49,6.79,0.7,10.01c-0.66,2.69-1.77,5.57-3.05,7.92c-1.46,2.68-2.94,4.39-4.4,5.09c-0.13,0.06-0.25,0.11-0.37,0.16
			h8.61c1.48-3.17,2.76-6.37,3.74-9.44c1.7-5.28,2.54-9.91,2.5-13.75c-0.01-1.12-0.15-2.14-0.38-3.08h-21.3
			C447.87,1586.29,445.55,1591.55,444.76,1597.08z"/>
		<path class="st13" d="M490.82,1582.66c0-0.29-0.23-0.53-0.52-0.53h-5.3c-0.01,0.14,0,0.28-0.01,0.43
			c-0.4,6.55-1.97,13.68-4.8,21.78c-0.47,1.33-0.97,2.69-1.51,4.06h5.9c0.06-0.17,0.13-0.34,0.19-0.51
			c2.92-8.03,4.9-15.43,6.04-22.45V1582.66z"/>
		<path class="st13" d="M425.67,1582.66v4.06c0.5-1.55,1.06-3.08,1.68-4.59h-1.16C425.9,1582.13,425.67,1582.37,425.67,1582.66z"/>
		<path class="st13" d="M460.51,1601.81c1.17-2.14,2.18-4.78,2.79-7.24c0.87-3.56,0.82-6.39-0.15-7.56
			c-0.24-0.3-0.69-0.69-1.78-0.61c-1.76,0.12-3.24,1.67-4.17,2.95c-1.3,1.8-2.37,4.23-3.02,6.84c-0.64,2.58-0.78,5.03-0.4,6.88
			c0.35,1.74,1.1,2.73,2.23,2.96c0.33,0.06,0.77-0.03,1.32-0.3C458,1605.41,459.2,1604.2,460.51,1601.81z"/>
		<path class="st13" d="M490.82,1607.87v-9.85c-0.93,3.36-2.04,6.81-3.33,10.38h2.81C490.59,1608.4,490.82,1608.16,490.82,1607.87z"
			/>
		<path class="st13" d="M482.28,1582.39c0.01-0.08,0.01-0.17,0.01-0.25h-6.9c0.19,0.96,0.3,1.98,0.31,3.05
			c0.04,4.14-0.85,9.06-2.64,14.63c-0.9,2.79-2.04,5.69-3.33,8.58h6.04c0.67-1.69,1.3-3.35,1.87-4.99
			C480.37,1595.56,481.89,1588.68,482.28,1582.39z"/>
	</g>
	<path class="st16" d="M490.4,1608.4h-64.23c-0.25,0-0.46-0.21-0.46-0.46v-25.35c0-0.25,0.21-0.46,0.46-0.46h64.23
		c0.25,0,0.46,0.21,0.46,0.46v25.35C490.86,1608.2,490.65,1608.4,490.4,1608.4z"/>
	<g>
		<g>
			<path class="st12" d="M516.07,1667.71v1.57h-8.14v-11.03h7.93v1.55h-6.07v3.11h5.41v1.53h-5.41v3.26H516.07z"/>
			<path class="st12" d="M530.07,1669.29l-0.02-7.65l-3.74,6.33h-0.86l-3.74-6.16v7.48h-1.78v-11.03h1.59l4.39,7.42l4.32-7.42h1.6
				l0.02,11.03H530.07z"/>
			<path class="st12" d="M544.49,1659.28c0.83,0.69,1.24,1.64,1.24,2.85c0,1.23-0.41,2.19-1.24,2.87c-0.83,0.69-1.96,1.03-3.4,1.03
				h-2.58v3.24h-1.85v-11.03h4.43C542.53,1658.25,543.66,1658.6,544.49,1659.28z M543.12,1663.87c0.49-0.4,0.74-0.98,0.74-1.73
				c0-0.75-0.24-1.33-0.74-1.73c-0.49-0.4-1.21-0.6-2.15-0.6h-2.46v4.66h2.46C541.92,1664.47,542.63,1664.27,543.12,1663.87z"/>
			<path class="st12" d="M556.93,1669.29l-2.33-3.3c-0.1,0.01-0.27,0.02-0.5,0.02h-2.58v3.28h-1.85v-11.03h4.43
				c1.44,0,2.57,0.34,3.4,1.03c0.83,0.69,1.24,1.64,1.24,2.85c0,0.84-0.21,1.56-0.62,2.16c-0.41,0.6-1,1.04-1.77,1.34l2.58,3.65
				H556.93z M556.13,1663.87c0.49-0.4,0.74-0.98,0.74-1.73c0-0.75-0.24-1.33-0.74-1.73c-0.49-0.4-1.21-0.6-2.15-0.6h-2.46v4.66h2.46
				C554.93,1664.47,555.64,1664.27,556.13,1663.87z"/>
			<path class="st12" d="M570.95,1667.71v1.57h-8.14v-11.03h7.93v1.55h-6.07v3.11h5.41v1.53h-5.41v3.26H570.95z"/>
			<path class="st12" d="M575.52,1669.08c-0.8-0.24-1.42-0.56-1.86-0.96l0.73-1.48c0.43,0.36,0.98,0.65,1.63,0.87
				c0.66,0.22,1.33,0.33,2.03,0.33c0.85,0,1.48-0.14,1.88-0.43c0.4-0.28,0.6-0.65,0.6-1.11c0-0.35-0.12-0.64-0.35-0.85
				c-0.24-0.22-0.53-0.39-0.89-0.51c-0.36-0.12-0.84-0.24-1.45-0.37c-0.83-0.18-1.5-0.37-2.02-0.56c-0.52-0.19-0.95-0.5-1.32-0.92
				c-0.36-0.42-0.54-0.99-0.54-1.72c0-0.98,0.39-1.78,1.18-2.38c0.78-0.6,1.85-0.9,3.2-0.9c0.69,0,1.35,0.08,2,0.24
				c0.64,0.16,1.19,0.4,1.65,0.71l-0.67,1.51c-0.83-0.58-1.84-0.87-3.04-0.87c-0.83,0-1.45,0.15-1.85,0.44
				c-0.41,0.29-0.61,0.67-0.61,1.14c0,0.35,0.12,0.63,0.35,0.85c0.23,0.22,0.53,0.39,0.9,0.5c0.36,0.12,0.85,0.24,1.46,0.37
				c0.84,0.19,1.51,0.39,2.01,0.57c0.5,0.19,0.94,0.49,1.3,0.9c0.36,0.41,0.54,0.97,0.54,1.67c0,1.01-0.39,1.81-1.17,2.41
				c-0.78,0.6-1.86,0.89-3.24,0.89C577.13,1669.44,576.32,1669.32,575.52,1669.08z"/>
			<path class="st12" d="M592.97,1666.66h-5.83l-1.15,2.62h-1.81l4.97-11.03h1.83l4.99,11.03h-1.87L592.97,1666.66z M592.32,1665.17
				l-2.25-5.21l-2.27,5.21H592.32z"/>
			<path class="st12" d="M599.63,1669.08c-0.8-0.24-1.42-0.56-1.86-0.96l0.73-1.48c0.43,0.36,0.98,0.65,1.63,0.87
				c0.66,0.22,1.33,0.33,2.03,0.33c0.85,0,1.48-0.14,1.88-0.43c0.4-0.28,0.6-0.65,0.6-1.11c0-0.35-0.12-0.64-0.35-0.85
				c-0.24-0.22-0.53-0.39-0.89-0.51c-0.36-0.12-0.84-0.24-1.45-0.37c-0.83-0.18-1.5-0.37-2.02-0.56c-0.52-0.19-0.95-0.5-1.32-0.92
				c-0.36-0.42-0.54-0.99-0.54-1.72c0-0.98,0.39-1.78,1.18-2.38c0.78-0.6,1.85-0.9,3.2-0.9c0.69,0,1.35,0.08,2,0.24
				c0.64,0.16,1.19,0.4,1.65,0.71l-0.67,1.51c-0.83-0.58-1.84-0.87-3.04-0.87c-0.83,0-1.45,0.15-1.85,0.44
				c-0.41,0.29-0.61,0.67-0.61,1.14c0,0.35,0.12,0.63,0.35,0.85c0.23,0.22,0.53,0.39,0.9,0.5c0.36,0.12,0.85,0.24,1.46,0.37
				c0.84,0.19,1.51,0.39,2.01,0.57c0.5,0.19,0.94,0.49,1.3,0.9c0.36,0.41,0.54,0.97,0.54,1.67c0,1.01-0.39,1.81-1.17,2.41
				c-0.78,0.6-1.86,0.89-3.24,0.89C601.24,1669.44,600.42,1669.32,599.63,1669.08z"/>
			<path class="st12" d="M624.54,1667.71v1.57h-8.14v-11.03h7.93v1.55h-6.07v3.11h5.41v1.53h-5.41v3.26H624.54z"/>
			<path class="st12" d="M629.12,1669.08c-0.8-0.24-1.42-0.56-1.86-0.96l0.73-1.48c0.43,0.36,0.98,0.65,1.63,0.87
				c0.66,0.22,1.33,0.33,2.03,0.33c0.85,0,1.48-0.14,1.88-0.43c0.4-0.28,0.6-0.65,0.6-1.11c0-0.35-0.12-0.64-0.35-0.85
				c-0.24-0.22-0.53-0.39-0.89-0.51c-0.36-0.12-0.84-0.24-1.45-0.37c-0.83-0.18-1.5-0.37-2.02-0.56c-0.52-0.19-0.95-0.5-1.32-0.92
				c-0.36-0.42-0.54-0.99-0.54-1.72c0-0.98,0.39-1.78,1.18-2.38c0.78-0.6,1.85-0.9,3.2-0.9c0.69,0,1.35,0.08,2,0.24
				c0.64,0.16,1.19,0.4,1.65,0.71l-0.67,1.51c-0.83-0.58-1.84-0.87-3.04-0.87c-0.83,0-1.45,0.15-1.85,0.44
				c-0.41,0.29-0.61,0.67-0.61,1.14c0,0.35,0.12,0.63,0.35,0.85c0.23,0.22,0.53,0.39,0.9,0.5c0.36,0.12,0.85,0.24,1.46,0.37
				c0.84,0.19,1.51,0.39,2.01,0.57c0.5,0.19,0.94,0.49,1.3,0.9c0.36,0.41,0.54,0.97,0.54,1.67c0,1.01-0.39,1.81-1.17,2.41
				c-0.78,0.6-1.86,0.89-3.24,0.89C630.73,1669.44,629.91,1669.32,629.12,1669.08z"/>
			<path class="st12" d="M641.39,1659.81h-3.71v-1.55h9.26v1.55h-3.71v9.48h-1.85V1659.81z"/>
			<path class="st12" d="M656.23,1666.66h-5.83l-1.15,2.62h-1.81l4.97-11.03h1.83l4.99,11.03h-1.87L656.23,1666.66z M655.58,1665.17
				l-2.25-5.21l-2.27,5.21H655.58z"/>
			<path class="st12" d="M663.43,1659.81h-3.71v-1.55h9.26v1.55h-3.71v9.48h-1.85V1659.81z"/>
			<path class="st12" d="M678.28,1666.66h-5.83l-1.15,2.62h-1.81l4.97-11.03h1.83l4.99,11.03h-1.87L678.28,1666.66z M677.63,1665.17
				l-2.25-5.21l-2.27,5.21H677.63z"/>
			<path class="st12" d="M684.22,1658.25h1.85v9.46h5.83v1.57h-7.68V1658.25z"/>
			<path class="st12" d="M703.15,1667.71v1.57h-8.14v-11.03h7.93v1.55h-6.07v3.11h5.41v1.53h-5.41v3.26H703.15z"/>
			<path class="st12" d="M707.72,1669.08c-0.8-0.24-1.42-0.56-1.86-0.96l0.73-1.48c0.43,0.36,0.98,0.65,1.63,0.87
				c0.66,0.22,1.33,0.33,2.03,0.33c0.85,0,1.48-0.14,1.88-0.43c0.4-0.28,0.6-0.65,0.6-1.11c0-0.35-0.12-0.64-0.35-0.85
				c-0.24-0.22-0.53-0.39-0.89-0.51c-0.36-0.12-0.84-0.24-1.45-0.37c-0.83-0.18-1.5-0.37-2.02-0.56c-0.52-0.19-0.95-0.5-1.32-0.92
				c-0.36-0.42-0.54-0.99-0.54-1.72c0-0.98,0.39-1.78,1.18-2.38c0.78-0.6,1.85-0.9,3.2-0.9c0.69,0,1.35,0.08,2,0.24
				c0.64,0.16,1.19,0.4,1.65,0.71l-0.67,1.51c-0.83-0.58-1.84-0.87-3.04-0.87c-0.83,0-1.45,0.15-1.85,0.44
				c-0.41,0.29-0.61,0.67-0.61,1.14c0,0.35,0.12,0.63,0.35,0.85c0.23,0.22,0.53,0.39,0.9,0.5c0.36,0.12,0.85,0.24,1.46,0.37
				c0.84,0.19,1.51,0.39,2.01,0.57c0.5,0.19,0.94,0.49,1.3,0.9c0.36,0.41,0.54,0.97,0.54,1.67c0,1.01-0.39,1.81-1.17,2.41
				c-0.78,0.6-1.86,0.89-3.24,0.89C709.34,1669.44,708.52,1669.32,707.72,1669.08z"/>
		</g>
	</g>
	<g>
		<path class="st3" d="M410.53,1566.09h-5.78c-0.14,0-0.28,0.06-0.38,0.16c-0.1,0.1-0.16,0.24-0.16,0.38v1.51l7.13,0l-0.29-1.61
			C411.01,1566.28,410.79,1566.09,410.53,1566.09z"/>
		<polygon class="st3" points="404.24,1587.8 414.33,1587.8 411.36,1571.25 404.24,1571.25 		"/>
		<path class="st4" d="M414.4,1587.8h-0.07h-10.09h-0.16l-19.02-14.72c-0.16-0.12-0.38-0.15-0.56-0.06c-0.18,0.09-0.3,0.28-0.3,0.49
			v13.4l-17.87-13.84c-0.16-0.12-0.38-0.15-0.56-0.06c-0.18,0.09-0.3,0.28-0.3,0.49v14.83v19.59c0,0.14,0.06,0.28,0.16,0.39
			c0.1,0.1,0.24,0.16,0.38,0.16h51.75c0.16,0,0.31-0.07,0.41-0.19c0.1-0.12,0.14-0.28,0.12-0.44l-3.35-19.59
			C414.89,1587.99,414.66,1587.8,414.4,1587.8z M378.27,1592.25c0,0.13-0.05,0.24-0.14,0.33c-0.09,0.09-0.2,0.14-0.33,0.14h-6.94
			c-0.12,0-0.24-0.05-0.33-0.14c-0.09-0.09-0.14-0.21-0.14-0.33v-2.07c0-0.12,0.05-0.25,0.14-0.33c0.09-0.09,0.2-0.14,0.33-0.14
			h6.94c0.12,0,0.24,0.05,0.33,0.14c0.09,0.09,0.14,0.21,0.14,0.33V1592.25z M396.94,1592.25c0,0.13-0.05,0.24-0.14,0.33
			c-0.09,0.09-0.2,0.14-0.33,0.14h-6.94c-0.12,0-0.24-0.05-0.33-0.14c-0.09-0.09-0.14-0.21-0.14-0.33v-2.07
			c0-0.12,0.05-0.25,0.14-0.33c0.08-0.09,0.2-0.14,0.33-0.14h6.94c0.12,0,0.24,0.05,0.33,0.14c0.09,0.09,0.14,0.21,0.14,0.33
			V1592.25z"/>
	</g>
</g>
<g>
	<g>
		<g>
			<path class="st5" d="M216.27,714.98c0-7.71,6.6-12.59,10.37-16.28c2.48-2.31,3.17-4.2,3.17-6.17v-0.77c0-1.97,1.2-3,3.34-3h3.43
				c2.14,0,3.34,1.03,3.34,3v0.69c0,3.85-1.71,6.77-4.8,9.77c-3,3-8.22,6.42-8.22,11.14c0,4.11,3.43,6.94,8.82,6.94
				c3.68,0,7.71-2.48,9.17-6.17c1.03-1.88,2.31-2.57,4.45-1.71l2.57,1.03c2.06,0.77,2.31,2.48,1.54,4.37
				c-2.4,6.6-9.77,11.82-18.59,11.82C223.89,729.63,216.27,723.63,216.27,714.98z M228.18,678.49c0-3.6,3.08-6.68,6.85-6.68
				c3.68,0,6.77,3.08,6.77,6.68c0,3.68-3.08,6.77-6.77,6.77C231.26,685.26,228.18,682.17,228.18,678.49z"/>
			<path class="st5" d="M308.7,723.46c1.63,2.06,0.6,3.25-1.54,3.25h-7.37c-1.63,0-2.91-0.6-4.11-2.14l-6.68-8.48
				c-1.88,0.26-3.68,0.43-5.65,0.43c-17.13,0-30.24-12.34-30.24-28.87c0-16.53,13.11-28.87,30.24-28.87
				c17.22,0,30.24,12.34,30.24,28.87c0,10.54-5.31,19.45-13.71,24.41L308.7,723.46z M283.34,706.07c10.37,0,18.5-7.71,18.5-18.42
				c0-10.79-8.14-18.42-18.5-18.42s-18.42,7.62-18.42,18.42C264.93,698.36,272.98,706.07,283.34,706.07z"/>
			<path class="st5" d="M360.19,675.49v36.66c0,2.06-1.2,3.34-3.25,3.34h-3.08c-2.06,0-3.26-1.29-3.26-3.34v-2.31
				c-2.66,4.03-6.94,6.77-13.11,6.77c-10.45,0-17.39-7.11-17.39-17.65v-23.47c0-2.06,1.11-3.26,3.17-3.26h4.97
				c2.06,0,3.25,1.2,3.25,3.26v22.19c0,5.4,3.25,9.08,8.48,9.08c5.4,0,8.82-3.68,8.82-9.34v-21.93c0-2.06,1.11-3.26,3.17-3.26h4.97
				C358.99,672.23,360.19,673.43,360.19,675.49z"/>
			<path class="st5" d="M391.46,707.96c3.34,0,7.11-0.94,10.88-3.85c1.54-1.2,2.74-1.46,4.11,0l2.06,2.06
				c1.63,1.63,0.94,2.91,0,3.94c-4.37,4.45-11.99,6.51-18.08,6.51c-12.85,0-23.3-8.82-23.3-22.53c0-12.94,9.51-22.53,22.44-22.53
				c6.51,0,11.99,2.31,15.68,6c4.03,3.94,6.25,9.59,6.25,15.59c0,2.4-0.94,3.51-3.51,3.51h-29.64
				C379.03,703.93,384.86,707.96,391.46,707.96z M378.43,689.62h21.93c-0.43-2.66-1.46-4.88-3.08-6.51
				c-1.88-2.06-4.63-3.17-7.88-3.17C383.49,679.94,379.29,683.71,378.43,689.62z"/>
			<path class="st5" d="M446.71,675.75l-1.11,4.28c-0.6,2.14-1.97,2.4-3.43,1.97c-1.2-0.43-2.57-0.69-3.77-0.69
				c-5.65,0-8.82,4.28-8.82,10.45v20.39c0,2.06-1.11,3.34-3.17,3.34h-4.97c-2.06,0-3.25-1.29-3.25-3.34v-36.66
				c0-2.06,1.2-3.26,3.25-3.26h3.25c2.06,0,3.26,1.2,3.26,3.26v2.66c2.74-4.11,6.6-6.6,11.48-6.6c2.14,0,3.68,0.26,5.4,0.77
				C446.11,672.75,447.31,673.43,446.71,675.75z"/>
			<path class="st5" d="M470.95,707.96c3.34,0,7.11-0.94,10.88-3.85c1.54-1.2,2.74-1.46,4.11,0l2.06,2.06
				c1.63,1.63,0.94,2.91,0,3.94c-4.37,4.45-11.99,6.51-18.08,6.51c-12.85,0-23.3-8.82-23.3-22.53c0-12.94,9.51-22.53,22.44-22.53
				c6.51,0,11.99,2.31,15.68,6c4.03,3.94,6.25,9.59,6.25,15.59c0,2.4-0.94,3.51-3.51,3.51h-29.64
				C458.53,703.93,464.36,707.96,470.95,707.96z M457.93,689.62h21.93c-0.43-2.66-1.46-4.88-3.08-6.51
				c-1.88-2.06-4.63-3.17-7.88-3.17C462.99,679.94,458.79,683.71,457.93,689.62z"/>
			<path class="st5" d="M495.37,710.1c-1.54-1.46-1.97-2.91-0.17-4.8l1.46-1.63c1.63-1.8,3.17-1.63,4.8-0.26
				c2.91,2.57,6.68,4.37,10.79,4.37c3.68,0,6.08-1.63,6.08-4.11c0-3.34-3.6-4.54-7.45-6.08c-7.02-2.4-14.48-5.05-14.48-13.28
				c0-7.8,6.42-12.76,16.28-12.76c5.48,0,11.22,1.88,14.56,5.05c1.54,1.37,1.97,2.74,0.17,4.88l-1.2,1.54
				c-1.29,1.46-3,1.71-4.71,0.43c-2.83-2.31-5.4-3.34-8.82-3.34c-3.34,0-5.4,1.46-5.4,3.6c0,2.74,3.77,3.85,8.82,5.82
				c7.2,2.91,13.11,6,13.11,13.96c0,8.14-6.85,13.11-16.88,13.11C505.65,716.61,498.97,713.95,495.37,710.1z"/>
			<path class="st5" d="M551.14,694.08c0-12.94,9.77-22.53,23.13-22.53c6.34,0,12.16,2.06,16.79,6.6c1.03,1.03,1.63,2.4,0,4.03l-3,3
				c-1.11,1.03-2.31,1.46-4.11-0.09c-3.34-3.08-6.51-3.68-9.34-3.68c-7.11,0-12.16,5.4-12.16,12.68c0,7.2,4.8,12.68,12.16,12.68
				c2.83,0,6-0.69,9.34-3.68c1.8-1.63,3-1.2,4.11-0.09l3,3c1.63,1.63,1.03,2.91,0,3.94c-4.63,4.63-10.45,6.68-16.79,6.68
				C560.9,716.61,551.14,706.93,551.14,694.08z"/>
			<path class="st5" d="M594.83,694.08c0-12.85,9.94-22.53,23.47-22.53c13.54,0,23.39,9.68,23.39,22.53
				c0,12.85-9.85,22.53-23.39,22.53C604.76,716.61,594.83,706.93,594.83,694.08z M630.38,694.08c0-7.28-5.05-12.68-12.08-12.68
				s-12.16,5.4-12.16,12.68c0,7.28,5.05,12.59,12.16,12.59C625.32,706.67,630.38,701.36,630.38,694.08z"/>
			<path class="st5" d="M689.66,689.88v22.27c0,2.06-1.11,3.34-3.17,3.34h-4.97c-2.06,0-3.25-1.29-3.25-3.34v-21.42
				c0-5.65-3.43-9.42-9-9.42c-5.57,0-9.34,3.77-9.34,9.42v21.42c0,2.06-1.11,3.34-3.17,3.34h-4.97c-2.06,0-3.26-1.29-3.26-3.34
				v-36.66c0-2.06,1.2-3.26,3.26-3.26h3.25c2.06,0,3.25,1.2,3.25,3.26v2.91c2.83-4.11,7.37-6.85,13.71-6.85
				C682.63,671.55,689.66,678.92,689.66,689.88z"/>
			<path class="st5" d="M696.08,694.08c0-12.85,9.94-22.53,23.47-22.53c13.54,0,23.39,9.68,23.39,22.53
				c0,12.85-9.85,22.53-23.39,22.53C706.02,716.61,696.08,706.93,696.08,694.08z M731.63,694.08c0-7.28-5.05-12.68-12.08-12.68
				s-12.16,5.4-12.16,12.68c0,7.28,5.05,12.59,12.16,12.59C726.58,706.67,731.63,701.36,731.63,694.08z"/>
			<path class="st5" d="M747.14,694.08c0-12.94,9.77-22.53,23.13-22.53c6.34,0,12.16,2.06,16.79,6.6c1.03,1.03,1.63,2.4,0,4.03l-3,3
				c-1.11,1.03-2.31,1.46-4.11-0.09c-3.34-3.08-6.51-3.68-9.34-3.68c-7.11,0-12.16,5.4-12.16,12.68c0,7.2,4.8,12.68,12.16,12.68
				c2.83,0,6-0.69,9.34-3.68c1.8-1.63,3-1.2,4.11-0.09l3,3c1.63,1.63,1.03,2.91,0,3.94c-4.63,4.63-10.45,6.68-16.79,6.68
				C756.9,716.61,747.14,706.93,747.14,694.08z"/>
			<path class="st5" d="M815.24,707.96c3.34,0,7.11-0.94,10.88-3.85c1.54-1.2,2.74-1.46,4.11,0l2.06,2.06
				c1.63,1.63,0.94,2.91,0,3.94c-4.37,4.45-11.99,6.51-18.07,6.51c-12.85,0-23.3-8.82-23.3-22.53c0-12.94,9.51-22.53,22.44-22.53
				c6.51,0,11.99,2.31,15.68,6c4.03,3.94,6.25,9.59,6.25,15.59c0,2.4-0.94,3.51-3.51,3.51h-29.64
				C802.82,703.93,808.65,707.96,815.24,707.96z M802.22,689.62h21.93c-0.43-2.66-1.46-4.88-3.08-6.51
				c-1.88-2.06-4.63-3.17-7.88-3.17C807.28,679.94,803.08,683.71,802.22,689.62z"/>
			<path class="st5" d="M870.5,675.75l-1.11,4.28c-0.6,2.14-1.97,2.4-3.43,1.97c-1.2-0.43-2.57-0.69-3.77-0.69
				c-5.65,0-8.82,4.28-8.82,10.45v20.39c0,2.06-1.11,3.34-3.17,3.34h-4.97c-2.06,0-3.26-1.29-3.26-3.34v-36.66
				c0-2.06,1.2-3.26,3.26-3.26h3.25c2.06,0,3.25,1.2,3.25,3.26v2.66c2.74-4.11,6.6-6.6,11.48-6.6c2.14,0,3.68,0.26,5.4,0.77
				C869.9,672.75,871.1,673.43,870.5,675.75z"/>
			<path class="st5" d="M236.92,771.58v22.27c0,2.06-1.2,3.34-3.26,3.34h-4.97c-2.06,0-3.17-1.29-3.17-3.34v-21.42
				c0-5.74-3.17-9.42-8.57-9.42s-9.17,3.68-9.17,9.42v21.42c0,2.06-1.11,3.34-3.17,3.34h-4.97c-2.06,0-3.25-1.29-3.25-3.34v-21.42
				c0-5.74-3.17-9.42-8.57-9.42c-5.4,0-9.17,3.68-9.17,9.42v21.42c0,2.06-1.11,3.34-3.17,3.34h-4.97c-2.06,0-3.25-1.29-3.25-3.34
				v-36.66c0-2.06,1.2-3.26,3.25-3.26h3.26c2.06,0,3.25,1.2,3.25,3.26v2.91c2.91-4.03,7.37-6.85,13.62-6.85
				c6.25,0,11.14,2.57,14.05,6.94c3.08-4.11,8.14-6.94,14.65-6.94C229.98,753.25,236.92,760.61,236.92,771.58z"/>
			<path class="st5" d="M283.26,771.24v22.62c0,2.14-1.11,3.34-3.17,3.34h-2.74c-2.06,0-3.25-1.29-3.25-3.34v-1.46
				c-3.68,3.6-8.65,5.91-14.13,5.91c-10.02,0-16.79-5.57-16.79-13.79c0-8.74,7.37-14.56,18.33-14.56c4.03,0,7.79,0.94,11.14,2.31
				v-2.31c0-4.97-3.6-8.05-9.51-8.05c-4.11,0-7.97,1.28-10.96,3.34c-1.71,1.03-3.17,0.69-4.28-1.2l-0.77-1.37
				c-1.28-2.23-0.6-3.77,0.94-4.71c4.97-3.34,10.54-4.71,15.85-4.71C274.69,753.25,283.26,758.56,283.26,771.24z M253.96,744.85
				c-1.03-1.54-0.43-2.74,1.2-3.85l13.19-8.57c1.8-1.28,3-0.86,3.85,0.43l2.06,3.77c1.11,1.8,0.51,2.91-1.11,3.77l-14.39,6.77
				c-1.63,0.77-2.91,0.77-3.68-0.34L253.96,744.85z M272.9,782.89v-3.17c-2.14-1.03-5.91-2.48-9.85-2.48c-5.4,0-8.99,2.74-8.99,6.85
				c0,3.85,3.34,6.42,8.39,6.42C268.01,790.51,272.9,787.08,272.9,782.89z"/>
			<path class="st5" d="M290.46,791.79c-1.54-1.46-1.97-2.91-0.17-4.8l1.46-1.63c1.63-1.8,3.17-1.63,4.8-0.26
				c2.91,2.57,6.68,4.37,10.79,4.37c3.68,0,6.08-1.63,6.08-4.11c0-3.34-3.6-4.54-7.45-6.08c-7.02-2.4-14.48-5.05-14.48-13.28
				c0-7.8,6.42-12.76,16.28-12.76c5.48,0,11.22,1.88,14.56,5.05c1.54,1.37,1.97,2.74,0.17,4.88l-1.2,1.54
				c-1.29,1.46-3,1.71-4.71,0.43c-2.83-2.31-5.4-3.34-8.82-3.34c-3.34,0-5.4,1.46-5.4,3.6c0,2.74,3.77,3.85,8.82,5.82
				c7.2,2.91,13.11,6,13.11,13.96c0,8.14-6.85,13.11-16.88,13.11C300.74,798.31,294.06,795.65,290.46,791.79z"/>
			<path class="st5" d="M346.82,791.79c-1.54-1.46-1.97-2.91-0.17-4.8l1.46-1.63c1.63-1.8,3.17-1.63,4.8-0.26
				c2.91,2.57,6.68,4.37,10.79,4.37c3.68,0,6.08-1.63,6.08-4.11c0-3.34-3.6-4.54-7.45-6.08c-7.02-2.4-14.48-5.05-14.48-13.28
				c0-7.8,6.42-12.76,16.28-12.76c5.48,0,11.22,1.88,14.56,5.05c1.54,1.37,1.97,2.74,0.17,4.88l-1.2,1.54
				c-1.29,1.46-3,1.71-4.71,0.43c-2.83-2.31-5.4-3.34-8.82-3.34c-3.34,0-5.4,1.46-5.4,3.6c0,2.74,3.77,3.85,8.82,5.82
				c7.2,2.91,13.11,6,13.11,13.96c0,8.14-6.85,13.11-16.88,13.11C357.1,798.31,350.42,795.65,346.82,791.79z"/>
			<path class="st5" d="M384.95,775.78c0-12.85,9.94-22.53,23.47-22.53c13.54,0,23.39,9.68,23.39,22.53
				c0,12.85-9.85,22.53-23.39,22.53C394.88,798.31,384.95,788.63,384.95,775.78z M420.5,775.78c0-7.28-5.05-12.68-12.08-12.68
				s-12.16,5.4-12.16,12.68c0,7.28,5.05,12.59,12.16,12.59C415.44,788.37,420.5,783.06,420.5,775.78z"/>
			<path class="st5" d="M484.4,775.78c0,12.59-8.91,22.53-21.5,22.53c-6.25,0-11.22-2.66-14.73-6.6v2.14c0,2.06-1.11,3.34-3.17,3.34
				h-3c-2.06,0-3.25-1.29-3.25-3.34v-53.54c0-1.97,1.11-2.83,3.25-3.34l4.71-0.86c2.31-0.51,3.43,0.94,3.43,3.17v18.16
				c3.51-2.57,7.88-4.2,12.76-4.2C475.49,753.25,484.4,763.1,484.4,775.78z M473.09,775.78c0-7.02-4.71-12.68-11.91-12.68
				c-6.42,0-11.91,4.54-11.74,12.68c0.08,8.05,5.23,12.59,11.74,12.59C468.38,788.37,473.09,782.8,473.09,775.78z"/>
			<path class="st5" d="M519.95,757.44l-1.11,4.28c-0.6,2.14-1.97,2.4-3.43,1.97c-1.2-0.43-2.57-0.69-3.77-0.69
				c-5.65,0-8.82,4.28-8.82,10.45v20.39c0,2.06-1.11,3.34-3.17,3.34h-4.97c-2.06,0-3.25-1.29-3.25-3.34v-36.66
				c0-2.06,1.2-3.26,3.25-3.26h3.25c2.06,0,3.26,1.2,3.26,3.26v2.66c2.74-4.11,6.6-6.6,11.48-6.6c2.14,0,3.68,0.26,5.4,0.77
				C519.35,754.45,520.55,755.13,519.95,757.44z"/>
			<path class="st5" d="M544.2,789.65c3.34,0,7.11-0.94,10.88-3.85c1.54-1.2,2.74-1.46,4.11,0l2.06,2.06c1.63,1.63,0.94,2.91,0,3.94
				c-4.37,4.45-11.99,6.51-18.07,6.51c-12.85,0-23.3-8.82-23.3-22.53c0-12.94,9.51-22.53,22.44-22.53c6.51,0,11.99,2.31,15.68,6
				c4.03,3.94,6.25,9.59,6.25,15.59c0,2.4-0.94,3.51-3.51,3.51h-29.64C531.77,785.63,537.6,789.65,544.2,789.65z M531.17,771.32
				h21.93c-0.43-2.66-1.46-4.88-3.08-6.51c-1.88-2.06-4.63-3.17-7.88-3.17C536.23,761.64,532.03,765.41,531.17,771.32z"/>
			<path class="st5" d="M629.6,771.58v22.27c0,2.06-1.11,3.34-3.17,3.34h-4.97c-2.06,0-3.25-1.29-3.25-3.34v-21.42
				c0-5.65-3.43-9.42-9-9.42c-5.57,0-9.34,3.77-9.34,9.42v21.42c0,2.06-1.11,3.34-3.17,3.34h-4.97c-2.06,0-3.26-1.29-3.26-3.34
				v-36.66c0-2.06,1.2-3.26,3.26-3.26H595c2.06,0,3.25,1.2,3.25,3.26v2.91c2.83-4.11,7.37-6.85,13.71-6.85
				C622.58,753.25,629.6,760.61,629.6,771.58z"/>
			<path class="st5" d="M678.43,757.19v36.66c0,2.06-1.2,3.34-3.25,3.34h-3.08c-2.06,0-3.25-1.29-3.25-3.34v-2.31
				c-2.66,4.03-6.94,6.77-13.11,6.77c-10.45,0-17.39-7.11-17.39-17.65v-23.47c0-2.06,1.11-3.26,3.17-3.26h4.97
				c2.06,0,3.25,1.2,3.25,3.26v22.19c0,5.4,3.26,9.08,8.48,9.08c5.4,0,8.82-3.68,8.82-9.34v-21.93c0-2.06,1.11-3.26,3.17-3.26h4.97
				C677.23,753.93,678.43,755.13,678.43,757.19z"/>
			<path class="st5" d="M709.7,789.65c3.34,0,7.11-0.94,10.88-3.85c1.54-1.2,2.74-1.46,4.11,0l2.06,2.06c1.63,1.63,0.94,2.91,0,3.94
				c-4.37,4.45-11.99,6.51-18.07,6.51c-12.85,0-23.3-8.82-23.3-22.53c0-12.94,9.51-22.53,22.44-22.53c6.51,0,11.99,2.31,15.68,6
				c4.03,3.94,6.25,9.59,6.25,15.59c0,2.4-0.94,3.51-3.51,3.51h-29.64C697.28,785.63,703.1,789.65,709.7,789.65z M696.68,771.32
				h21.93c-0.43-2.66-1.46-4.88-3.08-6.51c-1.88-2.06-4.63-3.17-7.88-3.17C701.73,761.64,697.54,765.41,696.68,771.32z"/>
			<path class="st5" d="M734.12,791.79c-1.54-1.46-1.97-2.91-0.17-4.8l1.46-1.63c1.63-1.8,3.17-1.63,4.8-0.26
				c2.91,2.57,6.68,4.37,10.79,4.37c3.68,0,6.08-1.63,6.08-4.11c0-3.34-3.6-4.54-7.45-6.08c-7.02-2.4-14.48-5.05-14.48-13.28
				c0-7.8,6.42-12.76,16.28-12.76c5.48,0,11.22,1.88,14.56,5.05c1.54,1.37,1.97,2.74,0.17,4.88l-1.2,1.54
				c-1.29,1.46-3,1.71-4.71,0.43c-2.83-2.31-5.4-3.34-8.82-3.34c-3.34,0-5.4,1.46-5.4,3.6c0,2.74,3.77,3.85,8.82,5.82
				c7.2,2.91,13.11,6,13.11,13.96c0,8.14-6.85,13.11-16.88,13.11C744.39,798.31,737.71,795.65,734.12,791.79z"/>
			<path class="st5" d="M801.79,795.56c-2.4,1.71-5.83,2.74-9.59,2.74c-8.14,0-15.08-4.8-15.08-15.42V762.5h-4.2
				c-2.06,0-3.34-1.2-3.34-3.26v-2.14c0-2.06,1.29-3.17,3.34-3.17h4.2v-10.79c0-1.97,1.11-2.91,3.25-3.34l4.63-0.94
				c2.31-0.51,3.43,1.03,3.43,3.26v11.82h9.51c2.06,0,3.34,1.11,3.34,3.17v2.14c0,2.06-1.29,3.26-3.34,3.26h-9.51v19.36
				c0,4.8,2.31,6.6,5.65,6.6c1.46,0,2.74-0.6,3.94-1.28c1.97-1.2,2.91-0.34,3.68,1.11l1.54,3.6
				C804.19,793.68,802.9,794.79,801.79,795.56z"/>
			<path class="st5" d="M836.06,757.44l-1.11,4.28c-0.6,2.14-1.97,2.4-3.43,1.97c-1.2-0.43-2.57-0.69-3.77-0.69
				c-5.65,0-8.82,4.28-8.82,10.45v20.39c0,2.06-1.11,3.34-3.17,3.34h-4.97c-2.06,0-3.26-1.29-3.26-3.34v-36.66
				c0-2.06,1.2-3.26,3.26-3.26h3.25c2.06,0,3.25,1.2,3.25,3.26v2.66c2.74-4.11,6.6-6.6,11.48-6.6c2.14,0,3.68,0.26,5.4,0.77
				C835.46,754.45,836.66,755.13,836.06,757.44z"/>
			<path class="st5" d="M875.98,771.24v22.62c0,2.14-1.11,3.34-3.17,3.34h-2.74c-2.06,0-3.26-1.29-3.26-3.34v-1.46
				c-3.68,3.6-8.65,5.91-14.13,5.91c-10.02,0-16.79-5.57-16.79-13.79c0-8.74,7.37-14.56,18.33-14.56c4.03,0,7.79,0.94,11.14,2.31
				v-2.31c0-4.97-3.6-8.05-9.51-8.05c-4.11,0-7.97,1.28-10.96,3.34c-1.71,1.03-3.17,0.69-4.28-1.2l-0.77-1.37
				c-1.29-2.23-0.6-3.77,0.94-4.71c4.97-3.34,10.54-4.71,15.85-4.71C867.41,753.25,875.98,758.56,875.98,771.24z M865.61,782.89
				v-3.17c-2.14-1.03-5.91-2.48-9.85-2.48c-5.4,0-9,2.74-9,6.85c0,3.85,3.34,6.42,8.4,6.42
				C860.73,790.51,865.61,787.08,865.61,782.89z"/>
			<path class="st5" d="M883.17,791.79c-1.54-1.46-1.97-2.91-0.17-4.8l1.46-1.63c1.63-1.8,3.17-1.63,4.8-0.26
				c2.91,2.57,6.68,4.37,10.79,4.37c3.68,0,6.08-1.63,6.08-4.11c0-3.34-3.6-4.54-7.45-6.08c-7.02-2.4-14.48-5.05-14.48-13.28
				c0-7.8,6.42-12.76,16.28-12.76c5.48,0,11.22,1.88,14.56,5.05c1.54,1.37,1.97,2.74,0.17,4.88l-1.2,1.54
				c-1.29,1.46-3,1.71-4.71,0.43c-2.83-2.31-5.4-3.34-8.82-3.34c-3.34,0-5.4,1.46-5.4,3.6c0,2.74,3.77,3.85,8.82,5.82
				c7.2,2.91,13.11,6,13.11,13.96c0,8.14-6.85,13.11-16.88,13.11C893.45,798.31,886.77,795.65,883.17,791.79z"/>
			<path class="st5" d="M355,871.35c3.34,0,7.11-0.94,10.88-3.85c1.54-1.2,2.74-1.46,4.11,0l2.06,2.06c1.63,1.63,0.94,2.91,0,3.94
				c-4.37,4.45-11.99,6.51-18.08,6.51c-12.85,0-23.3-8.82-23.3-22.53c0-12.94,9.51-22.53,22.44-22.53c6.51,0,11.99,2.31,15.68,6
				c4.03,3.94,6.25,9.59,6.25,15.59c0,2.4-0.94,3.51-3.51,3.51H341.9C342.58,867.33,348.41,871.35,355,871.35z M341.98,853.02h21.93
				c-0.43-2.66-1.46-4.88-3.08-6.51c-1.88-2.06-4.63-3.17-7.88-3.17C347.04,843.34,342.84,847.11,341.98,853.02z"/>
			<path class="st5" d="M451.38,853.28v22.27c0,2.06-1.2,3.34-3.26,3.34h-4.97c-2.06,0-3.17-1.29-3.17-3.34v-21.42
				c0-5.74-3.17-9.42-8.57-9.42s-9.17,3.68-9.17,9.42v21.42c0,2.06-1.11,3.34-3.17,3.34h-4.97c-2.06,0-3.25-1.29-3.25-3.34v-21.42
				c0-5.74-3.17-9.42-8.57-9.42c-5.4,0-9.17,3.68-9.17,9.42v21.42c0,2.06-1.11,3.34-3.17,3.34h-4.97c-2.06,0-3.25-1.29-3.25-3.34
				v-36.66c0-2.06,1.2-3.26,3.25-3.26h3.26c2.06,0,3.25,1.2,3.25,3.26v2.91c2.91-4.03,7.37-6.85,13.62-6.85
				c6.25,0,11.14,2.57,14.05,6.94c3.08-4.11,8.14-6.94,14.65-6.94C444.44,834.94,451.38,842.31,451.38,853.28z"/>
			<path class="st5" d="M506.37,857.47c0,12.51-8.99,22.53-21.59,22.53c-4.97,0-9.34-1.63-12.76-4.28v16.19
				c0,2.06-1.11,3.26-3.17,3.26h-4.97c-2.06,0-3.26-1.2-3.26-3.26v-53.02c0-2.06,1.2-3.26,3.26-3.26h3.17c2.06,0,3.26,1.2,3.26,3.26
				v1.8c3.77-3.51,8.74-5.74,14.48-5.74C497.38,834.94,506.37,844.88,506.37,857.47z M494.98,857.47c0-7.02-4.71-12.68-11.91-12.68
				c-6.42,0-11.74,4.54-11.74,12.68c0,8.05,5.23,12.59,11.74,12.59C490.27,870.07,494.98,864.5,494.98,857.47z"/>
			<path class="st5" d="M541.75,839.14l-1.11,4.28c-0.6,2.14-1.97,2.4-3.43,1.97c-1.2-0.43-2.57-0.69-3.77-0.69
				c-5.65,0-8.82,4.28-8.82,10.45v20.39c0,2.06-1.11,3.34-3.17,3.34h-4.97c-2.06,0-3.25-1.29-3.25-3.34v-36.66
				c0-2.06,1.2-3.26,3.25-3.26h3.26c2.06,0,3.25,1.2,3.25,3.26v2.66c2.74-4.11,6.6-6.6,11.48-6.6c2.14,0,3.68,0.26,5.4,0.77
				C541.15,836.14,542.35,836.83,541.75,839.14z"/>
			<path class="st5" d="M566,871.35c3.34,0,7.11-0.94,10.88-3.85c1.54-1.2,2.74-1.46,4.11,0l2.06,2.06c1.63,1.63,0.94,2.91,0,3.94
				c-4.37,4.45-11.99,6.51-18.08,6.51c-12.85,0-23.3-8.82-23.3-22.53c0-12.94,9.51-22.53,22.44-22.53c6.51,0,11.99,2.31,15.68,6
				c4.03,3.94,6.25,9.59,6.25,15.59c0,2.4-0.94,3.51-3.51,3.51h-29.64C553.58,867.33,559.4,871.35,566,871.35z M552.98,853.02h21.93
				c-0.43-2.66-1.46-4.88-3.08-6.51c-1.88-2.06-4.63-3.17-7.88-3.17C558.03,843.34,553.83,847.11,552.98,853.02z"/>
			<path class="st5" d="M590.41,873.49c-1.54-1.46-1.97-2.91-0.17-4.8l1.46-1.63c1.63-1.8,3.17-1.63,4.8-0.26
				c2.91,2.57,6.68,4.37,10.79,4.37c3.68,0,6.08-1.63,6.08-4.11c0-3.34-3.6-4.54-7.45-6.08c-7.02-2.4-14.48-5.05-14.48-13.28
				c0-7.8,6.42-12.76,16.28-12.76c5.48,0,11.22,1.88,14.56,5.05c1.54,1.37,1.97,2.74,0.17,4.88l-1.2,1.54
				c-1.29,1.46-3,1.71-4.71,0.43c-2.83-2.31-5.4-3.34-8.82-3.34c-3.34,0-5.4,1.46-5.4,3.6c0,2.74,3.77,3.85,8.82,5.82
				c7.2,2.91,13.11,6,13.11,13.96c0,8.14-6.85,13.11-16.88,13.11C600.69,880,594.01,877.35,590.41,873.49z"/>
			<path class="st5" d="M668.45,852.93v22.62c0,2.14-1.11,3.34-3.17,3.34h-2.74c-2.06,0-3.26-1.29-3.26-3.34v-1.46
				c-3.68,3.6-8.65,5.91-14.13,5.91c-10.02,0-16.79-5.57-16.79-13.79c0-8.74,7.37-14.56,18.33-14.56c4.03,0,7.79,0.94,11.14,2.31
				v-2.31c0-4.97-3.6-8.05-9.51-8.05c-4.11,0-7.97,1.28-10.96,3.34c-1.71,1.03-3.17,0.69-4.28-1.2l-0.77-1.37
				c-1.29-2.23-0.6-3.77,0.94-4.71c4.97-3.34,10.54-4.71,15.85-4.71C659.89,834.94,668.45,840.26,668.45,852.93z M658.09,864.58
				v-3.17c-2.14-1.03-5.91-2.48-9.85-2.48c-5.4,0-9,2.74-9,6.85c0,3.85,3.34,6.42,8.4,6.42
				C653.21,872.21,658.09,868.78,658.09,864.58z"/>
			<path class="st5" d="M675.65,873.49c-1.54-1.46-1.97-2.91-0.17-4.8l1.46-1.63c1.63-1.8,3.17-1.63,4.8-0.26
				c2.91,2.57,6.68,4.37,10.79,4.37c3.68,0,6.08-1.63,6.08-4.11c0-3.34-3.6-4.54-7.45-6.08c-7.02-2.4-14.48-5.05-14.48-13.28
				c0-7.8,6.42-12.76,16.28-12.76c5.48,0,11.22,1.88,14.56,5.05c1.54,1.37,1.97,2.74,0.17,4.88l-1.2,1.54
				c-1.29,1.46-3,1.71-4.71,0.43c-2.83-2.31-5.4-3.34-8.82-3.34c-3.34,0-5.4,1.46-5.4,3.6c0,2.74,3.77,3.85,8.82,5.82
				c7.2,2.91,13.11,6,13.11,13.96c0,8.14-6.85,13.11-16.88,13.11C685.93,880,679.25,877.35,675.65,873.49z"/>
			<path class="st5" d="M750.61,836.74c0,7.71-6.6,12.59-10.36,16.28c-2.48,2.31-3.17,4.2-3.17,6.17v0.77c0,1.97-1.2,3-3.34,3h-3.43
				c-2.14,0-3.34-1.03-3.34-3v-0.69c0-3.85,1.71-6.77,4.8-9.77c3-3,8.22-6.42,8.22-11.14c0-4.11-3.43-6.94-8.82-6.94
				c-3.68,0-7.71,2.57-9.17,6.17c-1.03,1.88-2.31,2.57-4.45,1.71l-2.57-1.03c-2.06-0.77-2.31-2.48-1.54-4.37
				c2.4-6.6,9.76-11.74,18.59-11.74C742.98,822.18,750.61,828.18,750.61,836.74z M738.7,873.24c0,3.6-3.08,6.77-6.85,6.77
				c-3.68,0-6.77-3.17-6.77-6.77c0-3.68,3.08-6.77,6.77-6.77C735.62,866.47,738.7,869.55,738.7,873.24z"/>
		</g>
		<path class="st5" d="M868.95,619.11l-654.07-0.44c9.61-5.67,19.34-11.33,29.06-17c6.32-3.74,13.14-8.08,12.06-12.9
			c-1.91-9.42-29.43-12.27-35.47-21.2c-10.37-15.45,50.82-26.52,38.99-41.67c-11.47-14.73-50.67-10.96-35.91-31.7
			c8.17-11.52,22.4-19.11-0.01-29.33c-1.57-0.73-3.27-1.45-4.97-1.99l642.66,0.43c-10.93,2.71-19.32,6.62-19.58,11.93
			c-0.52,8.75,24.47,10.64,23.7,19.69c-0.76,8.81-22,11.09-33.91,15.18c-52.12,17.83,29.28,21.2,33.46,36.65
			c2.03,7.42-13.27,12.72-21.06,19.11c-14.73,12-2.29,27.39,10.28,39.95C858.55,610.35,863.27,614.94,868.95,619.11z"/>
		<g>
			<path class="st17" d="M350.09,597.08c-5.67,0-8.51-2.83-8.51-8.51v-91.85c0-5.67,2.83-8.51,8.51-8.51h16.28
				c5.72,0,8.59,2.84,8.59,8.51v32.55h36.15v-32.55c0-5.67,2.83-8.51,8.51-8.51h16.28c5.83,0,8.75,2.84,8.75,8.51v91.85
				c0,5.67-2.92,8.51-8.75,8.51h-16.28c-5.67,0-8.51-2.83-8.51-8.51v-32.22h-36.15v32.22c0,5.67-2.86,8.51-8.59,8.51H350.09z"/>
			<path class="st17" d="M505.08,599.28c-9.05,0-17.17-1.9-24.37-5.68s-12.81-9.04-16.85-15.74s-6.05-14.26-6.05-22.66
				c0-8.4,2.02-15.95,6.05-22.65s9.65-11.95,16.85-15.74c7.2-3.79,15.32-5.68,24.37-5.68c13.69,0,24.97,4.16,33.86,12.47
				c8.89,8.32,13.33,18.85,13.33,31.61s-4.45,23.3-13.33,31.61C530.05,595.13,518.76,599.28,505.08,599.28z M494.53,566.73
				c2.78,3.05,6.3,4.58,10.55,4.58s7.77-1.53,10.55-4.58c2.78-3.05,4.17-6.9,4.17-11.53c0-4.63-1.39-8.48-4.17-11.53
				c-2.78-3.05-6.3-4.58-10.55-4.58s-7.77,1.53-10.55,4.58c-2.78,3.05-4.17,6.9-4.17,11.53
				C490.36,559.84,491.75,563.68,494.53,566.73z"/>
			<path class="st17" d="M574.02,597.08c-2.67,0-4.73-0.71-6.17-2.13c-1.45-1.42-2.17-3.49-2.17-6.22v-99.7c0-2.67,0.67-4.62,2-5.85
				c1.34-1.23,3.45-2.11,6.34-2.66l16.28-3.03c2.62-0.49,4.66,0.07,6.13,1.68c1.47,1.61,2.21,3.83,2.21,6.67v102.89
				c0,2.73-0.71,4.8-2.13,6.22c-1.42,1.42-3.49,2.13-6.22,2.13H574.02z"/>
			<path class="st17" d="M654.01,511.12c4.2,0,8.18,0.34,11.94,1.02c3.76,0.68,7.47,1.9,11.12,3.64c3.65,1.75,6.8,3.95,9.45,6.62
				c2.64,2.67,4.78,6.13,6.42,10.39s2.45,9.11,2.45,14.56v41.38c0,5.56-2.83,8.34-8.51,8.34h-7.77c-2.56,0-4.61-0.68-6.13-2.04
				c-1.53-1.36-2.32-3.3-2.37-5.81c-7.58,6.71-16.28,10.06-26.09,10.06c-9.98,0-18.01-2.43-24.09-7.28
				c-6.08-4.85-9.12-11.26-9.12-19.22c0-8.61,3.31-15.57,9.94-20.86c6.63-5.29,15.36-7.93,26.21-7.93c5.45,0,11.26,1.01,17.42,3.03
				v-2.21c0-3.38-1.13-5.98-3.39-7.81c-2.26-1.83-5.52-2.74-9.77-2.74c-6.11,0-11.75,1.34-16.93,4.01
				c-4.85,2.45-8.42,1.23-10.71-3.68l-2.21-4.5c-1.31-3-1.76-5.32-1.35-6.95c0.41-1.64,1.59-3.05,3.56-4.25
				c3.76-2.24,8.45-4.09,14.07-5.56C643.76,511.85,649.05,511.12,654.01,511.12z M653.19,579.66c3.6,0,6.6-0.89,9-2.66
				c2.4-1.77,3.6-3.39,3.6-4.87v-7.2c-4.53-1.91-8.72-2.86-12.59-2.86c-3.38,0-6.09,0.82-8.14,2.45c-2.04,1.64-3.07,3.79-3.07,6.46
				c0,2.56,1.04,4.65,3.11,6.26C647.17,578.85,649.87,579.66,653.19,579.66z"/>
			<path class="st17" d="M728.19,560.6c5.34,0,9.9,1.88,13.66,5.64c3.76,3.76,5.64,8.29,5.64,13.58c0,5.34-1.88,9.9-5.64,13.66
				c-3.76,3.76-8.32,5.64-13.66,5.64c-5.29,0-9.83-1.88-13.62-5.64c-3.79-3.76-5.68-8.31-5.68-13.66c0-5.29,1.89-9.81,5.68-13.58
				C718.36,562.48,722.9,560.6,728.19,560.6z M735.23,488.22c2.83,0,5.02,0.74,6.54,2.21c1.53,1.47,2.18,3.57,1.96,6.3l-4.17,47.11
				c-0.27,2.84-1.08,4.96-2.41,6.38c-1.34,1.42-3.37,2.13-6.09,2.13h-5.56c-2.73,0-4.76-0.71-6.09-2.13
				c-1.34-1.42-2.14-3.54-2.41-6.38l-4.17-47.11c-0.22-2.73,0.44-4.83,1.96-6.3c1.53-1.47,3.71-2.21,6.54-2.21H735.23z"/>
		</g>
	</g>
	<g>
		<path class="st18" d="M644.24,1148.91l-10.31-23.05c0-0.02-0.01-0.04-0.02-0.07c-1.4-3.03-2.71-5.41-2.52-9.34l0,0
			c0.92-19.6-2.13-33.69-9.8-59.86c-2.8-9.53-10.5-18.37-20.28-21.5v-73.11c0-10.78-8.77-19.54-19.55-19.54h-97.89
			c-10.78,0-19.54,8.76-19.54,19.54v180.85c0,10.78,8.76,19.54,19.54,19.54h80.58l6.99,16.9c1.51,3.61,5.65,5.33,9.27,3.84
			l59.76-24.75C644.17,1156.83,645.87,1152.55,644.24,1148.91L644.24,1148.91z M478.52,1142.83V961.98c0-2.95,2.39-5.35,5.35-5.35
			h97.89c2.96,0,5.36,2.4,5.36,5.35v72.8c-12.95,3.34-24.7,7.77-35.03,13.2l-9.75-28.62c-0.01-0.04-0.02-0.07-0.04-0.09
			c-3.59-10.16-15.01-15.25-24.97-11.12c-0.01,0.01-0.04,0.01-0.06,0.02c-9.33,3.9-13.92,14.37-10.45,23.86l20.44,55.93l-2.17-1.46
			c-7.58-5.13-17.61-3.99-23.87,2.7c-6.61,7.11-6.59,18.21,0.04,25.27c14.47,15.4,31.7,27.69,47.12,33.72h-64.53
			C480.91,1148.19,478.52,1145.79,478.52,1142.83L478.52,1142.83z M581.85,1167.28c-6.13-14.78-6.05-14.6-6.27-15.08
			c-3.38-7.58-9.86-13.31-17.88-15.77c-14.37-4.41-31.6-16.24-46.07-31.67c-1.54-1.64-1.55-4.23-0.01-5.87
			c1.45-1.56,3.79-1.82,5.54-0.63l20.32,13.73c5.7,3.85,12.99-1.87,10.63-8.31l-27.95-76.5c-0.78-2.15,0.03-4.76,2.61-5.91
			c2.46-1.01,5.24,0.24,6.15,2.72l11.57,33.99c0.04,0.15,0.11,0.28,0.16,0.43c2.03,4.89,7.6,7.16,12.45,5.17
			c2.03-0.84,14.07-9.06,37.94-15.15c7.42-1.91,14.75,4.75,16.92,12.17c7.2,24.54,10.07,37.63,9.23,55.17l0,0
			c-0.35,7.6,2.31,12.66,3.79,15.9l7.32,16.37L581.85,1167.28z"/>
	</g>
	<g>
		<path d="M293.92,1291.1v-43.98h-15.07c-1.07,0-1.67-0.53-1.67-1.52v-0.76c0-0.99,0.61-1.52,1.67-1.52h34.55
			c1.07,0,1.67,0.53,1.67,1.52v0.76c0,0.99-0.61,1.52-1.67,1.52h-15.22v43.98c0,0.99-0.53,1.67-1.6,1.67h-1.07
			C294.53,1292.78,293.92,1292.09,293.92,1291.1z"/>
		<path d="M312.19,1273.75c0-11.26,8.6-19.94,20.17-19.94c11.57,0,20.17,8.67,20.17,19.94c0,11.26-8.6,19.94-20.17,19.94
			C320.79,1293.69,312.19,1285.02,312.19,1273.75z M348.26,1273.75c0-9.21-6.7-16.13-15.9-16.13c-9.21,0-15.9,6.92-15.9,16.13
			c0,9.21,6.62,16.13,15.9,16.13C341.56,1289.89,348.26,1282.96,348.26,1273.75z"/>
		<path d="M357.77,1273.75c0-11.26,8.45-19.94,20.01-19.94c5.25,0,10.65,1.67,15.07,6.47c0.61,0.61,0.99,1.45,0.08,2.36l-0.38,0.38
			c-0.68,0.61-1.52,0.91-2.51-0.08c-4.11-4.26-8.22-5.33-12.25-5.33c-9.21,0-15.75,6.92-15.75,16.21c0,9.06,6.24,16.06,15.75,16.06
			c4.03,0,8.14-1.07,12.25-5.33c0.99-0.99,1.83-0.68,2.51-0.08l0.38,0.38c0.91,0.91,0.53,1.75-0.08,2.36
			c-4.41,4.79-9.82,6.47-15.07,6.47C366.22,1293.69,357.77,1285.02,357.77,1273.75z"/>
		<path d="M430.29,1268.81v22.3c0,1.14-0.53,1.67-1.52,1.67h-0.99c-0.99,0-1.52-0.68-1.52-1.67v-4.03
			c-3.12,4.19-8.29,6.62-13.77,6.62c-8.75,0-14.69-4.87-14.69-12.17c0-7.46,6.39-12.48,15.83-12.48c4.95,0,9.21,1.37,12.63,3.2
			v-4.26c0-6.16-4.57-10.35-11.57-10.35c-4.11,0-8.45,1.52-12.4,4.72c-0.91,0.76-1.6,0.46-2.21-0.23l-0.3-0.38
			c-0.76-0.91-0.38-1.9,0.46-2.59c4.95-3.81,9.44-5.33,14.61-5.33C424.66,1253.82,430.29,1259.52,430.29,1268.81z M426.26,1279
			v-2.89c-2.74-1.37-7.53-3.35-12.56-3.35c-7,0-11.64,3.5-11.64,8.83c0,4.95,4.34,8.29,10.65,8.29
			C419.49,1289.89,426.26,1285.85,426.26,1279z M407.92,1247.96c-0.61-0.76-0.23-1.6,0.61-2.28l9.66-7.84
			c1.29-0.99,2.21-0.91,2.82-0.08l0.53,0.53c0.91,1.22,0.61,1.98-0.53,2.74l-10.42,7c-0.99,0.68-1.75,0.99-2.36,0.23L407.92,1247.96
			z"/>
		<path d="M458.83,1291.1v-50.6c0-0.84,0.46-1.37,1.45-1.67l0.99-0.23c1.22-0.38,1.75,0.3,1.75,1.45v51.06
			c0,0.99-0.61,1.67-1.52,1.67h-1.14C459.44,1292.78,458.83,1292.09,458.83,1291.1z"/>
		<path d="M503.81,1268.81v22.3c0,1.14-0.53,1.67-1.52,1.67h-0.99c-0.99,0-1.52-0.68-1.52-1.67v-4.03
			c-3.12,4.19-8.29,6.62-13.77,6.62c-8.75,0-14.69-4.87-14.69-12.17c0-7.46,6.39-12.48,15.83-12.48c4.95,0,9.21,1.37,12.63,3.2
			v-4.26c0-6.16-4.57-10.35-11.57-10.35c-4.11,0-8.45,1.52-12.4,4.72c-0.91,0.76-1.6,0.46-2.21-0.23l-0.3-0.38
			c-0.76-0.91-0.38-1.9,0.46-2.59c4.95-3.81,9.44-5.33,14.61-5.33C498.18,1253.82,503.81,1259.52,503.81,1268.81z M499.78,1279
			v-2.89c-2.74-1.37-7.53-3.35-12.56-3.35c-7,0-11.64,3.5-11.64,8.83c0,4.95,4.34,8.29,10.65,8.29
			C493,1289.89,499.78,1285.85,499.78,1279z"/>
		<path d="M570.62,1273.75c0,11.11-7.91,19.94-19.18,19.94c-6.54,0-11.79-2.97-15.14-7.46v19.1c0,0.99-0.53,1.67-1.52,1.67h-1.07
			c-0.99,0-1.52-0.68-1.52-1.67v-49.23c0-0.99,0.53-1.6,1.52-1.6h1.07c0.99,0,1.52,0.61,1.52,1.6v5.02c3.42-4.49,8.67-7.3,15.14-7.3
			C562.71,1253.82,570.62,1262.57,570.62,1273.75z M566.36,1273.75c0-8.9-6.09-16.13-15.29-16.13c-8.37,0-15.14,5.94-15.14,16.13
			c0,10.2,6.7,16.13,15.14,16.13C560.27,1289.89,566.36,1282.66,566.36,1273.75z"/>
		<path d="M608.37,1268.81v22.3c0,1.14-0.53,1.67-1.52,1.67h-0.99c-0.99,0-1.52-0.68-1.52-1.67v-4.03
			c-3.12,4.19-8.29,6.62-13.77,6.62c-8.75,0-14.69-4.87-14.69-12.17c0-7.46,6.39-12.48,15.83-12.48c4.95,0,9.21,1.37,12.63,3.2
			v-4.26c0-6.16-4.57-10.35-11.57-10.35c-4.11,0-8.45,1.52-12.4,4.72c-0.91,0.76-1.6,0.46-2.21-0.23l-0.3-0.38
			c-0.76-0.91-0.38-1.9,0.46-2.59c4.95-3.81,9.44-5.33,14.61-5.33C602.74,1253.82,608.37,1259.52,608.37,1268.81z M604.34,1279
			v-2.89c-2.74-1.37-7.53-3.35-12.56-3.35c-7,0-11.64,3.5-11.64,8.83c0,4.95,4.34,8.29,10.65,8.29
			C597.56,1289.89,604.34,1285.85,604.34,1279z"/>
		<path d="M651.67,1269.34v21.76c0,0.99-0.53,1.67-1.52,1.67h-1.14c-0.91,0-1.52-0.68-1.52-1.67v-21.38
			c0-7.38-4.64-12.18-11.87-12.18c-7.38,0-12.56,5.02-12.56,12.33v21.23c0,0.99-0.61,1.67-1.52,1.67h-1.14
			c-0.91,0-1.52-0.68-1.52-1.67v-35c0-0.99,0.61-1.6,1.52-1.6h0.91c0.99,0,1.52,0.61,1.52,1.6v4.49c2.66-4.11,7.38-6.77,13.39-6.77
			C645.66,1253.82,651.67,1260.13,651.67,1269.34z"/>
		<path d="M680.14,1291.71c-1.98,1.29-3.96,1.98-6.62,1.98c-6.54,0-10.65-3.96-10.65-11.49V1258h-4.95c-0.99,0-1.6-0.46-1.6-1.45
			v-0.61c0-0.91,0.61-1.45,1.6-1.45h4.95v-11.57c0-0.76,0.46-1.37,1.52-1.67l0.91-0.23c1.22-0.3,1.75,0.3,1.75,1.45v12.02h10.58
			c0.91,0,1.6,0.53,1.6,1.45v0.61c0,0.99-0.69,1.45-1.6,1.45h-10.58v24.12c0,5.25,2.51,7.84,6.77,7.84c1.83,0,3.04-0.61,4.49-1.45
			c1.14-0.68,1.83-0.38,2.36,0.53l0.23,0.3C681.5,1290.42,680.74,1291.26,680.14,1291.71z"/>
		<path d="M715.22,1268.81v22.3c0,1.14-0.53,1.67-1.52,1.67h-0.99c-0.99,0-1.52-0.68-1.52-1.67v-4.03
			c-3.12,4.19-8.29,6.62-13.77,6.62c-8.75,0-14.69-4.87-14.69-12.17c0-7.46,6.39-12.48,15.83-12.48c4.95,0,9.21,1.37,12.63,3.2
			v-4.26c0-6.16-4.57-10.35-11.57-10.35c-4.11,0-8.45,1.52-12.4,4.72c-0.91,0.76-1.6,0.46-2.21-0.23l-0.3-0.38
			c-0.76-0.91-0.38-1.9,0.46-2.59c4.95-3.81,9.44-5.33,14.61-5.33C709.59,1253.82,715.22,1259.52,715.22,1268.81z M711.18,1279
			v-2.89c-2.74-1.37-7.53-3.35-12.56-3.35c-7,0-11.64,3.5-11.64,8.83c0,4.95,4.34,8.29,10.65,8.29
			C704.41,1289.89,711.18,1285.85,711.18,1279z"/>
		<path d="M725.95,1291.1v-50.6c0-0.84,0.46-1.37,1.45-1.67l0.99-0.23c1.22-0.38,1.75,0.3,1.75,1.45v51.06
			c0,0.99-0.61,1.67-1.52,1.67h-1.14C726.56,1292.78,725.95,1292.09,725.95,1291.1z"/>
		<path d="M741.55,1291.1v-50.6c0-0.84,0.46-1.37,1.45-1.67l0.99-0.23c1.22-0.38,1.75,0.3,1.75,1.45v51.06
			c0,0.99-0.61,1.67-1.52,1.67h-1.14C742.16,1292.78,741.55,1292.09,741.55,1291.1z"/>
		<path d="M786.52,1268.81v22.3c0,1.14-0.53,1.67-1.52,1.67h-0.99c-0.99,0-1.52-0.68-1.52-1.67v-4.03
			c-3.12,4.19-8.29,6.62-13.77,6.62c-8.75,0-14.69-4.87-14.69-12.17c0-7.46,6.39-12.48,15.83-12.48c4.95,0,9.21,1.37,12.63,3.2
			v-4.26c0-6.16-4.57-10.35-11.57-10.35c-4.11,0-8.45,1.52-12.4,4.72c-0.91,0.76-1.6,0.46-2.21-0.23l-0.3-0.38
			c-0.76-0.91-0.38-1.9,0.46-2.59c4.95-3.81,9.44-5.33,14.61-5.33C780.89,1253.82,786.52,1259.52,786.52,1268.81z M782.49,1279
			v-2.89c-2.74-1.37-7.53-3.35-12.56-3.35c-7,0-11.64,3.5-11.64,8.83c0,4.95,4.34,8.29,10.65,8.29
			C775.72,1289.89,782.49,1285.85,782.49,1279z"/>
		<path d="M275.31,1319.18l-19.1,42.99c-2.59,5.86-5.02,7.91-9.44,7.91c-1.98,0-3.65-0.46-4.95-1.29c-0.68-0.46-1.37-0.99-0.91-2.13
			l0.15-0.3c0.46-0.99,1.45-1.22,2.59-0.61c0.99,0.46,2.05,0.76,3.04,0.76c2.43,0,3.96-0.99,5.63-4.79l3.27-7.46l-15.22-35.08
			c-0.38-0.84,0.08-1.6,1.07-1.6h1.6c1.06,0,1.52,0.53,1.9,1.52l13.01,30.06l13.01-30.06c0.38-0.99,0.84-1.52,1.9-1.52h1.37
			C275.24,1317.58,275.69,1318.35,275.31,1319.18z"/>
		<path d="M295.25,1336.84c0-11.26,8.45-19.94,20.01-19.94c5.25,0,10.65,1.67,15.07,6.47c0.61,0.61,0.99,1.45,0.08,2.36l-0.38,0.38
			c-0.69,0.61-1.52,0.91-2.51-0.08c-4.11-4.26-8.22-5.33-12.25-5.33c-9.21,0-15.75,6.92-15.75,16.21c0,9.06,6.24,16.06,15.75,16.06
			c4.03,0,8.14-1.07,12.25-5.33c0.99-0.99,1.83-0.68,2.51-0.08l0.38,0.38c0.91,0.91,0.53,1.75-0.08,2.36
			c-4.41,4.79-9.82,6.47-15.07,6.47C303.7,1356.77,295.25,1348.1,295.25,1336.84z"/>
		<path d="M335.21,1336.84c0-11.26,8.6-19.94,20.17-19.94s20.17,8.67,20.17,19.94c0,11.26-8.6,19.94-20.17,19.94
			S335.21,1348.1,335.21,1336.84z M371.28,1336.84c0-9.21-6.7-16.13-15.9-16.13c-9.21,0-15.9,6.92-15.9,16.13
			c0,9.21,6.62,16.13,15.9,16.13C364.58,1352.97,371.28,1346.04,371.28,1336.84z"/>
		<path d="M443.65,1332.42v21.76c0,0.99-0.53,1.67-1.52,1.67h-1.14c-0.91,0-1.52-0.68-1.52-1.67v-21.38
			c0-7.38-4.19-12.18-11.26-12.18c-7.31,0-12.48,5.02-12.48,12.33v21.23c0,0.99-0.53,1.67-1.52,1.67h-1.07
			c-0.99,0-1.52-0.68-1.52-1.67v-21.38c0-7.38-4.19-12.18-11.34-12.18c-7.3,0-12.48,5.02-12.48,12.33v21.23
			c0,0.99-0.61,1.67-1.52,1.67h-1.14c-0.91,0-1.52-0.68-1.52-1.67v-35c0-0.99,0.61-1.6,1.52-1.6h0.91c0.99,0,1.52,0.61,1.52,1.6
			v4.57c2.66-4.19,7.38-6.85,13.39-6.85c6.62,0,11.34,3.27,13.47,8.52c2.51-5.1,7.69-8.52,14.46-8.52
			C438.09,1316.9,443.65,1323.22,443.65,1332.42z"/>
		<path d="M470.9,1352.97c4.26,0,9.21-1.67,13.09-5.55c0.99-0.84,1.83-0.69,2.51,0l0.46,0.38c0.84,0.84,0.46,1.75-0.08,2.36
			c-4.34,4.57-10.65,6.62-15.83,6.62c-10.35,0-19.79-7.38-19.79-19.86c0-11.41,7.91-20.01,18.95-20.01c5.86,0,10.58,2.36,13.7,6.24
			c3.12,3.5,4.79,8.14,4.79,12.94c0,1.22-0.76,2.05-2.05,2.05H455.6C456.13,1347.49,463.06,1352.97,470.9,1352.97z M455.6,1334.33
			h28.84c-0.38-3.27-1.45-6.09-3.2-8.29c-2.36-3.35-6.16-5.33-11.03-5.33C462.14,1320.7,456.44,1326.18,455.6,1334.33z"/>
		<path d="M529.34,1332.42v21.76c0,0.99-0.53,1.67-1.52,1.67h-1.14c-0.91,0-1.52-0.68-1.52-1.67v-21.38
			c0-7.38-4.64-12.18-11.87-12.18c-7.38,0-12.56,5.02-12.56,12.33v21.23c0,0.99-0.61,1.67-1.52,1.67h-1.14
			c-0.91,0-1.52-0.68-1.52-1.67v-35c0-0.99,0.61-1.6,1.52-1.6h0.91c0.99,0,1.52,0.61,1.52,1.6v4.49c2.66-4.11,7.38-6.77,13.39-6.77
			C523.33,1316.9,529.34,1323.22,529.34,1332.42z"/>
		<path d="M535.35,1354.26v-0.61c0-0.68,0.53-1.45,1.22-2.28l22.9-30.36h-21.38c-0.99,0-1.6-0.53-1.6-1.52v-0.46
			c0-0.91,0.61-1.45,1.6-1.45h25.04c0.91,0,1.6,0.61,1.6,1.6v0.53c0,0.76-0.53,1.45-1.14,2.36l-22.98,30.29h23.89
			c0.91,0,1.6,0.61,1.6,1.52v0.46c0,0.99-0.68,1.52-1.6,1.52h-27.55C536.04,1355.86,535.35,1355.18,535.35,1354.26z"/>
		<path d="M601.64,1331.89v22.3c0,1.14-0.53,1.67-1.52,1.67h-0.99c-0.99,0-1.52-0.68-1.52-1.67v-4.03
			c-3.12,4.19-8.29,6.62-13.77,6.62c-8.75,0-14.69-4.87-14.69-12.17c0-7.46,6.39-12.48,15.83-12.48c4.95,0,9.21,1.37,12.63,3.2
			v-4.26c0-6.16-4.57-10.35-11.57-10.35c-4.11,0-8.45,1.52-12.4,4.72c-0.91,0.76-1.6,0.46-2.21-0.23l-0.3-0.38
			c-0.76-0.91-0.38-1.9,0.46-2.59c4.95-3.81,9.44-5.33,14.61-5.33C596,1316.9,601.64,1322.61,601.64,1331.89z M597.6,1342.09v-2.89
			c-2.74-1.37-7.53-3.35-12.56-3.35c-7,0-11.64,3.5-11.64,8.83c0,4.95,4.34,8.29,10.65,8.29
			C590.83,1352.97,597.6,1348.94,597.6,1342.09z"/>
		<path d="M659.55,1331.89v22.3c0,1.14-0.53,1.67-1.52,1.67h-0.99c-0.99,0-1.52-0.68-1.52-1.67v-4.03
			c-3.12,4.19-8.29,6.62-13.77,6.62c-8.75,0-14.69-4.87-14.69-12.17c0-7.46,6.39-12.48,15.83-12.48c4.95,0,9.21,1.37,12.63,3.2
			v-4.26c0-6.16-4.57-10.35-11.57-10.35c-4.11,0-8.45,1.52-12.4,4.72c-0.91,0.76-1.6,0.46-2.21-0.23l-0.3-0.38
			c-0.76-0.91-0.38-1.9,0.46-2.59c4.95-3.81,9.44-5.33,14.61-5.33C653.92,1316.9,659.55,1322.61,659.55,1331.89z M655.52,1342.09
			v-2.89c-2.74-1.37-7.53-3.35-12.56-3.35c-7,0-11.64,3.5-11.64,8.83c0,4.95,4.34,8.29,10.65,8.29
			C648.74,1352.97,655.52,1348.94,655.52,1342.09z"/>
		<path d="M682.38,1369.18l-0.23-0.38c-0.53-0.91-0.23-1.9,0.84-2.44c3.2-1.75,4.95-3.88,4.95-8.67v-38.5c0-0.99,0.53-1.6,1.52-1.6
			h1.07c0.99,0,1.52,0.61,1.52,1.6v38.05c0,7.08-2.66,9.82-7.3,12.56C683.83,1370.32,682.84,1370.09,682.38,1369.18z
			 M686.19,1305.94c0-2.05,1.75-3.8,3.8-3.8c2.05,0,3.73,1.75,3.73,3.8s-1.67,3.8-3.73,3.8
			C687.94,1309.75,686.19,1308,686.19,1305.94z"/>
		<path d="M734.28,1319.18v35c0,0.99-0.61,1.67-1.52,1.67h-0.99c-0.99,0-1.52-0.68-1.52-1.67v-3.96c-2.59,4.03-7.08,6.54-13.01,6.54
			c-8.75,0-14.76-6.16-14.76-15.52v-22.07c0-0.99,0.53-1.6,1.52-1.6h1.06c0.99,0,1.52,0.61,1.52,1.6v22.07
			c0,7.08,4.64,11.79,11.26,11.79c7.46,0,12.25-5.1,12.25-12.4v-21.46c0-0.99,0.61-1.6,1.52-1.6h1.14
			C733.67,1317.58,734.28,1318.19,734.28,1319.18z"/>
		<path d="M779.1,1319.18v33.48c0,11.87-8.14,17.43-18.11,17.43c-7.38,0-12.78-2.74-17.2-8.22c-0.68-0.91-0.68-1.83,0.38-2.59
			l0.3-0.23c0.76-0.46,1.6-0.69,2.36,0.38c3.35,4.41,7.69,6.92,14.23,6.92c8.14,0,13.93-4.64,13.93-13.62v-7.08
			c-3.12,4.19-8.07,6.77-14.23,6.77c-10.58,0-18.26-7.76-18.26-17.81c0-9.97,7.69-17.73,18.34-17.73c6.24,0,11.26,2.66,14.31,6.92
			v-4.64c0-0.99,0.53-1.6,1.52-1.6h0.91C778.57,1317.58,779.1,1318.19,779.1,1319.18z M775.15,1334.71c0-8.07-5.86-14-14.23-14
			c-8.45,0-14.15,5.94-14.15,13.93c0,8.07,5.71,14,14.15,14C769.36,1348.63,775.15,1342.77,775.15,1334.71z"/>
		<path d="M819.66,1331.89v22.3c0,1.14-0.53,1.67-1.52,1.67h-0.99c-0.99,0-1.52-0.68-1.52-1.67v-4.03
			c-3.12,4.19-8.29,6.62-13.77,6.62c-8.75,0-14.69-4.87-14.69-12.17c0-7.46,6.39-12.48,15.83-12.48c4.95,0,9.21,1.37,12.63,3.2
			v-4.26c0-6.16-4.57-10.35-11.57-10.35c-4.11,0-8.45,1.52-12.4,4.72c-0.91,0.76-1.6,0.46-2.21-0.23l-0.3-0.38
			c-0.76-0.91-0.38-1.9,0.46-2.59c4.95-3.81,9.44-5.33,14.61-5.33C814.03,1316.9,819.66,1322.61,819.66,1331.89z M815.63,1342.09
			v-2.89c-2.74-1.37-7.53-3.35-12.56-3.35c-7,0-11.64,3.5-11.64,8.83c0,4.95,4.34,8.29,10.65,8.29
			C808.86,1352.97,815.63,1348.94,815.63,1342.09z"/>
		<path d="M849.42,1319.56l-0.15,0.61c-0.38,1.14-1.22,1.22-2.13,0.91c-1.07-0.3-1.9-0.46-2.82-0.46c-5.78,0-9.97,5.55-9.97,13.24
			v20.32c0,0.99-0.61,1.67-1.52,1.67h-1.14c-0.91,0-1.52-0.68-1.52-1.67v-35c0-0.99,0.61-1.6,1.52-1.6h0.91
			c0.99,0,1.52,0.61,1.52,1.6v4.87c2.05-4.41,5.71-7.15,10.58-7.15c1.52,0,2.51,0.15,3.8,0.53
			C849.27,1317.66,849.88,1318.27,849.42,1319.56z"/>
	</g>
</g>
</svg>
