<svg width="51" height="51" viewBox="0 0 51 51" fill="none" xmlns="http://www.w3.org/2000/svg">
<path fill-rule="evenodd" clip-rule="evenodd" d="M14.3076 2.40045C5.40641 6.54534 0 15.2222 0 25.3611C0 35.2082 4.93793 43.0553 14.2153 47.9505C19.9115 50.9569 30.5933 50.9798 36.1844 47.9991C40.8692 45.5019 45.6652 40.6275 48.2061 35.7829C50.7411 30.9491 50.7034 19.777 48.1357 14.5393C41.9114 1.84661 26.9934 -3.5072 14.3076 2.40045ZM21.986 18.5989L24.7701 21.2658L27.5542 18.5989C33.1184 13.2679 37.1878 16.7398 31.842 22.2554L28.7254 25.4713L31.71 28.3318C35.0171 31.5 35.4965 33.5526 33.1412 34.4568C32.1784 34.826 30.371 33.8742 28.3939 31.9576L25.2008 28.8628L22.0961 31.9665C16.6897 37.3729 13.2029 33.1814 18.5041 27.6489L21.1711 24.8648L18.5041 22.0807C13.318 16.6683 16.5736 13.4128 21.986 18.5989Z" fill="#FF4141"/>
</svg>
