<?xml version="1.0" encoding="utf-8"?>
<!-- Generator: Adobe Illustrator 24.0.1, SVG Export Plug-In . SVG Version: 6.00 Build 0)  -->
<svg version="1.1" id="Capa_1" xmlns="http://www.w3.org/2000/svg" xmlns:xlink="http://www.w3.org/1999/xlink" x="0px" y="0px"
	 viewBox="0 0 1700.79 1700.79" style="enable-background:new 0 0 1700.79 1700.79;" xml:space="preserve">
<style type="text/css">
	.st0{fill-rule:evenodd;clip-rule:evenodd;}
</style>
<g>
	<path d="M1366.52,527.14c10.04,9.42,19.84,19.07,29.21,29.14c15.31,16.43,29.7,33.71,43.13,51.74c7.37,9.9,14.46,20.02,21.23,30.37
		c11.43,17.47,21.96,35.56,31.55,54.2c5.48,10.63,10.67,21.43,15.52,32.41c10.29,23.3,19.12,47.36,26.43,72.07
		c2.23,7.53,4.35,15.11,6.29,22.76c9.51,37.54,15.5,76.47,17.58,116.41h1.6c0-6.06-0.08-12.1-0.24-18.13
		c-0.15-6.02-0.38-12.02-0.69-18c-1.43-27.84-4.55-55.25-9.18-82.14c-1.24-7.21-2.56-14.38-4.02-21.52
		c-5.4-26.36-12.33-52.16-20.64-77.35c-3.69-11.21-7.66-22.29-11.91-33.24c-8.49-21.92-18.05-43.31-28.65-64.1
		c-8.1-15.91-16.78-31.48-26.05-46.66c-8.38-13.73-17.23-27.15-26.51-40.24c-9.22-13.01-18.88-25.68-28.95-38.02
		c-0.6-0.74-1.23-1.46-1.84-2.2C1391.64,507.75,1380.07,518.87,1366.52,527.14"/>
	<path d="M385.73,710.6c25.1-53.01,57.74-101.82,96.52-145.15c31.83-35.57,67.8-67.44,107.18-94.84
		c35.05-24.39,72.77-45.27,112.67-62.09c-25.93,18.72-50.37,39.51-73.17,62.09c-63.15,62.52-113.49,138.98-146.68,224.61
		c-28.86,74.46-44.8,155.81-44.78,241h1.87c3.46-67.5,18.44-131.85,42.91-190.92c49.24-118.84,136.98-216.26,246.97-274.7
		c69.78-37.07,148.52-58.46,232.08-59.69c62.26-0.91,122.18,9.45,178,29.28v-48.58c21.57,7.17,42.56,15.55,62.99,24.94
		c4.68-25.99,18.77-48.74,38.7-64.69c-32.18-21.05-66.12-39.67-101.69-55.38c-81.57-36.04-171.29-57.27-265.67-60.28h-46.48
		c-168.67,5.37-322.46,68.97-441.42,171.17c-149.48,128.42-244,317.71-244,528.83h187.13C333.05,855.91,353.01,779.71,385.73,710.6"
		/>
	<path d="M916.22,495.67c-17.72,3.92-41.07,10.87-58.6,15.98l-1.15,0.4c9.29-2.69,21.97-4.54,31.45-5.84
		c21.13-5.67,42.7-9.85,64.65-12.44c9.82-2.95,23.21-5.11,33.23-6.65l-1.24,0.05C964,488.69,936.68,492.57,916.22,495.67"/>
	<path d="M1006.12,486.71c-3.86,0-7.71,0.05-11.56,0.15c-10.11,1-23.42,4.18-33.37,6.62c10.16,1.96,23.44,6.29,33.37,9.58
		c3.84-0.1,7.7-0.14,11.56-0.14c18.67,0,37.11,1.12,55.3,3.3c9.67-2.81,22.85-4.91,32.71-6.38c-9.61-3.83-22.82-7.27-32.71-9.75
		C1043.23,487.86,1024.79,486.71,1006.12,486.71"/>
	<path d="M1181.29,521.75c-25.31-9.09-59.47-19.52-85.28-26.08c-8.29-1.68-16.64-3.13-25.05-4.35l-1.21-0.17
		c9.9,1.96,22.83,6.37,32.49,9.72c21.43,4.63,42.43,10.77,62.94,18.35c9.29,1.7,21.42,5.7,30.48,8.75l-1.11-0.51
		C1190.15,525.49,1185.74,523.59,1181.29,521.75"/>
	<path d="M619.1,682.33c-6.87,8.93-15.41,21.54-21.79,31c6.21-6.35,15.1-13.85,21.79-19.4c14.96-17.7,30.74-34.39,47.27-49.96
		c7.28-10,17.57-22.65,25.32-32.09c-7.91,5.11-17.88,13.2-25.32,19.28C649.84,647.12,634.06,664.2,619.1,682.33"/>
	<path d="M751.43,563.49c-22.29,15.74-51.37,38.15-72.62,55.98c-1.76,1.6-3.51,3.22-5.26,4.85l-0.93,0.87
		c7.35-6.41,17.76-13.83,25.58-19.31c17.41-14.39,35.52-27.6,54.26-39.53c8.24-6.81,19.84-14.7,28.55-20.53l-1.07,0.59
		L751.43,563.49z"/>
	<path d="M698.21,607.01c-8,9.23-18.06,22.34-25.59,32.18c7.51-2.7,17.85-4.79,25.59-6.28c17.41-13.71,35.52-26.29,54.25-37.65
		c8.25-10.43,19.83-23.6,28.55-33.42c-8.65,0.83-20.05,3.59-28.55,5.72C733.74,579.46,715.63,592.65,698.21,607.01"/>
	<path d="M619.1,695.8c-6.8,11.87-15.37,28.12-21.79,40.31c6.33-3.13,15.17-5.93,21.79-7.95h0c14.96-16.44,30.74-31.94,47.27-46.4
		c7.34-12.86,17.6-29.58,25.32-42.1c-7.7,1.07-17.79,4.07-25.32,6.37C649.84,661.55,634.06,678.17,619.1,695.8"/>
	<path d="M1427.45,727.75l-0.75-1.09c6.24,9.48,13.97,22.7,19.75,32.62c12.71,20.5,24.51,41.92,35.31,64.15
		c0.87,1.64,1.77,3.42,2.69,5.25c-10.13-20.66-21.46-42.66-31.02-60.23L1427.45,727.75z"/>
	<path d="M1496.67,854.27c-1.69-3.67-3.51-7.52-5.38-11.45c2.11,4.47,4.14,8.86,5.92,12.74L1496.67,854.27z"/>
	<path d="M1484.45,828.69c2.36,4.81,4.66,9.55,6.84,14.13C1489.03,838.02,1486.68,833.15,1484.45,828.69"/>
	<path d="M1526.12,936.23c-7.31-24.54-15.71-48.42-25.13-71.55c-4.24-9.88-10.42-22.69-15.09-32.26
		c4.76,11.72,10.67,27.63,15.09,39.57c8.68,20.8,16.45,42.26,23.35,64.24H1526.12z"/>
	<path d="M752.47,729.14c8.36-15.88,19.89-36.73,28.55-52.36c-8.29-6.8-19.86-14.88-28.55-20.86
		c-18.73,10.17-36.84,21.43-54.26,33.71c-7.88,14.84-18,34.92-25.58,49.99c7.94,4.93,18.04,12.67,25.58,18.47
		C715.63,747.56,733.74,737.88,752.47,729.14"/>
	<path d="M626.17,936.23c12.85-7.16,26.24-13.99,40.2-20.41c7.51-17.65,17.68-41.08,25.32-58.65c-7.33-9.25-17.59-20.97-25.32-29.71
		c-16.53,10.19-32.31,21.11-47.27,32.69c-6.62,16.23-15.29,37.96-21.79,54.27c5.73,6.18,12.68,14.59,18.56,21.81H626.17z"/>
	<path d="M619.1,731.69c-6.73,14.01-15.34,32.95-21.79,47.17c6.59,0.25,15.3,2.12,21.79,3.55c14.96-14.44,30.74-28.06,47.27-40.77
		c7.4-15.1,17.63-34.95,25.32-49.82c-7.45-2.6-17.67-4.69-25.32-6.16C649.84,700.01,634.06,715.38,619.1,731.69"/>
	<path d="M666.37,820.61c7.46-16.67,17.66-38.73,25.32-55.26c-7.33-6.01-17.6-13.07-25.32-18.28
		c-16.53,12.55-32.31,25.99-47.27,40.26c-6.67,15.46-15.32,36.23-21.79,51.82c6.79,3.82,15.37,10.1,21.79,14.8
		C634.06,842.14,649.84,831,666.37,820.61"/>
	<path d="M698.21,636.05c-7.94,12.43-18.03,29.48-25.59,42.28c7.78,1.08,17.97,4.07,25.59,6.34c17.41-12.4,35.52-23.78,54.25-34.05
		c8.3-13.45,19.86-30.91,28.55-43.98c-8.4-3.18-19.92-6-28.55-8.01C733.74,609.92,715.63,622.43,698.21,636.05"/>
	<path d="M1481.76,824.14c-10.8-22.19-22.6-43.56-35.31-64.02c-5.59-7.05-13.67-15.65-19.75-22.04
		c6.17,12.1,13.94,28.58,19.75,40.95c12.71,19.53,24.51,39.92,35.31,61.1c4.98,6.69,10.98,16.33,15.45,23.56
		C1492.8,851.69,1486.51,835.94,1481.76,824.14"/>
	<path d="M1481.76,917.46c4.74,0.59,10.89,2.84,15.45,4.58c-4.51-14.12-10.76-32.84-15.45-46.87c-10.8-18.96-22.6-37.23-35.31-54.71
		c-5.88-0.96-13.83-0.72-19.75-0.49c6.05,15.07,13.88,35.31,19.75,50.49C1459.16,885.49,1470.96,901.18,1481.76,917.46"/>
	<path d="M1517.63,936.23c-5.14-13.73-10.66-27.25-16.65-40.46c-4.18-4.91-10.4-10.57-15.09-14.73
		c4.65,13.93,10.62,32.63,15.09,46.66c1.44,2.82,2.81,5.68,4.21,8.52H1517.63z"/>
	<path d="M1497.21,886.43c-4.46-13.39-10.73-31.09-15.45-44.35c-10.8-21.05-22.6-41.33-35.32-60.75
		c-5.65-4.06-13.71-8.26-19.75-11.33c6.1,13.93,13.91,32.73,19.75,46.84c12.71,17.66,24.51,36.11,35.32,55.27
		C1486.72,875.81,1492.74,881.89,1497.21,886.43"/>
	<path d="M1524.04,936.23c-6.82-21.57-14.49-42.63-23.05-63.07c-4.19-7.46-10.4-16.85-15.09-23.84
		c4.7,13.17,10.64,30.91,15.09,44.22c6.26,13.93,12.02,28.18,17.35,42.68H1524.04z"/>
	<path d="M1503.7,936.23c-0.91-1.8-1.78-3.63-2.71-5.42c-4.32-2.26-10.49-3.89-15.09-5.03c1.07,3.26,2.22,6.8,3.4,10.45H1503.7z"/>
	<path d="M1486.61,936.23c-1.7-5.18-3.36-10.21-4.85-14.74c-10.8-16.03-22.6-31.47-35.31-46.25c-6.13,2.43-13.93,7-19.75,10.41
		c5.81,15.1,13.36,35.12,19.18,50.58H1486.61z"/>
	<path d="M752.47,827.64c8.42-17.72,19.92-41.15,28.55-58.71c-8.29-10.2-19.85-23.16-28.55-32.82c-18.73,8.6-36.84,18.12-54.25,28.5
		c-7.82,16.56-17.98,38.83-25.58,55.54c7.96,8.63,18.04,20.87,25.58,30.05C715.63,841.99,733.74,834.45,752.47,827.64"/>
	<path d="M733.22,936.23c6.37-2.54,12.72-5.12,19.24-7.49c8.42-17.72,16.34-33.88,24.98-51.43l-24.98-40.1l-52.61,20.96
		c-7.82,16.56-15.81,37.75-23.41,54.46l13.29,23.6H733.22z"/>
	<polygon points="645.36,936.23 679.92,936.23 671.43,922.61 	"/>
	<polygon points="595.32,922.25 577.38,936.23 605.26,936.23 	"/>
	<path d="M1347.26,779.85c6.99-5.02,16.78-10.67,24.13-14.81c-7.06-15.16-16.81-35.12-24.13-50.08
		c-16.47-13.56-33.69-26.16-51.57-37.73c-8.45,4.58-19.25,11.94-27.32,17.46c8.39,15.67,19.22,36.85,27.32,52.75
		C1313.57,757.38,1330.79,768.21,1347.26,779.85"/>
	<path d="M1386.1,936.23h55.5c-5.96-15.78-14.02-36.72-20.08-52.44c-13.85-12.43-28.57-24.24-44.09-35.35
		c-7.44,7.34-16.81,17.95-23.84,25.89c7.23,17.09,16.72,39.97,23.84,57.13C1380.36,933.03,1383.23,934.63,1386.1,936.23"/>
	<path d="M1421.53,878.06c5.8-3.82,13.96-7.85,20.09-10.77c-5.91-15.33-14.01-35.63-20.09-50.85
		c-13.85-15.31-28.57-29.84-44.09-43.53c-7.39,3.71-16.8,9.92-23.84,14.57c7.28,16.27,16.74,38.13,23.84,54.53
		C1392.96,853.34,1407.68,865.38,1421.53,878.06"/>
	<path d="M1347.26,867.15c6.97-8.25,16.76-18.59,24.13-26.28c-7.12-16.54-16.84-38.43-24.13-54.84
		c-16.47-11.47-33.69-22.12-51.57-31.9c-8.49,8.39-19.26,20.4-27.33,29.41c8.33,17.41,19.19,40.81,27.33,58.37h0
		C1313.57,849.64,1330.79,858.08,1347.26,867.15"/>
	<path d="M1370.13,936.23l-25.34-62.37l-47.33-24.81l-27.22,37.17c8.24,17.21,18.82,32.7,26.92,50.01H1370.13z"/>
	<path d="M1421.53,731.78c-13.85-18.92-28.57-36.89-44.09-53.81c-6.93-3.57-16.6-6.94-23.84-9.39c7.4,12.67,16.8,29.97,23.84,42.96
		c15.52,15.78,30.24,32.54,44.09,50.18c6.26,2.62,14.19,7.49,20.09,11.16C1435.82,760.38,1427.66,744.03,1421.53,731.78"/>
	<path d="M1421.53,811.88c6-0.74,14.07-0.27,20.09,0.17c-5.85-14.23-13.98-33-20.09-47.07c-13.85-17.5-28.57-34.13-44.09-49.78
		c-7.18-0.02-16.72,1.52-23.84,2.71c7.34,14.83,16.77,34.86,23.84,49.89C1392.96,781.66,1407.68,796.38,1421.53,811.88"/>
	<path d="M1333.44,619.46c-18.74-16.01-44.49-35.96-64.06-50.34l-1.03-0.68c8.53,6.22,19.29,15.74,27.32,22.89
		c17.89,13.56,35.1,28.34,51.57,44.24c7.57,5.91,17.05,14.93,24.13,21.71l-0.87-0.95C1358.6,643.41,1346.23,631.1,1333.44,619.46"/>
	<path d="M1347.26,710.26c7.15-1.66,16.87-2.44,24.13-2.92c-7-13.15-16.78-30.31-24.13-43.15c-16.47-15.06-33.69-29.05-51.57-41.89
		c-8.27,0.58-19.18,2.96-27.32,4.79c8.45,13.27,19.24,31.44,27.32,45.07C1313.57,683.83,1330.79,696.56,1347.26,710.26"/>
	<path d="M1377.44,664c-6.81-7.05-16.53-15.47-23.84-21.7c7.47,9.76,16.83,23.46,23.84,33.74c15.52,16.99,30.24,35.03,44.09,54.02
		c6.36,6.08,14.22,15.15,20.09,21.96c-5.72-10.08-13.92-23.02-20.09-32.69C1407.68,699.87,1392.96,681.4,1377.44,664"/>
	<path d="M1295.68,592.5c-8-3.4-19.05-6.43-27.32-8.61c8.51,10.16,19.27,24.45,27.32,35.17c17.89,12.92,35.1,26.99,51.57,42.14
		c7.41,1.98,16.99,6.12,24.13,9.27c-6.94-10.47-16.75-23.84-24.13-33.82C1330.79,620.78,1313.57,606.03,1295.68,592.5"/>
	<path d="M1203.38,549.18c-9.14,0.87-21.2,3.71-30.21,5.88c9.38,10.49,21.29,25.29,30.21,36.4c19.89,8.54,39.24,18.33,57.96,29.28
		c8.15-2.27,19.26-3.81,27.57-4.87c-7.96-10.94-19.15-24.88-27.57-35.28C1242.62,568.83,1223.28,558.33,1203.38,549.18"/>
	<path d="M1173.18,522.88c9.38,6.49,21.3,16.41,30.21,23.86c19.89,9.19,39.24,19.73,57.96,31.52c8.42,1.71,19.38,5.61,27.57,8.58
		c-7.93-7.47-19.14-16.37-27.57-22.97c-18.72-12.08-38.06-22.87-57.96-32.29C1194.52,528.09,1182.31,525.06,1173.18,522.88"/>
	<path d="M1102.24,502.22c-9.84,0.97-22.8,4.02-32.49,6.35c10.06,6.61,22.89,16.72,32.49,24.33c21.43,4.41,42.43,10.26,62.94,17.47
		c9.01-2.62,21.29-4.57,30.48-5.92c-8.81-7.78-21.18-17.05-30.48-23.92C1144.67,512.97,1123.67,506.84,1102.24,502.22"/>
	<path d="M788.61,541.74c-8.97,5.46-20.35,14.12-28.86,20.63c8.51-2.59,20.15-4.42,28.86-5.71c19.48-10.09,39.54-18.87,60.1-26.24
		c9.04-7.07,21.7-15.27,31.2-21.34c-9.44,0.79-21.9,3.61-31.2,5.79C828.15,522.42,808.09,531.41,788.61,541.74"/>
	<path d="M1261.34,776.76c8-9.27,19.16-20.94,27.57-29.63c-8.08-16.05-19.21-37.18-27.57-53.01c-18.72-9.51-38.06-18-57.96-25.4
		c-9.35,9.12-21.28,22.13-30.21,31.89c9.27,16.36,21.24,38.5,30.21,55.12C1223.28,761.86,1242.62,768.89,1261.34,776.76"/>
	<path d="M1006.12,726.49c18.67,0,37.11,0.75,55.3,2.21c9.57-13.72,22.78-31.52,32.71-44.84c-9.54-14.61-22.77-33.58-32.71-47.78
		c-18.19-1.76-36.64-2.66-55.3-2.66c-3.86,0-7.71,0.04-11.56,0.12c-10.31,13.36-23.5,31.83-33.37,45.7
		c10.25,13.94,23.47,33.03,33.37,47.36C998.4,726.52,1002.26,726.49,1006.12,726.49"/>
	<path d="M1165.18,800.76c8.9-13.25,21.22-30.46,30.48-43.33c-8.94-16.75-21.24-38.78-30.48-55.29
		c-20.51-5.46-41.51-9.89-62.94-13.23c-10,13.14-22.85,31.2-32.48,44.76c9.97,16.79,22.84,39.54,32.48,56.62
		C1123.67,792.93,1144.67,796.44,1165.18,800.76"/>
	<path d="M1164.62,808l-62.19-9.11l-31.2,52.51l27.23,51.86c21.95,1.48,43.52,3.87,64.65,7.1c9.32-13.97,19.95-29.91,29.63-43.51
		L1164.62,808z"/>
	<polygon points="1163.45,920.89 1101.12,913.8 1087.8,936.23 1170.5,936.23 	"/>
	<path d="M1006.12,846.99c18.67,0,37.11,0.55,55.3,1.61c9.63-16.57,22.81-38.35,32.71-54.66c-9.6-17.18-22.79-39.73-32.71-56.62
		c-18.19-1.43-36.64-2.16-55.3-2.16c-3.86,0-7.71,0.03-11.56,0.09c-10.26,16.3-23.47,38.46-33.37,55.1
		c10.19,16.85,23.44,39.62,33.37,56.71C998.4,847.01,1002.26,846.99,1006.12,846.99"/>
	<path d="M1078.54,936.23c4.3-8.18,8.62-16.19,12.84-23.14c-9.6-17.18-20.04-39.4-29.96-56.29c0,0-50.86-2-69.52-2l-28.05,55.8
		c4.7,7.77,9.49,16.66,14.26,25.64H1078.54z"/>
	<path d="M1261.34,883.75c8.04-12.46,19.18-28.63,27.57-40.72c-8.14-17.67-19.23-41.05-27.57-58.58
		c-18.72-7.72-38.06-14.62-57.96-20.63c-9.32,12.65-21.26,30.05-30.21,43.11c9.21,18.31,21.22,42.95,30.21,61.44
		C1223.28,872.85,1242.62,878,1261.34,883.75"/>
	<path d="M1284.88,936.23l-21.72-43.31c0,0-40.87-10.64-60.76-16.65c-9.32,12.65-21.26,30.05-30.21,43.11
		c2.61,5.2,5.46,10.92,8.39,16.85H1284.88z"/>
	<path d="M1006.12,505.53c-3.86,0-7.71,0.05-11.56,0.14c-10.3,5.67-23.5,14.67-33.37,21.44c10.3,6.47,23.5,16.35,33.37,23.77
		c3.84-0.09,7.7-0.13,11.56-0.13c18.67,0,37.11,1.04,55.3,3.07c9.54-6.83,22.77-14.79,32.71-20.66
		c-9.49-7.93-22.75-17.35-32.71-24.33C1043.23,506.65,1024.79,505.53,1006.12,505.53"/>
	<path d="M1102.24,536.63c-10.01,5.49-22.87,14.14-32.49,20.64c10.07,10.63,22.89,25.66,32.49,36.95
		c21.43,3.99,42.43,9.28,62.94,15.8c8.88-6.46,21.21-13.96,30.48-19.49c-8.83-11.34-21.19-25.76-30.48-36.52
		C1144.67,546.83,1123.67,541.01,1102.24,536.63"/>
	<path d="M1165.18,694.63c8.86-9.99,21.2-22.58,30.48-31.97c-8.89-14.33-21.21-32.97-30.48-46.92
		c-20.51-6.46-41.51-11.7-62.94-15.65c-10.04,9.56-22.88,23.19-32.49,33.41c10.03,14,22.87,33.24,32.49,47.69
		C1123.67,684.58,1144.67,689.08,1165.18,694.63"/>
	<path d="M1006.12,555.68c-3.86,0-7.71,0.04-11.56,0.13c-10.34,9.81-23.51,23.86-33.37,34.41c10.3,10.5,23.49,25.31,33.37,36.43
		c3.84-0.08,7.7-0.12,11.56-0.12c18.67,0,37.11,0.91,55.3,2.7c9.53-10.48,22.76-23.69,32.71-33.55
		c-9.5-11.51-22.75-26.08-32.71-36.96C1043.23,556.71,1024.79,555.68,1006.12,555.68"/>
	<path d="M1203.38,596.05c-9.32,5.14-21.27,13.28-30.21,19.39c9.33,13.78,21.27,32.67,30.21,46.85c19.89,7.5,39.24,16.1,57.96,25.73
		c8.01-5.89,19.18-12.68,27.57-17.69c-8.02-13.79-19.18-31.77-27.57-45.22C1242.62,614.23,1223.28,604.52,1203.38,596.05"/>
	<path d="M848.71,860.4c9.2-18.5,21.76-42.94,31.2-61.26c-9.13-14.04-21.73-32.32-31.2-46c-20.56,4.82-40.61,10.57-60.1,17.17
		c-8.81,17.55-20.27,41.18-28.86,58.91c8.9,12.94,20.31,30.68,28.86,43.99C808.09,868.28,828.15,864,848.71,860.4"/>
	<path d="M879.19,912.75c-9.13-14.04-29.96-43.07-29.96-43.07l-59.81,11.82c-7.77,15.49-18.8,37.57-27.18,54.73h104.87
		C871.36,927.95,875.51,919.88,879.19,912.75"/>
	<path d="M952.58,786.23c9.74-16.77,23.15-38.73,33.23-55.18c-9.74-14.43-23.15-33.21-33.23-47.27
		c-21.95,1.87-43.52,4.89-64.65,8.97c-9.66,16.11-22.12,37.98-31.45,54.39c9.68,13.59,22.13,32.21,31.45,46.19
		C909.06,790.1,930.63,787.72,952.58,786.23"/>
	<path d="M955.3,901.97l27.8-54.6l-29.12-50.41c-21.95,1.87-64.02,6.1-64.02,6.1l-30.19,57.08c9.68,13.59,22.13,32.22,31.45,46.19
		L955.3,901.97z"/>
	<polygon points="890.24,916.21 879.21,936.23 970.09,936.23 955.63,911.19 	"/>
	<path d="M887.93,507.55c-9.74,5.68-22.17,14.64-31.45,21.39c9.57,1.84,22.1,5.94,31.45,9.05c21.13-5.4,42.7-9.38,64.65-11.85
		c9.66-7.14,23.12-15.39,33.23-21.49c-9.79-3.71-23.19-7.08-33.23-9.51C930.63,497.73,909.06,501.9,887.93,507.55"/>
	<path d="M887.93,541.69c-9.76,9.86-22.17,23.9-31.45,34.46c9.71,6.17,22.15,15.59,31.45,22.67c21.13-4.88,42.7-8.48,64.65-10.72
		c9.64-10.81,23.11-24.36,33.23-34.47c-9.68-7.71-23.13-16.91-33.23-23.72C930.63,532.36,909.06,536.32,887.93,541.69"/>
	<path d="M848.71,744.84c9.14-16.47,21.74-38.08,31.2-54.27c-9.08-10.87-21.71-24.69-31.2-35c-20.56,5.94-40.61,13.01-60.1,21.14
		c-8.87,15.6-20.3,36.75-28.86,52.62c8.94,9.5,20.33,22.94,28.86,33.01C808.09,755.61,828.15,749.75,848.71,744.84"/>
	<path d="M788.61,605.19c-8.93,12.96-20.33,30.77-28.86,44.13c8.93,5.7,20.33,14.47,28.86,21.05c19.48-8.24,39.54-15.4,60.1-21.41
		c9.09-13.89,21.71-31.9,31.2-45.37c-9.08-7.34-21.71-16.1-31.2-22.59C828.15,587.8,808.09,595.89,788.61,605.19"/>
	<path d="M952.58,675.99c9.68-14.02,23.13-32.13,33.23-45.68c-9.69-11.26-23.13-25.59-33.23-36.27
		c-21.95,2.22-43.52,5.78-64.65,10.61c-9.72,13.31-22.15,31.64-31.45,45.4c9.72,10.1,22.15,24.35,31.45,35.05
		C909.06,680.95,930.63,677.89,952.58,675.99"/>
	<path d="M788.61,559.06c-8.98,9.61-20.35,23.28-28.86,33.54c8.78,1.58,20.27,5.27,28.86,8.06c19.48-9.37,39.54-17.53,60.1-24.37
		c9.04-10.74,21.69-24.27,31.2-34.35c-9.18-3.52-21.77-6.72-31.2-9.01C828.15,540.26,808.09,549,788.61,559.06"/>
	<path d="M558.84,768.45l-22.68,41.51l-0.62,1.23c4.9-9.34,12.02-21.31,17.38-30.24c12.07-21.12,25.08-41.37,38.96-60.63
		c6.12-9.61,14.87-21.83,21.46-30.94l-0.81,1.02C595.72,713.02,574.26,744.33,558.84,768.45"/>
	<path d="M501.86,889c-3.96,11.27-8.78,26.55-12.38,38c3.43-9.55,8.53-21.98,12.38-31.27c8.81-23.34,18.68-45.97,29.55-67.78
		c4.86-11.75,11.8-27.13,17.02-38.64c-5.43,8.79-12.06,21.06-17.02,30.27C520.54,841.92,510.67,865.09,501.86,889"/>
	<path d="M501.86,915.6c8.81-21.68,18.68-42.7,29.55-62.96c4.92-13.4,11.82-31.06,17.02-44.31c-5.45,5.82-12.08,14.47-17.02,20.96
		c-10.87,21.73-20.74,44.27-29.55,67.52c-3.61,11.68-8.01,27.06-11.53,39.41h0.6C494.23,929.45,498.48,921.66,501.86,915.6"/>
	<path d="M552.93,781.73c-5.47,11.44-12.29,27.03-17.38,38.72c4.88-6.65,12.01-14.77,17.38-20.79
		c12.07-20.12,25.08-39.4,38.96-57.75c6.19-12.25,14.9-28.22,21.46-40.18c-6.76,5.26-15.18,13.38-21.46,19.48
		C578.01,740.45,565,760.65,552.93,781.73"/>
	<path d="M552.93,835.5c12.07-18.2,25.08-35.64,38.96-52.24c6.25-14.21,14.94-32.93,21.46-46.95c-6.6,1.65-15.12,5.32-21.46,8.11
		c-13.88,18.25-26.89,37.42-38.96,57.42c-5.4,13.24-12.26,31.11-17.38,44.52C540.47,842.47,547.59,838.43,552.93,835.5"/>
	<path d="M531.41,891.77c4.97-14.39,11.85-33.44,17.02-47.72c-5.36,2.65-12.05,7.49-17.02,11.14
		c-10.87,20.1-20.74,40.95-29.55,62.46c-1.63,5.61-3.43,12.03-5.25,18.57h10.46C514.52,921.01,522.62,906.16,531.41,891.77"/>
	<path d="M548.43,894.42c-5.09-0.51-11.94,0.25-17.02,0.91c-8.21,13.27-15.84,26.92-22.88,40.9h25.33
		C538.51,922.7,544.08,906.82,548.43,894.42"/>
	<path d="M552.93,886.34c12.07-15.47,25.08-30.3,38.96-44.42c6.31-15.53,14.96-36.07,21.46-51.47c-6.34-1.73-14.99-2.63-21.46-3.22
		c-13.88,16.43-26.89,33.69-38.96,51.71c-5.35,14.32-12.23,33.55-17.38,47.98C540.7,885.92,547.71,886.14,552.93,886.34"/>
	<path d="M591.89,915.5c6.36-16.23,14.99-37.77,21.46-53.93c-6.19-4.87-14.91-10.4-21.46-14.45
		c-13.88,13.89-26.89,28.49-38.96,43.72c-4.85,13.49-11.02,31.12-16,45.38h30.62C575.34,929.13,583.44,922.2,591.89,915.5"/>
	<path d="M1360.54,470.61c0.63,0.51,1.2,1.04,1.87,1.52c5.28,3.78,10.86,6.94,17.75,4.28c0.95-0.37,2.12-1.11,2.46-1.96
		c0.05-0.13,0.11-0.27,0.17-0.4c0.46-1.15,0.96-2.3,1.45-3.44c2.49-5.81,5.16-11.61,6.44-17.68c5.71-27.03-0.89-51.21-19.15-72.15
		c-6.31-7.23-13.89-12.98-22.95-17.78c4.2,14.02,3.2,27.61,1.43,41.29c-1.38,10.71-2.89,21.45-3.34,32.21
		c-0.03,0.72-0.1,1.44-0.12,2.16C1346.22,451.33,1350.47,462.47,1360.54,470.61"/>
	<path d="M1292.53,470.61c-2.84-3.48-6.04-6.54-9.46-9.34c-3.87-3.19-8-6.08-12.21-8.88c-15.48-10.31-31.78-19.67-42.04-36.4
		c-0.37,1.14-0.68,1.86-0.84,2.62c-0.66,3.27-1.11,6.53-1.41,9.78c-1.14,12.33,0.35,24.48,5.07,36.27c0.83,2.08,1.82,3.99,2.76,5.95
		c11.15,23.22,29.77,38.22,55.71,44.88c0.64,0.16,1.48,0.29,2,0.01c4.14-2.17,7-5.43,8.21-9.97c3.43-12.8,0.75-24.28-7.53-34.6
		C1292.73,470.82,1292.62,470.72,1292.53,470.61"/>
	<path d="M1233.16,405.04c2.22,3.94,4.35,7.99,7.06,11.59c6.69,8.88,15.73,15.2,24.91,21.3c9.82,6.53,20.01,12.57,28.57,20.78
		c3.84,3.68,7.17,7.63,9.89,11.91c1.53,2.42,2.85,4.94,3.92,7.59c1.53,3.8,2.59,7.83,2.99,12.2c0.88,9.64-0.29,18.89-6.63,27.4
		c15.86,0.5,29.96-2.47,42.61-8.73c10.52-5.21,20.04-12.65,28.56-22.64c-11.22-1.18-19.28-6.87-26.01-14.54
		c-0.37-0.42-0.67-0.86-1.01-1.28c-8.13-9.91-11.17-21.73-10.52-34.25c0.14-2.74,0.37-5.48,0.62-8.22
		c0.88-9.44,2.28-18.85,3.4-28.27c1.62-13.66,2.12-27.2-3.86-40.13c-0.41-0.9-1.38-1.85-2.3-2.17c-12.57-4.34-25.52-5.51-38.58-3.25
		c-12.72,2.2-23.81,6.55-33.44,12.8c-12.67,8.24-22.72,19.88-29.87,35.2C1233.11,403.14,1232.8,404.38,1233.16,405.04"/>
	<path class="st0" d="M585.4,1117.65l73.93,73.07c4.88,4.81,3.05,15.69-8.03,15.74l-145.09,0.61c-10.31,0.04-13.37-10.79-7.74-16.35
		l73.92-73.07C575.98,1114.11,581.83,1114.11,585.4,1117.65 M740.98,1035.39v157.87c0,10.43,13.86,20.23,25.89,8.44l157.39-154.25
		c11.18-10.98,2.66-25.93-9.5-25.93H755.03C747.3,1021.52,740.98,1027.76,740.98,1035.39 M295.47,1193.91v-149.66
		c0-9.89,13.14-19.19,24.54-8l149.21,146.23c10.61,10.4,2.53,24.59-9,24.59H308.78C301.46,1207.07,295.47,1201.14,295.47,1193.91
		 M960.71,1112.08h-81.23c-5.37,0-10.4,6.97-4.34,13.01l79.36,79.11c5.66,5.62,13.35,1.34,13.35-4.77v-80.29
		C967.85,1115.26,964.64,1112.08,960.71,1112.08 M1199.38,1285.25h-148.87c-9.84,0-19.06-12.77-7.96-23.84l145.47-145
		c10.34-10.32,24.45-2.44,24.45,8.75v147.15C1212.47,1279.44,1206.58,1285.25,1199.38,1285.25 M1326.3,1114.69l76.39,75.5
		c5.04,4.98,3.14,16.22-8.31,16.25l-149.89,0.63c-10.66,0.04-13.83-11.14-8-16.88l76.38-75.5
		C1316.56,1111.04,1322.61,1111.04,1326.3,1114.69 M1073.67,1204.33l76.38-75.5c5.04-4.99,3.15-16.22-8.3-16.26l-149.9-0.62
		c-10.66-0.05-13.81,11.13-8,16.88l76.38,75.5C1063.93,1207.98,1069.98,1207.98,1073.67,1204.33"/>
	<path d="M315.2,1284.75v-2.59h-16.81v-26.31h-2.92v28.9H315.2z M641.34,1284.75h6.11l2.28-5.78h13.29l2.24,5.78h6.11l-11.31-28.9
		h-7.06L641.34,1284.75z M656.53,1261.75l4.99,12.79h-10.24L656.53,1261.75z M685.46,1284.75h6.02v-10.41h2.93
		c3.66,2.67,8.47,10.83,15,10.83c1.89,0,3.62-0.51,4.82-1.1l-0.6-4.72c-0.95,0.43-2.28,0.67-3.27,0.67c-3.06,0-5.89-3.18-8.64-5.82
		c4.68-0.72,8.25-4.17,8.25-8.96c0-7.1-5.89-9.4-11.65-9.4h-12.86V1284.75z M698.97,1261.03c2.75,0,4.73,1.49,4.73,4.34
		c0,2.69-1.98,4.3-4.73,4.3h-7.49v-8.64H698.97z M740.12,1267.67v5.14h7.71v5.31c-1.6,0.93-3.74,1.53-6.07,1.53
		c-5.58,0-9.72-3.41-9.72-9.31c0-5.99,4.13-9.4,9.46-9.4c3.44,0,6.16,1.07,8.43,2.94l2.79-4.55c-2.93-2.34-6.62-3.9-11.35-3.9
		c-8.64,0-15.57,5.52-15.57,14.92c0,9.31,6.92,14.83,15.57,14.83c4.47,0,9.75-1.82,12.47-3.95v-13.55H740.12z M793.35,1284.75v-5.23
		h-17.37v-6.96h14.24v-5.23h-14.24v-6.25h17.37v-5.23h-23.14v28.9H793.35z M831.76,1284.75H837v-28.9h-6.02v19.47l-16.42-19.47
		h-5.25v28.9h6.02v-19.42L831.76,1284.75z M876.6,1261.08v-5.23h-24.94v5.23h9.64v23.67h6.01v-23.67H876.6z M891.27,1284.75h6.02
		v-28.9h-6.02V1284.75z M937.42,1284.75h5.24v-28.9h-6.02v19.47l-16.42-19.47h-5.25v28.9h6.02v-19.42L937.42,1284.75z
		 M956.58,1284.75h6.11l2.28-5.78h13.29l2.24,5.78h6.11l-11.31-28.9h-7.05L956.58,1284.75z M971.77,1261.75l4.99,12.79h-10.24
		L971.77,1261.75z M326.35,1284.75h2.96l3.05-7.01h15.92l2.92,7.01h2.96l-11.91-28.9h-3.35L326.35,1284.75z M340.57,1258.79
		l6.92,16.7h-14.28L340.57,1258.79z M389.26,1284.75h2.92v-10.88h5.94c3.22,2.12,7.91,11.3,14.41,11.3c1.72,0,3.35-0.51,4.56-1.1
		l-0.39-2.38c-1.12,0.51-2.58,0.94-3.79,0.94c-4.21,0-8.03-5.78-10.96-8.76h0.51c5.15,0,9.68-3.45,9.68-8.93
		c0-6.46-5.03-9.1-10.27-9.1h-12.6V1284.75z M402.12,1258.44c3.78,0,7.01,2.08,7.01,6.59c0,4.12-3.23,6.46-7.01,6.46h-9.94v-13.05
		H402.12z M431.27,1284.75h2.92v-28.9h-2.92V1284.75z M451.01,1270.34c0,8.46,6.45,14.83,15,14.83c8.64,0,15.09-6.37,15.09-14.83
		c0-8.54-6.45-14.92-15.09-14.92C457.46,1255.42,451.01,1261.8,451.01,1270.34 M453.89,1270.34c0-7.01,5.17-12.16,12.13-12.16
		c7.1,0,12.21,5.14,12.21,12.16c0,6.93-5.12,12.11-12.21,12.11C459.06,1282.45,453.89,1277.27,453.89,1270.34 M513.92,1255.84v17.77
		c0,5.4-2.79,8.93-8.25,8.93c-5.46,0-7.91-3.36-8.3-8.72l-2.88,0.3c0.43,6.71,3.91,11.13,11.14,11.13c7.26,0,11.26-4.76,11.26-11.52
		v-17.89H513.92z M530.86,1284.75h2.96l3.05-7.01h15.92l2.93,7.01h2.96l-11.91-28.9h-3.35L530.86,1284.75z M545.09,1258.79
		l6.92,16.7h-14.28L545.09,1258.79z M592.4,1273.1h15.96v-2.42H592.4V1273.1z"/>
	<path d="M344,1384.74h-48.53v78.62h10.64v-32.96H344c8.75,0,15.62-2.08,20.61-6.13c4.99-4.05,7.53-9.63,7.53-16.75
		c0-7.12-2.44-12.7-7.42-16.75C359.73,1386.71,352.75,1384.74,344,1384.74 M356.84,1417.7c-3.21,2.41-7.64,3.61-13.41,3.61H306.1
		v-27.48h37.34c5.76,0,10.19,1.21,13.41,3.5c3.21,2.41,4.77,5.8,4.77,10.18C361.61,1411.9,360.06,1415.29,356.84,1417.7"/>
	<path d="M437.4,1384.74l-41.88,78.62h11.3l11.63-21.79h49.52l11.52,21.79h11.3l-41.77-78.62H437.4z M423.33,1432.37l19.94-37.34
		l19.83,37.34H423.33z"/>
	<path d="M603.37,1395.47c-8.09-7.12-18.94-10.73-32.35-10.73h-39.33v78.62h39.33c13.4,0,24.26-3.61,32.35-10.73
		c8.09-7.12,12.08-16.65,12.08-28.58C615.45,1412.12,611.46,1402.59,603.37,1395.47 M595.62,1446.06
		c-6.09,5.48-14.29,8.21-24.59,8.21h-28.92v-60.45h28.81c10.3,0,18.61,2.74,24.71,8.21c6.09,5.47,9.09,12.81,9.09,22.01
		C604.7,1433.25,601.71,1440.59,595.62,1446.06"/>
	<polygon points="659.77,1463.36 733.56,1463.36 733.56,1454.17 670.19,1454.17 670.19,1427.33 727.24,1427.33 727.24,1418.14 
		670.19,1418.14 670.19,1393.94 733.56,1393.94 733.56,1384.74 659.77,1384.74 	"/>
	<polygon points="789.74,1384.74 779.1,1384.74 779.1,1463.36 850.12,1463.36 850.12,1454.17 789.74,1454.17 	"/>
	<path d="M1028.61,1394.92c-8.75-7.56-19.72-11.39-33.12-11.39c-13.41,0-24.38,3.83-33.13,11.39c-8.75,7.66-13.07,17.41-13.07,29.13
		c0,11.72,4.32,21.47,13.07,29.02c8.75,7.66,19.72,11.5,33.13,11.5c13.41,0,24.38-3.83,33.12-11.5c8.75-7.55,13.08-17.3,13.08-29.02
		C1041.69,1412.33,1037.37,1402.59,1028.61,1394.92 M1021.08,1446.5c-6.54,5.8-15.07,8.65-25.59,8.65
		c-10.53,0-19.05-2.85-25.59-8.65c-6.54-5.8-9.86-13.25-9.86-22.45c0-9.2,3.32-16.64,9.86-22.45c6.54-5.8,15.07-8.65,25.59-8.65
		c10.53,0,19.05,2.85,25.59,8.65c6.54,5.8,9.75,13.25,9.75,22.45C1030.83,1433.25,1027.62,1440.7,1021.08,1446.5"/>
	<path d="M1134.54,1384.74h-48.53v78.62h10.64v-32.96h37.89c8.75,0,15.63-2.08,20.61-6.13c4.98-4.05,7.53-9.63,7.53-16.75
		c0-7.12-2.44-12.7-7.42-16.75C1150.27,1386.71,1143.29,1384.74,1134.54,1384.74 M1147.39,1417.7c-3.21,2.41-7.64,3.61-13.4,3.61
		h-37.34v-27.48h37.34c5.76,0,10.19,1.21,13.4,3.5c3.21,2.41,4.77,5.8,4.77,10.18C1152.16,1411.9,1150.61,1415.29,1147.39,1417.7"/>
	<polygon points="1205.79,1463.36 1279.57,1463.36 1279.57,1454.17 1216.2,1454.17 1216.2,1427.33 1273.26,1427.33 1273.26,1418.14 
		1216.2,1418.14 1216.2,1393.94 1279.57,1393.94 1279.57,1384.74 1205.79,1384.74 	"/>
	<polygon points="1394.7,1448.36 1336.42,1384.74 1325.12,1384.74 1325.12,1463.36 1335.31,1463.36 1335.31,1397.55 
		1395.47,1463.36 1404.89,1463.36 1404.89,1384.74 1394.7,1384.74 	"/>
</g>
</svg>
