<?xml version="1.0" encoding="UTF-8"?>
<!DOCTYPE svg PUBLIC "-//W3C//DTD SVG 1.1//EN" "http://www.w3.org/Graphics/SVG/1.1/DTD/svg11.dtd">
<!-- Creator: CorelDRAW 2018 (64 Bit) -->
<svg xmlns="http://www.w3.org/2000/svg" xml:space="preserve" width="254mm" height="451.61mm" version="1.1" style="shape-rendering:geometricPrecision; text-rendering:geometricPrecision; image-rendering:optimizeQuality; fill-rule:evenodd; clip-rule:evenodd"
viewBox="0 0 25400 45161"
 xmlns:xlink="http://www.w3.org/1999/xlink">
 <defs>
  <style type="text/css">
   <![CDATA[
    .fil3 {fill:#180C47;fill-rule:nonzero}
    .fil4 {fill:#3A3A3A;fill-rule:nonzero}
    .fil8 {fill:#3B848C;fill-rule:nonzero}
    .fil2 {fill:#7E8D38;fill-rule:nonzero}
    .fil5 {fill:#7E8E3A;fill-rule:nonzero}
    .fil6 {fill:#E03338;fill-rule:nonzero}
    .fil0 {fill:#E51A29;fill-rule:nonzero}
    .fil1 {fill:#EEA530;fill-rule:nonzero}
    .fil7 {fill:#F0A832;fill-rule:nonzero}
   ]]>
  </style>
   <clipPath id="id0">
    <rect x="-0.31" y="-0.66" width="25402.23" height="45160.45"/>
   </clipPath>
 </defs>
 <g id="Capa_x0020_1">
  <metadata id="CorelCorpID_0Corel-Layer"/>
  <g style="clip-path:url(#id0)">
   <image x="-0.31" y="-0.67" width="25402.25" height="45160.46" xlink:href="trivia padle 2_Images\trivia padle 2_ImgID1.png"/>
  </g>
  <polygon class="fil0" points="18144.77,5.53 25401,5.53 25401,345.68 18144.77,345.68 "/>
  <polygon class="fil1" points="12205.72,6.72 19466.94,6.72 19466.94,346.87 12205.72,346.87 "/>
  <polygon class="fil2" points="5508.61,6.72 12769.86,6.72 12769.86,346.87 5508.61,346.87 "/>
  <polygon class="fil3" points="0.05,6.72 7256.24,6.72 7256.24,346.87 0.05,346.87 "/>
  <polygon class="fil0" points="18144.77,44815.53 25401,44815.53 25401,45155.68 18144.77,45155.68 "/>
  <polygon class="fil1" points="12205.72,44816.72 19466.94,44816.72 19466.94,45156.87 12205.72,45156.87 "/>
  <polygon class="fil2" points="5508.61,44816.72 12769.86,44816.72 12769.86,45156.87 5508.61,45156.87 "/>
  <polygon class="fil3" points="0.05,44816.72 7256.24,44816.72 7256.24,45156.87 0.05,45156.87 "/>
  <path class="fil4" d="M11150.31 21618.91c-61.7,0 -109.12,-19.96 -142.47,-59.4 -32.97,-39.68 -49.67,-95.54 -49.67,-167.36l0 -1499.17c0,-73.77 17.8,-130.04 53.35,-168.66 35.39,-38.85 85.6,-58.16 150.24,-58.16 52.62,0 94.89,12.24 127.29,36.56 32.4,24.31 61.71,64.4 88.17,120.26l455.71 958.6 455.92 -958.6c27.78,-55.86 57.45,-95.95 89.12,-120.26 31.51,-24.32 74.3,-36.56 128.39,-36.56 60.18,0 107.08,19.31 141.16,58.16 33.92,38.62 50.78,94.89 50.78,168.66l0 1499.17c0,71.82 -15.96,127.68 -48.37,167.36 -32.4,39.44 -80.39,59.4 -143.57,59.4 -61.86,0 -109.28,-19.96 -142.26,-59.4 -33.34,-39.68 -49.83,-95.54 -49.83,-167.36l0 -831.97 -324.01 658.96c-21.53,39.68 -44.32,69.35 -68.21,89.07 -23.9,19.95 -55.93,29.72 -96.15,29.72 -38.5,0 -70,-9.77 -94.63,-29.72 -24.84,-19.72 -47.27,-49.39 -67.27,-89.07l-321.59 -648.13 0 821.14c0,71.82 -16.34,127.68 -48.74,167.36 -32.24,39.44 -80.18,59.4 -143.36,59.4z"/>
  <path class="fil4" d="M13221.38 21594.6c-148.19,0 -222.13,-85.6 -222.13,-256.49l0 -1390.98c0,-171.12 73.94,-256.48 222.13,-256.48l784.4 0c111.11,0 166.73,62.93 166.73,188.96 0,129.63 -55.62,194.38 -166.73,194.38l-599.34 0 0 361.98 548.56 0c111.17,0 166.57,63.99 166.57,191.67 0,127.92 -55.4,191.91 -166.57,191.91l-548.56 0 0 391.47 599.34 0c111.11,0 166.73,63.93 166.73,191.84 0,127.75 -55.62,191.74 -166.73,191.74l-784.4 0z"/>
  <path class="fil4" d="M14475.67 21616.26c-61.87,3.53 -109.29,-14.95 -142.47,-55.45 -32.98,-40.51 -49.63,-92.19 -49.63,-155.3 0,-48.62 11.45,-90.77 34.61,-126.91 23.16,-35.91 57.97,-55.87 104.29,-59.4l64.7 -5.42c57.03,-3.71 98.35,-19.31 123.72,-47.33 25.36,-27.84 38.33,-74.11 38.33,-138.92l0 -1110.24c0,-80.94 18.38,-143.05 55.4,-186.26 37.24,-43.21 89.49,-64.81 157.49,-64.81 67.8,0 120.2,21.6 157.28,64.81 37.02,43.21 55.56,105.32 55.56,186.26l0 1101.94c0,371.1 -171.93,568.18 -516.1,591.61l-83.18 5.42z"/>
  <path class="fil4" d="M16155.62 21208.43c120.25,0 214.88,-50.04 283.47,-149.94 68.53,-99.9 102.97,-239.06 102.97,-417.19 0,-178.43 -33.87,-316.94 -101.71,-415.96 -67.96,-99.07 -162.85,-148.52 -284.73,-148.52 -121.73,0 -216.72,49.45 -284.52,148.52 -67.85,99.02 -101.93,237.53 -101.93,415.96 0,178.13 34.08,317.29 101.93,417.19 67.8,99.9 162.79,149.94 284.52,149.94zm0 415.78c-165.05,0 -309.72,-40.74 -433.87,-122.74 -124.3,-82.06 -220.97,-196.68 -290.45,-344.55 -69.32,-147.47 -104.13,-319.42 -104.13,-515.62 0,-198.15 34.45,-370.51 102.98,-517.33 68.58,-146.64 165.62,-260.6 290.29,-341.61 125.09,-81 270.13,-121.5 435.18,-121.5 165.26,0 309.77,40.5 433.86,121.5 124.3,81.01 221.03,194.97 290.51,341.61 69.26,146.82 104.08,319.18 104.08,517.33 0,196.2 -34.82,368.15 -104.08,515.62 -69.48,147.87 -166.21,262.49 -290.51,344.55 -124.09,82 -268.6,122.74 -433.86,122.74z"/>
  <path class="fil4" d="M17662.07 20533.22l282.36 0c168.2,0 252.33,-77.47 252.33,-232.41 0,-152.82 -84.13,-229.47 -252.33,-229.47l-282.36 0 0 461.88zm-212.84 1085.69c-68,0 -120.41,-21.61 -157.28,-64.82 -37.07,-43.14 -55.77,-105.25 -55.77,-186.25l0 -1426.06c0,-81 18.7,-143.29 55.77,-186.5 36.87,-43.2 90.01,-64.81 159.49,-64.81l569.5 0c185.06,0 328.05,52.75 429.25,158.06 100.93,105.26 151.34,251.66 151.34,438.8 0,142.22 -30.4,261.66 -91.32,358.03 -60.97,96.13 -149.35,163.42 -265.14,201.21 86.54,27.02 156.02,96.19 208.43,207.92l115.58 242.94c24.68,53.98 35.97,105.32 33.71,154.12 -2.36,48.56 -18.85,88.65 -49.62,120.03 -30.93,31.55 -76.73,47.33 -136.75,47.33 -60.02,0 -109.07,-13.89 -146.88,-41.97 -37.81,-27.79 -71.31,-73.29 -100.77,-136.22l-210.47 -451.05c-18.49,-39.67 -42.07,-67.1 -70.58,-82.47 -28.73,-15.13 -61.29,-23.02 -98.36,-23.02l-127.29 0 0 483.66c0,81 -18.12,143.11 -54.46,186.25 -36.13,43.21 -88.9,64.82 -158.38,64.82z"/>
  <path class="fil4" d="M11379.32 22888.26l282.37 0c168.2,0 252.27,-77.46 252.27,-232.4 0,-152.82 -84.07,-229.47 -252.27,-229.47l-282.37 0 0 461.87zm-212.83 1085.7c-68.01,0 -120.26,-21.61 -157.28,-64.82 -37.08,-43.15 -55.61,-105.25 -55.61,-186.25l0 -1426.07c0,-81 18.53,-143.28 55.61,-186.49 37.02,-43.21 90.22,-64.81 159.48,-64.81l569.51 0c185.06,0 328.05,52.74 429.19,158.06 100.98,105.25 151.55,251.66 151.55,438.8 0,142.22 -30.56,261.66 -91.53,358.03 -60.91,96.13 -149.29,163.41 -264.87,201.03 86.33,27.2 155.8,96.37 208.21,208.1l115.58 242.94c24.84,53.98 36.13,105.31 33.72,154.12 -2.37,48.56 -18.86,88.65 -49.63,120.03 -30.93,31.55 -76.51,47.33 -136.74,47.33 -60.03,0 -109.07,-13.9 -146.88,-41.98 -37.81,-27.78 -71.16,-73.29 -100.62,-136.22l-210.42 -451.04c-18.75,-39.67 -42.27,-67.11 -70.58,-82.47 -28.72,-15.13 -61.54,-23.02 -98.57,-23.02l-127.29 0 0 483.66c0,81 -18.11,143.1 -54.24,186.25 -36.34,43.21 -89.12,64.82 -158.59,64.82z"/>
  <path class="fil4" d="M12800.23 23973.96c-67.8,0 -120.21,-21.61 -157.49,-64.82 -36.86,-43.15 -55.35,-106.31 -55.35,-189.14l0 -1445.02c0,-82.65 18.49,-145.75 55.35,-188.96 37.28,-43.21 89.69,-64.81 157.49,-64.81 67.79,0 120.25,21.6 157.49,64.81 36.86,43.21 55.34,106.31 55.34,188.96l0 1445.02c0,82.83 -18.11,145.99 -54.45,189.14 -36.13,43.21 -88.91,64.82 -158.38,64.82z"/>
  <path class="fil4" d="M14096.1 23563.47c120.25,0 214.88,-50.03 283.47,-149.93 68.53,-100.08 102.97,-239 102.97,-417.19 0,-178.43 -34.08,-316.95 -101.71,-415.96 -67.96,-99.08 -162.85,-148.7 -284.73,-148.7 -121.88,0 -216.72,49.62 -284.52,148.7 -68,99.01 -101.93,237.53 -101.93,415.96 0,178.19 33.93,317.11 101.93,417.19 67.8,99.9 162.64,149.93 284.52,149.93zm0 415.78c-165.26,0 -309.72,-40.91 -433.87,-122.73 -124.3,-82.07 -221.02,-196.92 -290.45,-344.56 -69.31,-147.46 -104.13,-319.41 -104.13,-515.61 0,-198.15 34.29,-370.52 102.98,-517.33 68.58,-146.64 165.62,-260.61 290.29,-341.61 125.09,-81 269.92,-121.5 435.18,-121.5 165.05,0 309.77,40.5 433.86,121.5 124.3,81 221.03,194.97 290.51,341.61 69.26,146.81 104.08,319.18 104.08,517.33 0,196.2 -34.82,368.15 -104.08,515.61 -69.48,147.64 -166.21,262.49 -290.51,344.56 -124.09,81.82 -268.81,122.73 -433.86,122.73z"/>
  <path class="fil4" d="M15107.4 23971.25c-61.65,3.47 -109.12,-14.95 -142.47,-55.46 -32.92,-40.32 -49.62,-92.24 -49.62,-155.35 0,-48.62 11.5,-90.77 34.66,-126.68 23.15,-36.14 57.97,-55.86 104.29,-59.63l64.64 -5.18c57.08,-3.71 98.36,-19.49 123.77,-47.57 25.53,-27.78 38.34,-74.11 38.34,-138.92l0 -1110.01c0,-81 18.54,-143.28 55.4,-186.49 37.23,-43.15 89.64,-64.75 157.44,-64.75 67.79,0 120.25,21.6 157.48,64.75 36.87,43.21 55.4,105.49 55.4,186.49l0 1101.94c0,370.87 -171.92,567.95 -516.15,591.44l-83.18 5.42z"/>
  <path class="fil4" d="M16731.85 22564.14l-222.13 618.46 449.09 0 -222.34 -618.46 -4.62 0zm-654.9 1409.87c-72.41,0 -125.77,-28.84 -159.48,-86.59 -34.08,-57.51 -34.08,-129.57 0,-215.92l576.12 -1447.73c27.63,-70.17 61.71,-121.44 101.93,-153.88 39.81,-32.38 86.86,-48.56 140.95,-48.56 52.62,0 98.93,16.18 138.95,48.56 40.01,32.44 74.09,83.71 101.72,153.88l576.33 1447.73c35.39,88.24 37.02,160.7 4.62,217.39 -32.4,56.69 -83.39,85.12 -152.65,85.12 -61.87,0 -109.28,-16.36 -142.47,-48.8 -33.14,-32.37 -62.97,-84.47 -89.12,-156.52l-74.09 -205.22 -728.78 0 -74.31 205.22c-27.57,72.05 -56.14,124.15 -85.6,156.52 -29.25,32.44 -73.88,48.8 -134.12,48.8z"/>
  <path class="fil4" d="M17965.12 23973.96c-132.65,0 -198.76,-78.3 -198.76,-234.89l0 -1471.97c0,-79.3 16.86,-140.17 50.73,-182.32 33.92,-42.38 78.77,-63.57 134.33,-63.57 49.25,0 87.43,10.83 114.48,32.43 26.88,21.61 58.18,57.69 93.73,107.97l668.81 975.02 0 -883.01c0,-154.94 65.54,-232.41 196.72,-232.41 64.64,0 113.74,20.19 146.93,60.87 32.98,40.5 49.62,97.6 49.62,171.54l0 1496.05c0,68.52 -15.38,122.97 -46.31,163.42 -30.78,40.5 -72.26,60.87 -124.88,60.87 -52.41,0 -93.53,-10.78 -123.93,-32.38 -29.99,-21.61 -62.07,-57.75 -95.94,-108.02l-668.76 -975.02 0 880.53c0,156.59 -65.59,234.89 -196.77,234.89z"/>
  <path class="fil4" d="M20251.5 22564.14l-222.13 618.46 449.09 0 -222.34 -618.46 -4.62 0zm-654.84 1409.87c-72.63,0 -125.82,-28.84 -159.54,-86.59 -34.08,-57.51 -34.08,-129.57 0,-215.92l576.18 -1447.73c27.57,-70.17 61.65,-121.44 101.87,-153.88 39.81,-32.38 86.86,-48.56 140.95,-48.56 52.62,0 98.94,16.18 138.79,48.56 40.18,32.44 74.26,83.71 101.88,153.88l576.33 1447.73c35.4,88.24 37.08,160.7 4.62,217.39 -32.4,56.69 -83.33,85.12 -152.65,85.12 -61.86,0 -109.28,-16.36 -142.47,-48.8 -33.35,-32.37 -62.96,-84.47 -89.06,-156.52l-74.15 -205.22 -728.78 0 -74.26 205.22c-27.62,72.05 -56.13,124.15 -85.59,156.52 -29.31,32.44 -73.94,48.8 -134.12,48.8z"/>
  <path class="fil4" d="M21871.38 23979.31c-94.11,0 -190.78,-11.18 -290.3,-33.85 -99.46,-22.42 -184.69,-54.39 -255.79,-95.71 -41.69,-23.49 -71,-55.05 -88.01,-94.72 -16.86,-39.44 -23,-80.36 -18.33,-122.68 4.62,-42.39 17.59,-80.18 39.28,-113.44 21.64,-33.2 50.2,-55.86 85.55,-67.46 35.6,-11.83 75.77,-6.01 120.41,17.42 58.55,34.26 125.09,60.05 198.97,77.06 73.94,17.01 143.42,25.55 208.22,25.55 101.93,0 173.24,-15.78 214.2,-47.15 40.75,-31.56 61.12,-70.82 61.12,-117.56 0,-41.5 -14.07,-74.76 -42.64,-99.9 -28.51,-25.08 -79.08,-46.92 -151.71,-64.75l-270.65 -67.52c-293.08,-73.94 -439.59,-252.96 -439.59,-537.46 0,-124.39 28.88,-233.18 86.7,-326.83 57.97,-93.66 138.37,-166.19 241.72,-217.46 103.55,-51.51 223.81,-77.06 361.08,-77.06 80.24,0 161.53,10.42 244.19,31.14 82.39,20.61 153.91,51.75 213.94,93.25 46.31,28.67 75.62,67.93 87.8,117.38 12.6,49.63 10.97,97.78 -4.41,144.52 -15.39,46.92 -42.8,81 -82.08,102.61 -39.49,21.6 -89.27,18.07 -149.3,-10.84 -46.31,-23.43 -97.09,-40.91 -152.86,-52.74 -55.4,-11.6 -109.49,-17.43 -161.9,-17.43 -86.54,0 -152.66,17.43 -198.97,52.75 -46.32,35.08 -69.48,80.59 -69.48,136.22 0,39.67 13.92,72.05 41.7,97.42 27.78,25.14 77.03,46.69 148.03,64.76l268.4 67.52c297.91,73.7 446.68,248.6 446.68,523.92 0,124.21 -28.57,232.41 -85.81,324 -56.87,92.01 -137.27,163.01 -240.46,213.46 -103.35,50.27 -225.23,75.58 -365.7,75.58z"/>
  <path class="fil5" d="M7274.25 17887.95c44.06,53.75 112.07,77.24 155.97,130.63 -36.13,39.21 -261.94,277.62 -296.02,313.76 -193.62,206.04 -386.66,412.43 -581.53,616.81 -28.73,30.09 -39.65,60.64 -38.55,104.26 2.63,89.24 0.74,178.78 0.74,284.09 22.42,-22.25 37.6,-36.55 52.09,-51.92 389.96,-414.95 780.09,-829.85 1169.84,-1244.81 78.56,-83.71 106.92,-84.71 190.47,-5.41 138.58,131.68 277.16,263.55 415.9,395 14.81,14.36 30.35,27.43 47.05,42.38 196.93,-243 391.07,-482.65 585.42,-722.48 154.28,-190.43 308.25,-381.28 462.75,-571.72 57.97,-71.87 91.69,-76.88 163.05,-24.55 37.97,27.85 75.36,56.34 113.38,84.13 2.57,1.88 7.19,0.23 17.96,0.23 20.53,-236.12 41.27,-472.88 63.17,-720.83 -204.54,69.76 -401.67,137.04 -611.94,208.69 40.96,32.61 72.63,56.51 103.19,82.06 60.97,50.45 70.21,113.38 20.59,176.48 -277.54,353.26 -555.38,705.47 -834.39,1057.08 -47.42,59.81 -93.73,58.16 -154.12,1 -159.91,-151.35 -319.39,-303.16 -482.44,-457.87 -147.46,156.35 -293.6,311.47 -443.85,471 -43.16,-52.57 -83.91,-102.19 -128.18,-156.17 62.23,-66.7 121.88,-130.63 182.06,-194.38 97.31,-103.85 194.93,-207.51 292.34,-311.3 75.26,-80.17 105.08,-81.41 186.22,-4.59 137.06,129.98 273.96,260.43 411.07,390.41 16.28,15.6 33.14,30.32 52.78,48.39 238.62,-302.34 474.09,-600.98 712.5,-903.14 -61.86,-47.16 -118.21,-91.19 -175.82,-133.75 -37.23,-27.43 -62.96,-62.28 -56.29,-115.44 7.19,-55.69 41.33,-80.41 86.7,-95.78 298.27,-100.89 596.13,-204.32 894.2,-306.11 101.19,-34.43 155.43,18.72 144.72,138.93 -30.19,337.9 -60.39,675.98 -90.43,1013.87 -10.18,115.03 -79.45,153.24 -164.68,90.37 -65.59,-48.39 -130.07,-98.49 -198.03,-149.94 -98.41,121.27 -194.35,239 -289.76,356.97 -253.96,314 -507.97,628 -761.97,941.76 -65.75,81.42 -104.66,83.89 -179.49,12.66 -156.7,-148.64 -313.45,-297.34 -473.88,-449.57 -74.1,78.47 -147.46,155.53 -220.09,232.76 -368.64,392.12 -736.97,784.17 -1105.03,1176.7 -35.77,37.97 -71.16,73.11 -124.51,48.57 -55.56,-25.55 -61.5,-78.89 -61.13,-138.28 1.31,-192.32 -1.31,-384.64 2.05,-576.9 0.37,-36.97 11.29,-84.54 33.14,-108.2 245.65,-266.44 659.14,-705.88 912.78,-975.85z"/>
  <path class="fil6" d="M5913.74 23731.6c0,470.82 -0.37,941.82 0.36,1412.58 0.21,48.39 -5.93,94.31 -25.15,136.87 -19.48,42.97 -48.94,76.41 -85.44,102.37 -40.75,29.08 -85.23,34.08 -132.44,31.79 -50.41,-2.48 -91.69,-27.02 -129.28,-61.05 -27.26,-24.55 -51.73,-53.57 -76.73,-81.41 -26.46,-29.5 -52.61,-60.05 -78.92,-90.13 -31.3,-35.73 -62.44,-71.64 -93.74,-107.37 -23.89,-27.02 -48.52,-53.16 -72.42,-79.95 -29.82,-33.84 -59.13,-68.1 -89.32,-101.78 -17.75,-20.13 -36.66,-39.44 -54.62,-59.39 -15.38,-17.02 -30.56,-34.27 -45.79,-51.28 -28.51,-32.43 -57.24,-64.58 -85.75,-97.19 -27.41,-31.14 -54.3,-62.75 -81.5,-94.07 -12.97,-14.77 -26.15,-29.31 -39.12,-44.03 -31.67,-35.73 -62.97,-71.88 -94.84,-107.61 -37.97,-42.56 -76.52,-84.3 -114.27,-126.86 -27.99,-31.79 -54.88,-64.58 -82.82,-96.13 -26.88,-30.55 -55.03,-60.04 -82.07,-90.13 -13.92,-15.18 -26.68,-30.96 -40.23,-46.32 -32.61,-36.56 -65.38,-72.88 -97.78,-109.67 -27.25,-30.73 -53.93,-61.7 -80.97,-92.43 -25.95,-29.49 -52.05,-58.57 -78.2,-88 -28.51,-32.44 -57.03,-65.23 -85.96,-97.43 -28.31,-31.79 -57.03,-63.1 -85.55,-94.89 -25.57,-28.49 -50.99,-57.52 -76.72,-86.42 -41.48,-46.92 -83.18,-93.83 -124.87,-140.81 -31.46,-36.09 -63.18,-72.05 -94.84,-108.2 -44.11,-50.21 -88.17,-100.25 -132.28,-150.35 -47.95,-54.57 -95.79,-109.19 -143.94,-163.41 -30.93,-34.67 -62.97,-68.35 -93.9,-103.02 -32.08,-35.91 -63.38,-73.11 -95.41,-109.2 -61.92,-69.99 -123.93,-139.99 -186.01,-209.74 -32.82,-36.8 -63.17,-76.47 -78.56,-125.86 -9.61,-31.61 -12.02,-66.87 -12.76,-100.72 -1.52,-56.28 14.44,-108.03 45.59,-151.65 37.02,-52.09 82.97,-89.71 143.57,-97.36 29.04,-3.53 58.34,-6.24 87.43,-6.24 816.22,-0.41 1632.64,-0.41 2448.85,-0.41 32.62,0 64.49,3.53 95.79,13.89 36.13,12.3 65.8,36.14 91.32,66.87 40.96,49.63 59.5,109.26 59.29,177.78 -0.16,476.18 0,952.18 0,1428.36z"/>
  <path class="fil7" d="M6311.95 23737.13c1017.44,192.2 2042.29,-563.48 2251.56,-1690.67l-461.54 0c-242.82,843.1 -1041.24,1331.88 -1790.02,1146.21l0 544.46z"/>
  <path class="fil7" d="M6311.95 22827.93c107.33,35.2 221.23,54.15 338.44,53.68 470.58,-2.06 915.57,-343.37 1092.6,-835.15l-539.26 0c-38.5,51.8 -82.82,98.13 -132.44,137.4 -259,204.74 -535.74,205.45 -759.34,68.28l0 575.79z"/>
  <path class="fil7" d="M6512.39 24037.71c0,49.04 -34.82,88.89 -78.14,88.89 -43.01,0 -78.04,-39.85 -78.04,-88.89 0,-49.21 35.03,-89.07 78.04,-89.07 43.32,0 78.14,39.86 78.14,89.07z"/>
  <path class="fil7" d="M6546.63 24591.12c0,68.29 -48.58,123.56 -108.39,123.56 -59.87,0 -108.39,-55.27 -108.39,-123.56 0,-68.34 48.52,-123.56 108.39,-123.56 59.81,0 108.39,55.22 108.39,123.56z"/>
  <path class="fil7" d="M6567.58 25285.7c0,81.18 -57.82,147.05 -128.92,147.05 -71.37,0 -129.13,-65.87 -129.13,-147.05 0,-81.18 57.76,-147.05 129.13,-147.05 71.1,0 128.92,65.87 128.92,147.05z"/>
  <path class="fil7" d="M7178.15 24011.4c6.88,48.56 -22.21,94.24 -64.85,101.95 -42.38,7.66 -82.6,-25.13 -89.27,-73.7 -6.88,-48.62 22.05,-94.13 64.64,-102.02 42.64,-7.88 82.66,25.38 89.48,73.77z"/>
  <path class="fil7" d="M7288.9 24551.62c9.46,67.29 -30.77,130.63 -89.85,141.46 -59.28,10.77 -114.69,-34.91 -124.14,-102.37 -9.61,-67.29 30.77,-130.63 89.69,-141.46 59.08,-10.77 114.64,34.91 124.3,102.37z"/>
  <path class="fil7" d="M7406.11 25233.54c11.29,80.18 -36.49,155.59 -106.91,168.42 -70.37,12.89 -136.33,-41.74 -147.83,-121.68 -11.29,-80.35 36.5,-155.53 106.92,-168.42 70.37,-12.89 136.32,41.56 147.82,121.68z"/>
  <path class="fil7" d="M7788.2 23766.39c22.58,41.97 11.29,96.54 -25.57,122.33 -36.66,25.72 -84.81,12.65 -107.45,-29.08 -22.58,-41.74 -10.92,-96.78 25.74,-122.51 36.7,-25.78 84.86,-12.71 107.28,29.26z"/>
  <path class="fil7" d="M8071.72 24217.31c31.45,58.16 15.54,134.16 -35.39,169.89 -51.15,35.74 -117.84,17.66 -149.14,-40.5 -31.3,-58.16 -15.39,-134.15 35.39,-169.89 51.1,-35.67 117.79,-17.66 149.14,40.5z"/>
  <path class="fil7" d="M8408.91 24796.45c37.23,69.17 18.32,159.71 -42.43,202.27 -60.55,42.38 -139.85,20.96 -177.29,-48.21 -37.39,-69.11 -18.33,-159.65 42.27,-202.27 60.76,-42.56 140.22,-20.96 177.45,48.21z"/>
  <path class="fil7" d="M8293.12 23261.48c32.97,31.79 35.02,90.54 4.83,131.28 -30.2,40.68 -81.35,47.98 -114.32,16.19 -32.93,-31.79 -34.98,-90.54 -4.78,-131.28 30.35,-40.67 81.5,-47.92 114.27,-16.19z"/>
  <path class="fil7" d="M8687.7 23586.9c45.58,44.04 48.73,125.63 6.67,182.14 -41.85,56.45 -113.01,66.64 -158.75,22.43 -45.58,-44.04 -48.73,-125.63 -6.51,-182.14 41.91,-56.51 112.85,-66.46 158.59,-22.43z"/>
  <path class="fil7" d="M9167.46 24015.93c54.3,52.33 57.82,149.52 7.98,216.81 -50.2,67.28 -134.69,79.11 -188.94,26.78 -54.46,-52.51 -57.82,-149.52 -7.98,-216.81 50.04,-67.28 134.49,-79.11 188.94,-26.78z"/>
  <path class="fil7" d="M8659.13 22655.92c38.71,21.6 55.04,74.76 36.13,119.03 -18.74,44.2 -65.59,62.69 -104.29,41.08 -38.75,-21.6 -55.03,-74.76 -36.13,-118.97 18.7,-44.26 65.59,-62.51 104.29,-41.14z"/>
  <path class="fil7" d="M9110.7 22862.72c53.87,29.67 76.3,103.6 50.2,164.88 -26.15,61.46 -90.96,87.01 -144.89,57.28 -53.72,-29.9 -76.14,-103.84 -49.99,-165.06 26.1,-61.52 90.95,-87.01 144.68,-57.1z"/>
  <path class="fil7" d="M9668.07 23144.63c64.12,35.26 90.8,123.33 59.66,196.44 -31.14,72.88 -108.18,103.43 -172.3,67.88 -64.07,-35.26 -90.74,-123.33 -59.65,-196.44 31.14,-72.88 108.23,-103.43 172.29,-67.88z"/>
  <path class="fil7" d="M8772.93 22100.68c42.96,0.41 77.61,40.68 77.25,89.89 -0.58,49.04 -35.77,88.48 -78.93,88.06 -43.17,-0.64 -77.83,-40.67 -77.25,-89.89 0.37,-49.27 35.92,-88.47 78.93,-88.06z"/>
  <path class="fil7" d="M9258.68 22067.59c59.81,0.65 107.81,56.52 107.23,124.8 -0.74,68.11 -49.63,122.98 -109.49,122.15 -59.81,-0.64 -107.97,-56.51 -107.23,-124.85 0.52,-68.11 49.62,-122.68 109.49,-122.1z"/>
  <path class="fil7" d="M9868.36 22051.05c71.1,0.83 128.18,67.29 127.45,148.53 -0.58,81.17 -59.13,146.16 -130.24,145.34 -71.15,-0.83 -128.39,-67.29 -127.66,-148.46 0.95,-81.24 59.13,-146.23 130.45,-145.41z"/>
  <path class="fil5" d="M7251.09 20823.61c42.38,-331.84 156.34,-650.01 324.38,-916.45l-419.64 0c-151.13,311.29 -248.96,653.55 -283.78,1003.46 -21.32,215.98 -16.33,435.5 11.5,650.66l395.85 0c-49.26,-234.88 -60.18,-488.48 -28.31,-737.67z"/>
  <path class="fil5" d="M6729.32 21561.22c-26.89,-221.81 -31.14,-447.75 -9.08,-670.15 33.92,-341.43 123.93,-675.56 262.3,-983.79l-391.43 0c-133.02,341.25 -218.62,701.52 -249.34,1066.62 -6.51,75.17 -10.18,150.58 -12.02,226.34l0 163.07c1.47,62.69 4.25,125.62 9.03,188.31 5.2,5.83 12.24,9.6 20.22,9.6l370.32 0z"/>
  <path class="fil5" d="M7402.33 20848.63c-30.77,242.18 -18.38,488.48 34.45,712.53l508.7 0c-93.9,-46.92 -159.49,-150.35 -186.37,-300.05 -25.94,-142.04 -17.23,-323.59 24.1,-510.91 40.75,-185.84 109.65,-360.5 194.3,-491.72 102.09,-158.29 222.34,-247.18 347.22,-256.72 94.63,-7.65 173.76,27.2 227.28,100.31 112.64,153.47 83.75,427.38 39.64,630.06 -36.86,169.07 -99.3,350.79 -171.35,498.43 -81.87,168.65 -165.05,276.44 -247.13,320.65 -7.03,3.71 -13.91,6.83 -20.95,9.95l483.91 0c82.97,-199.74 155.02,-401.42 210.27,-594.33 95.41,-332.89 142.62,-624.05 140.78,-865.82 -0.73,-70.34 -8.35,-134.57 -21.68,-193.73l-1196.57 0c-192.31,261.9 -322.33,593.09 -366.6,941.35z"/>
  <path class="fil5" d="M9989.93 19940.72c0,-18.49 -12.98,-33.44 -29.25,-33.44l-297.75 0c-0.37,9.12 0,17.66 -0.53,26.78 -22.63,412.84 -110.59,861.41 -269.55,1371.44 -26.1,84.12 -54.67,169.48 -84.65,255.66l331.78 0c3.52,-10.83 7.4,-21.61 10.92,-32.38 164.16,-505.73 275.48,-971.49 339.03,-1413.4l0 -174.66z"/>
  <path class="fil5" d="M6329.7 19940.72l0 255.42c27.77,-97.42 59.28,-193.79 94.47,-288.86l-65.22 0c-16.13,0 -29.25,14.95 -29.25,33.44z"/>
  <path class="fil5" d="M8286.6 21146.14c65.59,-134.74 122.83,-301.1 156.55,-456.04 48.94,-224.46 45.95,-402.42 -8.35,-476.18 -13.5,-18.66 -38.86,-43.21 -100.04,-38.2 -99.09,7.47 -182.07,105.31 -233.95,186.08 -72.99,113.37 -133.38,266.25 -169.51,430.73 -35.55,162.59 -43.74,316.47 -22.58,433.38 19.8,109.43 62.02,171.95 125.19,186.26 18.17,3.94 43.38,-2.06 74.1,-18.67 38.17,-20.54 105.23,-96.13 178.59,-247.36z"/>
  <path class="fil5" d="M9989.93 21527.84l0 -620.29c-52.41,211.16 -114.48,428.62 -186.95,653.73l157.7 0c16.27,0 29.25,-14.96 29.25,-33.44z"/>
  <path class="fil5" d="M9509.8 19923.23c0.36,-5.18 0.52,-10.77 0.73,-15.95l-387.76 0c10.77,60.4 16.7,124.56 17.23,192.08 2.05,260.61 -47.79,570.66 -148.2,921.46 -50.2,175.89 -114.47,358.44 -187.31,540.34l339.39 0c37.81,-106.32 72.84,-210.98 104.87,-314 154.13,-494.49 239.52,-927.69 261.05,-1323.93z"/>
  <polygon class="fil4" points="11408.1,25296.65 11408.1,25395.72 10950.87,25395.72 10950.87,24701.09 11396.44,24701.09 11396.44,24798.86 11055.16,24798.86 11055.16,24994.48 11358.63,24994.48 11358.63,25091.08 11055.16,25091.08 11055.16,25296.65 "/>
  <polygon class="fil4" points="12194.7,25395.72 12193.59,24913.71 11983.12,25312.42 11935.18,25312.42 11724.7,24924.72 11724.7,25395.72 11624.87,25395.72 11624.87,24701.09 11713.78,24701.09 11960.75,25168.08 12203.2,24701.09 12293.26,24701.09 12294.58,25395.72 "/>
  <path class="fil4" d="M12928.15 25054.47c27.41,-25.32 41.28,-61.46 41.28,-108.79 0,-47.33 -13.87,-83.71 -41.28,-108.85 -27.41,-25.31 -67.85,-37.97 -120.78,-37.97l-138.43 0 0 293.46 138.43 0c52.93,0 93.37,-12.48 120.78,-37.85zm76.67 -288.63c46.53,43.21 69.68,103.02 69.68,179.84 0,77.47 -23.15,137.69 -69.68,180.9 -46.47,43.38 -110.23,64.75 -190.99,64.75l-144.89 0 0 204.39 -104.08 0 0 -694.69 248.97 0c80.76,0 144.52,21.6 190.99,64.81z"/>
  <path class="fil4" d="M13658.87 25054.47c27.42,-25.32 41.28,-61.46 41.28,-108.79 0,-47.33 -13.86,-83.71 -41.28,-108.85 -27.46,-25.31 -67.84,-37.97 -120.62,-37.97l-138.37 0 0 293.46 138.37 0c52.78,0 93.16,-12.48 120.62,-37.85zm44.43 341.25l-130.76 -207.92c-5.78,0.82 -15.02,1.24 -27.99,1.24l-144.67 0 0 206.68 -104.29 0 0 -694.69 248.96 0c80.77,0 144.52,21.6 190.99,64.81 46.53,43.21 69.85,103.02 69.85,179.84 0,52.92 -11.66,98.25 -34.82,135.63 -23.37,37.56 -56.51,65.81 -99.51,84.47l145.09 229.94 -112.85 0z"/>
  <polygon class="fil4" points="14491.05,25296.65 14491.05,25395.72 14033.87,25395.72 14033.87,24701.09 14479.18,24701.09 14479.18,24798.86 14137.95,24798.86 14137.95,24994.48 14441.58,24994.48 14441.58,25091.08 14137.95,25091.08 14137.95,25296.65 "/>
  <path class="fil4" d="M14747.95 25382.83c-44.64,-15.13 -79.67,-35.09 -104.5,-60.63l40.59 -92.84c24.47,22.84 55.03,41.15 91.9,55.04 36.86,13.89 74.99,20.78 114.27,20.78 47.83,0 83.18,-8.95 105.6,-26.78 22.63,-18.07 33.92,-41.33 33.92,-69.82 0,-22.02 -6.67,-40.03 -19.85,-53.74 -13.34,-13.96 -29.98,-24.55 -49.83,-31.79 -20.17,-7.48 -47.21,-15.19 -81.66,-23.26 -46.53,-11.42 -84.34,-23.25 -113.22,-35.49 -28.88,-12.31 -53.51,-31.79 -74.1,-58.16 -20.37,-26.38 -30.56,-62.52 -30.56,-108.2 0,-61.87 22.06,-111.97 66.12,-149.94 43.9,-37.79 103.76,-56.92 179.54,-56.92 38.7,0 76.14,5.18 112.27,15.36 36.13,10.19 67.06,25.14 92.79,44.68l-37.6 95.31c-46.52,-36.56 -103.39,-55.04 -170.61,-55.04 -46.53,0 -81.34,9.36 -104.14,27.61 -22.79,18.48 -34.23,42.15 -34.23,71.46 0,22.02 6.67,40.09 19.79,53.98 13.34,13.9 30.04,24.32 50.57,31.79 20.22,7.24 47.79,15.13 82.08,23.25 47.05,12.07 84.86,24.32 113.01,35.91 28.36,11.84 52.78,30.97 73.15,56.93 20.22,26.14 30.56,61.28 30.56,105.25 0,63.58 -22,114.26 -65.9,151.65 -44.11,37.55 -104.71,56.27 -182.12,56.27 -47.05,0 -93.21,-7.47 -137.84,-22.66z"/>
  <path class="fil4" d="M15691.77 25136.47l-126.72 -327.95 -127.66 327.95 254.38 0zm36.29 94.25l-326.95 0 -64.49 165.12 -102.08 0 279 -694.87 103.19 0 279.95 694.87 -105.08 0 -63.54 -165.12z"/>
  <path class="fil4" d="M16102.27 25382.83c-44.64,-15.13 -79.67,-35.09 -104.66,-60.63l40.75 -92.84c24.26,22.84 54.82,41.15 91.68,55.04 37.08,13.89 75.05,20.78 114.48,20.78 47.79,0 83.03,-8.95 105.61,-26.78 22.42,-18.07 33.92,-41.33 33.92,-69.82 0,-22.02 -6.88,-40.03 -20.01,-53.74 -13.18,-13.96 -29.82,-24.55 -49.83,-31.79 -20.22,-7.48 -47.26,-15.19 -81.71,-23.26 -46.53,-11.42 -84.13,-23.25 -113.01,-35.49 -28.88,-12.31 -53.72,-31.79 -74.31,-58.16 -20.16,-26.38 -30.56,-62.52 -30.56,-108.2 0,-61.87 22.06,-111.97 66.17,-149.94 43.9,-37.79 103.71,-56.92 179.7,-56.92 38.49,0 76.09,5.18 112.06,15.36 36.13,10.19 67.06,25.14 93,44.68l-37.6 95.31c-46.52,-36.56 -103.4,-55.04 -170.61,-55.04 -46.53,0 -81.35,9.36 -104.14,27.61 -22.95,18.48 -34.29,42.15 -34.29,71.46 0,22.02 6.51,40.09 19.64,53.98 13.34,13.9 30.2,24.32 50.57,31.79 20.38,7.24 47.84,15.13 82.08,23.25 47.26,12.07 85.02,24.32 113.22,35.91 28.3,11.84 52.62,30.97 72.99,56.93 20.38,26.14 30.57,61.28 30.57,105.25 0,63.58 -21.9,114.26 -65.96,151.65 -44.11,37.55 -104.66,56.27 -181.91,56.27 -47.26,0 -93.21,-7.47 -137.84,-22.66z"/>
  <polygon class="fil4" points="17502.01,25296.65 17502.01,25395.72 17044.77,25395.72 17044.77,24701.09 17490.3,24701.09 17490.3,24798.86 17149.07,24798.86 17149.07,24994.48 17452.54,24994.48 17452.54,25091.08 17149.07,25091.08 17149.07,25296.65 "/>
  <path class="fil4" d="M17759.06 25382.83c-44.64,-15.13 -79.66,-35.09 -104.66,-60.63l40.75 -92.84c24.26,22.84 54.83,41.15 91.69,55.04 37.07,13.89 75.04,20.78 114.53,20.78 47.79,0 82.97,-8.95 105.55,-26.78 22.43,-18.07 33.93,-41.33 33.93,-69.82 0,-22.02 -6.88,-40.03 -20.01,-53.74 -13.18,-13.96 -29.83,-24.55 -49.84,-31.79 -20.21,-7.48 -47.26,-15.19 -81.5,-23.26 -46.68,-11.42 -84.28,-23.25 -113.22,-35.49 -28.88,-12.31 -53.72,-31.79 -74.25,-58.16 -20.22,-26.38 -30.56,-62.52 -30.56,-108.2 0,-61.87 22,-111.97 66.11,-149.94 43.9,-37.79 103.77,-56.92 179.7,-56.92 38.55,0 76.15,5.18 112.07,15.36 36.13,10.19 67.06,25.14 93,44.68l-37.6 95.31c-46.48,-36.56 -103.35,-55.04 -170.62,-55.04 -46.52,0 -81.34,9.36 -104.13,27.61 -22.95,18.48 -34.24,42.15 -34.24,71.46 0,22.02 6.46,40.09 19.8,53.98 13.18,13.9 30.03,24.32 50.41,31.79 20.37,7.24 47.79,15.13 82.08,23.25 47.21,12.07 85.02,24.32 113.16,35.91 28.36,11.84 52.62,30.97 73,56.93 20.37,26.14 30.56,61.28 30.56,105.25 0,63.58 -21.85,114.26 -65.75,151.65 -44.27,37.55 -104.87,56.27 -182.11,56.27 -47.26,0 -93.21,-7.47 -137.85,-22.66z"/>
  <polygon class="fil4" points="18448.56,24798.75 18240.29,24798.75 18240.29,24700.97 18760.86,24700.97 18760.86,24798.75 18552.64,24798.75 18552.64,25395.84 18448.56,25395.84 "/>
  <path class="fil4" d="M19245.82 25136.47l-126.72 -327.95 -127.66 327.95 254.38 0zm36.49 94.25l-327.15 0 -64.49 165.12 -102.09 0 279.01 -694.87 103.19 0 279.94 694.87 -105.08 0 -63.33 -165.12z"/>
  <polygon class="fil4" points="19686.88,24798.75 19478.66,24798.75 19478.66,24700.97 19999.23,24700.97 19999.23,24798.75 19791.01,24798.75 19791.01,25395.84 19686.88,25395.84 "/>
  <path class="fil4" d="M20484.13 25136.47l-126.71 -327.95 -127.61 327.95 254.32 0zm36.5 94.25l-327.16 0 -64.43 165.12 -102.09 0 279.01 -694.87 103.18 0 279.9 694.87 -105.03 0 -63.38 -165.12z"/>
  <polygon class="fil4" points="20854.3,24701.03 20958.43,24701.03 20958.43,25296.59 21285.59,25296.59 21285.59,25395.66 20854.3,25395.66 "/>
  <polygon class="fil4" points="21917.69,25296.65 21917.69,25395.72 21460.67,25395.72 21460.67,24701.09 21906.04,24701.09 21906.04,24798.86 21564.8,24798.86 21564.8,24994.48 21868.44,24994.48 21868.44,25091.08 21564.8,25091.08 21564.8,25296.65 "/>
  <path class="fil4" d="M22174.8 25382.83c-44.64,-15.13 -79.66,-35.09 -104.5,-60.63l40.59 -92.84c24.26,22.84 55.03,41.15 91.69,55.04 37.07,13.89 75.04,20.78 114.48,20.78 47.79,0 83.18,-8.95 105.6,-26.78 22.58,-18.07 33.93,-41.33 33.93,-69.82 0,-22.02 -6.88,-40.03 -20.01,-53.74 -13.18,-13.96 -29.83,-24.55 -49.84,-31.79 -20,-7.48 -47.05,-15.19 -81.55,-23.26 -46.68,-11.42 -84.28,-23.25 -113.17,-35.49 -28.88,-12.31 -53.72,-31.79 -74.3,-58.16 -20.17,-26.38 -30.36,-62.52 -30.36,-108.2 0,-61.87 21.85,-111.97 65.96,-149.94 44.06,-37.79 103.93,-56.92 179.7,-56.92 38.49,0 76.15,5.18 112.22,15.36 35.97,10.19 66.9,25.14 92.85,44.68l-37.6 95.31c-46.53,-36.56 -103.4,-55.04 -170.62,-55.04 -46.53,0 -81.34,9.36 -104.13,27.61 -22.95,18.48 -34.29,42.15 -34.29,71.46 0,22.02 6.51,40.09 19.85,53.98 13.33,13.9 29.98,24.32 50.36,31.79 20.42,7.24 47.84,15.13 82.07,23.25 47.27,12.07 85.08,24.32 113.22,35.91 28.31,11.84 52.78,30.97 73,56.93 20.37,26.14 30.56,61.28 30.56,105.25 0,63.58 -21.9,114.26 -65.8,151.65 -44.27,37.55 -104.82,56.27 -182.06,56.27 -47.27,0 -93.21,-7.47 -137.85,-22.66z"/>
  <path class="fil8" d="M5479.4 18897.18l-324.95 0c-7.98,0 -15.55,3.7 -21.32,9.94 -5.36,6.48 -8.72,15.37 -8.72,24.32l0 95.54 400.73 0 -16.28 -101.78c-2.42,-16.19 -15.02,-28.02 -29.46,-28.02z"/>
  <polygon class="fil8" points="5125.88,20263.9 5692.97,20263.9 5526.03,19221.77 5125.88,19221.77 "/>
  <path class="fil3" d="M4715.91 20544.46c0,8.12 -2.78,15.37 -7.56,20.96 -4.83,5.65 -11.5,8.71 -18.54,8.71l-389.75 0c-6.88,0 -13.55,-3.06 -18.54,-8.71 -4.83,-5.36 -7.62,-13.07 -7.62,-20.96l0 -130.63c0,-7.88 2.79,-15.36 7.62,-20.95 4.99,-5.42 11.66,-8.54 18.54,-8.54l389.75 0c7.04,0 13.71,2.89 18.54,8.71 4.78,5.42 7.56,12.9 7.56,20.78l0 130.63zm-1048.69 0c0,8.12 -2.79,15.37 -7.62,20.96 -4.99,5.65 -11.5,8.71 -18.53,8.71l-389.76 0c-6.88,0 -13.55,-3.06 -18.53,-8.71 -4.63,-5.36 -7.41,-13.07 -7.41,-20.96l0 -130.63c0,-7.88 2.78,-15.36 7.41,-20.95 4.98,-5.42 11.65,-8.54 18.53,-8.54l389.76 0c7.03,0 13.54,2.89 18.53,8.71 4.83,5.42 7.62,12.9 7.62,20.78l0 130.63zm2029.64 -280.56l-4.1 0 -566.88 0 -9.03 0 -1068.39 -926.87c-8.92,-7.89 -21.32,-9.3 -31.29,-3.47 -10.4,5.77 -16.86,17.6 -16.86,30.73l0 843.98 -1004.26 -871.24c-9.09,-7.89 -21.17,-9.3 -31.51,-3.47 -10.19,5.77 -16.7,17.6 -16.7,30.73l0 933.87 0 1233.8c0,9.13 3.15,17.84 8.93,24.25 5.35,6.48 13.12,10.01 21.11,10.01l2907.39 0c8.72,0 17.02,-4.35 22.95,-12.24 5.78,-7.71 7.99,-17.9 6.51,-27.85l-188.41 -1233.8c-2.42,-16.36 -14.81,-28.43 -29.46,-28.43z"/>
 </g>
</svg>
