<?xml version="1.0" encoding="UTF-8"?>
<!DOCTYPE svg PUBLIC "-//W3C//DTD SVG 1.1//EN" "http://www.w3.org/Graphics/SVG/1.1/DTD/svg11.dtd">
<!-- Creator: CorelDRAW 2018 (64 Bit) -->
<svg xmlns="http://www.w3.org/2000/svg" xml:space="preserve" width="254mm" height="451.61mm" version="1.1" style="shape-rendering:geometricPrecision; text-rendering:geometricPrecision; image-rendering:optimizeQuality; fill-rule:evenodd; clip-rule:evenodd"
viewBox="0 0 25400 45161"
 xmlns:xlink="http://www.w3.org/1999/xlink">
 <defs>
  <style type="text/css">
   <![CDATA[
    .fil3 {fill:#180C47;fill-rule:nonzero}
    .fil2 {fill:#7E8D38;fill-rule:nonzero}
    .fil0 {fill:#E51A29;fill-rule:nonzero}
    .fil1 {fill:#EEA530;fill-rule:nonzero}
   ]]>
  </style>
   <clipPath id="id0">
    <rect x="-0.31" y="-0.66" width="25402.23" height="45160.45"/>
   </clipPath>
 </defs>
 <g id="Capa_x0020_1">
  <metadata id="CorelCorpID_0Corel-Layer"/>
  <g style="clip-path:url(#id0)">
   <image x="-0.31" y="-0.67" width="25402.25" height="45160.46" xlink:href="trivia padle 5_Images\trivia padle 5_ImgID1.png"/>
  </g>
  <polygon class="fil0" points="18144.77,5.53 25401,5.53 25401,345.68 18144.77,345.68 "/>
  <polygon class="fil1" points="12205.72,6.72 19466.94,6.72 19466.94,346.87 12205.72,346.87 "/>
  <polygon class="fil2" points="5508.61,6.72 12769.86,6.72 12769.86,346.87 5508.61,346.87 "/>
  <polygon class="fil3" points="0.05,6.72 7256.24,6.72 7256.24,346.87 0.05,346.87 "/>
  <polygon class="fil1" points="16168.82,44806.98 25401,44806.98 25401,45146.51 16168.82,45146.51 "/>
  <polygon class="fil2" points="6130.79,44806.98 16459.33,44806.98 16459.33,45146.51 6130.79,45146.51 "/>
  <polygon class="fil3" points="0.05,44806.98 7723.35,44806.98 7723.35,45146.51 0.05,45146.51 "/>
 </g>
</svg>
