<?xml version="1.0" encoding="UTF-8"?>
<!DOCTYPE svg PUBLIC "-//W3C//DTD SVG 1.1//EN" "http://www.w3.org/Graphics/SVG/1.1/DTD/svg11.dtd">
<!-- Creator: CorelDRAW 2018 (64 Bit) -->
<svg xmlns="http://www.w3.org/2000/svg" xml:space="preserve" width="254mm" height="451.61mm" version="1.1" style="shape-rendering:geometricPrecision; text-rendering:geometricPrecision; image-rendering:optimizeQuality; fill-rule:evenodd; clip-rule:evenodd"
viewBox="0 0 25400 45161"
 xmlns:xlink="http://www.w3.org/1999/xlink">
 <defs>
  <style type="text/css">
   <![CDATA[
    .fil3 {fill:#180C47;fill-rule:nonzero}
    .fil4 {fill:#3A3A3A;fill-rule:nonzero}
    .fil8 {fill:#3B848C;fill-rule:nonzero}
    .fil2 {fill:#7E8D38;fill-rule:nonzero}
    .fil5 {fill:#7E8E3A;fill-rule:nonzero}
    .fil6 {fill:#E03338;fill-rule:nonzero}
    .fil0 {fill:#E51A29;fill-rule:nonzero}
    .fil1 {fill:#EEA530;fill-rule:nonzero}
    .fil7 {fill:#F0A832;fill-rule:nonzero}
   ]]>
  </style>
   <clipPath id="id0">
    <rect x="-0.31" y="-0.66" width="25402.23" height="45160.45"/>
   </clipPath>
 </defs>
 <g id="Capa_x0020_1">
  <metadata id="CorelCorpID_0Corel-Layer"/>
  <g style="clip-path:url(#id0)">
   <image x="-0.31" y="-0.67" width="25402.25" height="45160.46" xlink:href="trivia padle 4 _Images\trivia padle 4 _ImgID1.png"/>
  </g>
  <polygon class="fil0" points="18144.77,5.53 25401,5.53 25401,345.68 18144.77,345.68 "/>
  <polygon class="fil1" points="12205.72,6.72 19466.94,6.72 19466.94,346.87 12205.72,346.87 "/>
  <polygon class="fil2" points="5508.61,6.72 12769.86,6.72 12769.86,346.87 5508.61,346.87 "/>
  <polygon class="fil3" points="0.05,6.72 7256.24,6.72 7256.24,346.87 0.05,346.87 "/>
  <polygon class="fil0" points="18144.77,44815.53 25401,44815.53 25401,45155.68 18144.77,45155.68 "/>
  <polygon class="fil1" points="12205.72,44816.72 19466.94,44816.72 19466.94,45156.87 12205.72,45156.87 "/>
  <polygon class="fil2" points="5508.61,44816.72 12769.86,44816.72 12769.86,45156.87 5508.61,45156.87 "/>
  <polygon class="fil3" points="0.05,44816.72 7256.24,44816.72 7256.24,45156.87 0.05,45156.87 "/>
  <path class="fil4" d="M13069.57 38357.93c14.21,0 25.14,4.6 32.82,13.68 7.59,9.14 11.44,22.01 11.44,38.55l0 345.31c0,16.99 -4.1,29.96 -12.29,38.85 -8.15,8.95 -19.72,13.4 -34.61,13.4 -12.12,0 -21.85,-2.82 -29.32,-8.42 -7.46,-5.6 -14.21,-14.84 -20.3,-27.7l-104.97 -220.8 -105.02 220.8c-6.39,12.86 -13.23,22.1 -20.52,27.7 -7.26,5.6 -17.12,8.42 -29.58,8.42 -13.86,0 -24.66,-4.45 -32.51,-13.4 -7.81,-8.89 -11.7,-21.86 -11.7,-38.85l0 -345.31c0,-16.54 3.68,-29.41 11.14,-38.55 7.47,-9.08 18.52,-13.68 33.07,-13.68 14.25,0 25.18,4.6 32.77,13.68 7.68,9.14 11.48,22.01 11.48,38.55l0 191.63 74.63 -151.78c4.96,-9.14 10.21,-15.97 15.71,-20.51 5.51,-4.6 12.88,-6.85 22.15,-6.85 8.87,0 16.12,2.25 21.8,6.85 5.72,4.54 10.88,11.37 15.49,20.51l74.08 149.29 0 -189.14c0,-16.54 3.76,-29.41 11.22,-38.55 7.43,-9.08 18.47,-13.68 33.02,-13.68z"/>
  <path class="fil4" d="M12592.53 38363.53c34.13,0 51.16,19.72 51.16,59.08l0 320.39c0,39.42 -17.03,59.08 -51.16,59.08l-180.67 0c-25.6,0 -38.41,-14.5 -38.41,-43.53 0,-29.85 12.81,-44.77 38.41,-44.77l138.04 0 0 -83.38 -126.35 0c-25.6,0 -38.36,-14.73 -38.36,-44.14 0,-29.47 12.76,-44.21 38.36,-44.21l126.35 0 0 -90.17 -138.04 0c-25.6,0 -38.41,-14.72 -38.41,-44.19 0,-29.42 12.81,-44.16 38.41,-44.16l180.67 0z"/>
  <path class="fil4" d="M12303.62 38358.54c14.25,-0.81 25.18,3.45 32.82,12.77 7.6,9.33 11.43,21.24 11.43,35.77 0,11.2 -2.64,20.91 -7.97,29.24 -5.34,8.27 -13.35,12.86 -24.02,13.68l-14.91 1.25c-13.13,0.85 -22.65,4.44 -28.49,10.9 -5.84,6.41 -8.83,17.07 -8.83,32l0 255.72c0,18.65 -4.24,32.95 -12.76,42.91 -8.58,9.95 -20.61,14.93 -36.28,14.93 -15.61,0 -27.69,-4.98 -36.22,-14.93 -8.53,-9.96 -12.8,-24.26 -12.8,-42.91l0 -253.81c0,-85.48 39.6,-130.87 118.87,-136.27l19.16 -1.25z"/>
  <path class="fil4" d="M11916.67 38452.48c-27.7,0 -49.49,11.53 -65.29,34.54 -15.79,23.01 -23.72,55.06 -23.72,96.09 0,41.1 7.8,73 23.43,95.81 15.65,22.82 37.51,34.21 65.58,34.21 28.04,0 49.92,-11.39 65.54,-34.21 15.62,-22.81 23.47,-54.71 23.47,-95.81 0,-41.03 -7.85,-73.08 -23.47,-96.09 -15.62,-23.01 -37.5,-34.54 -65.54,-34.54zm0 -95.77c38.02,0 71.34,9.38 99.94,28.27 28.63,18.9 50.89,45.3 66.9,79.36 15.96,33.97 23.98,73.58 23.98,118.77 0,45.64 -7.93,85.34 -23.72,119.16 -15.79,33.77 -38.15,60.03 -66.86,78.68 -28.81,18.66 -62.22,27.99 -100.24,27.99 -38.06,0 -71.35,-9.33 -99.93,-27.99 -28.63,-18.65 -50.91,-44.91 -66.92,-78.68 -15.95,-33.82 -23.97,-73.52 -23.97,-119.16 0,-45.19 8.02,-84.8 23.97,-118.77 16.01,-34.06 38.29,-60.46 66.92,-79.36 28.58,-18.89 61.87,-28.27 99.93,-28.27z"/>
  <path class="fil4" d="M11569.68 38608l-65.04 0c-38.74,0 -58.12,17.85 -58.12,53.54 0,35.2 19.38,52.85 58.12,52.85l65.04 0 0 -106.39zm49.03 -250.07c15.66,0 27.73,4.98 36.22,14.93 8.54,9.94 12.85,24.24 12.85,42.9l0 328.47c0,18.66 -4.31,33.01 -12.85,42.96 -8.49,9.95 -20.73,14.93 -36.73,14.93l-131.18 0c-42.63,0 -75.56,-12.15 -98.87,-36.41 -23.25,-24.24 -34.86,-57.96 -34.86,-101.07 0,-32.76 7,-60.27 21.03,-82.47 14.05,-22.14 34.4,-37.64 61.08,-46.34 -19.94,-6.23 -35.94,-22.16 -48.01,-47.89l-26.62 -55.96c-5.69,-12.44 -8.29,-24.26 -7.77,-35.5 0.54,-11.19 4.34,-20.42 11.43,-27.65 7.12,-7.26 17.67,-10.9 31.5,-10.9 13.82,0 25.12,3.2 33.83,9.67 8.71,6.4 16.43,16.88 23.21,31.38l48.48 103.89c4.26,9.13 9.69,15.45 16.26,18.99 6.61,3.49 14.11,5.3 22.65,5.3l29.32 0 0 -111.4c0,-18.66 4.18,-32.96 12.55,-42.9 8.32,-9.95 20.47,-14.93 36.48,-14.93z"/>
  <path class="fil4" d="M13016.82 38065.55l-65.04 0c-38.74,0 -58.1,17.85 -58.1,53.54 0,35.19 19.36,52.85 58.1,52.85l65.04 0 0 -106.39zm49.03 -250.07c15.66,0 27.69,4.98 36.22,14.93 8.54,9.94 12.81,24.24 12.81,42.9l0 328.47c0,18.66 -4.27,33.01 -12.81,42.96 -8.53,9.95 -20.78,14.93 -36.73,14.93l-131.18 0c-42.63,0 -75.56,-12.15 -98.86,-36.41 -23.26,-24.24 -34.91,-57.97 -34.91,-101.07 0,-32.76 7.04,-60.27 21.09,-82.47 14.03,-22.14 34.38,-37.64 61.01,-46.3 -19.89,-6.27 -35.89,-22.2 -47.96,-47.93l-26.62 -55.96c-5.73,-12.44 -8.33,-24.26 -7.77,-35.5 0.54,-11.19 4.34,-20.42 11.43,-27.65 7.12,-7.27 17.62,-10.9 31.5,-10.9 13.82,0 25.12,3.2 33.83,9.67 8.71,6.4 16.39,16.88 23.17,31.37l48.47 103.89c4.32,9.14 9.74,15.46 16.26,19 6.61,3.49 14.17,5.3 22.7,5.3l29.32 0 0 -111.4c0,-18.66 4.17,-32.96 12.5,-42.9 8.37,-9.95 20.52,-14.93 36.53,-14.93z"/>
  <path class="fil4" d="M12689.54 37815.48c15.61,0 27.68,4.98 36.27,14.93 8.49,9.94 12.75,24.49 12.75,43.56l0 332.84c0,19.04 -4.26,33.58 -12.75,43.53 -8.59,9.95 -20.66,14.93 -36.27,14.93 -15.62,0 -27.7,-4.98 -36.28,-14.93 -8.49,-9.95 -12.75,-24.49 -12.75,-43.53l0 -332.84c0,-19.07 4.18,-33.62 12.55,-43.56 8.32,-9.95 20.47,-14.93 36.48,-14.93z"/>
  <path class="fil4" d="M12391.05 37910.03c-27.7,0 -49.49,11.52 -65.29,34.53 -15.79,23.05 -23.72,55.05 -23.72,96.1 0,41.1 7.85,73 23.43,95.81 15.65,22.82 37.51,34.25 65.58,34.25 28.08,0 49.92,-11.43 65.54,-34.25 15.66,-22.81 23.47,-54.71 23.47,-95.81 0,-41.05 -7.81,-73.05 -23.47,-96.1 -15.62,-23.01 -37.46,-34.53 -65.54,-34.53zm0 -95.77c38.07,0 71.34,9.42 99.94,28.27 28.63,18.9 50.91,45.36 66.9,79.36 15.96,33.97 23.98,73.58 23.98,118.77 0,45.64 -7.9,85.34 -23.72,119.16 -15.79,33.77 -38.15,60.02 -66.86,78.68 -28.81,18.66 -62.17,27.99 -100.24,27.99 -38.02,0 -71.35,-9.33 -99.93,-27.99 -28.63,-18.66 -50.91,-44.91 -66.92,-78.68 -15.95,-33.82 -23.97,-73.52 -23.97,-119.16 0,-45.19 8.02,-84.8 23.97,-118.77 16.01,-34 38.29,-60.46 66.92,-79.36 28.58,-18.85 61.91,-28.27 99.93,-28.27z"/>
  <path class="fil4" d="M12158.11 37816.1c14.2,-0.8 25.14,3.45 32.82,12.78 7.58,9.28 11.43,21.24 11.43,35.78 0,11.2 -2.65,20.91 -7.98,29.18 -5.34,8.32 -13.36,12.87 -24.03,13.73l-14.89 1.2c-13.14,0.85 -22.65,4.49 -28.51,10.95 -5.87,6.4 -8.83,17.07 -8.83,32l0 255.68c0,18.65 -4.27,33 -12.76,42.95 -8.57,9.94 -20.64,14.92 -36.26,14.92 -15.61,0 -27.7,-4.98 -36.27,-14.92 -8.5,-9.95 -12.77,-24.3 -12.77,-42.95l0 -253.82c0,-85.42 39.61,-130.82 118.89,-136.23l19.16 -1.25z"/>
  <path class="fil4" d="M11783.94 38140.21l51.17 -142.45 -103.44 0 51.21 142.45 1.06 0zm150.85 -324.74c16.68,0 28.97,6.64 36.73,19.94 7.85,13.25 7.85,29.85 0,49.74l-132.7 333.46c-6.36,16.16 -14.21,27.97 -23.47,35.44 -9.17,7.46 -20.01,11.19 -32.47,11.19 -12.12,0 -22.79,-3.73 -32,-11.19 -9.22,-7.47 -17.07,-19.28 -23.43,-35.44l-132.75 -333.46c-8.16,-20.33 -8.53,-37.02 -1.07,-50.08 7.46,-13.05 19.21,-19.6 35.16,-19.6 14.25,0 25.17,3.77 32.82,11.24 7.63,7.45 14.5,19.45 20.53,36.05l17.06 47.27 167.87 0 17.11 -47.27c6.35,-16.6 12.93,-28.6 19.72,-36.05 6.74,-7.47 17.02,-11.24 30.89,-11.24z"/>
  <path class="fil4" d="M11499.88 37815.48c30.55,0 45.78,18.03 45.78,54.1l0 339.05c0,18.26 -3.88,32.28 -11.68,41.99 -7.82,9.77 -18.15,14.65 -30.95,14.65 -11.34,0 -20.13,-2.5 -26.36,-7.47 -6.2,-4.98 -13.41,-13.29 -21.59,-24.87l-154.06 -224.58 0 203.39c0,35.68 -15.09,53.53 -45.31,53.53 -14.89,0 -26.19,-4.65 -33.84,-14.02 -7.6,-9.33 -11.43,-22.48 -11.43,-39.51l0 -344.6c0,-15.78 3.54,-28.32 10.67,-37.64 7.09,-9.33 16.64,-14.02 28.76,-14.02 12.07,0 21.54,2.48 28.55,7.46 6.9,4.97 14.3,13.3 22.1,24.88l154.04 224.58 0 -202.82c0,-36.07 15.1,-54.1 45.32,-54.1z"/>
  <path class="fil4" d="M10973.24 38140.21l51.17 -142.45 -103.44 0 51.21 142.45 1.06 0zm150.84 -324.74c16.73,0 28.98,6.64 36.74,19.94 7.85,13.25 7.85,29.85 0,49.74l-132.71 333.46c-6.35,16.16 -14.2,27.97 -23.47,35.44 -9.16,7.46 -20,11.19 -32.46,11.19 -12.12,0 -22.79,-3.73 -31.97,-11.19 -9.25,-7.47 -17.1,-19.28 -23.47,-35.44l-132.75 -333.46c-8.15,-20.33 -8.53,-37.02 -1.06,-50.08 7.46,-13.05 19.2,-19.6 35.16,-19.6 14.25,0 25.17,3.77 32.82,11.24 7.68,7.45 14.5,19.45 20.51,36.05l17.08 47.27 167.87 0 17.1 -47.27c6.36,-16.6 12.93,-28.6 19.71,-36.05 6.75,-7.47 17.04,-11.24 30.9,-11.24z"/>
  <path class="fil4" d="M10600.13 37814.25c21.67,0 43.94,2.57 66.86,7.79 22.91,5.17 42.54,12.53 58.92,22.05 9.61,5.41 16.35,12.68 20.27,21.82 3.89,9.08 5.3,18.51 4.23,28.25 -1.07,9.77 -4.06,18.47 -9.05,26.13 -4.99,7.65 -11.57,12.87 -19.71,15.54 -8.2,2.73 -17.45,1.38 -27.73,-4.01 -13.49,-7.89 -28.81,-13.83 -45.83,-17.75 -17.03,-3.92 -33.04,-5.89 -47.96,-5.89 -23.48,0 -39.91,3.64 -49.34,10.87 -9.39,7.26 -14.08,16.31 -14.08,27.07 0,9.56 3.24,17.22 9.82,23.01 6.57,5.78 18.22,10.81 34.95,14.92l62.34 15.55c67.5,17.03 101.25,58.27 101.25,123.8 0,28.65 -6.65,53.71 -19.97,75.28 -13.35,21.57 -31.87,38.28 -55.68,50.09 -23.85,11.86 -51.55,17.74 -83.17,17.74 -18.48,0 -37.2,-2.4 -56.24,-7.17 -18.98,-4.74 -35.45,-11.92 -49.28,-21.48 -10.67,-6.6 -17.42,-15.64 -20.22,-27.03 -2.91,-11.43 -2.53,-22.52 1.01,-33.29 3.55,-10.81 9.86,-18.66 18.91,-23.63 9.1,-4.98 20.56,-4.17 34.39,2.49 10.67,5.4 22.36,9.42 35.21,12.15 12.76,2.67 25.22,4.01 37.29,4.01 19.93,0 35.16,-4.01 45.83,-12.15 10.67,-8.08 16,-18.56 16,-31.37 0,-9.14 -3.2,-16.6 -9.6,-22.44 -6.4,-5.79 -17.75,-10.76 -34.1,-14.92l-61.82 -15.55c-68.62,-16.98 -102.89,-57.26 -102.89,-120.68 0,-28.61 6.58,-53.53 19.77,-74.63 13.1,-21.19 31.62,-37.54 55.38,-49.16 23.81,-11.58 51.88,-17.41 84.24,-17.41z"/>
  <path class="fil5" d="M13962.37 39217.3c-10.15,-12.38 -25.82,-17.79 -35.93,-30.09 8.32,-9.03 60.33,-63.94 68.18,-72.27 44.6,-47.45 89.07,-94.99 133.95,-142.07 6.62,-6.93 9.13,-13.97 8.88,-24.01 -0.6,-20.56 -0.17,-41.18 -0.17,-65.44 -5.16,5.13 -8.66,8.42 -12,11.96 -89.82,95.58 -179.68,191.14 -269.45,286.72 -18.1,19.28 -24.63,19.51 -43.87,1.25 -31.92,-30.33 -63.85,-60.7 -95.8,-90.98 -3.41,-3.31 -6.99,-6.32 -10.84,-9.76 -45.36,55.97 -90.08,111.17 -134.84,166.41 -35.54,43.86 -71,87.82 -106.59,131.69 -13.35,16.55 -21.12,17.7 -37.56,5.65 -8.74,-6.41 -17.35,-12.98 -26.11,-19.38 -0.59,-0.43 -1.66,-0.05 -4.14,-0.05 -4.73,54.39 -9.51,108.92 -14.55,166.03 47.11,-16.07 92.52,-31.56 140.95,-48.07 -9.43,-7.51 -16.73,-13.01 -23.77,-18.9 -14.04,-11.62 -16.17,-26.11 -4.74,-40.65 63.93,-81.37 127.93,-162.49 192.19,-243.48 10.92,-13.78 21.59,-13.4 35.5,-0.23 36.83,34.86 73.57,69.83 111.12,105.46 33.97,-36.01 67.63,-71.74 102.24,-108.49 9.94,12.11 19.33,23.54 29.52,35.98 -14.33,15.36 -28.07,30.09 -41.93,44.77 -22.42,23.92 -44.9,47.8 -67.34,71.7 -17.33,18.47 -24.2,18.75 -42.89,1.06 -31.57,-29.94 -63.1,-59.99 -94.69,-89.93 -3.75,-3.59 -7.63,-6.98 -12.15,-11.14 -54.96,69.64 -109.2,138.42 -164.12,208.02 14.25,10.87 27.23,21.01 40.5,30.81 8.58,6.32 14.5,14.35 12.97,26.59 -1.66,12.83 -9.52,18.52 -19.97,22.06 -68.71,23.24 -137.31,47.07 -205.97,70.51 -23.31,7.93 -35.8,-4.31 -33.33,-32 6.95,-77.83 13.91,-155.7 20.82,-233.53 2.35,-26.5 18.31,-35.3 37.94,-20.81 15.1,11.14 29.96,22.68 45.61,34.53 22.67,-27.93 44.77,-55.05 66.74,-82.22 58.5,-72.33 117,-144.65 175.51,-216.92 15.15,-18.76 24.11,-19.33 41.34,-2.92 36.1,34.24 72.2,68.49 109.16,103.55 17.06,-18.07 33.96,-35.82 50.69,-53.61 84.91,-90.32 169.75,-180.62 254.53,-271.04 8.24,-8.74 16.39,-16.84 28.68,-11.18 12.79,5.88 14.16,18.17 14.08,31.85 -0.31,44.3 0.3,88.59 -0.47,132.88 -0.09,8.51 -2.61,19.47 -7.64,24.92 -56.58,61.37 -151.82,162.59 -210.24,224.77z"/>
  <path class="fil6" d="M14275.74 37871.3c0,-108.44 0.09,-216.93 -0.08,-325.36 -0.05,-11.15 1.36,-21.73 5.79,-31.53 4.49,-9.9 11.27,-17.6 19.68,-23.58 9.39,-6.7 19.63,-7.85 30.5,-7.32 11.62,0.57 21.12,6.22 29.78,14.06 6.28,5.65 11.92,12.34 17.68,18.75 6.09,6.8 12.12,13.83 18.18,20.76 7.2,8.23 14.38,16.5 21.59,24.73 5.5,6.23 11.17,12.25 16.68,18.42 6.87,7.79 13.62,15.68 20.57,23.44 4.09,4.64 8.44,9.09 12.58,13.68 3.54,3.92 7.04,7.89 10.55,11.81 6.57,7.47 13.18,14.88 19.75,22.39 6.31,7.17 12.51,14.45 18.77,21.67 2.99,3.4 6.03,6.75 9.01,10.14 7.3,8.23 14.51,16.55 21.85,24.78 8.74,9.81 17.62,19.42 26.32,29.23 6.45,7.32 12.64,14.87 19.07,22.14 6.2,7.03 12.68,13.83 18.91,20.76 3.21,3.49 6.14,7.13 9.27,10.67 7.51,8.42 15.05,16.78 22.52,25.26 6.27,7.08 12.42,14.21 18.65,21.29 5.97,6.79 11.99,13.49 18.01,20.27 6.57,7.47 13.14,15.02 19.8,22.44 6.52,7.32 13.14,14.53 19.7,21.86 5.89,6.56 11.75,13.24 17.68,19.9 9.55,10.81 19.16,21.61 28.76,32.43 7.24,8.32 14.55,16.6 21.84,24.93 10.16,11.56 20.31,23.09 30.47,34.63 11.05,12.57 22.07,25.15 33.16,37.64 7.12,7.98 14.5,15.74 21.62,23.73 7.39,8.27 14.6,16.84 21.98,25.15 14.26,16.12 28.55,32.24 42.85,48.31 7.55,8.47 14.55,17.61 18.09,28.99 2.21,7.28 2.77,15.4 2.94,23.2 0.35,12.96 -3.33,24.88 -10.5,34.93 -8.53,12 -19.11,20.66 -33.07,22.42 -6.69,0.82 -13.44,1.44 -20.14,1.44 -188,0.1 -376.05,0.1 -564.06,0.1 -7.51,0 -14.85,-0.82 -22.06,-3.2 -8.32,-2.84 -15.15,-8.33 -21.03,-15.41 -9.44,-11.43 -13.71,-25.16 -13.66,-40.95 0.04,-109.68 0,-219.32 0,-329z"/>
  <path class="fil7" d="M14184.02 37870.03c-234.35,-44.27 -470.41,129.79 -518.62,389.42l106.31 0c55.93,-194.2 239.84,-306.78 412.31,-264.01l0 -125.41z"/>
  <path class="fil7" d="M14184.02 38079.45c-24.72,-8.11 -50.96,-12.47 -77.96,-12.36 -108.39,0.47 -210.89,79.09 -251.66,192.36l124.21 0c8.87,-11.93 19.07,-22.6 30.51,-31.65 59.65,-47.16 123.4,-47.32 174.9,-15.73l0 -132.62z"/>
  <path class="fil7" d="M14137.85 37800.8c0,-11.3 8.02,-20.48 18,-20.48 9.9,0 17.97,9.18 17.97,20.48 0,11.33 -8.07,20.51 -17.97,20.51 -9.98,0 -18,-9.18 -18,-20.51z"/>
  <path class="fil7" d="M14129.96 37673.32c0,-15.72 11.19,-28.46 24.97,-28.46 13.79,0 24.96,12.74 24.96,28.46 0,15.75 -11.17,28.47 -24.96,28.47 -13.78,0 -24.97,-12.72 -24.97,-28.47z"/>
  <path class="fil7" d="M14125.14 37513.34c0,-18.7 13.31,-33.87 29.69,-33.87 16.44,0 29.75,15.17 29.75,33.87 0,18.7 -13.31,33.87 -29.75,33.87 -16.38,0 -29.69,-15.17 -29.69,-33.87z"/>
  <path class="fil7" d="M13984.5 37806.86c-1.58,-11.19 5.12,-21.71 14.94,-23.49 9.76,-1.76 19.03,5.79 20.56,16.98 1.59,11.2 -5.08,21.68 -14.89,23.5 -9.82,1.81 -19.04,-5.85 -20.61,-16.99z"/>
  <path class="fil7" d="M13958.99 37682.42c-2.18,-15.5 7.09,-30.08 20.7,-32.58 13.65,-2.48 26.41,8.04 28.59,23.58 2.21,15.5 -7.09,30.09 -20.66,32.58 -13.61,2.48 -26.4,-8.04 -28.63,-23.58z"/>
  <path class="fil7" d="M13931.99 37525.35c-2.6,-18.47 8.41,-35.83 24.63,-38.79 16.21,-2.97 31.4,9.61 34.05,28.03 2.6,18.5 -8.41,35.82 -24.63,38.79 -16.21,2.97 -31.4,-9.57 -34.05,-28.03z"/>
  <path class="fil7" d="M13843.99 37863.29c-5.21,-9.67 -2.61,-22.24 5.89,-28.18 8.44,-5.92 19.53,-2.91 24.74,6.7 5.2,9.62 2.52,22.29 -5.92,28.22 -8.46,5.94 -19.55,2.93 -24.71,-6.74z"/>
  <path class="fil7" d="M13778.68 37759.43c-7.24,-13.4 -3.58,-30.91 8.15,-39.14 11.78,-8.23 27.15,-4.06 34.35,9.33 7.21,13.4 3.55,30.9 -8.15,39.13 -11.77,8.22 -27.13,4.07 -34.35,-9.32z"/>
  <path class="fil7" d="M13701.01 37626.03c-8.57,-15.93 -4.22,-36.79 9.78,-46.59 13.94,-9.76 32.21,-4.83 40.83,11.11 8.61,15.91 4.22,36.77 -9.73,46.59 -14,9.8 -32.3,4.82 -40.88,-11.11z"/>
  <path class="fil7" d="M13727.69 37979.59c-7.6,-7.32 -8.07,-20.86 -1.12,-30.24 6.96,-9.37 18.74,-11.05 26.33,-3.73 7.59,7.32 8.06,20.86 1.11,30.24 -7,9.37 -18.78,11.04 -26.32,3.73z"/>
  <path class="fil7" d="M13636.8 37904.63c-10.5,-10.14 -11.23,-28.93 -1.54,-41.95 9.64,-13 26.03,-15.35 36.57,-5.17 10.5,10.15 11.22,28.94 1.5,41.96 -9.66,13.01 -26,15.3 -36.53,5.16z"/>
  <path class="fil7" d="M13526.29 37805.81c-12.5,-12.05 -13.32,-34.44 -1.84,-49.94 11.57,-15.49 31.03,-18.22 43.52,-6.17 12.55,12.1 13.32,34.44 1.84,49.94 -11.52,15.5 -30.97,18.23 -43.52,6.17z"/>
  <path class="fil7" d="M13643.38 38119.07c-8.92,-4.97 -12.68,-17.22 -8.32,-27.42 4.31,-10.18 15.1,-14.44 24.02,-9.46 8.92,4.98 12.67,17.22 8.32,27.4 -4.31,10.2 -15.11,14.4 -24.02,9.48z"/>
  <path class="fil7" d="M13539.37 38071.44c-12.41,-6.84 -17.58,-23.87 -11.57,-37.98 6.03,-14.16 20.95,-20.04 33.38,-13.19 12.37,6.88 17.53,23.91 11.51,38.02 -6.01,14.16 -20.95,20.04 -33.32,13.15z"/>
  <path class="fil7" d="M13410.98 38006.5c-14.77,-8.12 -20.91,-28.4 -13.74,-45.24 7.18,-16.79 24.92,-23.83 39.69,-15.64 14.76,8.12 20.9,28.41 13.74,45.25 -7.17,16.79 -24.93,23.82 -39.69,15.63z"/>
  <path class="fil7" d="M13617.17 38246.96c-9.9,-0.09 -17.88,-9.37 -17.8,-20.7 0.14,-11.3 8.24,-20.38 18.18,-20.29 9.95,0.15 17.93,9.37 17.8,20.71 -0.09,11.35 -8.28,20.38 -18.18,20.28z"/>
  <path class="fil7" d="M13505.28 38254.58c-13.78,-0.15 -24.83,-13.01 -24.7,-28.74 0.17,-15.69 11.43,-28.33 25.22,-28.14 13.78,0.15 24.87,13.02 24.7,28.76 -0.12,15.69 -11.43,28.26 -25.22,28.12z"/>
  <path class="fil7" d="M13364.85 38258.39c-16.38,-0.19 -29.52,-15.5 -29.36,-34.21 0.14,-18.7 13.62,-33.66 30,-33.47 16.39,0.18 29.58,15.49 29.41,34.19 -0.22,18.71 -13.62,33.68 -30.05,33.49z"/>
  <path class="fil5" d="M13967.7 38541.12c-9.76,76.43 -36.01,149.72 -74.72,211.09l96.66 0c34.81,-71.7 57.35,-150.54 65.37,-231.13 4.91,-49.75 3.76,-100.32 -2.65,-149.87l-91.18 0c11.35,54.1 13.86,112.51 6.52,169.91z"/>
  <path class="fil5" d="M14087.88 38371.22c6.2,51.09 7.18,103.13 2.1,154.36 -7.82,78.64 -28.55,155.6 -60.42,226.6l90.16 0c30.64,-78.6 50.35,-161.59 57.43,-245.68 1.5,-17.32 2.35,-34.68 2.77,-52.14l0 -37.55c-0.34,-14.45 -0.98,-28.94 -2.08,-43.38 -1.2,-1.34 -2.82,-2.21 -4.66,-2.21l-85.3 0z"/>
  <path class="fil5" d="M13932.86 38535.35c7.09,-55.78 4.24,-112.51 -7.93,-164.12l-117.17 0c21.63,10.81 36.73,34.63 42.93,69.11 5.97,32.72 3.96,74.54 -5.56,117.69 -9.38,42.8 -25.25,83.03 -44.75,113.26 -23.51,36.46 -51.21,56.93 -79.98,59.13 -21.79,1.76 -40.02,-6.27 -52.35,-23.11 -25.94,-35.35 -19.29,-98.44 -9.13,-145.12 8.49,-38.94 22.87,-80.8 39.47,-114.81 18.86,-38.85 38.02,-63.67 56.92,-73.86 1.62,-0.85 3.21,-1.57 4.83,-2.29l-111.46 0c-19.12,46.01 -35.71,92.46 -48.44,136.9 -21.97,76.67 -32.85,143.74 -32.42,199.43 0.17,16.2 1.92,30.99 4.99,44.62l275.61 0c44.3,-60.33 74.25,-136.61 84.44,-216.83z"/>
  <path class="fil5" d="M13336.85 38744.48c0,4.26 2.99,7.7 6.74,7.7l68.58 0c0.08,-2.1 0,-4.07 0.12,-6.17 5.21,-95.09 25.47,-198.41 62.09,-315.89 6.01,-19.38 12.59,-39.04 19.5,-58.89l-76.43 0c-0.81,2.5 -1.7,4.98 -2.51,7.46 -37.81,116.49 -63.45,223.77 -78.09,325.56l0 40.23z"/>
  <path class="fil5" d="M14179.93 38744.48l0 -58.84c-6.4,22.45 -13.66,44.64 -21.76,66.54l15.02 0c3.72,0 6.74,-3.44 6.74,-7.7z"/>
  <path class="fil5" d="M13729.18 38466.83c-15.1,31.03 -28.29,69.35 -36.05,105.04 -11.28,51.7 -10.59,92.69 1.92,109.68 3.11,4.3 8.95,9.95 23.04,8.8 22.83,-1.72 41.94,-24.26 53.89,-42.86 16.81,-26.12 30.72,-61.33 39.04,-99.21 8.19,-37.45 10.08,-72.9 5.21,-99.83 -4.56,-25.2 -14.29,-39.6 -28.84,-42.9 -4.19,-0.91 -9.99,0.48 -17.07,4.3 -8.79,4.73 -24.24,22.14 -41.14,56.98z"/>
  <path class="fil5" d="M13336.85 38378.91l0 142.87c12.07,-48.64 26.37,-98.72 43.06,-150.57l-36.32 0c-3.75,0 -6.74,3.44 -6.74,7.7z"/>
  <path class="fil5" d="M13447.44 38748.51c-0.08,1.19 -0.12,2.48 -0.17,3.67l89.32 0c-2.48,-13.91 -3.85,-28.69 -3.97,-44.24 -0.47,-60.03 11.01,-131.45 34.13,-212.25 11.57,-40.51 26.37,-82.56 43.15,-124.46l-78.18 0c-8.71,24.49 -16.77,48.6 -24.15,72.33 -35.5,113.9 -55.17,213.68 -60.13,304.95z"/>
  <polygon class="fil4" points="13010.19,37510.82 13010.19,37488 13115.51,37488 13115.51,37648 13012.88,37648 13012.88,37625.47 13091.49,37625.47 13091.49,37580.42 13021.59,37580.42 13021.59,37558.17 13091.49,37558.17 13091.49,37510.82 "/>
  <polygon class="fil4" points="12829.01,37488 12829.27,37599.02 12877.75,37507.18 12888.79,37507.18 12937.27,37596.48 12937.27,37488 12960.26,37488 12960.26,37648 12939.78,37648 12882.9,37540.43 12827.05,37648 12806.31,37648 12806.01,37488 "/>
  <path class="fil4" d="M12660.07 37566.6c-6.31,5.83 -9.51,14.16 -9.51,25.06 0,10.9 3.2,19.28 9.51,25.07 6.32,5.83 15.63,8.74 27.82,8.74l31.89 0 0 -67.59 -31.89 0c-12.19,0 -21.5,2.88 -27.82,8.72zm-17.66 66.48c-10.71,-9.95 -16.05,-23.73 -16.05,-41.42 0,-17.85 5.34,-31.72 16.05,-41.67 10.71,-9.99 25.39,-14.92 43.99,-14.92l33.38 0 0 -47.07 23.97 0 0 160.01 -57.35 0c-18.6,0 -33.28,-4.98 -43.99,-14.93z"/>
  <path class="fil4" d="M12491.76 37566.6c-6.31,5.83 -9.51,14.16 -9.51,25.06 0,10.9 3.2,19.28 9.51,25.07 6.33,5.83 15.63,8.74 27.78,8.74l31.88 0 0 -67.59 -31.88 0c-12.15,0 -21.45,2.88 -27.78,8.72zm-10.23 -78.6l30.12 47.89c1.33,-0.19 3.45,-0.29 6.44,-0.29l33.33 0 0 -47.6 24.02 0 0 160.01 -57.35 0c-18.6,0 -33.28,-4.98 -43.99,-14.93 -10.72,-9.95 -16.09,-23.73 -16.09,-41.42 0,-12.19 2.69,-22.63 8.02,-31.24 5.39,-8.65 13.02,-15.16 22.92,-19.46l-33.42 -52.96 26 0z"/>
  <polygon class="fil4" points="12300.08,37510.82 12300.08,37488 12405.38,37488 12405.38,37648 12302.81,37648 12302.81,37625.47 12381.41,37625.47 12381.41,37580.42 12311.47,37580.42 12311.47,37558.17 12381.41,37558.17 12381.41,37510.82 "/>
  <path class="fil4" d="M12240.91 37490.97c10.28,3.48 18.35,8.08 24.07,13.96l-9.35 21.39c-5.64,-5.27 -12.68,-9.48 -21.17,-12.68 -8.49,-3.2 -17.27,-4.79 -26.32,-4.79 -11.02,0 -19.16,2.06 -24.32,6.17 -5.22,4.16 -7.82,9.52 -7.82,16.08 0,5.07 1.54,9.22 4.57,12.38 3.08,3.21 6.91,5.66 11.48,7.32 4.65,1.73 10.88,3.5 18.81,5.36 10.72,2.63 19.43,5.36 26.08,8.18 6.65,2.83 12.33,7.32 17.07,13.39 4.69,6.08 7.04,14.4 7.04,24.92 0,14.25 -5.08,25.79 -15.23,34.54 -10.11,8.7 -23.9,13.11 -41.36,13.11 -8.91,0 -17.54,-1.19 -25.86,-3.54 -8.32,-2.34 -15.44,-5.79 -21.37,-10.29l8.66 -21.95c10.72,8.42 23.82,12.68 39.3,12.68 10.72,0 18.74,-2.16 23.98,-6.36 5.25,-4.26 7.89,-9.71 7.89,-16.46 0,-5.08 -1.53,-9.24 -4.56,-12.44 -3.07,-3.2 -6.92,-5.6 -11.65,-7.32 -4.65,-1.67 -11,-3.48 -18.9,-5.36 -10.84,-2.78 -19.55,-5.6 -26.03,-8.27 -6.53,-2.72 -12.16,-7.13 -16.85,-13.11 -4.66,-6.02 -7.04,-14.11 -7.04,-24.24 0,-14.65 5.07,-26.32 15.18,-34.93 10.16,-8.65 24.12,-12.96 41.95,-12.96 10.83,0 21.47,1.72 31.75,5.22z"/>
  <path class="fil4" d="M12023.51 37547.71l29.19 75.54 29.4 -75.54 -58.59 0zm-8.36 -21.71l75.31 0 14.86 -38.03 23.51 0 -64.27 160.05 -23.76 0 -64.49 -160.05 24.21 0 14.63 38.03z"/>
  <path class="fil4" d="M11928.96 37490.97c10.28,3.48 18.35,8.08 24.11,13.96l-9.39 21.39c-5.59,-5.27 -12.63,-9.48 -21.12,-12.68 -8.54,-3.2 -17.28,-4.79 -26.37,-4.79 -11,0 -19.12,2.06 -24.32,6.17 -5.17,4.16 -7.82,9.52 -7.82,16.08 0,5.07 1.59,9.22 4.61,12.38 3.04,3.21 6.87,5.66 11.48,7.32 4.66,1.73 10.89,3.5 18.82,5.36 10.72,2.63 19.38,5.36 26.03,8.18 6.66,2.83 12.38,7.32 17.12,13.39 4.64,6.08 7.04,14.4 7.04,24.92 0,14.25 -5.08,25.79 -15.24,34.54 -10.11,8.7 -23.89,13.11 -41.39,13.11 -8.87,0 -17.53,-1.19 -25.82,-3.54 -8.32,-2.34 -15.44,-5.79 -21.42,-10.29l8.66 -21.95c10.72,8.42 23.82,12.68 39.3,12.68 10.72,0 18.74,-2.16 23.99,-6.36 5.28,-4.26 7.9,-9.71 7.9,-16.46 0,-5.08 -1.5,-9.24 -4.53,-12.44 -3.07,-3.2 -6.95,-5.6 -11.65,-7.32 -4.69,-1.67 -11.02,-3.48 -18.9,-5.36 -10.89,-2.78 -19.58,-5.6 -26.08,-8.27 -6.52,-2.72 -12.12,-7.13 -16.81,-13.11 -4.7,-6.02 -7.04,-14.11 -7.04,-24.24 0,-14.65 5.04,-26.32 15.19,-34.93 10.16,-8.65 24.11,-12.96 41.9,-12.96 10.89,0 21.47,1.72 31.75,5.22z"/>
  <polygon class="fil4" points="11606.55,37510.82 11606.55,37488 11711.87,37488 11711.87,37648 11609.25,37648 11609.25,37625.47 11687.84,37625.47 11687.84,37580.42 11617.94,37580.42 11617.94,37558.17 11687.84,37558.17 11687.84,37510.82 "/>
  <path class="fil4" d="M11547.34 37490.97c10.28,3.48 18.35,8.08 24.11,13.96l-9.39 21.39c-5.59,-5.27 -12.63,-9.48 -21.12,-12.68 -8.54,-3.2 -17.28,-4.79 -26.38,-4.79 -11.01,0 -19.11,2.06 -24.31,6.17 -5.17,4.16 -7.81,9.52 -7.81,16.08 0,5.07 1.58,9.22 4.6,12.38 3.04,3.21 6.87,5.66 11.48,7.32 4.66,1.73 10.89,3.5 18.78,5.36 10.75,2.63 19.41,5.36 26.07,8.18 6.66,2.83 12.38,7.32 17.11,13.39 4.65,6.08 7.04,14.4 7.04,24.92 0,14.25 -5.07,25.79 -15.23,34.54 -10.11,8.7 -23.9,13.11 -41.39,13.11 -8.88,0 -17.54,-1.19 -25.82,-3.54 -8.32,-2.34 -15.44,-5.79 -21.42,-10.29l8.66 -21.95c10.71,8.42 23.81,12.68 39.3,12.68 10.72,0 18.74,-2.16 23.99,-6.36 5.28,-4.26 7.88,-9.71 7.88,-16.46 0,-5.08 -1.48,-9.24 -4.56,-12.44 -3.03,-3.2 -6.91,-5.6 -11.61,-7.32 -4.69,-1.67 -11,-3.48 -18.9,-5.36 -10.88,-2.78 -19.59,-5.6 -26.07,-8.27 -6.53,-2.72 -12.12,-7.13 -16.81,-13.11 -4.69,-6.02 -7.04,-14.11 -7.04,-24.24 0,-14.65 5.03,-26.32 15.14,-34.93 10.2,-8.65 24.16,-12.96 41.95,-12.96 10.89,0 21.47,1.72 31.75,5.22z"/>
  <polygon class="fil4" points="11388.52,37625.5 11436.5,37625.5 11436.5,37648.02 11316.59,37648.02 11316.59,37625.5 11364.55,37625.5 11364.55,37487.97 11388.52,37487.97 "/>
  <path class="fil4" d="M11204.89 37547.71l29.19 75.54 29.4 -75.54 -58.59 0zm-8.41 -21.71l75.36 0 14.85 -38.03 23.52 0 -64.27 160.05 -23.77 0 -64.48 -160.05 24.2 0 14.59 38.03z"/>
  <polygon class="fil4" points="11103.3,37625.5 11151.26,37625.5 11151.26,37648.02 11031.35,37648.02 11031.35,37625.5 11079.31,37625.5 11079.31,37487.97 11103.3,37487.97 "/>
  <path class="fil4" d="M10919.66 37547.71l29.19 75.54 29.39 -75.54 -58.58 0zm-8.41 -21.71l75.36 0 14.84 -38.03 23.51 0 -64.26 160.05 -23.77 0 -64.47 -160.05 24.19 0 14.6 38.03z"/>
  <polygon class="fil4" points="10834.4,37648.01 10810.41,37648.01 10810.41,37510.83 10735.06,37510.83 10735.06,37488.01 10834.4,37488.01 "/>
  <polygon class="fil4" points="10589.46,37510.82 10589.46,37488 10694.73,37488 10694.73,37648 10592.15,37648 10592.15,37625.47 10670.74,37625.47 10670.74,37580.42 10600.81,37580.42 10600.81,37558.17 10670.74,37558.17 10670.74,37510.82 "/>
  <path class="fil4" d="M10530.24 37490.97c10.28,3.48 18.35,8.08 24.07,13.96l-9.35 21.39c-5.59,-5.27 -12.68,-9.48 -21.12,-12.68 -8.54,-3.2 -17.28,-4.79 -26.37,-4.79 -11,0 -19.16,2.06 -24.32,6.17 -5.2,4.16 -7.82,9.52 -7.82,16.08 0,5.07 1.59,9.22 4.61,12.38 3.04,3.21 6.87,5.66 11.48,7.32 4.61,1.73 10.84,3.5 18.79,5.36 10.75,2.63 19.41,5.36 26.06,8.18 6.65,2.83 12.38,7.32 17.12,13.39 4.64,6.08 6.99,14.4 6.99,24.92 0,14.25 -5.03,25.79 -15.19,34.54 -10.15,8.7 -23.94,13.11 -41.39,13.11 -8.87,0 -17.54,-1.19 -25.85,-3.54 -8.29,-2.34 -15.41,-5.79 -21.39,-10.29l8.66 -21.95c10.72,8.42 23.82,12.68 39.3,12.68 10.72,0 18.74,-2.16 23.99,-6.36 5.28,-4.26 7.9,-9.71 7.9,-16.46 0,-5.08 -1.5,-9.24 -4.58,-12.44 -3.07,-3.2 -6.9,-5.6 -11.6,-7.32 -4.7,-1.67 -11.02,-3.48 -18.9,-5.36 -10.89,-2.78 -19.6,-5.6 -26.08,-8.27 -6.52,-2.72 -12.16,-7.13 -16.81,-13.11 -4.7,-6.02 -7.04,-14.11 -7.04,-24.24 0,-14.65 5.04,-26.32 15.15,-34.93 10.2,-8.65 24.15,-12.96 41.94,-12.96 10.88,0 21.47,1.72 31.75,5.22z"/>
  <path class="fil8" d="M14375.78 38984.84l74.85 0c1.84,0 3.58,-0.85 4.91,-2.29 1.24,-1.49 2.01,-3.54 2.01,-5.6l0 -22.01 -92.3 0 3.75 23.45c0.55,3.73 3.46,6.45 6.78,6.45z"/>
  <polygon class="fil8" points="14457.21,38670.04 14326.59,38670.04 14365.04,38910.08 14457.21,38910.08 "/>
  <path class="fil3" d="M14551.64 38605.41c0,-1.87 0.64,-3.53 1.74,-4.82 1.12,-1.3 2.65,-2.01 4.27,-2.01l89.78 0c1.58,0 3.12,0.71 4.27,2.01 1.11,1.23 1.75,3.01 1.75,4.82l0 30.09c0,1.82 -0.64,3.54 -1.75,4.83 -1.15,1.25 -2.69,1.97 -4.27,1.97l-89.78 0c-1.62,0 -3.15,-0.67 -4.27,-2.01 -1.1,-1.25 -1.74,-2.97 -1.74,-4.79l0 -30.09zm241.55 0c0,-1.87 0.64,-3.53 1.76,-4.82 1.15,-1.3 2.65,-2.01 4.27,-2.01l89.77 0c1.59,0 3.12,0.71 4.27,2.01 1.07,1.23 1.71,3.01 1.71,4.82l0 30.09c0,1.82 -0.64,3.54 -1.71,4.83 -1.15,1.25 -2.68,1.97 -4.27,1.97l-89.77 0c-1.62,0 -3.12,-0.67 -4.27,-2.01 -1.12,-1.25 -1.76,-2.97 -1.76,-4.79l0 -30.09zm-467.49 64.63l0.94 0 130.57 0 2.08 0 246.09 213.49c2.06,1.82 4.91,2.14 7.21,0.8 2.39,-1.33 3.88,-4.06 3.88,-7.08l0 -194.4 231.32 200.68c2.09,1.82 4.87,2.14 7.26,0.8 2.34,-1.33 3.84,-4.06 3.84,-7.08l0 -215.1 0 -284.19c0,-2.1 -0.72,-4.11 -2.05,-5.59 -1.24,-1.49 -3.03,-2.3 -4.87,-2.3l-669.67 0c-2.01,0 -3.92,1 -5.29,2.82 -1.33,1.77 -1.84,4.12 -1.5,6.41l43.4 284.19c0.56,3.77 3.41,6.55 6.79,6.55z"/>
 </g>
</svg>
